<?xml version="1.0" encoding="UTF-8" standalone="no"?>
<!-- Created with Inkscape (http://www.inkscape.org/) -->

<svg
   xmlns:dc="http://purl.org/dc/elements/1.1/"
   xmlns:cc="http://creativecommons.org/ns#"
   xmlns:rdf="http://www.w3.org/1999/02/22-rdf-syntax-ns#"
   xmlns:svg="http://www.w3.org/2000/svg"
   xmlns="http://www.w3.org/2000/svg"
   xmlns:sodipodi="http://sodipodi.sourceforge.net/DTD/sodipodi-0.dtd"
   xmlns:inkscape="http://www.inkscape.org/namespaces/inkscape"
   width="16in"
   height="9in"
   viewBox="0 0 406.4 228.6"
   version="1.1"
   id="svg8"
   inkscape:version="0.92.4 (5da689c313, 2019-01-14)"
   sodipodi:docname="badI.svg"
   inkscape:export-filename="/home/radcli14/drubble/a/badI.png"
   inkscape:export-xdpi="138"
   inkscape:export-ydpi="138">
  <defs
     id="defs2" />
  <sodipodi:namedview
     id="base"
     pagecolor="#ffffff"
     bordercolor="#666666"
     borderopacity="1.0"
     inkscape:pageopacity="0.0"
     inkscape:pageshadow="2"
     inkscape:zoom="0.32"
     inkscape:cx="622.86812"
     inkscape:cy="685"
     inkscape:document-units="mm"
     inkscape:current-layer="layer1"
     showgrid="false"
     units="in"
     width="16in"
     inkscape:window-width="1290"
     inkscape:window-height="704"
     inkscape:window-x="70"
     inkscape:window-y="27"
     inkscape:window-maximized="1" />
  <metadata
     id="metadata5">
    <rdf:RDF>
      <cc:Work
         rdf:about="">
        <dc:format>image/svg+xml</dc:format>
        <dc:type
           rdf:resource="http://purl.org/dc/dcmitype/StillImage" />
        <dc:title />
      </cc:Work>
    </rdf:RDF>
  </metadata>
  <g
     inkscape:label="Layer 1"
     inkscape:groupmode="layer"
     id="layer1"
     transform="translate(0,-68.4)">
    <rect
       style="opacity:1;fill:#000000;stroke:#ffffff;stroke-width:1;stroke-miterlimit:4;stroke-dasharray:none;stroke-opacity:1"
       id="rect32168"
       width="424.98697"
       height="250.52734"
       x="-9.0950518"
       y="58.875" />
    <path
       inkscape:connector-curvature="0"
       id="path9982"
       d="m 332.69159,253.77488 c -0.19764,0.26999 -0.23855,0.27051 -2.43559,0.0307 -1.22901,-0.13413 -4.11002,-0.49696 -6.40221,-0.80628 -5.48605,-0.74033 -7.6915,-0.87795 -11.15265,-0.69592 -3.71119,0.1952 -5.69517,0.44592 -12.31994,1.55689 -4.39551,0.73712 -7.61011,1.13885 -14.05508,1.75645 -8.70244,0.83392 -12.31863,1.68027 -21.12642,4.94449 -4.04173,1.4979 -5.23931,1.99452 -9.08411,3.76712 -5.14917,2.37395 -7.73616,3.2924 -11.61768,4.12457 -1.88168,0.40342 -2.20998,0.42157 -2.93552,0.16234 -0.62467,-0.22319 -4.0311,-2.50097 -5.48458,-3.66737 -4.87016,-3.90827 -9.78633,-9.14892 -12.83923,-13.68667 -1.35515,-2.01425 -1.6783,-2.6674 -1.68901,-3.41372 -0.01,-0.69712 0.23417,-0.84968 1.8988,-1.18636 7.00241,-1.4163 13.35512,-2.99006 21.37833,-5.29604 5.94901,-1.70983 7.57956,-2.09894 14.11111,-3.36738 6.71836,-1.30472 9.11412,-1.65745 15.45167,-2.27495 5.61362,-0.54697 9.525,-1.16238 9.525,-1.49866 0,-0.0796 -0.63651,-1.09755 -1.41446,-2.26213 -1.66419,-2.49125 -2.06777,-3.26853 -3.87932,-7.47128 -4.45395,-10.33304 -5.64635,-13.95859 -7.05061,-21.43767 -0.35701,-1.90148 -1.27911,-6.63223 -2.04911,-10.51278 -2.3459,-11.82255 -2.69438,-14.33328 -3.17286,-22.86 -0.25621,-4.56583 -0.54082,-7.98037 -0.92327,-11.07723 -0.89455,-7.24325 -1.14576,-11.22448 -1.35148,-21.41992 -0.0897,-4.44253 -0.11831,-4.85041 -0.34955,-4.97416 -0.15166,-0.0812 -3.49831,-0.13536 -8.41035,-0.13618 -9.40509,-0.002 -17.15294,-0.19469 -20.06021,-0.49998 -3.9681,-0.41669 -9.46645,-1.61067 -11.12138,-2.41505 -0.55542,-0.26994 -1.69842,-1.03571 -2.54,-1.70171 -2.07085,-1.63872 -5.82029,-5.42176 -7.17098,-7.23523 -1.01944,-1.36871 -2.04975,-3.19537 -2.04975,-3.63407 0,-0.36609 0.45088,-0.33687 2.5018,0.16214 4.43686,1.07954 4.5297,1.08918 11.82098,1.22706 3.64772,0.069 11.17247,0.0862 16.72166,0.0383 6.96814,-0.0602 11.35478,-0.034 14.17954,0.0845 4.08456,0.17139 4.09035,0.17124 4.28582,-0.12316 0.29867,-0.44982 1.21195,-0.3951 2.21543,0.13277 0.87845,0.46208 0.56149,0.41959 10.47577,1.40413 2.99929,0.29784 4.41617,0.52311 9.34233,1.48537 2.30163,0.4496 2.95288,0.51929 5.50333,0.58895 2.94537,0.0804 11.31404,-0.25996 12.80403,-0.52082 0.40645,-0.0712 1.22395,-0.36584 1.81665,-0.65485 l 1.07762,-0.52547 1.99335,0.004 c 1.92991,0.003 2.02833,0.0182 3.09266,0.46532 1.45202,0.60997 2.8437,1.53361 5.16982,3.43115 3.55055,2.8964 7.08311,6.43018 9.74691,9.75024 1.08965,1.35809 3.03279,4.25877 3.33094,4.97236 0.25547,0.61139 0.25276,1.5283 -0.005,1.74234 -0.11112,0.0922 -0.8255,0.2968 -1.5875,0.45462 -1.37116,0.28397 -1.44801,0.28458 -7.45322,0.0592 -11.21525,-0.42093 -15.77773,-1.12097 -22.26434,-3.41611 -3.6702,-1.29863 -6.54662,-2.19873 -8.7801,-2.74751 -1.70815,-0.4197 -7.06406,-1.39777 -7.65421,-1.39777 -0.46943,0 -0.40154,0.32218 0.30813,1.46247 0.79421,1.2761 1.47963,2.7389 1.58361,3.37968 0.0551,0.33939 -0.0577,0.95849 -0.35609,1.95477 -0.24018,0.80194 -0.50768,2.02958 -0.59445,2.72808 -0.20481,1.64884 -0.37184,17.19538 -0.24484,22.78944 0.0562,2.47558 0.22478,5.65265 0.39685,7.47889 0.2037,2.16213 0.33924,5.0657 0.42484,9.10167 0.21511,10.14161 0.49431,12.51221 2.67583,22.71889 0.61377,2.87161 1.57056,7.44361 2.12619,10.16 0.55564,2.71639 1.32515,6.20047 1.71002,7.74239 0.95591,3.82976 3.04029,9.80532 3.57509,10.24916 0.2774,0.23023 7.02327,-0.31796 9.03836,-0.73448 2.22926,-0.46079 4.74546,-0.41856 8.47516,0.14224 4.13483,0.62172 5.12826,1.09793 9.1562,4.3891 6.02132,4.91995 11.72084,11.36084 13.31023,15.0416 0.57898,1.34083 0.64025,1.64137 0.40119,1.96794 z m -72.47795,-39.9974 c -0.55723,2.60539 -1.44493,4.28114 -3.17686,5.99723 -2.3807,2.35891 -5.43038,3.96674 -11.64563,6.13973 -5.98873,2.0938 -9.68762,2.7437 -18.06222,3.17359 -2.28953,0.11752 -5.90903,0.3176 -8.04334,0.44463 -5.3729,0.31976 -5.23594,0.32524 -6.49911,-0.25988 -1.50011,-0.69488 -2.30177,-1.2349 -4.79305,-3.22865 -2.41966,-1.93645 -7.28087,-6.69755 -9.06667,-8.87998 -2.35551,-2.87865 -4.09835,-5.7092 -4.27902,-6.94958 -0.12531,-0.86027 -0.023,-0.89062 2.08383,-0.61794 1.87906,0.2432 7.08626,0.52766 7.41986,0.40534 0.33617,-0.12327 0.17222,-0.45677 -0.69188,-1.40751 -1.22664,-1.34962 -2.77628,-3.30098 -3.67941,-4.63323 -2.19515,-3.23822 -2.81533,-5.06389 -3.49625,-10.29208 -0.43595,-3.34725 -1.06756,-6.92303 -1.76321,-9.98196 -1.18814,-5.22462 -2.76478,-11.90354 -3.18993,-13.51304 -0.60966,-2.30806 -6.36649,-19.59518 -7.27843,-21.85634 -1.10362,-2.73637 -1.28059,-4.74828 -0.47506,-5.40062 0.76728,-0.62135 5.64402,-0.84233 7.89219,-0.3576 2.38622,0.51449 6.40056,1.87294 9.68227,3.27644 2.80482,1.19956 15.57831,7.1726 17.92221,8.38065 8.25491,4.25458 17.95025,11.5105 25.54875,19.12052 1.55645,1.55879 3.38278,3.50444 4.05853,4.32365 7.20437,8.73392 9.68416,13.71729 10.80976,21.7233 0.96483,6.86256 1.22503,12.04458 0.72267,14.39333 z m -19.40512,-28.15167 c -0.48308,-3.76097 -0.97488,-6.55502 -1.51231,-8.59177 -0.43336,-1.64231 -0.45552,-1.68649 -1.06181,-2.11666 -1.86224,-1.32128 -6.01027,-3.38315 -12.67137,-6.29856 -7.86804,-3.44366 -11.1052,-4.59098 -14.53244,-5.15061 -2.85886,-0.46682 -5.27182,-0.11506 -6.19301,0.90282 -0.35076,0.38759 -0.6848,2.38439 -0.56914,3.40213 0.23509,2.06847 1.90328,7.96691 3.89173,13.76043 1.3903,4.05077 1.91329,5.89707 4.19704,14.81667 1.5908,6.21324 2.22983,9.05832 2.60731,11.60815 0.1179,0.79648 0.25312,1.51085 0.30049,1.5875 0.12468,0.20172 0.39837,0.17876 2.5648,-0.21515 2.70175,-0.49126 5.18897,-1.21543 8.088,-2.35488 7.98838,-3.1398 12.60243,-6.5712 14.44823,-10.74489 0.30474,-0.68905 0.54546,-1.45271 0.85203,-2.70295 0.16623,-0.67803 -0.0719,-5.27374 -0.40955,-7.90223 z m -33.8109,48.78917 c -0.27148,0.46611 -1.04221,0.30008 -3.00465,-0.64724 -2.11414,-1.02055 -6.33058,-3.42192 -9.0928,-5.17858 -6.2216,-3.95669 -12.2969,-9.43711 -17.5144,-15.79946 -3.35081,-4.08605 -7.27338,-10.08286 -9.84187,-15.04621 l -1.25066,-2.41677 -1.89673,-1.51396 c -2.15546,-1.72048 -2.26793,-1.76001 -5.01258,-1.76147 -2.22873,-0.001 -4.01206,0.54878 -5.31832,1.64013 -1.98998,1.66258 -3.53978,4.85812 -4.54029,9.36162 -0.49277,2.21808 -0.60598,3.4161 -0.3434,3.63402 0.41271,0.34252 3.64328,0.76163 6.46257,0.83841 l 2.75166,0.0749 1.44798,-0.57985 c 2.23077,-0.89333 4.78425,-1.62035 5.67813,-1.61668 0.9322,0.004 1.102,0.0874 3.50306,1.72436 2.83291,1.93137 4.58694,3.42922 7.93924,6.77971 3.40891,3.40707 5.04626,5.34452 7.0242,8.31166 1.29453,1.94194 1.34985,2.05679 1.40458,2.91632 0.0681,1.06981 0.20286,0.96916 -2.65552,1.98361 -1.85639,0.65883 -1.94822,0.67637 -3.59834,0.6873 -0.93133,0.006 -2.77283,-0.10186 -4.09222,-0.24007 -8.32407,-0.87191 -9.31985,-1.08737 -14.31486,-3.0973 -7.90773,-3.18196 -12.11863,-5.72867 -17.43075,-10.54193 -4.88531,-4.42652 -9.30112,-9.59871 -10.92236,-12.79322 -1.08499,-2.13786 -1.18754,-2.77922 -0.80147,-5.01251 0.11245,-0.65046 0.39925,-2.63125 0.63734,-4.40176 0.53965,-4.013 0.98074,-6.1277 1.78624,-8.56367 1.98765,-6.01103 4.04108,-7.66341 9.97108,-8.02362 2.273,-0.13807 5.15266,-0.0135 6.09812,0.26387 2.27808,0.66826 5.61955,3.04005 9.86254,7.00051 1.07098,0.99966 2.04592,1.83993 2.16653,1.86726 0.18745,0.0425 0.20484,-0.0702 0.11981,-0.77611 -0.0547,-0.45419 -0.15898,-1.3338 -0.23172,-1.95469 -0.0727,-0.62089 -0.13316,-3.41489 -0.13428,-6.20889 -0.003,-6.40267 -0.22765,-12.63744 -0.46434,-12.86204 -0.31809,-0.30184 -6.95331,-0.77882 -12.51799,-0.89987 -5.93486,-0.1291 -10.59266,-0.001 -15.09889,0.41402 -5.60485,0.51667 -8.23595,0.60506 -16.08666,0.54041 -8.29464,-0.0683 -7.92746,-0.0386 -13.75835,-1.11185 -4.261231,-0.78431 -5.113981,-1.17779 -8.569541,-3.95417 -5.590468,-4.49169 -11.179122,-10.726 -12.778182,-14.25445 -0.670397,-1.47929 -0.70412,-1.92372 -0.161103,-2.12318 0.249261,-0.0915 2.690568,0.36537 7.609378,1.42421 5.350767,1.15182 9.121357,1.49815 16.227788,1.49052 5.12955,-0.006 7.08572,-0.1261 12.3991,-0.76433 5.89591,-0.70821 8.15027,-0.86231 13.77702,-0.94171 4.69916,-0.0663 5.82462,-0.0379 9.10167,0.22979 2.05669,0.168 5.96194,0.36372 8.67833,0.43494 4.98033,0.13059 5.85672,0.2089 7.17769,0.64142 5.11364,1.67436 15.02812,10.78352 20.18168,18.5424 1.17288,1.76582 1.79639,2.91129 2.39327,4.39673 1.25046,3.11199 1.44816,5.25288 1.27497,13.80661 -0.19278,9.52142 -0.14692,15.2172 0.14193,17.62913 0.46746,3.90336 2.13433,9.12937 4.18396,13.11771 l 1.15166,2.24096 1.19271,0.53146 c 1.55452,0.69267 2.93674,1.61682 5.26831,3.52241 6.1679,5.04098 11.80471,11.46214 13.45373,15.32575 0.56865,1.33236 0.57383,1.3566 0.366,1.71342 z m -76.489,-14.31624 c -0.90271,1.8237 -3.15233,2.33821 -13.38747,3.0619 -3.61992,0.25594 -3.44544,0.23791 -8.96055,0.92614 -8.174641,1.02011 -7.89994,1.00153 -15.804461,1.06953 -4.035782,0.0347 -7.46977,0.0907 -7.631089,0.12433 -0.16132,0.0336 -0.366333,0.22146 -0.455586,0.41735 -0.214313,0.47036 -0.729101,0.46723 -1.808826,-0.011 -0.779809,-0.3454 -0.884929,-0.35794 -1.773351,-0.21167 -1.274442,0.20982 -2.167014,0.19565 -2.625659,-0.0417 -0.832735,-0.43096 -4.226332,-2.83032 -5.64799,-3.99327 -1.839574,-1.50481 -5.399305,-5.04565 -7.278154,-7.23953 -1.816272,-2.12081 -3.357246,-4.3101 -4.022615,-5.715 -1.051695,-2.22063 -1.029327,-2.25778 1.359346,-2.25778 h 1.80281 l -0.04432,-1.905 c -0.02689,-1.15576 0.03565,-2.45999 0.159021,-3.31611 0.161789,-1.12275 0.190051,-2.70206 0.138296,-7.72844 l -0.06505,-6.31732 -0.48203,-0.80049 c -0.623563,-1.03553 -0.615947,-1.55059 0.04964,-3.35709 0.492689,-1.33723 0.518561,-1.49237 0.494172,-2.96333 -0.05107,-3.08044 -0.863296,-10.00698 -1.886363,-16.08667 -0.874268,-5.19544 -1.444484,-7.89196 -2.804952,-13.26445 -0.687867,-2.71639 -1.515364,-6.20084 -1.838882,-7.74323 -0.685636,-3.2688 -0.808669,-3.65503 -1.561677,-4.9026 -0.43115,-0.7143 -0.566617,-1.08847 -0.576744,-1.593 -0.0073,-0.36268 0.02219,-0.69484 0.0655,-0.73815 0.243517,-0.24352 1.153545,-0.054 2.229922,0.46434 3.185184,1.53391 8.559411,6.33499 12.849088,11.47875 1.097006,1.31543 2.730031,3.80897 3.492184,5.33238 1.274371,2.54726 1.477774,3.2748 2.059808,7.36763 0.204184,1.4358 0.524031,3.4043 0.71077,4.37444 0.395163,2.05292 1.089042,6.27036 1.34063,8.14844 0.09612,0.7175 0.24595,1.36363 0.33296,1.43584 0.09941,0.0825 0.970404,0.007 2.343671,-0.20345 3.045657,-0.46651 7.633642,-0.91416 9.36924,-0.91416 6.61545,0 14.243671,4.21464 22.708571,12.54664 4.57023,4.49847 8.16065,8.88141 10.89994,13.30587 1.94688,3.14458 3.49832,7.34681 5.4167,14.67173 1.25287,4.78385 1.34841,5.53787 0.8335,6.57813 z m -20.09507,-24.04111 c -0.11907,-0.69278 -0.4539,-2.24384 -0.74407,-3.44682 l -0.52757,-2.18722 -0.50542,-0.16602 c -1.49388,-0.49073 -7.51843,-0.75591 -11.159801,-0.49121 -2.52481,0.18353 -5.90657,0.85347 -7.731109,1.53156 -3.965845,1.47389 -7.181434,3.67248 -8.391677,5.7376 l -0.391155,0.66745 0.183033,4.02274 c 0.106495,2.34058 0.246358,4.10924 0.334471,4.22959 0.129784,0.17727 0.454115,0.18597 2.268106,0.0608 2.491517,-0.17192 4.436101,-0.47904 9.004311,-1.42213 1.84793,-0.38149 4.86418,-0.94592 6.70278,-1.25428 5.523531,-0.92636 7.442181,-1.37852 8.846261,-2.08467 1.07919,-0.54276 1.47864,-0.86853 1.92178,-1.56729 0.48512,-0.76496 0.53121,-1.64526 0.19006,-3.63011 z"
       style="fill:#cccccc;stroke-width:3;stroke:#ffffff;stroke-opacity:1;stroke-miterlimit:4;stroke-dasharray:none" />
    <path
       inkscape:connector-curvature="0"
       id="path9994"
       d="m 346.0236,243.15312 c -0.12184,0.12184 -0.35997,0.25627 -0.52916,0.29874 -0.36298,0.0911 -3.80059,-0.29997 -9.47986,-1.07844 -7.85776,-1.07706 -10.9533,-0.94995 -22.50722,0.92426 -5.57043,0.90361 -6.83542,1.06662 -12.62944,1.62748 -6.42035,0.62149 -7.01958,0.69304 -9.03112,1.07832 -6.66107,1.27582 -14.27715,3.92707 -23.77722,8.27714 -4.47237,2.04791 -7.21178,2.97929 -10.86243,3.69323 -1.71484,0.33535 -2.52445,0.31587 -3.28597,-0.0791 -0.67841,-0.35183 -4.18151,-2.76162 -5.18382,-3.56596 -3.25484,-2.61199 -7.31617,-6.60065 -9.93205,-9.75431 -1.60021,-1.92919 -3.8897,-5.17268 -4.42418,-6.2677 -0.35776,-0.73293 -0.43904,-2.20246 -0.14293,-2.58392 0.10332,-0.1331 0.67327,-0.32431 1.37583,-0.46158 5.75421,-1.12428 13.77376,-3.0813 20.53167,-5.01037 8.21427,-2.3448 8.84618,-2.49698 16.36701,-3.94161 5.68425,-1.09186 8.40103,-1.49266 13.90132,-2.05083 4.88329,-0.49556 9.51382,-1.10396 9.70956,-1.27572 0.0239,-0.021 -0.54167,-0.91815 -1.25681,-1.99375 -1.45328,-2.18581 -2.43023,-4.13904 -4.40145,-8.79991 -2.45048,-5.79404 -3.0205,-7.2444 -3.88194,-9.87739 -1.27354,-3.8925 -1.73958,-5.82446 -2.99551,-12.41778 -0.62831,-3.29847 -1.32444,-6.85447 -1.54696,-7.90222 -2.03603,-9.58718 -2.74588,-14.62099 -3.24355,-23.00112 -0.35429,-5.96595 -0.46899,-7.32247 -0.99043,-11.71222 -0.84521,-7.11565 -1.04826,-10.27578 -1.26828,-19.73992 -0.0747,-3.21226 -0.15338,-5.85517 -0.17492,-5.87312 -0.0215,-0.018 -4.80166,-0.0758 -10.62249,-0.12849 -15.21272,-0.1378 -17.47283,-0.2669 -22.64833,-1.29375 -5.67669,-1.12629 -6.50361,-1.47288 -9.53718,-3.99721 -3.50277,-2.91481 -7.09866,-6.9749 -8.19306,-9.25076 -0.57489,-1.19548 -0.61284,-1.8109 -0.13113,-2.12654 0.32037,-0.2099 0.49195,-0.18829 2.71639,0.34243 3.50396,0.83599 4.5237,0.99906 7.1722,1.14693 1.31939,0.0737 9.92364,0.14083 19.12056,0.14925 9.19691,0.008 17.47067,0.0573 18.38611,0.10853 1.5634,0.0875 1.67582,0.0761 1.85169,-0.18902 0.15626,-0.23556 0.33714,-0.28058 1.09371,-0.27232 0.73071,0.008 1.06939,0.0956 1.74666,0.45183 0.8216,0.43215 0.94299,0.45162 5.49682,0.88172 6.44178,0.60841 8.59112,0.88639 12.00472,1.55256 4.65878,0.90916 5.31865,0.98279 8.81466,0.98371 3.62743,10e-4 11.08062,-0.36316 11.90564,-0.58164 0.30343,-0.0803 0.90668,-0.34729 1.34056,-0.59319 l 0.78887,-0.44711 h 2.39889 2.39888 l 1.21621,0.5819 c 1.60394,0.76739 2.56563,1.43072 5.2749,3.63839 3.3545,2.73344 7.9792,7.45761 10.06628,10.28278 0.79474,1.07581 2.47375,3.60754 2.73472,4.12359 0.32547,0.64364 0.42147,1.41596 0.25352,2.03967 -0.14399,0.53475 -0.19575,0.57589 -1.06057,0.84301 -1.27863,0.39493 -3.19523,0.62381 -4.36645,0.52146 -0.5474,-0.0478 -2.90027,-0.15238 -5.22861,-0.23234 -7.41646,-0.25466 -12.84435,-0.88712 -16.95586,-1.97572 -0.86613,-0.22932 -3.08863,-0.94716 -4.93889,-1.59518 -3.65941,-1.28167 -5.97012,-2.00503 -8.16191,-2.5551 -1.48319,-0.37224 -7.11662,-1.40621 -7.20111,-1.32172 -0.0271,0.0271 0.14606,0.36291 0.38471,0.74634 0.64797,1.04106 1.3382,2.47749 1.45868,3.0357 0.16062,0.74415 0.10305,1.36908 -0.2139,2.3215 -0.66443,1.99662 -0.70356,2.53771 -0.87314,12.07183 -0.16139,9.07419 -0.042,16.93702 0.30641,20.17889 0.33305,3.09911 0.44792,5.30828 0.56495,10.86556 0.19574,9.29471 0.49873,11.86879 2.48188,21.08522 0.5023,2.33432 1.45549,6.87947 2.11822,10.10034 0.66271,3.22086 1.48289,6.96736 1.82262,8.32555 0.63112,2.52319 2.06581,6.96354 2.88379,8.92528 0.45154,1.0829 0.46105,1.09359 0.972,1.09084 1.3365,-0.007 7.16096,-0.5783 8.41822,-0.82546 2.49501,-0.49047 3.2516,-0.50198 6.43913,-0.0979 5.15716,0.6537 5.97648,0.88867 8.25902,2.3685 2.76381,1.79185 8.44777,6.95018 11.54963,10.48155 4.06847,4.63186 6.33185,8.74576 5.35124,9.72638 z M 273.8401,201.947 c -0.94271,6.46358 -4.85585,9.7963 -16.01573,13.6402 -5.37495,1.85134 -9.57096,2.57992 -16.98923,2.94992 -1.59103,0.0794 -4.73428,0.249 -6.985,0.37698 -2.25072,0.12799 -4.82247,0.23894 -5.715,0.24656 l -1.62278,0.0139 -1.37154,-0.67134 c -5.06857,-2.48094 -14.98614,-12.47627 -17.38739,-17.5237 -0.71705,-1.50726 -0.84752,-2.0126 -0.6522,-2.52632 0.22934,-0.60319 0.70871,-0.6997 2.25541,-0.45407 1.30124,0.20665 6.92002,0.55484 7.03868,0.43618 0.0318,-0.0318 -0.39775,-0.57499 -0.95466,-1.20699 -0.55691,-0.632 -1.53653,-1.85813 -2.17695,-2.72476 -3.1556,-4.27026 -3.79824,-5.96915 -4.59945,-12.159 -0.41672,-3.21958 -1.04474,-6.7817 -1.68863,-9.57807 -1.51974,-6.60012 -3.00907,-12.84919 -3.33361,-13.9875 -0.81692,-2.86524 -6.0929,-18.66764 -7.01985,-21.02555 l -0.99853,-2.54 -0.007,-1.50572 c -0.006,-1.3104 0.0308,-1.55748 0.28646,-1.905 0.39889,-0.54219 1.33253,-0.83081 3.36235,-1.03948 1.89675,-0.19496 3.29903,-0.11709 5.375,0.29846 1.5213,0.30454 6.01546,1.76189 8.3169,2.69702 1.79341,0.72868 15.96868,7.28031 18.55343,8.57516 7.04276,3.5281 14.63336,8.88283 22.51856,15.88556 9.29665,8.25621 15.97658,17.61528 17.97442,25.18346 0.7365,2.79004 1.28438,6.64099 1.71392,12.04704 0.29453,3.70674 0.3215,5.13429 0.12273,6.49711 z m -20.31196,-24.77337 c -0.4641,-4.57883 -1.36785,-9.89963 -2.00402,-11.79858 l -0.31731,-0.94717 -1.48167,-0.8814 c -3.78518,-2.25173 -15.54855,-7.52067 -20.5661,-9.21179 -3.44222,-1.16016 -4.63685,-1.41384 -7.09168,-1.50592 -1.85469,-0.0696 -2.12022,-0.0487 -2.8383,0.22329 -0.43571,0.16502 -0.89335,0.41181 -1.01699,0.54843 -0.30204,0.33374 -0.57204,2.16355 -0.46725,3.16652 0.20213,1.93474 1.57792,6.80853 3.75457,13.30084 1.60192,4.77798 1.97837,6.10182 4.2935,15.09889 1.46797,5.70478 2.18683,8.87178 2.57365,11.33841 l 0.25119,1.60175 0.7112,-0.0941 c 4.10756,-0.54345 8.92664,-2.11824 13.83454,-4.52088 5.9263,-2.9012 9.18692,-6.1553 10.2977,-10.27713 0.24006,-0.89077 0.27445,-3.99406 0.067,-6.04117 z m -33.29522,46.72811 c -0.18225,0.18226 -0.46967,0.28198 -0.81139,0.28154 -0.97458,-0.001 -4.48788,-1.7643 -9.48972,-4.76213 -4.94044,-2.96103 -8.43977,-5.5966 -13.08399,-9.85437 l -1.01899,-0.9342 1.34327,1.99161 c 0.73879,1.09538 1.43546,2.25293 1.54815,2.57233 0.26505,0.7512 0.26151,1.6716 -0.008,2.05623 -0.21447,0.3062 -1.41004,0.8178 -3.79206,1.62267 -1.70434,0.57589 -3.08113,0.58793 -7.98959,0.0699 -7.54402,-0.79618 -8.97998,-1.15028 -15.08821,-3.7207 -7.84384,-3.30078 -11.99635,-6.07617 -18.33347,-12.25343 -3.42216,-3.33583 -7.05532,-7.68875 -8.22967,-9.86006 -0.84791,-1.56774 -1.41341,-2.97057 -1.48614,-3.6866 -0.0411,-0.40498 0.0533,-1.457 0.22173,-2.46945 0.16137,-0.97014 0.45576,-3.00214 0.6542,-4.51555 0.50272,-3.83401 0.94876,-5.90756 1.85163,-8.60778 0.94527,-2.82705 1.67892,-4.2526 2.82924,-5.4975 0.94223,-1.0197 1.90967,-1.61161 3.4318,-2.09971 1.68568,-0.54055 2.76325,-0.65586 6.13833,-0.65685 3.64731,-10e-4 4.03825,0.0679 6.04443,1.06692 2.01236,1.00205 5.00034,3.29706 8.43665,6.48002 0.72164,0.66845 1.25433,1.07384 1.20521,0.91723 -0.23964,-0.76414 -0.37418,-4.09014 -0.38238,-9.45289 -0.009,-5.90592 -0.15023,-10.57558 -0.32506,-10.75041 -0.0506,-0.0506 -1.82232,-0.24773 -3.93711,-0.43803 -3.46594,-0.31189 -4.58946,-0.34734 -11.39452,-0.35955 -6.17714,-0.0111 -7.99833,0.0307 -10.01889,0.22994 -7.00499,0.69073 -7.55939,0.71539 -16.29833,0.72521 -9.42044,0.0106 -9.09088,0.0336 -15.09889,-1.05409 -3.34271,-0.60516 -4.30562,-0.8845 -5.68377,-1.64884 -2.51845,-1.39677 -7.2004,-5.43198 -10.62411,-9.15655 -3.062632,-3.33177 -4.943669,-5.88433 -5.842101,-7.92774 -0.569476,-1.29523 -0.6332,-2.0112 -0.216123,-2.42828 0.469881,-0.46988 0.232701,-0.50625 10.018884,1.53612 4.0768,0.85082 9.5637,1.22409 16.15722,1.09915 4.7764,-0.0905 5.42749,-0.13787 11.00667,-0.8006 6.07591,-0.72173 8.57544,-0.87609 14.53444,-0.89759 4.62397,-0.0167 6.10226,0.0309 9.25157,0.29764 2.12337,0.17986 4.87609,0.31841 6.35,0.31959 3.2626,0.003 6.39774,0.21188 7.60251,0.50744 3.17165,0.77806 7.61472,3.93313 13.18397,9.36206 3.73977,3.64554 7.78581,8.77179 9.58324,12.14175 2.1727,4.07355 2.51329,6.87656 2.21185,18.20333 -0.2779,10.44169 -0.10019,15.13368 0.70352,18.57536 0.61095,2.61624 2.1366,6.79953 3.38955,9.29409 l 1.2049,2.39889 0.98778,0.46965 c 2.64264,1.25649 5.27796,3.25205 9.49362,7.18894 4.25063,3.96955 8.29104,9.00127 9.5354,11.87487 0.58943,1.36121 0.65903,2.12405 0.23265,2.55043 z M 188.04167,199.6705 c -2.77294,-3.679 -6.41424,-9.54386 -8.52296,-13.72749 -0.4108,-0.81501 -0.87728,-1.56026 -1.03664,-1.65611 -0.15935,-0.0959 -0.97472,-0.72728 -1.81194,-1.40312 l -1.52221,-1.22882 -2.12015,-0.0596 c -3.32589,-0.0935 -4.73502,0.38835 -6.42346,2.19632 -1.55194,1.66179 -2.76051,4.40226 -3.5935,8.14837 -0.2071,0.93134 -0.38672,2.07434 -0.39916,2.54 l -0.0226,0.84666 1.41111,0.23975 c 1.8526,0.31476 5.57759,0.59028 6.57543,0.48634 0.43443,-0.0452 1.55512,-0.36852 2.49043,-0.7184 3.82366,-1.43033 5.59244,-1.75133 6.73859,-1.22293 1.53681,0.70848 5.88299,3.96841 8.29028,6.21825 0.60148,0.56215 1.09361,0.98613 1.09361,0.94219 0,-0.0439 -0.51607,-0.7646 -1.14681,-1.60143 z m -43.85251,8.9407 c -0.17888,0.69355 -0.70808,1.45075 -1.32749,1.89945 -1.37386,0.99522 -4.13887,1.47931 -11.5993,2.03077 -2.71639,0.20079 -6.39939,0.55033 -8.18445,0.77676 -9.8504,1.24947 -12.05796,1.40315 -20.2281,1.40824 l -4.988106,0.003 -0.395452,0.42333 c -0.492725,0.52747 -0.851449,0.53498 -2.049636,0.0429 -0.886641,-0.36412 -0.968502,-0.37319 -1.910413,-0.21167 -2.018661,0.34616 -2.244516,0.27257 -5.046338,-1.64422 -5.085514,-3.47912 -10.484041,-8.89733 -13.82973,-13.88013 -0.980399,-1.46013 -1.746427,-3.2179 -1.690091,-3.87817 0.07501,-0.87908 0.46346,-1.03469 2.284589,-0.91522 l 1.535603,0.10075 -0.09204,-1.42366 c -0.06192,-0.95768 -0.02377,-1.92842 0.116553,-2.96575 0.164431,-1.21557 0.199831,-2.90148 0.167193,-7.96263 l -0.04141,-6.42056 -0.375803,-0.54852 c -0.797965,-1.16471 -0.79064,-1.90625 0.04135,-4.18596 0.52043,-1.42601 0.529661,-1.81895 0.140894,-5.9973 -0.393175,-4.22571 -0.868256,-7.83724 -1.62923,-12.38527 -0.885147,-5.29017 -1.416382,-7.79441 -2.953879,-13.92462 -0.729954,-2.91041 -1.522529,-6.24416 -1.761279,-7.40833 -0.580264,-2.82942 -0.744924,-3.34296 -1.441522,-4.49588 -0.489185,-0.80963 -0.603557,-1.13595 -0.64916,-1.85213 -0.07006,-1.10022 0.128302,-1.34254 1.098971,-1.34254 2.117028,0 7.865571,4.35283 12.544425,9.49871 3.148603,3.46288 4.750586,5.69547 6.150507,8.5716 1.106606,2.27351 1.369768,3.2312 1.905385,6.93397 0.232345,1.60622 0.641872,4.11447 0.910061,5.57389 0.522029,2.84077 1.211382,7.15422 1.214934,7.60216 0.0046,0.58407 0.147245,0.62553 1.399588,0.4069 0.649515,-0.11339 2.615957,-0.37178 4.369872,-0.57421 4.243904,-0.4898 7.245964,-0.51217 9.321154,-0.0695 4.68562,0.99961 9.97601,3.97664 15.66224,8.81354 3.2655,2.77774 8.14717,7.85762 10.67594,11.10939 5.35363,6.88431 6.82828,10.13191 9.86201,21.71883 0.802,3.06313 1.00099,4.3623 0.79216,5.17193 z m -21.33875,-23.51502 c -0.19488,-1.26347 -1.11789,-5.12206 -1.26233,-5.27709 -0.31982,-0.34325 -2.21722,-0.52786 -6.22235,-0.60534 -4.60242,-0.089 -6.27273,0.0217 -9.12193,0.60461 -2.27891,0.46626 -3.54535,0.89063 -5.62091,1.88348 -2.974975,1.42309 -4.88229,2.87245 -5.793892,4.40276 l -0.450041,0.75548 0.128068,2.18722 c 0.07044,1.20298 0.168542,2.94048 0.218008,3.86112 l 0.08994,1.6739 1.502035,-0.0972 c 2.482868,-0.16068 4.394772,-0.45228 8.839802,-1.34823 2.32834,-0.4693 5.90433,-1.13617 7.94666,-1.48194 6.9197,-1.17152 8.96164,-1.90063 9.74241,-3.4787 0.31565,-0.63798 0.31626,-1.05894 0.005,-3.08005 z"
       style="fill:#00ff00;stroke-width:0.14111112" />
    <path
       inkscape:connector-curvature="0"
       id="path9992"
       d="m 345.81933,243.16565 c -0.2744,0.24833 -0.365,0.24884 -2.50472,0.0142 -1.22102,-0.13392 -4.31553,-0.52257 -6.8767,-0.86368 -5.55704,-0.7401 -7.70963,-0.86287 -11.28888,-0.64381 -3.0092,0.18417 -5.83841,0.55434 -11.92389,1.56011 -4.74671,0.7845 -7.01462,1.06551 -14.25222,1.76592 -8.40448,0.81333 -12.1915,1.71886 -21.23861,5.07849 -3.19659,1.18705 -5.0532,1.96403 -8.60639,3.60173 -5.2453,2.4176 -7.88223,3.34867 -11.78138,4.15985 -2.57875,0.53649 -2.64794,0.5167 -5.87604,-1.68121 -4.44937,-3.02943 -9.49165,-7.78684 -13.24819,-12.49971 -1.49031,-1.86972 -3.48766,-4.7884 -3.82529,-5.58981 -0.29672,-0.70431 -0.30863,-1.97635 -0.0212,-2.26379 0.12135,-0.12136 1.33093,-0.44553 2.80709,-0.75232 6.68713,-1.38979 12.05538,-2.71778 19.36558,-4.79065 8.38074,-2.37642 8.09761,-2.30879 16.31885,-3.89764 5.3538,-1.03468 7.99644,-1.41839 14.03469,-2.03785 2.32511,-0.23853 5.08736,-0.55999 6.13833,-0.71435 1.05098,-0.15437 2.18248,-0.31975 2.51444,-0.3675 0.33197,-0.0478 0.63696,-0.14085 0.67777,-0.20688 0.0408,-0.066 -0.50307,-0.98396 -1.20863,-2.03984 -1.52349,-2.27996 -2.08081,-3.36298 -3.88398,-7.54764 -4.65778,-10.80939 -5.53847,-13.5724 -7.32817,-22.99084 -0.58253,-3.06563 -1.43736,-7.44713 -1.89962,-9.73666 -2.11574,-10.47903 -2.54408,-13.64271 -3.04734,-22.50723 -0.28082,-4.94674 -0.42322,-6.61128 -0.92347,-10.795 -0.82844,-6.92831 -1.03888,-10.07759 -1.2635,-18.90889 -0.076,-2.98803 -0.13895,-5.7876 -0.13991,-6.22128 l -0.002,-0.7885 -11.1125,-0.0916 c -15.70677,-0.12943 -17.93845,-0.28619 -24.37766,-1.71228 -3.60652,-0.79875 -4.51714,-1.20574 -6.84317,-3.05845 -2.13693,-1.70209 -5.72172,-5.32247 -7.10733,-7.17791 -1.88851,-2.52884 -2.52046,-4.17292 -1.74059,-4.52826 0.24942,-0.11365 0.64859,-0.0656 1.72861,0.20799 4.21427,1.0676 5.34134,1.22051 10.1532,1.37757 2.64154,0.0862 9.55196,0.11847 16.65111,0.0777 6.67455,-0.0383 13.98926,-0.008 16.25491,0.0674 l 4.11936,0.13698 0.42346,-0.31307 c 0.55259,-0.40856 1.50238,-0.31272 2.65293,0.26767 0.78386,0.39542 1.0344,0.43407 5.61822,0.86665 6.40347,0.60428 8.60548,0.89056 11.97863,1.55725 4.48613,0.88668 5.3544,0.98593 8.63418,0.98684 2.81804,10e-4 10.12911,-0.32025 11.48416,-0.50429 0.34606,-0.047 1.07631,-0.31769 1.62277,-0.60155 l 0.99359,-0.5161 h 2.39889 2.39889 l 1.24234,0.59414 c 1.49481,0.71487 2.5508,1.44001 4.93425,3.38825 4.67194,3.81886 9.06684,8.51257 11.728,12.52539 1.33895,2.01902 1.50694,2.3587 1.5966,3.22837 0.12323,1.19514 -0.35464,1.51156 -2.92063,1.93383 -1.47018,0.24195 -12.22116,-0.2286 -16.65111,-0.72878 -4.85479,-0.54815 -7.45658,-1.09847 -11.07722,-2.34298 -5.17297,-1.77809 -7.75372,-2.60632 -9.5396,-3.06152 -1.99933,-0.5096 -7.72425,-1.56545 -7.84318,-1.44653 -0.0386,0.0386 0.28083,0.66233 0.70981,1.38611 1.38221,2.33205 1.565,3.31525 0.92142,4.95585 -0.59146,1.50771 -0.68976,2.8954 -0.84177,11.88231 -0.18808,11.11978 -0.0782,15.90613 0.51164,22.29556 0.12183,1.31939 0.27873,5.12939 0.34869,8.46667 0.18249,8.70511 0.54748,12.1852 1.99058,18.97945 0.38738,1.82386 1.42995,6.80861 2.31682,11.07722 1.82371,8.77774 2.33669,10.93214 3.34318,14.04056 0.83758,2.58672 2.04488,5.74399 2.24335,5.86665 0.27482,0.16985 6.55099,-0.38493 8.52017,-0.75313 2.75743,-0.51559 4.70988,-0.49544 8.66178,0.0894 4.23357,0.6265 5.25379,1.08854 8.92103,4.0402 6.38244,5.13707 12.29248,11.75145 14.01556,15.68588 0.58399,1.33348 0.6532,2.12707 0.21971,2.51938 z m -72.18574,-40.76441 c -0.73816,4.39401 -3.29199,7.48234 -8.32617,10.06877 -2.4061,1.23619 -7.60475,3.16549 -11.06672,4.10703 -4.89219,1.3305 -8.54452,1.6835 -25.7153,2.48542 l -1.79697,0.0839 -1.60536,-0.79862 c -4.28192,-2.13012 -12.51994,-10.00169 -16.10298,-15.38667 -0.85757,-1.28885 -1.9047,-3.4798 -1.90832,-3.99287 -0.001,-0.1703 0.14725,-0.48336 0.32988,-0.69568 l 0.33208,-0.38606 1.67875,0.24222 c 1.51877,0.21913 7.11022,0.55857 7.23254,0.43905 0.0277,-0.0271 -0.38577,-0.54516 -0.91889,-1.15125 -1.36035,-1.54657 -2.68555,-3.27413 -3.7138,-4.84143 -2.01105,-3.06529 -2.53556,-4.69624 -3.24471,-10.08944 -0.61774,-4.69789 -1.03923,-6.88077 -2.69747,-13.97 -2.18335,-9.33423 -2.45574,-10.30269 -5.41969,-19.26917 -1.57914,-4.7772 -3.17144,-9.4762 -3.53844,-10.44222 -1.38631,-3.64902 -1.46621,-3.93096 -1.46943,-5.18535 -0.003,-1.32372 0.20422,-1.88611 0.81078,-2.19623 1.25692,-0.64263 5.73712,-0.77967 8.19918,-0.25077 2.26263,0.48606 6.73374,2.02799 9.96648,3.43707 2.19826,0.95819 14.82202,6.84657 16.86278,7.86568 4.9065,2.45021 11.20803,6.57412 16.29535,10.66418 8.96763,7.20972 14.82271,13.3197 19.33294,20.17458 1.55872,2.36902 2.19181,3.52143 3.21713,5.85612 1.826,4.15784 2.58833,8.04923 3.27554,16.72026 0.25345,3.19804 0.25096,4.9629 -0.009,6.51146 z m -20.30181,-27.95895 c -0.6574,-5.01614 -1.48135,-9.12351 -1.98563,-9.89827 -0.48666,-0.74769 -6.00218,-3.55919 -12.83934,-6.54473 -9.36601,-4.08983 -12.63547,-5.15121 -16.37376,-5.31552 -2.06527,-0.0908 -3.10457,0.10578 -3.84247,0.72667 -0.35481,0.29856 -0.4327,0.50427 -0.58914,1.55572 -0.0997,0.67043 -0.1373,1.50897 -0.0841,1.87724 0.32986,2.2822 1.85485,7.63021 3.87152,13.57724 1.64652,4.8554 1.92827,5.85651 4.36858,15.52222 1.09769,4.34779 1.99974,8.25626 2.24544,9.72919 0.22739,1.36309 0.48218,2.48579 0.57085,2.51535 0.27431,0.0914 3.95899,-0.63965 5.86414,-1.16352 3.81679,-1.04952 9.43836,-3.56252 12.49064,-5.58367 3.50057,-2.31801 5.50492,-4.76501 6.46784,-7.89624 0.30205,-0.9822 0.32114,-1.24617 0.26537,-3.6689 -0.0385,-1.67195 -0.19307,-3.62526 -0.42997,-5.43278 z m -33.23651,49.38577 c -0.45092,0.40809 -1.33214,0.20979 -3.30416,-0.7435 -4.91962,-2.37817 -11.00756,-6.21233 -15.21833,-9.58445 -1.51993,-1.2172 -2.2754,-1.88551 -5.74398,-5.08128 l -1.19135,-1.09764 0.85004,1.12889 c 1.17991,1.56697 2.86139,4.10004 3.09875,4.66812 0.28134,0.67333 0.25572,1.79454 -0.0491,2.15104 -0.26327,0.30784 -3.26947,1.44443 -4.73356,1.78964 -1.11063,0.26188 -2.06,0.26265 -4.30342,0.003 -0.98632,-0.11395 -2.84105,-0.30767 -4.12163,-0.43047 -5.20569,-0.49923 -7.22796,-0.97605 -11.64167,-2.74495 -9.22768,-3.6982 -13.8244,-6.71019 -20.67925,-13.54999 -2.59968,-2.59397 -4.90446,-5.25211 -6.58661,-7.59643 -1.07182,-1.49373 -2.24766,-3.81065 -2.46868,-4.86436 -0.16901,-0.80579 -0.16671,-0.83385 0.36664,-4.47327 0.11942,-0.81492 0.37821,-2.62467 0.57508,-4.02167 0.43845,-3.11133 0.91416,-5.25767 1.65759,-7.47889 1.69048,-5.05085 3.25798,-6.79319 7.0159,-7.79846 1.28179,-0.34289 1.54457,-0.36218 5.091,-0.37377 l 3.73944,-0.0122 1.19134,0.45867 c 2.60161,1.00163 5.98095,3.48151 9.63438,7.07003 0.75419,0.7408 1.40321,1.31497 1.44225,1.27593 0.039,-0.039 0.006,-0.41681 -0.0731,-0.83948 -0.0792,-0.42266 -0.19808,-4.61023 -0.26411,-9.3057 -0.066,-4.69548 -0.16628,-9.02306 -0.22278,-9.61685 l -0.10273,-1.07963 -0.72264,-0.0827 c -4.56899,-0.52307 -8.02679,-0.68441 -14.9043,-0.69546 -5.72933,-0.009 -7.61015,0.0358 -9.59556,0.22961 -7.22231,0.70503 -7.52204,0.7182 -16.51,0.72536 -9.72486,0.008 -9.38326,0.0323 -15.59277,-1.1214 -4.43795,-0.82456 -5.13943,-1.16083 -9.10167,-4.36302 -2.25767,-1.82459 -7.49847,-7.03255 -9.136843,-9.07958 -3.001228,-3.74982 -4.412178,-6.64378 -3.623631,-7.43234 0.408202,-0.40819 0.52025,-0.3906 9.726584,1.5281 4.26826,0.88957 9.99709,1.29995 16.29833,1.16754 4.30596,-0.0905 6.27619,-0.22421 9.73667,-0.66089 9.03674,-1.14039 17.66216,-1.41376 24.55333,-0.77823 1.28058,0.11811 4.64608,0.27623 7.47889,0.35137 6.32873,0.16786 7.23229,0.3003 9.37546,1.37411 2.68245,1.34401 5.6535,3.6274 9.94612,7.64406 3.95915,3.70461 8.36898,9.18345 10.36921,12.88286 2.05813,3.80648 2.4664,6.68027 2.25189,15.85101 -0.17873,7.64119 -0.14809,15.50893 0.0676,17.34947 0.48025,4.09874 2.11723,9.30457 4.19044,13.32618 l 1.07423,2.08381 1.1799,0.5314 c 1.55224,0.6991 2.6637,1.4423 5.06686,3.38806 6.12044,4.95551 12.08359,11.68776 13.70224,15.4695 0.56181,1.31261 0.62806,2.0817 0.21176,2.45845 z m -31.0704,-23.06854 c -1.46196,-1.86268 -2.44231,-3.27306 -4.65905,-6.70278 -2.23996,-3.46564 -2.99786,-4.76257 -4.42078,-7.56493 -0.68042,-1.34003 -1.17729,-2.1471 -1.41961,-2.30588 -0.20505,-0.13435 -1.04493,-0.78895 -1.8664,-1.45467 l -1.49358,-1.21039 -2.12543,-0.0623 c -1.69444,-0.0497 -2.31142,-0.0138 -3.04265,0.17664 -1.71098,0.44566 -2.94481,1.23866 -3.94317,2.53431 -0.64449,0.8364 -1.81519,3.14286 -2.26095,4.45442 -0.88136,2.59322 -1.63865,6.54845 -1.29452,6.76113 0.31656,0.19564 3.43845,0.60231 5.4519,0.71019 2.51385,0.13469 3.51651,0.0138 5.02074,-0.60516 1.89637,-0.78035 4.54793,-1.50394 5.51117,-1.50394 1.02294,0 1.29443,0.13123 3.78515,1.82967 2.15313,1.46823 4.4893,3.38155 6.59347,5.40003 0.79011,0.75794 1.48258,1.37808 1.53881,1.37808 0.0562,0 0.007,-0.11112 -0.11035,-0.24694 -0.11692,-0.13582 -0.68606,-0.8502 -1.26475,-1.5875 z m -45.04711,8.06419 c -0.37803,1.05821 -1.38061,1.92458 -2.6704,2.3076 -2.00333,0.59493 -4.08323,0.85524 -10.67999,1.33664 -2.21192,0.16141 -6.30767,0.57645 -9.10167,0.92231 -8.80353,1.08974 -8.54605,1.07173 -16.54527,1.15736 -4.05518,0.0434 -7.373057,0.13385 -7.373057,0.20098 0,0.26983 -0.588874,0.68647 -0.970219,0.68647 -0.223176,0 -0.778801,-0.16622 -1.234723,-0.36939 -0.792118,-0.35299 -0.875967,-0.36235 -1.88728,-0.21073 -1.496493,0.22434 -1.957151,0.19656 -2.693368,-0.16252 -0.848302,-0.41373 -3.697857,-2.37738 -5.192766,-3.57835 -6.018369,-4.83503 -12.574976,-12.88764 -12.574976,-15.44417 0,-0.86637 0.293066,-0.98236 2.221087,-0.87903 l 1.612035,0.0864 -0.09482,-1.60971 c -0.06757,-1.14706 -0.03379,-2.01528 0.117525,-3.02082 0.307901,-2.04613 0.226027,-14.22664 -0.09804,-14.58473 -0.34309,-0.37911 -0.78817,-1.46478 -0.789281,-1.92527 -5.64e-4,-0.23284 0.258132,-1.18534 0.574874,-2.11667 0.573319,-1.68576 0.575509,-1.70028 0.489527,-3.24556 -0.20811,-3.74025 -0.980444,-10.13553 -1.857516,-15.38111 -0.832036,-4.97622 -1.431187,-7.81618 -2.821322,-13.37297 -0.73332,-2.9313 -1.525693,-6.26505 -1.76083,-7.40834 -0.647096,-3.14631 -0.939913,-4.10421 -1.579429,-5.16682 -0.463949,-0.77088 -0.597026,-1.14242 -0.644556,-1.79952 -0.07585,-1.04856 0.07835,-1.25068 0.954095,-1.25068 3.004546,0 12.412046,8.29087 16.782209,14.79023 1.066772,1.58652 2.421789,4.28919 2.882865,5.75006 0.198425,0.62869 0.557438,2.5223 0.802605,4.23333 0.243972,1.7027 0.595529,3.88957 0.78124,4.85971 0.430725,2.25009 0.82996,4.62811 1.19486,7.11707 0.158566,1.08159 0.307306,1.98552 0.33053,2.00874 0.02323,0.0232 0.577627,-0.0524 1.232004,-0.16805 1.726986,-0.30523 7.113257,-0.89887 9.087747,-1.00158 4.68849,-0.24391 9.31331,1.26987 14.52396,4.75394 7.27498,4.86436 14.38625,12.06925 19.62587,19.88423 1.49298,2.2268 2.17176,3.50482 3.14898,5.92899 1.41521,3.51064 1.83896,4.91875 4.20246,13.96437 0.2473,0.94646 0.2493,2.02385 0.005,2.7076 z m -20.96865,-23.51586 c -0.18858,-1.15924 -1.1465,-5.37125 -1.26527,-5.56342 -0.33489,-0.54186 -8.15557,-0.93011 -11.8598,-0.58877 -3.55342,0.32744 -6.59489,1.1282 -9.4101,2.47748 -2.816773,1.35004 -4.717273,2.79573 -5.710975,4.34428 l -0.450295,0.70173 0.177152,3.89721 c 0.09743,2.14347 0.210823,3.9517 0.251978,4.01829 0.08884,0.14374 2.129337,0.0211 4.48835,-0.2698 0.93133,-0.11484 3.55624,-0.5861 5.83313,-1.04724 2.27689,-0.46115 5.86464,-1.13181 7.97278,-1.49037 6.47182,-1.10074 8.63506,-1.80451 9.6486,-3.13897 0.4173,-0.54945 0.46374,-0.70512 0.463,-1.55222 -4.2e-4,-0.51785 -0.0628,-1.32253 -0.13855,-1.7882 z"
       style="fill:#00ff00;stroke-width:0.14111112" />
    <path
       inkscape:connector-curvature="0"
       id="path9990"
       d="m 345.87994,242.93512 c -0.34104,0.47493 -0.18858,0.48836 -11.98203,-1.0553 -2.13976,-0.28007 -3.29368,-0.35084 -5.715,-0.35042 -4.55285,7e-4 -5.89872,0.13946 -13.82888,1.42521 -6.39076,1.03615 -8.47865,1.29632 -16.40859,2.04454 -6.81497,0.64303 -11.1132,1.64859 -18.35128,4.29322 -4.32375,1.57981 -5.5755,2.07754 -8.27902,3.29199 -1.20297,0.54038 -3.10797,1.39648 -4.23333,1.90244 -3.97478,1.78704 -6.42987,2.5971 -9.97283,3.29053 -2.28377,0.44698 -2.44022,0.40577 -5.02566,-1.32349 -5.91727,-3.95779 -11.98399,-9.9829 -16.01075,-15.90098 -1.46775,-2.15712 -1.86965,-2.99275 -1.86965,-3.88735 0,-0.6901 0.36412,-0.99625 1.41111,-1.18646 4.57853,-0.8318 14.2632,-3.20056 21.09611,-5.15989 6.92122,-1.98465 8.74061,-2.42347 15.21227,-3.66911 6.41521,-1.23478 8.80603,-1.59194 14.63273,-2.186 5.75291,-0.58653 9.87778,-1.17581 9.87778,-1.41115 0,-0.0629 -0.60801,-1.02474 -1.35113,-2.13746 -1.55022,-2.32126 -2.27217,-3.76376 -4.41934,-8.83008 -4.16641,-9.83077 -4.99891,-12.47853 -6.64456,-21.13306 -0.54603,-2.87161 -1.34273,-6.92854 -1.77045,-9.01541 -2.25826,-11.01808 -2.74619,-14.57919 -3.30839,-24.1457 -0.29429,-5.00773 -0.46464,-6.92262 -1.05443,-11.85333 -0.7129,-5.96001 -0.96744,-10.28592 -1.1522,-19.58181 -0.096,-4.83263 -0.10195,-4.90716 -0.39378,-4.96682 -0.16296,-0.0333 -5.47153,-0.0926 -11.79683,-0.13172 -14.42799,-0.0893 -16.62797,-0.22478 -22.09006,-1.36067 -4.83394,-1.00527 -5.69596,-1.35715 -8.20123,-3.34779 -1.74449,-1.38613 -5.22745,-4.81334 -6.48667,-6.38286 -1.89864,-2.36648 -2.90057,-4.24756 -2.60635,-4.8933 0.0821,-0.1803 0.27141,-0.32782 0.42057,-0.32782 0.14917,0 1.1824,0.21641 2.29609,0.48091 2.84543,0.67577 4.07239,0.90774 5.69376,1.07647 0.89488,0.0931 7.42512,0.14503 17.85055,0.14188 9.5713,-0.003 17.78744,0.0577 19.66595,0.14502 3.22627,0.14996 3.22655,0.14995 3.5561,-0.15965 0.27795,-0.26113 0.44906,-0.29971 1.09247,-0.24635 0.45232,0.0375 1.0635,0.22044 1.50129,0.44935 0.75612,0.39537 2.17897,0.58517 9.10919,1.21514 2.68381,0.24395 5.79395,0.67358 7.69833,1.06343 5.8711,1.20184 8.09924,1.36969 14.17389,1.0677 6.9864,-0.34733 7.21372,-0.37287 8.33709,-0.93681 1.23963,-0.62228 2.48073,-0.821 4.34769,-0.69611 1.57206,0.10517 2.36077,0.38321 4.24856,1.49776 2.33529,1.37876 7.12146,5.56753 10.25629,8.9761 2.37401,2.5813 3.44811,3.92698 5.0276,6.29871 1.29621,1.94634 1.53042,2.53469 1.41447,3.55308 -0.0608,0.53409 -0.61657,0.81285 -2.25969,1.13346 -1.14894,0.22417 -1.60256,0.22445 -7.33778,0.004 -11.88798,-0.4561 -14.80714,-0.93229 -23.46978,-3.82859 -3.10445,-1.03794 -6.44391,-2.08127 -7.42105,-2.31852 -1.29014,-0.31322 -7.15995,-1.41333 -7.57201,-1.41912 -0.15053,-0.002 0.0541,0.46333 0.54651,1.24297 1.46822,2.32478 1.72304,3.31597 1.248,4.85456 -0.17458,0.56545 -0.40259,1.40908 -0.50666,1.87475 -0.34623,1.54899 -0.50433,8.21605 -0.4382,18.47736 0.0562,8.71557 0.0996,10.25915 0.36641,13.03807 0.329,3.42609 0.57717,8.84248 0.58081,12.67653 0.004,3.99739 0.48226,8.87163 1.2789,13.0286 0.15618,0.81492 0.81785,3.98992 1.47039,7.05556 0.65253,3.06564 1.6088,7.63764 2.12503,10.16 0.51622,2.52236 1.21658,5.66561 1.55635,6.985 0.91333,3.54656 2.874,9.23423 3.36893,9.77284 0.23185,0.25231 6.41459,-0.25147 9.18749,-0.74862 2.58108,-0.46274 4.03629,-0.42562 8.39076,0.21405 2.74237,0.40285 2.96181,0.45828 4.22047,1.06614 1.58709,0.7665 2.59098,1.45367 4.99831,3.42143 5.90832,4.82947 11.42084,11.0509 13.24969,14.95359 0.67673,1.44408 0.774,1.9673 0.44967,2.41895 z m -72.36441,-40.38936 c -0.84376,4.40308 -3.29994,7.30749 -8.3649,9.89144 -1.6207,0.82682 -3.12265,1.4349 -6.59443,2.66982 -5.64129,2.00661 -10.42076,2.87395 -17.72106,3.21586 -0.97014,0.0454 -4.17689,0.21995 -7.12611,0.38781 -2.94922,0.16785 -5.71147,0.30474 -6.13833,0.30419 -1.50878,-0.002 -3.57821,-1.16486 -6.89531,-3.87482 -5.92084,-4.8371 -11.2698,-10.90038 -12.91023,-14.63432 -0.55894,-1.27226 -0.6371,-1.8612 -0.29272,-2.20559 0.27527,-0.27526 0.636,-0.27692 2.4011,-0.011 1.56201,0.23528 6.97271,0.45946 6.97271,0.2889 0,-0.0602 -0.43274,-0.59409 -0.96164,-1.18645 -2.10881,-2.36181 -3.98141,-4.97684 -4.96556,-6.93422 -1.10985,-2.20737 -1.37087,-3.32268 -2.26197,-9.66503 -0.54274,-3.86296 -0.94862,-5.91326 -2.38835,-12.06501 -2.19748,-9.38946 -2.46127,-10.32434 -5.57424,-19.75555 -1.65231,-5.00592 -3.24046,-9.70492 -3.52923,-10.44223 -1.22694,-3.13278 -1.37481,-3.65645 -1.39172,-4.92865 -0.0191,-1.43774 0.12931,-1.77329 0.94117,-2.1279 1.25562,-0.54846 4.88368,-0.72714 7.09556,-0.34947 2.51825,0.42998 7.09796,1.95374 10.91932,3.63308 3.48083,1.52969 15.9105,7.33994 17.63888,8.24531 8.15239,4.27042 17.98768,11.66064 25.40168,19.08678 2.90602,2.91077 4.92629,5.25566 7.5027,8.70825 1.95398,2.6185 3.08969,4.44876 4.27597,6.89094 1.26454,2.60326 1.79189,3.97779 2.33654,6.09016 1.20144,4.65966 2.17838,15.90698 1.63017,18.76776 z m -20.04708,-27.82125 c -0.64225,-5.02219 -1.58883,-9.74545 -2.06901,-10.32404 -0.32049,-0.38617 -3.47912,-2.17094 -5.94707,-3.36037 -1.33651,-0.64411 -4.46201,-2.05994 -6.94556,-3.14627 -9.62859,-4.21164 -13.0393,-5.29075 -16.79222,-5.31292 -2.03349,-0.012 -3.01466,0.21454 -3.59233,0.82943 -0.39013,0.41528 -0.77042,2.38361 -0.64192,3.32252 0.29495,2.15509 1.86118,7.62103 4.02326,14.04055 1.51468,4.49734 1.83958,5.65067 4.07441,14.46389 1.64249,6.47727 2.43356,10.0126 2.63653,11.78278 0.13932,1.21503 0.2466,1.36904 0.88072,1.26449 3.88816,-0.64108 6.60135,-1.38909 10.0055,-2.75842 7.61845,-3.06458 11.79752,-6.1254 13.73028,-10.05626 0.96867,-1.9701 1.14416,-2.89125 1.06581,-5.59482 -0.0371,-1.28057 -0.22988,-3.59833 -0.4284,-5.15056 z m -33.34441,48.89026 c -0.64379,0.79503 -2.06142,0.22786 -8.21668,-3.28737 -6.63813,-3.79101 -11.5094,-7.50829 -16.75459,-12.7855 -3.94683,-3.97092 -6.70941,-7.42307 -10.11396,-12.63849 -2.60621,-3.99247 -3.44973,-5.41741 -4.9547,-8.36993 l -1.0563,-2.0723 -1.91449,-1.50451 -1.91449,-1.50451 -1.3543,-0.10154 c -5.2751,-0.39549 -7.7919,1.28449 -9.90497,6.61162 -0.74801,1.88578 -1.8622,6.81743 -1.65955,7.34554 0.1549,0.40365 4.21981,0.93618 7.14602,0.93618 1.8121,0 1.86062,-0.008 3.35695,-0.57904 1.72507,-0.6579 3.68272,-1.27863 4.85767,-1.54027 1.2278,-0.27341 1.8428,-0.0551 4.06894,1.44462 2.89736,1.95186 5.0078,3.7131 8.1633,6.81256 3.10342,3.0483 4.98147,5.24807 6.96921,8.16301 1.67073,2.45008 1.80082,2.72115 1.80082,3.75247 0,1.04506 0.058,1.00185 -2.68111,1.99864 l -2.04611,0.74461 -1.83445,0.009 c -1.00894,0.005 -3.23144,-0.13493 -4.93888,-0.31041 -7.20788,-0.74079 -8.57594,-1.03898 -13.12334,-2.86041 -7.90243,-3.16527 -12.33166,-5.7635 -17.21555,-10.09878 -2.39197,-2.12329 -5.11004,-4.83931 -6.7646,-6.75953 -3.06852,-3.5612 -4.22034,-5.17382 -5.27239,-7.38167 -0.81398,-1.70823 -0.88627,-2.48799 -0.46871,-5.05621 0.16224,-0.99789 0.42395,-2.83035 0.58158,-4.07213 0.40075,-3.15694 0.92919,-5.76885 1.58449,-7.83166 2.162,-6.8057 4.11764,-8.45464 10.5513,-8.89658 3.69252,-0.25364 5.87447,0.0402 7.90539,1.06475 1.96789,0.99272 5.23536,3.51989 7.98227,6.17377 0.94391,0.91193 1.78878,1.65806 1.87751,1.65806 0.095,0 0.13108,-0.1305 0.0877,-0.3175 -0.24485,-1.05686 -0.35314,-3.45394 -0.35539,-7.86695 -0.003,-5.36809 -0.22677,-12.70585 -0.39263,-12.8599 -0.0556,-0.0516 -1.75202,-0.24311 -3.76991,-0.42557 -3.35492,-0.30336 -4.38133,-0.33162 -11.99444,-0.33018 -7.53156,0.001 -8.62835,0.0313 -11.50055,0.31355 -5.58973,0.54927 -7.85497,0.62913 -16.08667,0.56714 -8.64686,-0.0651 -8.1162,-0.0219 -14.36563,-1.17083 -4.06597,-0.74753 -5.14727,-1.31388 -9.54103,-4.99728 -1.96756,-1.64946 -6.01052,-5.64887 -7.637526,-7.55526 -1.187811,-1.39178 -2.907434,-3.78544 -3.497451,-4.86834 -1.131696,-2.07707 -1.307939,-3.11329 -0.576799,-3.39127 0.386234,-0.14685 2.166596,0.15978 6.972886,1.20092 4.08483,0.88485 4.93828,1.03074 7.40833,1.2664 7.38754,0.70481 13.98301,0.62062 21.37833,-0.27288 9.45759,-1.14268 16.41368,-1.36922 23.77722,-0.77436 2.01789,0.16301 5.85964,0.34951 8.53722,0.41445 6.39254,0.15503 7.30273,0.34317 10.1971,2.10788 5.67489,3.46 13.51798,11.31294 17.64642,17.66859 1.62491,2.50152 2.69038,5.07434 3.15112,7.60912 0.27025,1.4868 0.31571,6.08336 0.18765,18.97393 -0.0587,5.90916 -0.0354,7.02734 0.18253,8.76418 0.52712,4.20084 2.23287,9.54751 4.27563,13.40201 0.98844,1.86508 1.10244,1.99866 2.03622,2.3858 1.26308,0.52367 2.89594,1.58452 4.85061,3.15141 6.19264,4.96411 12.17735,11.63533 13.97321,15.57609 0.66114,1.45077 0.74379,1.94005 0.39952,2.36521 z m -76.48032,-14.35658 c -1.14537,1.97456 -2.85494,2.35879 -14.28635,3.21089 -2.0567,0.15331 -4.94595,0.438 -6.42056,0.63262 -9.09207,1.20007 -11.14399,1.34431 -19.19111,1.34909 -3.25966,0.002 -5.990161,0.0496 -6.067772,0.10585 -0.07761,0.0563 -0.211041,0.22932 -0.296514,0.38455 -0.23608,0.42874 -1.009325,0.43036 -2.021749,0.004 -0.811886,-0.34172 -0.920904,-0.3541 -1.787931,-0.20312 -0.507831,0.0884 -1.300775,0.13349 -1.762097,0.10012 -0.787974,-0.057 -0.960412,-0.14308 -2.84746,-1.42152 -1.104781,-0.74847 -2.451223,-1.71478 -2.992094,-2.14735 -5.006045,-4.00368 -10.567774,-10.28658 -12.206124,-13.78887 -0.729126,-1.55865 -0.795906,-1.86458 -0.504187,-2.3098 0.235684,-0.3597 0.245256,-0.36125 1.955834,-0.31647 l 1.71899,0.045 -0.04214,-1.76389 c -0.02379,-0.996 0.04528,-2.40892 0.158668,-3.24556 0.158067,-1.16633 0.186329,-2.80309 0.132792,-7.69056 l -0.06801,-6.20889 -0.433153,-0.6863 c -0.679542,-1.07671 -0.672385,-1.78413 0.03843,-3.79847 0.573491,-1.62518 0.58463,-1.69178 0.495618,-2.96333 -0.328324,-4.69012 -0.977773,-10.06726 -1.844403,-15.27079 -0.914897,-5.49333 -1.438827,-7.98766 -2.939012,-13.99202 -0.733834,-2.93711 -1.565209,-6.44407 -1.8475,-7.79323 -0.566166,-2.70591 -0.849566,-3.58105 -1.483246,-4.58026 -0.500764,-0.78963 -0.737963,-1.71374 -0.585861,-2.28247 0.607002,-2.26966 7.581499,2.55535 13.975766,9.66854 2.57752,2.86732 4.413236,5.53837 5.658015,8.23269 0.833837,1.80484 1.092931,2.82816 1.62603,6.42216 0.272224,1.83525 0.708461,4.48553 0.969418,5.88952 0.260956,1.40398 0.6543,3.77621 0.874099,5.27161 l 0.399635,2.71891 0.641872,-0.072 c 0.353029,-0.0396 1.657872,-0.2044 2.89965,-0.36624 5.800226,-0.7559 8.450986,-0.88272 10.728646,-0.5133 3.35962,0.54491 6.86478,2.01346 10.42158,4.36628 3.70978,2.45403 6.45823,4.75089 10.39318,8.68553 4.24928,4.24895 6.27212,6.66925 9.17089,10.97285 1.69119,2.51079 2.41355,3.86176 3.49146,6.52976 1.35046,3.34261 1.78872,4.80246 4.06519,13.54104 0.11039,0.42376 0.2002,1.18576 0.19956,1.69333 -9.9e-4,0.74851 -0.0742,1.04886 -0.38805,1.58986 z m -20.7668,-25.22034 c -0.15034,-0.6985 -0.44155,-1.98329 -0.64715,-2.85508 l -0.37381,-1.58511 -0.5179,-0.13927 c -1.06639,-0.28677 -2.5786,-0.42979 -5.4568,-0.51609 -6.6503,-0.1994 -11.31969,0.58842 -15.51342,2.61741 -2.707965,1.31017 -4.711438,2.84704 -5.688596,4.36375 l -0.487522,0.75671 0.181006,3.93904 c 0.110603,2.40694 0.239732,3.9871 0.331992,4.0626 0.191653,0.15684 3.33882,-0.0526 5.30154,-0.35285 0.81492,-0.12465 3.32317,-0.59852 5.57389,-1.05305 2.25072,-0.45452 5.80672,-1.11584 7.90222,-1.46961 5.31913,-0.89798 7.35312,-1.47017 8.59393,-2.41761 1.02961,-0.78616 1.23639,-1.29247 1.14794,-2.81083 -0.0407,-0.6985 -0.19698,-1.8415 -0.34732,-2.54001 z"
       style="fill:#00ff00;stroke-width:0.14111112" />
    <path
       inkscape:connector-curvature="0"
       id="path9988"
       d="m 345.69441,243.00989 c -0.25283,0.22881 -0.3867,0.22955 -2.29306,0.0128 -1.11351,-0.12663 -4.1518,-0.51537 -6.75177,-0.86387 -8.39254,-1.12494 -11.76243,-1.02463 -21.87222,0.65107 -6.36887,1.05565 -8.83955,1.36846 -16.15722,2.04563 -7.7482,0.71701 -11.97586,1.73204 -20.62429,4.95171 -3.69898,1.37705 -5.36894,2.07601 -9.50344,3.97755 -4.5362,2.08632 -6.84256,2.92147 -10.04442,3.63716 -1.73777,0.38843 -2.53144,0.50177 -3.2368,0.46224 -0.90256,-0.0506 -0.99649,-0.0933 -2.74687,-1.24822 -3.43603,-2.26718 -6.12642,-4.53224 -9.6601,-8.13284 -3.36796,-3.43172 -5.0335,-5.45072 -7.17914,-8.70259 -1.04635,-1.58583 -1.19596,-1.89229 -1.25166,-2.56398 -0.1148,-1.38446 -0.0996,-1.40089 1.62663,-1.75828 7.35816,-1.52337 13.51307,-3.03576 20.70926,-5.08869 7.05698,-2.01321 8.34192,-2.32457 14.83543,-3.59482 5.89543,-1.15325 9.70197,-1.73668 14.23429,-2.18172 5.32141,-0.52251 10.51117,-1.22707 10.74248,-1.45838 0.0457,-0.0457 -0.56175,-1.04964 -1.34994,-2.23092 -1.58934,-2.38195 -2.13943,-3.46777 -4.21045,-8.31086 -4.1299,-9.65786 -5.29133,-13.21163 -6.59476,-20.17889 -0.35572,-1.90146 -1.30781,-6.79096 -2.11576,-10.86555 -2.41361,-12.17207 -2.64633,-13.8431 -3.17395,-22.78945 -0.34639,-5.87332 -0.46327,-7.24498 -0.99197,-11.64166 -0.82752,-6.88165 -1.05075,-10.39488 -1.25711,-19.78491 -0.0694,-3.1594 -0.16218,-5.80252 -0.20612,-5.87361 -0.0463,-0.0749 -4.42509,-0.16952 -10.41892,-0.22506 -10.4172,-0.0965 -15.89255,-0.24912 -18.23798,-0.50827 -3.7448,-0.41379 -9.27069,-1.62406 -10.87426,-2.38168 -1.58573,-0.74921 -4.19656,-2.89723 -6.92205,-5.69501 -2.32101,-2.38259 -3.83949,-4.32659 -4.57287,-5.85435 -0.78334,-1.63176 -0.53257,-1.98137 1.12866,-1.57349 3.07686,0.75546 6.01324,1.26878 7.99052,1.39684 1.15441,0.0748 9.71892,0.14276 19.03226,0.1511 9.31333,0.008 17.75883,0.0644 18.76777,0.1247 1.75188,0.10463 1.84609,0.0964 2.09322,-0.18359 0.40882,-0.46315 1.51343,-0.40269 2.56811,0.14056 0.81402,0.4193 0.99678,0.44875 5.49867,0.88626 6.81983,0.66278 8.8109,0.92229 12.41778,1.61856 4.87962,0.94195 5.20402,0.97826 8.67833,0.97123 3.01638,-0.006 10.51587,-0.36456 11.57111,-0.55309 0.27164,-0.0485 0.93839,-0.31791 1.48167,-0.5986 l 0.98778,-0.51037 h 2.25778 2.25777 l 1.33634,0.635 c 1.55066,0.73685 2.72666,1.55137 5.28594,3.66118 3.27205,2.6974 7.25206,6.73552 9.44435,9.58224 1.57853,2.04975 3.10515,4.44486 3.29434,5.16844 0.24727,0.94579 0.12058,1.56163 -0.35979,1.74892 -1.53619,0.59895 -3.09549,0.73862 -6.51284,0.5834 -1.66864,-0.0758 -4.49439,-0.20312 -6.27945,-0.28293 -5.82587,-0.26048 -10.88973,-0.94811 -14.605,-1.98326 -0.81491,-0.22705 -2.84691,-0.89498 -4.51555,-1.48429 -5.60189,-1.97842 -8.29783,-2.70217 -13.07197,-3.50928 -2.3172,-0.39175 -2.73248,-0.4275 -2.73248,-0.2352 0,0.0692 0.34694,0.67849 0.77096,1.35387 1.40526,2.23832 1.61733,3.31664 1.00587,5.11443 -0.55877,1.64285 -0.6592,2.79241 -0.79234,9.06914 -0.22847,10.77148 -0.12769,18.87679 0.28688,23.07167 0.35255,3.56751 0.44373,5.3363 0.56366,10.93612 0.20378,9.51475 0.46053,11.6166 2.67988,21.93878 0.53446,2.48575 1.48145,6.99937 2.10445,10.03026 1.25927,6.12649 2.09753,9.528 3.02358,12.26929 0.96786,2.865 1.95961,5.31259 2.18819,5.40031 0.39468,0.15145 6.86972,-0.41782 8.84165,-0.77734 2.70895,-0.4939 4.18407,-0.47839 8.18444,0.0861 l 3.24556,0.45795 1.70462,0.8367 c 1.4318,0.70279 2.12046,1.17012 4.30273,2.91984 4.05597,3.25205 8.80569,8.10126 11.36999,11.60814 1.3134,1.79619 1.77455,2.54585 2.37023,3.8531 0.5654,1.24084 0.63412,1.91014 0.23337,2.27282 z m -72.18467,-40.90412 c -0.44306,2.85044 -1.62032,5.16085 -3.55704,6.98082 -2.50163,2.35082 -5.73728,4.00742 -12.11367,6.20199 -5.41579,1.86395 -9.70928,2.60196 -17.28611,2.9713 -2.77588,0.13531 -7.90886,0.4128 -12.00286,0.64886 -1.58511,0.0914 -1.65685,0.0827 -2.54,-0.30776 -1.55435,-0.68723 -2.76718,-1.47994 -5.05261,-3.3024 -2.45019,-1.95383 -7.39502,-6.78809 -9.31457,-9.10628 -2.75126,-3.32262 -4.61529,-6.66202 -4.25204,-7.61746 0.18207,-0.47888 0.51509,-0.52907 1.92182,-0.28971 0.68978,0.11738 2.4924,0.27702 4.00582,0.35477 3.36506,0.17287 3.66888,0.17504 3.66888,0.0262 0,-0.0648 -0.52556,-0.7167 -1.16793,-1.4486 -2.90947,-3.31502 -4.9342,-6.45476 -5.72373,-8.87575 -0.44126,-1.35304 -0.65363,-2.49496 -1.22039,-6.56167 -0.64671,-4.64038 -0.93797,-6.14705 -2.41414,-12.48833 -2.41643,-10.3804 -2.5931,-11.01167 -5.72684,-20.46112 -1.63438,-4.9283 -3.34219,-9.91305 -3.79513,-11.07722 -0.94891,-2.43895 -1.11029,-3.05541 -1.11505,-4.25943 -0.004,-1.10391 0.15809,-1.52744 0.71602,-1.86674 1.12071,-0.68154 5.46073,-0.84667 8.02707,-0.30539 1.74823,0.36871 5.21338,1.49513 7.97512,2.59246 2.7525,1.09367 18.37274,8.35438 20.60223,9.57649 8.46699,4.64121 17.8717,11.8205 25.05242,19.12429 4.51919,4.59664 8.59433,9.90602 10.79588,14.06559 2.70855,5.11753 3.67453,9.22926 4.44266,18.91033 0.31436,3.96216 0.32506,4.90087 0.0742,6.51477 z M 253.6823,175.99433 c -0.35063,-3.04542 -0.77829,-5.93827 -1.14614,-7.75265 -0.28094,-1.38575 -0.87945,-3.61752 -1.03965,-3.87674 -0.17724,-0.28678 -3.56445,-2.19648 -5.87639,-3.31309 -4.03314,-1.94791 -11.39931,-5.15622 -14.66276,-6.38629 -5.88012,-2.21638 -10.04444,-2.79121 -12.2689,-1.69356 -0.83126,0.41018 -1.08685,0.92719 -1.21421,2.4561 -0.0826,0.99153 -0.0435,1.47954 0.21669,2.70372 0.56189,2.64376 1.80301,6.87738 3.45778,11.79492 1.82706,5.42956 2.07457,6.30154 4.42586,15.59278 1.70877,6.75228 2.25453,9.18591 2.57418,11.47863 0.1202,0.86223 0.23977,1.27331 0.38676,1.32971 0.25932,0.0995 2.68933,-0.3039 4.60907,-0.76517 2.00634,-0.48208 3.76169,-1.06784 6.32142,-2.10947 8.5655,-3.48557 12.82316,-7.06977 14.22949,-11.97873 0.3439,-1.20043 0.33821,-4.42798 -0.0133,-7.48016 z M 220.01118,223.68 c -0.12196,0.12196 -0.40732,0.22174 -0.63413,0.22174 -0.76483,0 -3.19535,-1.19523 -7.76238,-3.81723 -6.42091,-3.68634 -10.9244,-7.1174 -16.00976,-12.19732 -4.12414,-4.11975 -6.82733,-7.44397 -10.15651,-12.48989 -2.76166,-4.18576 -3.55401,-5.50891 -5.13277,-8.57114 l -1.2166,-2.35978 -1.87632,-1.50451 c -2.1329,-1.71024 -2.05867,-1.68387 -4.77976,-1.69857 -2.80365,-0.0152 -4.44372,0.60514 -6.02109,2.27724 -1.59803,1.694 -3.01475,4.99885 -3.81937,8.90962 -0.44114,2.14416 -0.47495,3.0357 -0.11929,3.14542 0.55964,0.17266 3.05439,0.50915 4.90361,0.66139 2.88242,0.23733 3.76733,0.14006 5.72357,-0.62913 2.50617,-0.9854 4.65191,-1.5444 5.65091,-1.47214 0.78123,0.0565 0.95718,0.1464 3.05282,1.55956 2.88081,1.94261 5.45302,4.10718 8.4327,7.09628 2.71203,2.72061 4.80274,5.21159 6.62745,7.89632 1.45903,2.14668 1.76135,2.75413 1.76556,3.54741 0.005,0.96907 -0.1641,1.08281 -3.15087,2.11753 -2.17076,0.75202 -3.07045,0.84422 -5.5457,0.56831 -1.15243,-0.12845 -3.07958,-0.33001 -4.28255,-0.4479 -5.7507,-0.56358 -7.68258,-1.03697 -12.75017,-3.12429 -8.42628,-3.47075 -12.78821,-6.34143 -19.26536,-12.67897 -5.1449,-5.03399 -8.85832,-10.04865 -9.47208,-12.79121 -0.18313,-0.81831 -0.19498,-0.67814 0.40397,-4.77811 0.15307,-1.04775 0.38443,-2.69875 0.51414,-3.66889 0.55444,-4.14662 1.6984,-8.25367 3.00467,-10.78735 1.95227,-3.78666 5.02666,-5.04059 11.87498,-4.84337 1.92222,0.0554 2.49589,0.12243 3.23893,0.37869 2.56405,0.88429 5.47808,2.94786 9.65327,6.83597 1.07166,0.99797 1.98314,1.77983 2.02551,1.73746 0.0424,-0.0424 0.002,-0.57314 -0.0887,-1.1795 -0.10164,-0.67615 -0.21149,-4.54009 -0.2841,-9.99245 -0.0651,-4.8895 -0.16357,-9.15714 -0.21879,-9.48365 -0.11936,-0.70563 0.33224,-0.60735 -4.86407,-1.0587 -3.13605,-0.27241 -4.55009,-0.31289 -11.00666,-0.3151 -6.9814,-0.002 -7.64824,0.0198 -11.57111,0.38434 -5.82846,0.54168 -10.4015,0.70822 -17.21556,0.62695 -6.5318,-0.0779 -7.20255,-0.13884 -12.75764,-1.15899 -3.13724,-0.57613 -3.4986,-0.6734 -4.68281,-1.26061 -3.86266,-1.91536 -11.30792,-8.88025 -15.095991,-14.12203 -1.229254,-1.70098 -2.349856,-3.98944 -2.291163,-4.67893 0.02517,-0.29572 0.147005,-0.57829 0.287191,-0.66609 0.309082,-0.19358 1.718686,0.0419 6.977993,1.16566 2.15947,0.46141 4.39613,0.90994 4.97036,0.99674 5.48273,0.82869 16.04162,0.93001 22.09817,0.21205 9.15183,-1.08489 11.25005,-1.23326 17.63889,-1.24723 4.11757,-0.009 5.79012,0.0486 8.82823,0.30417 2.06153,0.17341 4.85553,0.31586 6.20889,0.31655 3.64231,0.002 6.78606,0.22503 8.03455,0.57032 2.67673,0.74029 5.71712,2.74541 10.08944,6.65392 6.60589,5.90515 12.04214,12.97441 13.59637,17.68062 0.88531,2.68075 1.10204,6.40182 0.85889,14.74611 -0.18253,6.26376 -0.11031,14.02679 0.14769,15.875 0.55626,3.98489 2.36306,9.49924 4.27289,13.0408 l 1.02083,1.89302 1.69333,0.85985 c 1.83058,0.92954 2.32617,1.27197 5.00944,3.46124 5.76738,4.70558 11.46937,11.19487 13.14899,14.96454 0.57576,1.29222 0.66808,1.96723 0.31705,2.31826 z m -76.1101,-15.15846 c -0.43784,1.43939 -1.3284,2.12053 -3.47872,2.66072 -1.92066,0.4825 -3.60201,0.67175 -10.21832,1.15022 -2.21192,0.15996 -5.48217,0.47801 -7.26723,0.70678 -9.49658,1.21708 -12.19029,1.40304 -20.36921,1.40618 l -4.846997,0.002 -0.395452,0.42332 c -0.485088,0.5193 -0.732734,0.52587 -1.832887,0.0488 -0.856553,-0.37146 -0.875052,-0.37308 -2.231802,-0.19436 -0.95641,0.12598 -1.520527,0.13784 -1.874669,0.0394 -0.680551,-0.18915 -3.914304,-2.36855 -5.915659,-3.98689 -0.891602,-0.72097 -2.764094,-2.46198 -4.161094,-3.86892 -3.847648,-3.87503 -6.132551,-6.7488 -7.412676,-9.3231 -1.198011,-2.40917 -0.988373,-2.79692 1.415454,-2.61806 0.814917,0.0606 1.537948,0.0778 1.606734,0.0382 0.06879,-0.0397 0.08894,-0.74562 0.04479,-1.56882 -0.04992,-0.93072 -0.006,-2.08372 0.116069,-3.04894 0.146895,-1.1613 0.188632,-3.17025 0.165714,-7.97663 l -0.03063,-6.4244 -0.441873,-0.66711 c -0.243028,-0.3669 -0.48303,-0.88651 -0.533336,-1.15466 -0.103148,-0.54983 0.184867,-1.80979 0.707978,-3.09719 0.426568,-1.04979 0.434357,-1.84332 0.05769,-5.87749 -0.823548,-8.82034 -2.167591,-16.57074 -4.464363,-25.74365 -0.738444,-2.94922 -1.529122,-6.28297 -1.757059,-7.40833 -0.593993,-2.93263 -0.917168,-4.01509 -1.446123,-4.84373 -0.568863,-0.89117 -0.798924,-1.52603 -0.798924,-2.20465 0,-0.66428 0.204041,-0.85383 0.91907,-0.85383 2.049711,0 8.01957,4.66126 12.737327,9.94531 2.818277,3.15656 4.103903,4.94975 5.458787,7.61391 1.196596,2.35292 1.436777,3.19277 2.000177,6.99411 0.270315,1.82386 0.643678,4.10986 0.829696,5.08 0.46633,2.43206 0.722622,3.96554 1.121426,6.70989 0.187992,1.29366 0.373455,2.38376 0.412139,2.42244 0.03869,0.0387 0.661445,-0.0297 1.383912,-0.15203 0.722467,-0.1223 2.774076,-0.38963 4.559132,-0.59406 6.773239,-0.77571 9.494069,-0.46123 14.245189,1.64646 6.50935,2.88769 15.7309,10.94157 21.87689,19.10675 4.46958,5.93801 6.06939,9.43001 8.5012,18.55611 1.51638,5.69069 1.59882,6.13214 1.31765,7.05647 z m -20.77032,-23.49591 c -0.2885,-1.73826 -1.14587,-5.22825 -1.33231,-5.42327 -0.39343,-0.41156 -2.16973,-0.59474 -6.51514,-0.67187 -2.82558,-0.0502 -4.81649,-0.0191 -5.89411,0.092 -5.51844,0.56896 -10.958544,2.80014 -13.757383,5.6424 -1.229848,1.24893 -1.592589,1.99826 -1.487329,3.07238 0.04399,0.44886 0.144242,2.1798 0.222792,3.84653 0.07855,1.66674 0.203228,3.09084 0.277063,3.16468 0.200711,0.2007 4.273067,-0.14011 6.574937,-0.55028 1.07909,-0.19228 3.32723,-0.63219 4.99587,-0.9776 1.66864,-0.3454 4.78014,-0.92302 6.91444,-1.2836 7.19611,-1.21575 9.18629,-1.9702 10.04237,-3.80695 0.27693,-0.59414 0.26836,-1.23932 -0.0412,-3.10444 z"
       style="fill:#00ff00;stroke-width:0.14111112" />
    <path
       inkscape:connector-curvature="0"
       id="path9986"
       d="m 345.81758,242.84591 c -0.10525,0.17224 -0.33021,0.24675 -0.74362,0.24631 -0.82709,-8.5e-4 -4.71945,-0.47092 -9.05938,-1.09398 -3.63872,-0.52239 -3.70601,-0.52668 -8.18444,-0.52143 -5.11352,0.006 -5.59317,0.0543 -13.89945,1.39959 -6.63594,1.07477 -7.74204,1.21256 -15.875,1.97765 -4.17315,0.39258 -6.44242,0.76331 -9.87777,1.61375 -5.08556,1.25894 -12.29312,3.87086 -18.34445,6.64775 -6.30586,2.8937 -8.49988,3.67505 -12.7005,4.523 -2.26169,0.45655 -2.44745,0.40837 -4.97023,-1.28957 -1.14664,-0.77174 -2.75157,-1.93565 -3.56649,-2.58648 -3.25077,-2.59618 -7.23179,-6.55719 -9.94351,-9.89353 -1.3842,-1.70305 -3.87134,-5.35751 -4.11369,-6.04444 -0.24274,-0.68796 -0.25134,-1.52293 -0.0186,-1.80911 0.10991,-0.13517 1.1336,-0.41513 2.71639,-0.74287 6.8614,-1.42074 12.1125,-2.72395 19.75555,-4.9029 6.57186,-1.87356 8.48528,-2.3343 14.82605,-3.57001 6.12919,-1.19448 8.7288,-1.58423 14.59562,-2.18827 6.51319,-0.6706 9.99267,-1.18267 10.10978,-1.48785 0.0379,-0.0989 -0.52089,-1.05959 -1.24184,-2.13494 -1.4868,-2.21768 -2.38622,-3.97207 -4.12043,-8.03726 -4.40725,-10.33113 -5.3583,-13.28997 -6.93496,-21.57569 -0.50213,-2.63878 -1.35927,-7.02028 -1.90476,-9.73667 -2.28716,-11.38952 -2.70926,-14.39506 -3.17088,-22.57778 -0.28703,-5.08817 -0.55142,-8.19151 -1.06336,-12.48186 -0.80456,-6.74269 -1.04063,-10.61425 -1.21625,-19.94546 -0.0898,-4.77098 -0.11807,-5.20377 -0.34823,-5.32695 -0.15061,-0.0806 -3.78579,-0.13417 -9.11452,-0.13431 -9.81781,0 -16.63139,-0.17688 -19.50424,-0.50558 -4.19884,-0.48043 -9.27189,-1.6154 -10.94975,-2.44975 -3.40112,-1.69127 -9.90015,-8.29261 -11.37762,-11.55675 -0.4667,-1.03104 -0.48692,-1.18972 -0.18372,-1.44135 0.18483,-0.15339 0.64882,-0.0848 2.80566,0.41477 4.85917,1.12547 2.7926,1.02849 24.63067,1.1558 10.82675,0.0631 20.13949,0.15696 20.69496,0.20855 0.94672,0.0879 1.02046,0.0742 1.17748,-0.21919 0.15141,-0.28289 0.25287,-0.30757 1.05497,-0.25648 0.66198,0.0421 1.03261,0.15255 1.4587,0.43452 0.54178,0.35853 0.79528,0.40005 4.92005,0.80573 8.69358,0.85505 8.56909,0.8379 14.86162,2.04656 4.01151,0.77053 6.83388,0.8063 16.36889,0.20752 2.17222,-0.1364 2.19545,-0.14144 3.38666,-0.73359 l 1.19945,-0.59626 2.11667,0.003 c 2.0382,0.003 2.15066,0.0182 3.03388,0.41825 1.67259,0.75757 2.74978,1.459 5.01975,3.26875 2.64521,2.10891 7.8165,7.20789 9.70778,9.57204 1.34281,1.67856 3.50576,4.83981 3.74883,5.47912 0.20579,0.5413 0.18954,1.72216 -0.0261,1.89464 -0.097,0.0776 -0.62089,0.26 -1.16417,0.40533 -0.85008,0.22741 -1.45007,0.26039 -4.30388,0.2366 -8.26691,-0.0689 -14.8965,-0.6271 -19.96723,-1.6812 -0.99841,-0.20755 -3.92286,-1.10065 -7.12611,-2.17624 -2.98802,-1.00335 -6.32177,-2.04668 -7.40833,-2.31853 -2.50567,-0.6269 -7.83683,-1.53822 -8.00642,-1.36864 -0.0742,0.0742 0.14309,0.54243 0.52709,1.13606 1.57734,2.4383 1.8594,3.57926 1.29497,5.23824 -0.19777,0.58127 -0.42994,1.43784 -0.51596,1.90351 -0.25709,1.392 -0.41711,7.67306 -0.41879,16.43944 -0.002,8.22132 0.0979,11.42677 0.47955,15.45167 0.29752,3.13773 0.36188,4.5124 0.50549,10.795 0.20801,9.10068 0.2808,9.62201 3.42759,24.55334 0.58066,2.75519 1.35109,6.43819 1.71209,8.18444 0.92391,4.4693 1.76363,7.71277 2.7494,10.61961 0.83668,2.46718 1.76814,4.87107 1.96826,5.07967 0.17013,0.17734 7.28383,-0.44688 8.89321,-0.78036 2.21063,-0.45807 4.98456,-0.41102 8.73765,0.14821 2.71196,0.4041 2.94135,0.46262 4.20147,1.07184 1.65641,0.8008 2.15255,1.13834 4.73724,3.22283 5.79499,4.67353 11.61109,11.18776 13.40322,15.01205 0.61799,1.31878 0.76801,1.97406 0.53805,2.35032 z m -72.46374,-40.20014 c -0.85228,4.28906 -3.18919,7.046 -8.15382,9.61938 -2.36875,1.22782 -7.56387,3.1619 -10.97747,4.08679 -3.54897,0.96156 -8.04916,1.58612 -13.17574,1.82861 -5.22722,0.24725 -10.11809,0.51789 -11.86045,0.6563 l -1.98265,0.15751 -0.98068,-0.38796 c -1.55291,-0.61434 -2.7735,-1.39124 -5.02258,-3.19684 -6.12222,-4.91498 -11.70658,-11.21084 -13.37455,-15.07856 -0.48746,-1.13034 -0.52687,-1.7691 -0.1247,-2.02086 0.16998,-0.1064 0.59716,-0.0975 1.48166,0.0309 2.71926,0.39466 7.8045,0.57874 7.8045,0.28252 0,-0.0882 -0.40299,-0.61212 -0.89554,-1.16417 -2.30484,-2.58325 -4.24032,-5.34078 -5.26101,-7.49547 -0.84898,-1.79221 -1.21033,-3.34117 -1.88353,-8.07394 -0.71009,-4.99193 -0.99939,-6.4901 -2.48737,-12.88044 -2.29713,-9.86537 -2.48564,-10.53804 -5.55625,-19.82611 -2.76844,-8.37407 -3.22407,-9.69561 -4.42726,-12.84111 -0.56252,-1.47059 -0.76211,-2.96135 -0.5179,-3.86827 0.13699,-0.50874 0.25179,-0.64009 0.75331,-0.86195 1.25099,-0.55336 4.95797,-0.73528 7.15222,-0.351 2.28771,0.40066 6.44268,1.74531 9.80722,3.17382 2.5874,1.09856 16.62416,7.63083 18.53455,8.62539 7.47528,3.89171 15.93761,10.09244 23.85757,17.48148 5.21341,4.86391 10.74273,11.88934 13.18545,16.75308 2.4235,4.82546 3.28483,8.4988 4.04618,17.25579 0.31585,3.6329 0.33807,6.68994 0.0588,8.09514 z m -19.6891,-27.35083 c -0.59275,-4.79688 -1.17949,-8.04953 -1.83469,-10.1708 l -0.2666,-0.86319 -1.81215,-1.08121 c -2.66924,-1.59259 -7.32613,-3.78425 -14.92315,-7.02322 -7.40421,-3.15678 -12.37186,-4.32504 -15.22776,-3.58117 -1.0589,0.27581 -1.69429,0.6686 -1.87668,1.16013 -0.336,0.90559 -0.47624,2.37903 -0.31375,3.29652 0.49114,2.77319 1.81564,7.38658 3.86412,13.45918 1.50518,4.46202 1.88351,5.7993 4.23182,14.95778 1.56409,6.09998 1.95037,7.79647 2.43664,10.70125 0.19702,1.17692 0.409,2.19299 0.47107,2.25792 0.15312,0.16015 3.90438,-0.53607 6.04905,-1.12269 3.77248,-1.03186 9.67449,-3.66616 12.7948,-5.71081 1.88474,-1.23503 4.37574,-3.66869 5.18675,-5.06734 0.6536,-1.1272 1.32983,-2.84981 1.50852,-3.84281 0.18685,-1.03825 0.0446,-4.678 -0.28799,-7.36954 z m -33.71286,48.32339 c -0.23881,0.23882 -0.41321,0.29273 -0.73727,0.22791 -1.10505,-0.221 -4.81363,-2.1458 -9.21225,-4.78123 -5.75016,-3.44524 -10.10242,-6.88516 -14.9017,-11.77795 -4.14586,-4.22664 -6.73072,-7.47072 -10.15055,-12.73928 -2.52545,-3.89069 -3.33284,-5.26375 -4.74644,-8.07203 -0.98577,-1.95834 -1.09616,-2.11594 -1.92191,-2.74403 -0.48183,-0.36648 -1.33304,-1.04063 -1.89156,-1.49812 -0.97204,-0.79616 -1.06264,-0.8378 -2.11667,-0.97281 -1.56401,-0.20032 -3.72634,-0.0693 -4.86788,0.29489 -3.07584,0.98136 -5.14253,3.96805 -6.50953,9.40726 -0.61961,2.46541 -0.88039,4.2392 -0.66194,4.50242 0.31678,0.38169 4.44927,0.90894 7.17426,0.91532 l 1.88051,0.004 1.58815,-0.62098 c 1.82806,-0.71478 4.38023,-1.47736 5.30471,-1.58501 0.92856,-0.10812 1.51774,0.16197 3.88636,1.78159 4.39769,3.00707 9.01024,7.36223 12.85386,12.13662 0.89217,1.1082 2.93841,4.10543 3.35845,4.91928 0.23907,0.46321 0.34821,1.81682 0.16976,2.10555 -0.10421,0.16862 -3.2931,1.36097 -4.43602,1.65867 -1.00633,0.26211 -2.58502,0.26206 -4.98246,-1.5e-4 -1.03917,-0.11365 -2.87998,-0.30388 -4.09069,-0.42273 -4.65189,-0.45665 -6.8235,-0.9766 -10.89314,-2.60817 -8.99936,-3.60796 -12.93058,-6.06497 -19.38438,-12.11528 -4.48812,-4.20752 -8.30146,-8.91638 -9.82314,-12.12999 -0.74024,-1.56331 -0.81795,-2.51752 -0.40677,-4.99478 0.15902,-0.95801 0.36108,-2.34509 0.44904,-3.0824 0.23435,-1.96454 0.6675,-4.6413 0.99754,-6.16464 0.36068,-1.66476 1.52577,-5.10659 2.1891,-6.46693 1.06838,-2.191 2.56426,-3.5227 4.72462,-4.20606 1.74216,-0.55108 3.11335,-0.70734 6.26732,-0.71421 2.55753,-0.006 2.92148,0.0244 3.88055,0.3193 2.63692,0.81091 6.1071,3.25871 10.16193,7.16805 0.91151,0.8788 1.73553,1.59782 1.83116,1.59782 0.12209,0 0.14644,-0.14623 0.0818,-0.49097 -0.27174,-1.44849 -0.3606,-3.27035 -0.36157,-7.41304 -0.001,-6.19514 -0.24705,-13.2841 -0.46748,-13.49295 -0.0957,-0.0907 -1.78466,-0.30414 -3.90803,-0.49389 -3.41334,-0.30502 -4.45318,-0.334 -11.92389,-0.33234 -7.37499,0.002 -8.49845,0.0326 -11.35944,0.31292 -5.6917,0.5577 -7.73297,0.62953 -16.15722,0.56853 -8.83433,-0.064 -8.05089,-0.002 -14.11111,-1.11375 -4.32094,-0.79257 -5.07158,-1.15802 -9.13722,-4.44844 -2.12751,-1.72183 -6.80899,-6.34253 -8.555503,-8.44441 -2.210336,-2.66007 -4.250056,-6.07383 -4.250056,-7.11305 0,-0.15883 0.152953,-0.389 0.339895,-0.51148 0.398642,-0.26121 1.085194,-0.15088 7.068434,1.13593 5.35956,1.15268 6.97644,1.35167 13.29668,1.63644 5.24552,0.23633 9.75591,0.0221 16.40721,-0.77944 4.64988,-0.56034 7.41202,-0.77369 12.00114,-0.92695 4.43848,-0.14824 6.34819,-0.0913 11.84664,0.353 1.51341,0.1223 4.94241,0.27691 7.62,0.34357 5.27955,0.13144 6.15376,0.23994 7.9231,0.98333 2.54831,1.07069 5.91798,3.60124 10.59553,7.95703 3.98426,3.71018 8.68414,9.62601 10.44665,13.1494 0.83979,1.6788 1.46864,3.49115 1.75806,5.06678 0.25988,1.41481 0.30691,6.45505 0.1792,19.20433 -0.056,5.59022 -0.0307,6.77724 0.18248,8.55276 0.5172,4.30829 2.29664,9.83542 4.44356,13.80223 l 0.94864,1.75276 1.00671,0.43446 c 1.63631,0.70618 2.74368,1.43442 5.2405,3.44632 2.47077,1.99091 7.54237,6.93135 9.43833,9.19425 1.62667,1.9415 3.26942,4.33344 3.95001,5.75149 0.80457,1.67636 0.89261,2.15424 0.47396,2.57288 z m -76.34101,-14.51919 c -0.3309,0.62605 -1.10948,1.32454 -1.8057,1.61994 -1.36529,0.5793 -4.35203,1.01583 -9.55502,1.39654 -5.33162,0.39012 -6.59155,0.5091 -9.80723,0.9262 -8.82015,1.14402 -14.85976,1.51594 -21.31844,1.31275 -1.596893,-0.0502 -3.075514,-0.0482 -3.285822,0.005 -0.223691,0.0561 -0.437419,0.24074 -0.515006,0.44481 -0.177322,0.46639 -0.856169,0.46657 -1.963471,5.6e-4 -0.818464,-0.34448 -0.84155,-0.34606 -2.096538,-0.14308 -1.704299,0.27566 -2.005313,0.1702 -4.616825,-1.61742 -3.431351,-2.34882 -6.472294,-5.07018 -9.782933,-8.75485 -2.734647,-3.04359 -4.548099,-5.63971 -5.32795,-7.62741 -0.327955,-0.83591 -0.360709,-1.03794 -0.218773,-1.34946 l 0.166929,-0.36637 1.795808,0.0493 1.795808,0.0493 -0.04745,-1.905 c -0.02702,-1.08466 0.02589,-2.33037 0.122872,-2.89278 0.119371,-0.69227 0.162685,-2.97193 0.14478,-7.62 l -0.02555,-6.63223 -0.439824,-0.68629 c -0.685249,-1.06928 -0.680923,-1.77888 0.02301,-3.77356 l 0.577926,-1.63763 -0.143603,-2.00951 c -0.328139,-4.59182 -0.91359,-9.39256 -1.781924,-14.61189 -0.92249,-5.54485 -1.46375,-8.12115 -2.949805,-14.04055 -0.730655,-2.91042 -1.55357,-6.38744 -1.828701,-7.72671 -0.548135,-2.66822 -0.845301,-3.59162 -1.475753,-4.58575 -0.507031,-0.79949 -0.761047,-1.68289 -0.641031,-2.22933 0.384999,-1.75288 5.227101,1.1469 10.493059,6.28398 4.431272,4.32281 7.182823,7.87894 8.846122,11.43281 0.891228,1.90423 1.134541,2.85415 1.690091,6.59836 0.279137,1.88129 0.60118,3.86502 0.715646,4.40829 0.255509,1.21269 1.093164,6.29556 1.333459,8.09141 0.113222,0.84616 0.244911,1.34437 0.367825,1.39153 0.105301,0.0404 1.127371,-0.0583 2.271266,-0.21927 4.584713,-0.64532 6.182538,-0.78517 8.994248,-0.7872 2.39523,-0.002 3.01588,0.0436 4.10223,0.29981 5.95776,1.40495 12.43781,5.63795 19.60888,12.80921 4.08191,4.08202 6.35645,6.82066 9.3091,11.20855 2.62417,3.89975 4.1404,7.60226 6.01571,14.68987 0.54418,2.05669 1.11184,4.18267 1.26147,4.72438 0.3556,1.28743 0.35175,2.79178 -0.009,3.47413 z m -20.39599,-23.9492 c -0.42736,-2.4815 -1.24075,-5.57149 -1.50363,-5.71217 -0.49161,-0.26311 -2.93739,-0.53031 -5.69752,-0.62245 -7.89736,-0.26364 -13.46351,0.96547 -18.165156,4.01122 -1.463144,0.94784 -2.995964,2.43639 -3.47421,3.3739 -0.310665,0.60899 -0.311002,0.61869 -0.149978,4.30389 0.178263,4.0797 0.19812,4.27046 0.453714,4.35872 0.23989,0.0828 3.434067,-0.12611 4.834273,-0.31624 0.620887,-0.0843 3.160887,-0.56173 5.644437,-1.06093 2.48356,-0.49921 5.69031,-1.10206 7.12612,-1.33967 6.72432,-1.11281 8.7885,-1.69339 10.09303,-2.83877 1.06339,-0.93367 1.24183,-1.81798 0.83892,-4.1575 z"
       style="fill:#00ff00;stroke:#ffffff;stroke-width:1.5;stroke-opacity:1;stroke-miterlimit:4;stroke-dasharray:none" />
    <path
       inkscape:connector-curvature="0"
       id="path9984"
       d="m 345.61349,242.94896 c -0.2482,0.20598 -1.9321,0.0332 -9.03447,-0.92689 -8.43738,-1.14058 -11.74419,-1.02549 -22.64833,0.78823 -5.04219,0.8387 -6.82711,1.07232 -12.34722,1.61617 -7.36714,0.72581 -7.72119,0.76773 -9.73667,1.1528 -6.57871,1.25688 -14.52287,4.00256 -23.41973,8.09442 -4.75025,2.18473 -7.32115,3.08354 -10.88346,3.80493 -2.72683,0.55219 -2.7936,0.53635 -5.56069,-1.31929 -2.9577,-1.98347 -5.32673,-3.98305 -8.61619,-7.2725 -3.28981,-3.28981 -5.21806,-5.57666 -7.27734,-8.63068 l -1.52555,-2.26249 -0.055,-0.97405 c -0.0517,-0.91554 -0.035,-0.98225 0.27816,-1.11045 0.18326,-0.075 1.60319,-0.39856 3.15541,-0.71899 6.35878,-1.31266 12.40333,-2.82443 19.47334,-4.87037 4.99962,-1.44679 8.47159,-2.31192 11.91721,-2.96948 1.43947,-0.27471 3.88723,-0.74783 5.43945,-1.05139 3.34658,-0.65447 6.68647,-1.1128 12.34722,-1.69441 3.84433,-0.39499 7.00834,-0.80017 8.66451,-1.10957 0.77741,-0.14524 1.06242,-0.35637 0.85732,-0.63507 -1.06751,-1.45056 -2.92148,-4.4306 -3.47794,-5.59035 -0.70327,-1.46571 -2.65736,-5.99202 -4.35582,-10.08945 -1.97833,-4.77265 -3.27679,-9.29159 -4.43983,-15.45167 -0.43227,-2.28953 -1.28953,-6.67103 -1.90503,-9.73667 -2.45765,-12.24074 -2.78137,-14.59683 -3.3155,-24.12999 -0.24517,-4.37558 -0.48577,-7.11754 -0.9844,-11.21835 -0.76461,-6.28836 -0.98097,-9.74879 -1.20284,-19.2383 -0.0768,-3.28564 -0.16957,-6.02229 -0.20614,-6.08144 -0.0366,-0.0592 -4.84712,-0.15133 -10.69012,-0.20485 -14.88999,-0.13637 -17.73825,-0.28486 -22.33587,-1.16451 -3.4762,-0.66508 -5.83424,-1.29457 -6.85114,-1.82893 -2.01984,-1.06139 -6.48781,-5.06409 -8.85773,-7.93532 -2.03124,-2.4609 -3.17857,-4.75127 -2.50884,-5.00826 0.10851,-0.0416 1.07689,0.13559 2.15194,0.39387 2.12123,0.50961 3.65677,0.82862 5.20021,1.08034 0.68188,0.11123 7.21517,0.19654 21.09611,0.27548 11.05959,0.0629 20.2152,0.12222 20.3458,0.1318 0.1306,0.01 0.36872,-0.11384 0.52916,-0.27428 0.16045,-0.16044 0.43458,-0.29135 0.60921,-0.29091 0.52114,10e-4 1.41857,0.29369 1.85623,0.60478 0.3591,0.25527 1.15398,0.36572 6.42056,0.89212 7.07416,0.70707 7.41588,0.75239 11.09071,1.47083 4.78657,0.93579 5.30137,0.99355 8.8331,0.99121 3.66646,-0.002 11.05721,-0.37002 11.91023,-0.59236 0.31044,-0.0809 0.91369,-0.34781 1.34056,-0.59309 l 0.77611,-0.44595 h 2.34507 2.34506 l 1.60605,0.79996 c 3.41569,1.70132 10.07453,7.68866 14.03965,12.62384 1.52033,1.89229 3.42681,4.87748 3.59314,5.6262 0.23167,1.04287 0.043,1.41289 -0.85652,1.68003 -1.17341,0.34846 -2.95887,0.5411 -4.16357,0.44923 -0.62088,-0.0473 -2.97038,-0.14892 -5.22111,-0.22568 -4.25189,-0.14504 -6.16173,-0.27596 -9.38388,-0.64326 -4.80868,-0.54816 -7.46299,-1.16814 -12.35531,-2.88593 -5.82329,-2.04467 -8.21811,-2.69757 -12.89989,-3.5168 -2.77956,-0.48638 -3.24925,-0.52036 -3.24925,-0.23504 0,0.10805 0.34694,0.74905 0.77096,1.42443 1.38523,2.20642 1.61858,3.27278 1.07414,4.90878 -0.675,2.02842 -0.71183,2.53622 -0.88231,12.16758 -0.16178,9.13993 -0.0442,16.83164 0.3074,20.10833 0.33313,3.10469 0.44776,5.30982 0.56475,10.86555 0.19696,9.3532 0.48458,11.77448 2.53543,21.34499 0.53612,2.50189 1.49077,7.05716 2.12142,10.1228 0.63065,3.06564 1.46648,6.84042 1.85742,8.38843 0.90507,3.58394 2.92175,9.41688 3.4389,9.9465 0.17131,0.17545 0.64086,0.16988 3.55325,-0.0421 1.84572,-0.13433 4.21311,-0.39571 5.26086,-0.58084 3.5006,-0.61852 3.59766,-0.61682 9.10167,0.15995 2.39434,0.33791 2.62093,0.39697 3.95111,1.02982 1.64011,0.78029 2.84706,1.62517 5.61672,3.93177 5.62008,4.68047 10.80315,10.62447 12.5372,14.37782 0.57082,1.23553 0.68344,2.00777 0.33499,2.29696 z m -72.25244,-40.74934 c -0.88776,5.27676 -4.04057,8.47154 -11.21813,11.36748 -7.52395,3.0357 -12.58505,4.11282 -21.37833,4.54984 -1.62984,0.081 -4.67784,0.24153 -6.77334,0.35673 -2.0955,0.1152 -4.54379,0.24974 -5.44065,0.29898 -1.58047,0.0868 -1.65863,0.0771 -2.54,-0.31254 -1.56053,-0.68997 -2.76048,-1.48073 -5.11951,-3.37368 -2.53653,-2.0354 -7.06178,-6.45658 -9.03125,-8.82358 -2.67001,-3.20892 -4.68883,-6.70202 -4.39976,-7.61278 0.13226,-0.41673 0.47612,-0.45692 1.92319,-0.22476 1.05676,0.16954 5.72564,0.48831 7.29103,0.49781 0.63374,0.004 0.49874,-0.39335 -0.51351,-1.51072 -2.10976,-2.32886 -4.08543,-5.07601 -5.09227,-7.08074 -1.01557,-2.0221 -1.38216,-3.59845 -2.1896,-9.41521 -0.19521,-1.40633 -0.51762,-3.43833 -0.71647,-4.51556 -0.36187,-1.96021 -2.46009,-11.0872 -3.67811,-15.99915 -0.75844,-3.05861 -6.11416,-19.36821 -7.50673,-22.86 l -0.92858,-2.32833 -0.008,-1.50142 c -0.0118,-2.12152 0.0754,-2.18968 3.23722,-2.52909 2.8491,-0.30586 5.21974,0.0674 9.45444,1.48859 3.6768,1.23396 5.13503,1.85794 14.52028,6.21339 9.95074,4.61788 12.20128,5.83799 17.96247,9.73824 5.6503,3.82517 12.42515,9.46666 17.04939,14.19721 5.40566,5.52992 9.62415,11.39702 11.84299,16.47131 1.73934,3.97767 2.54652,8.06898 3.18701,16.15371 0.31535,3.9807 0.3274,5.20374 0.0666,6.75427 z m -19.74394,-27.96899 c -0.62497,-4.70251 -1.51083,-9.05273 -2.00352,-9.8387 -0.27737,-0.44248 -3.15684,-2.11304 -6.02011,-3.49263 -2.86426,-1.38008 -9.69953,-4.39809 -12.80167,-5.65239 -6.4377,-2.60298 -10.99957,-3.47738 -13.60997,-2.60869 -1.52229,0.50659 -1.8563,1.17736 -1.82817,3.6713 0.022,1.95115 1.57581,7.61552 4.08115,14.87798 1.11946,3.24512 1.77142,5.5579 3.86108,13.69703 1.63922,6.38466 2.06346,8.23245 2.5541,11.12441 0.22167,1.30653 0.44187,2.41436 0.48934,2.46183 0.13028,0.13026 2.31311,-0.21163 4.44124,-0.69561 3.17799,-0.72275 7.21755,-2.23687 10.92173,-4.09372 6.12797,-3.07186 9.10465,-6.22258 10.31077,-10.91358 0.1923,-0.7479 -0.0473,-5.91367 -0.39597,-8.53723 z m -33.69463,49.36067 c -0.54791,0.54791 -2.50807,-0.31437 -8.36789,-3.68104 -7.93928,-4.5614 -14.13405,-9.70947 -20.24274,-16.8224 -2.13447,-2.48537 -4.05555,-5.1005 -6.37515,-8.67833 -2.41171,-3.71993 -3.23249,-5.11965 -4.69346,-8.00398 -0.69327,-1.36869 -1.2069,-2.21087 -1.44251,-2.36525 -0.20124,-0.13186 -1.03802,-0.78444 -1.85951,-1.45018 -1.72717,-1.3997 -1.81974,-1.42991 -4.40948,-1.4389 -1.97795,-0.007 -2.96022,0.18431 -4.30328,0.83753 -0.83265,0.40497 -2.16257,1.5985 -2.75881,2.47589 -0.49067,0.72204 -1.4877,2.7726 -1.88514,3.8771 -0.56125,1.55977 -1.33191,4.82213 -1.43712,6.08362 -0.089,1.06744 -0.0815,1.10532 0.24547,1.24049 0.98098,0.40552 6.48708,0.95429 8.16895,0.81417 0.58329,-0.0486 1.3796,-0.26368 2.18722,-0.59077 0.6985,-0.28289 2.11999,-0.77016 3.15886,-1.08282 1.56246,-0.47023 2.0422,-0.5587 2.77622,-0.51196 0.85027,0.0541 0.97187,0.11284 2.90892,1.40411 1.11186,0.74119 2.75181,1.94 3.64434,2.66403 1.96865,1.59702 7.11626,6.70838 8.80893,8.74692 1.355,1.63184 3.64181,4.90208 4.13619,5.91492 0.34862,0.71421 0.42712,1.86536 0.14293,2.09573 -0.38659,0.31336 -4.11293,1.59103 -5.07657,1.74062 -1.11842,0.17361 -1.08308,0.17562 -6.31815,-0.36057 -6.97771,-0.71468 -8.42423,-1.0274 -12.77056,-2.7608 -9.65565,-3.85088 -14.75297,-7.23205 -21.73111,-14.41475 -4.24396,-4.36838 -7.16253,-8.39834 -8.04229,-11.10477 -0.25158,-0.77394 -0.22675,-1.96231 0.0697,-3.33538 0.067,-0.31045 0.31868,-2.0567 0.55925,-3.88056 0.518,-3.9273 0.96284,-6.18379 1.64698,-8.35449 1.7877,-5.67216 3.47041,-7.52883 7.60082,-8.38657 1.57114,-0.32627 6.79764,-0.41586 8.11389,-0.13908 2.64386,0.55594 5.96515,2.8422 11.07328,7.62243 0.82058,0.7679 1.53372,1.35441 1.58477,1.30336 0.051,-0.051 0.0115,-0.64757 -0.0879,-1.32562 -0.11935,-0.81428 -0.21955,-4.17899 -0.29515,-9.91114 -0.1114,-8.44607 -0.18768,-10.22705 -0.44486,-10.386 -0.0685,-0.0423 -1.88515,-0.23138 -4.03705,-0.42013 -2.96197,-0.2598 -5.33532,-0.36458 -9.76866,-0.43127 -6.13134,-0.0922 -8.70391,-5.6e-4 -14.37227,0.51236 -4.53131,0.41 -8.49114,0.56341 -14.5555,0.56391 -6.2287,5.6e-4 -8.23397,-0.11903 -11.78278,-0.70241 -5.33976,-0.87779 -6.08483,-1.05722 -7.64646,-1.84156 -3.08273,-1.5483 -9.06889,-6.90642 -13.098619,-11.72436 -2.345575,-2.80437 -4.082547,-5.79814 -3.992051,-6.88053 0.06983,-0.83527 -0.295957,-0.88123 9.84991,1.23747 3.53736,0.73867 8.57558,1.14412 14.22239,1.1445 4.4281,0 7.33435,-0.18286 12.37705,-0.78001 6.75074,-0.79942 9.02221,-0.94361 15.16944,-0.96289 4.37232,-0.0137 6.13665,0.0366 8.18445,0.23316 1.4358,0.13785 4.8648,0.30874 7.62,0.37976 5.45756,0.14067 6.57732,0.24789 8.20112,0.78526 5.81945,1.92581 17.9511,13.87121 21.72486,21.39129 1.96508,3.91589 2.24657,6.4395 1.9573,17.54756 -0.19905,7.64317 -0.11945,13.60119 0.21354,15.98386 0.50402,3.60649 2.29868,9.08555 4.10351,12.52795 0.5718,1.0906 1.15377,2.07796 1.29327,2.19413 0.13949,0.11617 0.60287,0.36535 1.02973,0.55375 1.43013,0.63117 2.70116,1.46621 4.8505,3.18666 6.21155,4.97208 12.00413,11.45692 13.83584,15.48933 0.51899,1.14255 0.63257,1.87952 0.33544,2.17665 z m -76.16241,-15.03737 c -0.73701,2.27615 -2.67969,2.8304 -12.4977,3.56561 -2.71639,0.20342 -7.19314,0.65082 -9.94833,0.99422 -8.21541,1.02398 -8.70557,1.05788 -16.61786,1.14937 l -7.233974,0.0837 -0.175404,0.36776 c -0.244489,0.51261 -0.771728,0.53389 -1.79954,0.0726 l -0.855467,-0.38391 -1.406918,0.18621 c -0.99268,0.13139 -1.543634,0.14426 -1.871263,0.0437 -0.917143,-0.28147 -4.79216,-3.02626 -7.010685,-4.96587 -3.367951,-2.94452 -7.254736,-7.24628 -9.308312,-10.30213 -0.796373,-1.18505 -1.698354,-3.1256 -1.698354,-3.65389 0,-0.66251 0.188704,-0.72282 1.905,-0.60888 0.853722,0.0567 1.6408,0.0724 1.749062,0.0349 0.160017,-0.0554 0.180591,-0.37403 0.109979,-1.70325 -0.05801,-1.09197 -0.02109,-2.10383 0.111135,-3.04622 0.151273,-1.07812 0.190085,-2.94611 0.164475,-7.91604 l -0.03352,-6.50494 -0.43968,-0.66379 c -0.241825,-0.36509 -0.478255,-0.89862 -0.525402,-1.18563 -0.09564,-0.58223 0.163776,-1.7125 0.701623,-3.0569 0.434983,-1.08729 0.441592,-1.71147 0.06139,-5.79782 -0.393175,-4.22571 -0.868257,-7.83724 -1.629231,-12.38527 -0.88303,-5.27752 -1.414192,-7.78369 -2.951202,-13.92462 -0.728446,-2.91041 -1.553956,-6.40291 -1.834465,-7.76111 -0.496273,-2.40289 -0.728663,-3.06176 -1.69225,-4.79778 -0.266847,-0.48075 -0.344027,-0.80638 -0.317741,-1.34055 l 0.03472,-0.70556 0.617273,-0.0443 c 2.657085,-0.19047 12.114255,8.10713 16.371616,14.36425 1.471051,2.16203 2.733176,4.73096 3.189467,6.49184 0.112674,0.43482 0.427616,2.28004 0.699871,4.10049 0.272255,1.82044 0.713954,4.5164 0.981551,5.99101 0.267597,1.47461 0.652327,3.79177 0.854953,5.14924 0.202627,1.35747 0.422114,2.52183 0.487752,2.58747 0.06564,0.0656 0.936179,-0.0114 1.934538,-0.17111 1.946844,-0.31151 6.286553,-0.78539 8.588533,-0.93785 3.41615,-0.22625 7.50657,0.79763 11.35404,2.84206 2.6748,1.42131 6.56053,4.2403 9.81262,7.1188 1.97451,1.74768 5.9687,5.8113 7.68473,7.81831 3.61271,4.22529 6.58492,8.74335 7.98687,12.14086 1.42107,3.44386 1.83682,4.75367 3.44886,10.86556 1.00338,3.8042 1.23311,5.16093 0.99724,5.88941 z m -20.54725,-23.73997 c -0.10754,-0.65969 -0.43589,-2.15194 -0.72966,-3.31611 l -0.53412,-2.11667 -1.19945,-0.2659 c -1.04502,-0.23166 -1.86257,-0.26797 -6.35,-0.28201 -5.53362,-0.0173 -5.97647,0.0218 -9.3938,0.82925 -4.58874,1.08425 -9.521815,4.10767 -10.740456,6.58269 -0.292736,0.59453 -0.298238,0.69884 -0.166455,3.15487 0.07496,1.39699 0.180661,3.20675 0.234893,4.02167 l 0.0986,1.48167 1.693333,-0.0369 c 2.304347,-0.0503 4.065815,-0.30771 9.335465,-1.36448 2.47379,-0.49609 6.08431,-1.16709 8.02339,-1.49111 6.75752,-1.12919 8.83451,-1.91618 9.71378,-3.68065 0.40687,-0.81648 0.40804,-1.10208 0.0145,-3.51628 z"
       style="fill:none;stroke-width:0.14111112" />
  </g>
</svg>
