<?xml version="1.0" encoding="UTF-8" standalone="no"?>
<!-- Created with Inkscape (http://www.inkscape.org/) -->

<svg
   xmlns:dc="http://purl.org/dc/elements/1.1/"
   xmlns:cc="http://creativecommons.org/ns#"
   xmlns:rdf="http://www.w3.org/1999/02/22-rdf-syntax-ns#"
   xmlns:svg="http://www.w3.org/2000/svg"
   xmlns="http://www.w3.org/2000/svg"
   xmlns:sodipodi="http://sodipodi.sourceforge.net/DTD/sodipodi-0.dtd"
   xmlns:inkscape="http://www.inkscape.org/namespaces/inkscape"
   version="1.1"
   id="svg29"
   xml:space="preserve"
   width="614.40002"
   height="460.79999"
   viewBox="0 0 614.40002 460.79999"
   sodipodi:docname="icon.svg"
   inkscape:export-filename="/home/radcli14/drubble_clean/drubble/figs/icon.png"
   inkscape:export-xdpi="100.83474"
   inkscape:export-ydpi="100.83474"
   inkscape:version="0.92.3 (2405546, 2018-03-11)"><metadata
     id="metadata35"><rdf:RDF><cc:Work
         rdf:about=""><dc:format>image/svg+xml</dc:format><dc:type
           rdf:resource="http://purl.org/dc/dcmitype/StillImage" /><dc:title /></cc:Work></rdf:RDF></metadata><defs
     id="defs33"><clipPath
       clipPathUnits="userSpaceOnUse"
       id="clipPath109"><path
         d="m 123.1833,195.28 h 214.4334 v 137 H 123.1833 Z"
         id="path107"
         inkscape:connector-curvature="0" /></clipPath><clipPath
       clipPathUnits="userSpaceOnUse"
       id="clipPath119"><path
         d="m 123.1833,195.28 h 214.4334 v 137 H 123.1833 Z"
         id="path117"
         inkscape:connector-curvature="0" /></clipPath><clipPath
       clipPathUnits="userSpaceOnUse"
       id="clipPath129"><path
         d="m 123.1833,195.28 h 214.4334 v 137 H 123.1833 Z"
         id="path127"
         inkscape:connector-curvature="0" /></clipPath><clipPath
       clipPathUnits="userSpaceOnUse"
       id="clipPath139"><path
         d="m 123.1833,195.28 h 214.4334 v 137 H 123.1833 Z"
         id="path137"
         inkscape:connector-curvature="0" /></clipPath><clipPath
       clipPathUnits="userSpaceOnUse"
       id="clipPath149"><path
         d="m 123.1833,195.28 h 214.4334 v 137 H 123.1833 Z"
         id="path147"
         inkscape:connector-curvature="0" /></clipPath><clipPath
       clipPathUnits="userSpaceOnUse"
       id="clipPath159"><path
         d="m 123.1833,195.28 h 214.4334 v 137 H 123.1833 Z"
         id="path157"
         inkscape:connector-curvature="0" /></clipPath><clipPath
       clipPathUnits="userSpaceOnUse"
       id="clipPath169"><path
         d="m 123.1833,195.28 h 214.4334 v 137 H 123.1833 Z"
         id="path167"
         inkscape:connector-curvature="0" /></clipPath><clipPath
       clipPathUnits="userSpaceOnUse"
       id="clipPath179"><path
         d="m 123.1833,195.28 h 214.4334 v 137 H 123.1833 Z"
         id="path177"
         inkscape:connector-curvature="0" /></clipPath><clipPath
       clipPathUnits="userSpaceOnUse"
       id="clipPath189"><path
         d="m 123.1833,195.28 h 214.4334 v 137 H 123.1833 Z"
         id="path187"
         inkscape:connector-curvature="0" /></clipPath><clipPath
       clipPathUnits="userSpaceOnUse"
       id="clipPath199"><path
         d="m 123.1833,195.28 h 214.4334 v 137 H 123.1833 Z"
         id="path197"
         inkscape:connector-curvature="0" /></clipPath><clipPath
       clipPathUnits="userSpaceOnUse"
       id="clipPath209"><path
         d="m 123.1833,195.28 h 214.4334 v 137 H 123.1833 Z"
         id="path207"
         inkscape:connector-curvature="0" /></clipPath><clipPath
       clipPathUnits="userSpaceOnUse"
       id="clipPath219"><path
         d="m 123.1833,195.28 h 214.4334 v 137 H 123.1833 Z"
         id="path217"
         inkscape:connector-curvature="0" /></clipPath><clipPath
       clipPathUnits="userSpaceOnUse"
       id="clipPath229"><path
         d="m 123.1833,195.28 h 214.4334 v 137 H 123.1833 Z"
         id="path227"
         inkscape:connector-curvature="0" /></clipPath><clipPath
       clipPathUnits="userSpaceOnUse"
       id="clipPath239"><path
         d="m 123.1833,195.28 h 214.4334 v 137 H 123.1833 Z"
         id="path237"
         inkscape:connector-curvature="0" /></clipPath><clipPath
       clipPathUnits="userSpaceOnUse"
       id="clipPath249"><path
         d="m 123.1833,195.28 h 214.4334 v 137 H 123.1833 Z"
         id="path247"
         inkscape:connector-curvature="0" /></clipPath><clipPath
       clipPathUnits="userSpaceOnUse"
       id="clipPath259"><path
         d="m 123.1833,195.28 h 214.4334 v 137 H 123.1833 Z"
         id="path257"
         inkscape:connector-curvature="0" /></clipPath><clipPath
       clipPathUnits="userSpaceOnUse"
       id="clipPath269"><path
         d="m 123.1833,195.28 h 214.4334 v 137 H 123.1833 Z"
         id="path267"
         inkscape:connector-curvature="0" /></clipPath><clipPath
       clipPathUnits="userSpaceOnUse"
       id="clipPath279"><path
         d="m 123.1833,195.28 h 214.4334 v 137 H 123.1833 Z"
         id="path277"
         inkscape:connector-curvature="0" /></clipPath><clipPath
       clipPathUnits="userSpaceOnUse"
       id="clipPath289"><path
         d="m 123.1833,195.28 h 214.4334 v 137 H 123.1833 Z"
         id="path287"
         inkscape:connector-curvature="0" /></clipPath><clipPath
       clipPathUnits="userSpaceOnUse"
       id="clipPath299"><path
         d="m 123.1833,195.28 h 214.4334 v 137 H 123.1833 Z"
         id="path297"
         inkscape:connector-curvature="0" /></clipPath><clipPath
       clipPathUnits="userSpaceOnUse"
       id="clipPath309"><path
         d="m 123.1833,195.28 h 214.4334 v 137 H 123.1833 Z"
         id="path307"
         inkscape:connector-curvature="0" /></clipPath><clipPath
       clipPathUnits="userSpaceOnUse"
       id="clipPath319"><path
         d="m 123.1833,195.28 h 214.4334 v 137 H 123.1833 Z"
         id="path317"
         inkscape:connector-curvature="0" /></clipPath><clipPath
       clipPathUnits="userSpaceOnUse"
       id="clipPath329"><path
         d="m 123.1833,195.28 h 214.4334 v 137 H 123.1833 Z"
         id="path327"
         inkscape:connector-curvature="0" /></clipPath><clipPath
       clipPathUnits="userSpaceOnUse"
       id="clipPath339"><path
         d="m 123.1833,195.28 h 214.4334 v 137 H 123.1833 Z"
         id="path337"
         inkscape:connector-curvature="0" /></clipPath><clipPath
       clipPathUnits="userSpaceOnUse"
       id="clipPath349"><path
         d="m 123.1833,195.28 h 214.4334 v 137 H 123.1833 Z"
         id="path347"
         inkscape:connector-curvature="0" /></clipPath><clipPath
       clipPathUnits="userSpaceOnUse"
       id="clipPath359"><path
         d="m 123.1833,195.28 h 214.4334 v 137 H 123.1833 Z"
         id="path357"
         inkscape:connector-curvature="0" /></clipPath><clipPath
       clipPathUnits="userSpaceOnUse"
       id="clipPath369"><path
         d="m 123.1833,195.28 h 214.4334 v 137 H 123.1833 Z"
         id="path367"
         inkscape:connector-curvature="0" /></clipPath><clipPath
       clipPathUnits="userSpaceOnUse"
       id="clipPath379"><path
         d="m 123.1833,195.28 h 214.4334 v 137 H 123.1833 Z"
         id="path377"
         inkscape:connector-curvature="0" /></clipPath><clipPath
       clipPathUnits="userSpaceOnUse"
       id="clipPath389"><path
         d="m 123.1833,195.28 h 214.4334 v 137 H 123.1833 Z"
         id="path387"
         inkscape:connector-curvature="0" /></clipPath><clipPath
       clipPathUnits="userSpaceOnUse"
       id="clipPath399"><path
         d="m 123.1833,195.28 h 214.4334 v 137 H 123.1833 Z"
         id="path397"
         inkscape:connector-curvature="0" /></clipPath><clipPath
       clipPathUnits="userSpaceOnUse"
       id="clipPath409"><path
         d="m 123.1833,195.28 h 214.4334 v 137 H 123.1833 Z"
         id="path407"
         inkscape:connector-curvature="0" /></clipPath><clipPath
       clipPathUnits="userSpaceOnUse"
       id="clipPath419"><path
         d="m 123.1833,195.28 h 214.4334 v 137 H 123.1833 Z"
         id="path417"
         inkscape:connector-curvature="0" /></clipPath><clipPath
       clipPathUnits="userSpaceOnUse"
       id="clipPath429"><path
         d="m 123.1833,195.28 h 214.4334 v 137 H 123.1833 Z"
         id="path427"
         inkscape:connector-curvature="0" /></clipPath><clipPath
       clipPathUnits="userSpaceOnUse"
       id="clipPath439"><path
         d="m 123.1833,195.28 h 214.4334 v 137 H 123.1833 Z"
         id="path437"
         inkscape:connector-curvature="0" /></clipPath><clipPath
       clipPathUnits="userSpaceOnUse"
       id="clipPath449"><path
         d="m 123.1833,195.28 h 214.4334 v 137 H 123.1833 Z"
         id="path447"
         inkscape:connector-curvature="0" /></clipPath><clipPath
       clipPathUnits="userSpaceOnUse"
       id="clipPath459"><path
         d="m 123.1833,195.28 h 214.4334 v 137 H 123.1833 Z"
         id="path457"
         inkscape:connector-curvature="0" /></clipPath><clipPath
       clipPathUnits="userSpaceOnUse"
       id="clipPath517"><path
         d="m 192.13505,27.88 h 76.5299 v 137 h -76.5299 z"
         id="path515"
         inkscape:connector-curvature="0" /></clipPath><clipPath
       clipPathUnits="userSpaceOnUse"
       id="clipPath527"><path
         d="m 192.13505,27.88 h 76.5299 v 137 h -76.5299 z"
         id="path525"
         inkscape:connector-curvature="0" /></clipPath><clipPath
       clipPathUnits="userSpaceOnUse"
       id="clipPath537"><path
         d="m 192.13505,27.88 h 76.5299 v 137 h -76.5299 z"
         id="path535"
         inkscape:connector-curvature="0" /></clipPath><clipPath
       clipPathUnits="userSpaceOnUse"
       id="clipPath547"><path
         d="m 192.13505,27.88 h 76.5299 v 137 h -76.5299 z"
         id="path545"
         inkscape:connector-curvature="0" /></clipPath><clipPath
       clipPathUnits="userSpaceOnUse"
       id="clipPath557"><path
         d="m 192.13505,27.88 h 76.5299 v 137 h -76.5299 z"
         id="path555"
         inkscape:connector-curvature="0" /></clipPath><clipPath
       clipPathUnits="userSpaceOnUse"
       id="clipPath567"><path
         d="m 192.13505,27.88 h 76.5299 v 137 h -76.5299 z"
         id="path565"
         inkscape:connector-curvature="0" /></clipPath><clipPath
       clipPathUnits="userSpaceOnUse"
       id="clipPath577"><path
         d="m 192.13505,27.88 h 76.5299 v 137 h -76.5299 z"
         id="path575"
         inkscape:connector-curvature="0" /></clipPath><clipPath
       clipPathUnits="userSpaceOnUse"
       id="clipPath587"><path
         d="m 192.13505,27.88 h 76.5299 v 137 h -76.5299 z"
         id="path585"
         inkscape:connector-curvature="0" /></clipPath><clipPath
       clipPathUnits="userSpaceOnUse"
       id="clipPath597"><path
         d="m 192.13505,27.88 h 76.5299 v 137 h -76.5299 z"
         id="path595"
         inkscape:connector-curvature="0" /></clipPath><clipPath
       clipPathUnits="userSpaceOnUse"
       id="clipPath607"><path
         d="m 192.13505,27.88 h 76.5299 v 137 h -76.5299 z"
         id="path605"
         inkscape:connector-curvature="0" /></clipPath><clipPath
       clipPathUnits="userSpaceOnUse"
       id="clipPath617"><path
         d="m 192.13505,27.88 h 76.5299 v 137 h -76.5299 z"
         id="path615"
         inkscape:connector-curvature="0" /></clipPath><clipPath
       clipPathUnits="userSpaceOnUse"
       id="clipPath627"><path
         d="m 192.13505,27.88 h 76.5299 v 137 h -76.5299 z"
         id="path625"
         inkscape:connector-curvature="0" /></clipPath><clipPath
       clipPathUnits="userSpaceOnUse"
       id="clipPath637"><path
         d="m 192.13505,27.88 h 76.5299 v 137 h -76.5299 z"
         id="path635"
         inkscape:connector-curvature="0" /></clipPath><clipPath
       clipPathUnits="userSpaceOnUse"
       id="clipPath647"><path
         d="m 192.13505,27.88 h 76.5299 v 137 h -76.5299 z"
         id="path645"
         inkscape:connector-curvature="0" /></clipPath><clipPath
       clipPathUnits="userSpaceOnUse"
       id="clipPath657"><path
         d="m 192.13505,27.88 h 76.5299 v 137 h -76.5299 z"
         id="path655"
         inkscape:connector-curvature="0" /></clipPath><clipPath
       clipPathUnits="userSpaceOnUse"
       id="clipPath667"><path
         d="m 192.13505,27.88 h 76.5299 v 137 h -76.5299 z"
         id="path665"
         inkscape:connector-curvature="0" /></clipPath><clipPath
       clipPathUnits="userSpaceOnUse"
       id="clipPath677"><path
         d="m 192.13505,27.88 h 76.5299 v 137 h -76.5299 z"
         id="path675"
         inkscape:connector-curvature="0" /></clipPath><clipPath
       clipPathUnits="userSpaceOnUse"
       id="clipPath687"><path
         d="m 192.13505,27.88 h 76.5299 v 137 h -76.5299 z"
         id="path685"
         inkscape:connector-curvature="0" /></clipPath><clipPath
       clipPathUnits="userSpaceOnUse"
       id="clipPath697"><path
         d="m 192.13505,27.88 h 76.5299 v 137 h -76.5299 z"
         id="path695"
         inkscape:connector-curvature="0" /></clipPath><clipPath
       clipPathUnits="userSpaceOnUse"
       id="clipPath707"><path
         d="m 192.13505,27.88 h 76.5299 v 137 h -76.5299 z"
         id="path705"
         inkscape:connector-curvature="0" /></clipPath><clipPath
       clipPathUnits="userSpaceOnUse"
       id="clipPath717"><path
         d="m 192.13505,27.88 h 76.5299 v 137 h -76.5299 z"
         id="path715"
         inkscape:connector-curvature="0" /></clipPath><clipPath
       clipPathUnits="userSpaceOnUse"
       id="clipPath727"><path
         d="m 192.13505,27.88 h 76.5299 v 137 h -76.5299 z"
         id="path725"
         inkscape:connector-curvature="0" /></clipPath><clipPath
       clipPathUnits="userSpaceOnUse"
       id="clipPath737"><path
         d="m 192.13505,27.88 h 76.5299 v 137 h -76.5299 z"
         id="path735"
         inkscape:connector-curvature="0" /></clipPath><clipPath
       clipPathUnits="userSpaceOnUse"
       id="clipPath747"><path
         d="m 192.13505,27.88 h 76.5299 v 137 h -76.5299 z"
         id="path745"
         inkscape:connector-curvature="0" /></clipPath></defs><sodipodi:namedview
     pagecolor="#ffffff"
     bordercolor="#666666"
     borderopacity="1"
     objecttolerance="10"
     gridtolerance="10"
     guidetolerance="10"
     inkscape:pageopacity="0"
     inkscape:pageshadow="2"
     inkscape:window-width="1280"
     inkscape:window-height="745"
     id="namedview31"
     showgrid="false"
     inkscape:zoom="1.1545139"
     inkscape:cx="133.96693"
     inkscape:cy="126.46015"
     inkscape:window-x="0"
     inkscape:window-y="27"
     inkscape:window-maximized="1"
     inkscape:current-layer="g37" /><g
     id="g37"
     inkscape:groupmode="layer"
     inkscape:label="demoDrubble"
     transform="matrix(1.3333333,0,0,-1.3333333,0,460.8)"><rect
   style="opacity:1;fill:#9bff9b;fill-opacity:1;stroke:none;stroke-width:1.51575768;stroke-miterlimit:4;stroke-dasharray:none;stroke-opacity:0.94117647"
   id="rect10355"
   width="128.52713"
   height="128.52713"
   x="130.42291"
   y="-152.61244"
   transform="scale(1,-1)" /><g
   id="g833"
   transform="matrix(0.86289566,0,0,0.86289566,24.767786,4.5745595)"><g
     id="g911"
     transform="matrix(1.0537477,0,0,1.0537477,-15.743367,-4.8046881)"><g
       id="g511"><g
         id="g513"
         clip-path="url(#clipPath517)"><path
           d="m 216.59108,35.17287 -11.89163,19.91773 20.94309,9.975672 20.85103,-10.166679 -11.79958,-19.972402 11.79958,19.972402 -20.85103,10.166679 v 23.197564 l -18.28008,6.28794 7.01627,18.013084 -7.01627,-18.013084 18.28008,-6.28794 15.10793,12.060244 -12.65666,14.61192"
           style="fill:none;stroke:#1f77b4;stroke-width:1.5;stroke-linecap:square;stroke-linejoin:round;stroke-miterlimit:10;stroke-dasharray:none;stroke-opacity:1"
           id="path519"
           inkscape:connector-curvature="0" /></g></g><g
       id="g521"><g
         id="g523"
         clip-path="url(#clipPath527)"><path
           d="m 225.64254,92.223105 c 0.79561,0 1.55874,0.316099 2.12132,0.87868 0.56258,0.562581 0.87868,1.325711 0.87868,2.12132 0,0.79561 -0.3161,1.55874 -0.87868,2.121321 -0.56258,0.56258 -1.32571,0.878679 -2.12132,0.878679 -0.79561,0 -1.55874,-0.316099 -2.12132,-0.878679 -0.56258,-0.562581 -0.87868,-1.325711 -0.87868,-2.121321 0,-0.795609 0.3161,-1.558739 0.87868,-2.12132 0.56258,-0.562581 1.32571,-0.87868 2.12132,-0.87868 z"
           style="fill:#008000;fill-opacity:1;fill-rule:nonzero;stroke:#008000;stroke-width:1;stroke-linecap:butt;stroke-linejoin:round;stroke-miterlimit:10;stroke-dasharray:none;stroke-opacity:1"
           id="path529"
           inkscape:connector-curvature="0" /></g></g><g
       id="g531"><g
         id="g533"
         clip-path="url(#clipPath537)"><path
           d="m 207.76001,134.96227 19.04872,3.29325 -4.19072,-0.72451 2.7379,-11.2975 -12.19118,-2.10768 12.19118,2.10768 2.7379,-11.29751 -13.71508,-2.37114 13.71508,2.37114 2.7379,-11.2975 -8.2137,33.89251 -10.66729,-1.84422 3.64201,-34.68289"
           style="fill:none;stroke:#ff0000;stroke-width:1.5;stroke-linecap:square;stroke-linejoin:round;stroke-miterlimit:10;stroke-dasharray:none;stroke-opacity:1"
           id="path539"
           inkscape:connector-curvature="0" /></g></g><g
       id="g541"><g
         id="g543"
         clip-path="url(#clipPath547)"><path
           d="m 214.90596,35.147407 -12.05307,19.820455 20.15245,11.489384 19.88081,-11.953245 -11.78144,-19.983105 11.78144,19.983105 -19.88081,11.953245 v 23.197563 l -17.79457,7.553322 5.32441,18.583589 -5.32441,-18.583589 17.79457,-7.553322 13.37942,13.953151 -12.21538,14.98278"
           style="fill:none;stroke:#ff7f0e;stroke-width:1.5;stroke-linecap:square;stroke-linejoin:round;stroke-miterlimit:10;stroke-dasharray:none;stroke-opacity:1"
           id="path549"
           inkscape:connector-curvature="0" /></g></g><g
       id="g551"><g
         id="g553"
         clip-path="url(#clipPath557)"><path
           d="m 223.00534,93.614078 c 0.79561,0 1.55874,0.316099 2.12132,0.87868 0.56258,0.562581 0.87868,1.325711 0.87868,2.12132 0,0.79561 -0.3161,1.55874 -0.87868,2.121321 -0.56258,0.56258 -1.32571,0.878679 -2.12132,0.878679 -0.79561,0 -1.55874,-0.316099 -2.12132,-0.878679 -0.56258,-0.562581 -0.87868,-1.325711 -0.87868,-2.121321 0,-0.795609 0.3161,-1.558739 0.87868,-2.12132 0.56258,-0.562581 1.32571,-0.87868 2.12132,-0.87868 z"
           style="fill:#008000;fill-opacity:1;fill-rule:nonzero;stroke:#008000;stroke-width:1;stroke-linecap:butt;stroke-linejoin:round;stroke-miterlimit:10;stroke-dasharray:none;stroke-opacity:1"
           id="path559"
           inkscape:connector-curvature="0" /></g></g><g
       id="g561"><g
         id="g563"
         clip-path="url(#clipPath567)"><path
           d="m 203.21906,137.97112 18.93639,3.88753 -4.16601,-0.85526 3.08997,-11.20633 -12.11928,-2.48801 12.11928,2.48801 3.08997,-11.20632 -13.6342,-2.79902 13.6342,2.79902 3.08996,-11.20633 -9.2699,33.61898 -10.60437,-2.17701 4.72517,-34.55199"
           style="fill:none;stroke:#ff0000;stroke-width:1.5;stroke-linecap:square;stroke-linejoin:round;stroke-miterlimit:10;stroke-dasharray:none;stroke-opacity:1"
           id="path569"
           inkscape:connector-curvature="0" /></g></g><g
       id="g571"><g
         id="g573"
         clip-path="url(#clipPath577)"><path
           d="m 211.79243,35.180165 -13.24635,19.04366 21.7888,7.960838 21.65506,-8.31778 -13.11261,-19.135999 13.11261,19.135999 -21.65506,8.31778 v 23.197563 l -17.00194,9.199639 4.94155,18.689045 -4.94155,-18.689045 17.00194,-9.199639 12.75654,14.524804 -11.11602,15.8156"
           style="fill:none;stroke:#2ca02c;stroke-width:1.5;stroke-linecap:square;stroke-linejoin:round;stroke-miterlimit:10;stroke-dasharray:none;stroke-opacity:1"
           id="path579"
           inkscape:connector-curvature="0" /></g></g><g
       id="g581"><g
         id="g583"
         clip-path="url(#clipPath587)"><path
           d="m 220.33488,89.341495 c 0.79561,0 1.55874,0.316099 2.12132,0.87868 0.56258,0.562581 0.87868,1.325711 0.87868,2.12132 0,0.79561 -0.3161,1.55874 -0.87868,2.121321 -0.56258,0.56258 -1.32571,0.878679 -2.12132,0.878679 -0.79561,0 -1.55874,-0.316099 -2.12132,-0.878679 -0.56258,-0.562581 -0.87868,-1.325711 -0.87868,-2.121321 0,-0.795609 0.3161,-1.558739 0.87868,-2.12132 0.56258,-0.562581 1.32571,-0.87868 2.12132,-0.87868 z"
           style="fill:#008000;fill-opacity:1;fill-rule:nonzero;stroke:#008000;stroke-width:1;stroke-linecap:butt;stroke-linejoin:round;stroke-miterlimit:10;stroke-dasharray:none;stroke-opacity:1"
           id="path589"
           inkscape:connector-curvature="0" /></g></g><g
       id="g591"><g
         id="g593"
         clip-path="url(#clipPath597)"><path
           d="m 201.52422,135.62902 19.02904,3.40517 -4.18639,-0.74913 2.80426,-11.28122 -12.17858,-2.17931 12.17858,2.17931 2.80427,-11.28121 -13.70091,-2.45172 13.70091,2.45172 2.80426,-11.28121 -8.41279,33.84364 -10.65626,-1.9069 3.84583,-34.66088"
           style="fill:none;stroke:#ff0000;stroke-width:1.5;stroke-linecap:square;stroke-linejoin:round;stroke-miterlimit:10;stroke-dasharray:none;stroke-opacity:1"
           id="path599"
           inkscape:connector-curvature="0" /></g></g><g
       id="g601"><g
         id="g603"
         clip-path="url(#clipPath607)"><path
           d="m 210.85718,35.167684 -14.66453,17.974384 21.67915,8.254769 21.35655,-9.056738 -14.34193,-18.232826 14.34193,18.232826 -21.35655,9.056738 v 23.197564 l -16.96761,9.262797 6.63764,18.156022 -6.63764,-18.156022 16.96761,-9.262797 14.26663,13.044641 -10.77898,16.047208"
           style="fill:none;stroke:#d62728;stroke-width:1.5;stroke-linecap:square;stroke-linejoin:round;stroke-miterlimit:10;stroke-dasharray:none;stroke-opacity:1"
           id="path609"
           inkscape:connector-curvature="0" /></g></g><g
       id="g611"><g
         id="g613"
         clip-path="url(#clipPath617)"><path
           d="m 217.8718,88.55367 c 0.79561,0 1.55874,0.316099 2.12132,0.87868 0.56258,0.562581 0.87868,1.325711 0.87868,2.12132 0,0.79561 -0.3161,1.55874 -0.87868,2.121321 -0.56258,0.56258 -1.32571,0.878679 -2.12132,0.878679 -0.79561,0 -1.55874,-0.316099 -2.12132,-0.878679 -0.56258,-0.562581 -0.87868,-1.325711 -0.87868,-2.121321 0,-0.795609 0.3161,-1.558739 0.87868,-2.12132 0.56258,-0.562581 1.32571,-0.87868 2.12132,-0.87868 z"
           style="fill:#008000;fill-opacity:1;fill-rule:nonzero;stroke:#008000;stroke-width:1;stroke-linecap:butt;stroke-linejoin:round;stroke-miterlimit:10;stroke-dasharray:none;stroke-opacity:1"
           id="path619"
           inkscape:connector-curvature="0" /></g></g><g
       id="g621"><g
         id="g623"
         clip-path="url(#clipPath627)"><path
           d="m 202.06667,134.71727 19.19114,2.32366 -4.22205,-0.5112 2.16185,-11.42174 -12.28233,-1.48714 12.28233,1.48714 2.16184,-11.42174 -13.81762,-1.67303 13.81762,1.67303 2.16185,-11.42173 -6.48554,34.26521 -10.74703,-1.30125 1.87965,-34.82289"
           style="fill:none;stroke:#ff0000;stroke-width:1.5;stroke-linecap:square;stroke-linejoin:round;stroke-miterlimit:10;stroke-dasharray:none;stroke-opacity:1"
           id="path629"
           inkscape:connector-curvature="0" /></g></g><g
       id="g631"><g
         id="g633"
         clip-path="url(#clipPath637)"><path
           d="m 205.17988,35.203446 -9.5662,21.133265 18.38616,14.144834 18.19046,-14.395619 -9.3705,-21.220757 9.3705,21.220757 -18.19046,14.395619 v 23.197564 l -14.64466,12.618761 6.58978,18.17345 -6.58978,-18.17345 14.64466,-12.618761 13.71465,13.623791 -7.85973,17.66137"
           style="fill:none;stroke:#9467bd;stroke-width:1.5;stroke-linecap:square;stroke-linejoin:round;stroke-miterlimit:10;stroke-dasharray:none;stroke-opacity:1"
           id="path639"
           inkscape:connector-curvature="0" /></g></g><g
       id="g641"><g
         id="g643"
         clip-path="url(#clipPath647)"><path
           d="m 213.99984,97.638378 c 0.79561,0 1.55874,0.316099 2.12132,0.87868 0.56258,0.56258 0.87868,1.325711 0.87868,2.121322 0,0.79561 -0.3161,1.55874 -0.87868,2.12132 -0.56258,0.56258 -1.32571,0.87868 -2.12132,0.87868 -0.79561,0 -1.55874,-0.3161 -2.12132,-0.87868 -0.56258,-0.56258 -0.87868,-1.32571 -0.87868,-2.12132 0,-0.795611 0.3161,-1.558742 0.87868,-2.121322 0.56258,-0.562581 1.32571,-0.87868 2.12132,-0.87868 z"
           style="fill:#008000;fill-opacity:1;fill-rule:nonzero;stroke:#008000;stroke-width:1;stroke-linecap:butt;stroke-linejoin:round;stroke-miterlimit:10;stroke-dasharray:none;stroke-opacity:1"
           id="path649"
           inkscape:connector-curvature="0" /></g></g><g
       id="g651"><g
         id="g653"
         clip-path="url(#clipPath657)"><path
           d="m 202.41869,147.55848 19.31917,0.68465 -4.25021,-0.15062 1.18355,-11.56412 -12.36427,-0.43818 12.36427,0.43818 1.18356,-11.56412 -13.9098,-0.49295 13.9098,0.49295 1.18356,-11.56412 -3.55067,34.69236 -10.81874,-0.38341 -1.08593,-34.85667"
           style="fill:none;stroke:#ff0000;stroke-width:1.5;stroke-linecap:square;stroke-linejoin:round;stroke-miterlimit:10;stroke-dasharray:none;stroke-opacity:1"
           id="path659"
           inkscape:connector-curvature="0" /></g></g><g
       id="g661"><g
         id="g663"
         clip-path="url(#clipPath667)"><path
           d="m 203.25071,35.278327 4.50923,22.755083 9.9561,20.952398 13.86538,-18.597803 0.59996,-23.189804 -0.59996,23.189804 -13.86538,18.597803 v 23.197562 l -12.76142,14.52052 6.44467,18.22541 -6.44467,-18.22541 12.76142,-14.52052 13.32235,14.00765 -5.72325,18.46466"
           style="fill:none;stroke:#8c564b;stroke-width:1.5;stroke-linecap:square;stroke-linejoin:round;stroke-miterlimit:10;stroke-dasharray:none;stroke-opacity:1"
           id="path669"
           inkscape:connector-curvature="0" /></g></g><g
       id="g671"><g
         id="g673"
         clip-path="url(#clipPath677)"><path
           d="m 217.71604,106.14264 c 0.79561,0 1.55874,0.3161 2.12132,0.87868 0.56258,0.56258 0.87868,1.32571 0.87868,2.12132 0,0.79561 -0.3161,1.55874 -0.87868,2.12132 -0.56258,0.56258 -1.32571,0.87868 -2.12132,0.87868 -0.79561,0 -1.55874,-0.3161 -2.12132,-0.87868 -0.56258,-0.56258 -0.87868,-1.32571 -0.87868,-2.12132 0,-0.79561 0.3161,-1.55874 0.87868,-2.12132 0.56258,-0.56258 1.32571,-0.87868 2.12132,-0.87868 z"
           style="fill:#008000;fill-opacity:1;fill-rule:nonzero;stroke:#008000;stroke-width:1;stroke-linecap:butt;stroke-linejoin:round;stroke-miterlimit:10;stroke-dasharray:none;stroke-opacity:1"
           id="path679"
           inkscape:connector-curvature="0" /></g></g><g
       id="g681"><g
         id="g683"
         clip-path="url(#clipPath687)"><path
           d="m 209.14947,158.17558 19.32756,-0.38002 -4.25206,0.0836 0.54509,-11.61174 -12.36965,0.24322 12.36965,-0.24322 0.54508,-11.61174 -13.91585,0.27362 13.91585,-0.27362 0.54509,-11.61174 -1.63526,34.83522 -10.82344,0.21282 -3.00336,-34.74402"
           style="fill:none;stroke:#ff0000;stroke-width:1.5;stroke-linecap:square;stroke-linejoin:round;stroke-miterlimit:10;stroke-dasharray:none;stroke-opacity:1"
           id="path689"
           inkscape:connector-curvature="0" /></g></g><g
       id="g691"><g
         id="g693"
         clip-path="url(#clipPath697)"><path
           d="m 214.79193,35.838024 3.63009,22.911775 11.91818,19.901854 15.49558,-17.263078 0.0527,-23.197504 -0.0527,23.197504 -15.49558,17.263078 v 23.197567 l -11.94739,15.19733 6.1442,18.32889 -6.1442,-18.32889 11.94739,-15.19733 12.96943,14.33503 -4.86241,18.7098"
           style="fill:none;stroke:#e377c2;stroke-width:1.5;stroke-linecap:square;stroke-linejoin:round;stroke-miterlimit:10;stroke-dasharray:none;stroke-opacity:1"
           id="path699"
           inkscape:connector-curvature="0" /></g></g><g
       id="g701"><g
         id="g703"
         clip-path="url(#clipPath707)"><path
           d="m 230.3402,105.80849 c 0.79561,0 1.55874,0.31609 2.12132,0.87868 0.56258,0.56258 0.87868,1.32571 0.87868,2.12132 0,0.79561 -0.3161,1.55874 -0.87868,2.12132 -0.56258,0.56258 -1.32571,0.87868 -2.12132,0.87868 -0.79561,0 -1.55874,-0.3161 -2.12132,-0.87868 -0.56258,-0.56258 -0.87868,-1.32571 -0.87868,-2.12132 0,-0.79561 0.3161,-1.55874 0.87868,-2.12132 0.56258,-0.56259 1.32571,-0.87868 2.12132,-0.87868 z"
           style="fill:#008000;fill-opacity:1;fill-rule:nonzero;stroke:#008000;stroke-width:1;stroke-linecap:butt;stroke-linejoin:round;stroke-miterlimit:10;stroke-dasharray:none;stroke-opacity:1"
           id="path709"
           inkscape:connector-curvature="0" /></g></g><g
       id="g711"><g
         id="g713"
         clip-path="url(#clipPath717)"><path
           d="m 222.63457,158.65273 19.31974,-0.6686 -4.25034,0.14709 0.37162,-11.61859 -12.36463,0.42791 12.36463,-0.42791 0.37163,-11.61858 -13.91021,0.48139 13.91021,-0.48139 0.37163,-11.61859 -1.11488,34.85576 -10.81906,0.37441 -3.52185,-34.69529"
           style="fill:none;stroke:#ff0000;stroke-width:1.5;stroke-linecap:square;stroke-linejoin:round;stroke-miterlimit:10;stroke-dasharray:none;stroke-opacity:1"
           id="path719"
           inkscape:connector-curvature="0" /></g></g><g
       id="g721"><g
         id="g723"
         clip-path="url(#clipPath727)"><path
           d="m 234.82081,36.819207 -8.65444,21.522724 19.39995,12.718847 19.61999,-12.376701 -8.87448,-21.432928 8.87448,21.432928 -19.61999,12.376701 v 23.197563 l -12.75255,14.528309 6.22675,18.30101 -6.22675,-18.30101 12.75255,-14.528309 13.13221,14.186059 -5.74069,18.45924"
           style="fill:none;stroke:#7f7f7f;stroke-width:1.5;stroke-linecap:square;stroke-linejoin:round;stroke-miterlimit:10;stroke-dasharray:none;stroke-opacity:1"
           id="path729"
           inkscape:connector-curvature="0" /></g></g><g
       id="g731"><g
         id="g733"
         clip-path="url(#clipPath737)"><path
           d="m 245.56632,98.217611 c 0.79561,0 1.55874,0.316098 2.12132,0.878679 0.56258,0.562581 0.87868,1.32571 0.87868,2.12132 0,0.79561 -0.3161,1.55874 -0.87868,2.12132 -0.56258,0.56258 -1.32571,0.87868 -2.12132,0.87868 -0.79561,0 -1.55874,-0.3161 -2.12132,-0.87868 -0.56258,-0.56258 -0.87868,-1.32571 -0.87868,-2.12132 0,-0.79561 0.3161,-1.558739 0.87868,-2.12132 0.56258,-0.562581 1.32571,-0.878679 2.12132,-0.878679 z"
           style="fill:#008000;fill-opacity:1;fill-rule:nonzero;stroke:#008000;stroke-width:1;stroke-linecap:butt;stroke-linejoin:round;stroke-miterlimit:10;stroke-dasharray:none;stroke-opacity:1"
           id="path739"
           inkscape:connector-curvature="0" /></g></g><g
       id="g741"><g
         id="g743"
         clip-path="url(#clipPath747)"><path
           d="m 236.64107,150.31898 19.32961,-0.25558 -4.25251,0.0562 0.61983,-11.608 -12.37095,0.16358 12.37095,-0.16358 0.61984,-11.60799 -13.91732,0.18402 13.91732,-0.18402 0.61984,-11.60799 -1.85951,34.82398 -10.82459,0.14312 -2.7796,-34.76263"
           style="fill:none;stroke:#ff0000;stroke-width:1.5;stroke-linecap:square;stroke-linejoin:round;stroke-miterlimit:10;stroke-dasharray:none;stroke-opacity:1"
           id="path749"
           inkscape:connector-curvature="0" /></g></g></g></g><text
   xml:space="preserve"
   style="font-style:normal;font-weight:normal;font-size:24.82806587px;line-height:1.25;font-family:sans-serif;letter-spacing:0px;word-spacing:0px;fill:#d0ffd5;fill-opacity:1;stroke:none;stroke-width:0.62070167;"
   x="159.31868"
   y="-27.956785"
   id="text837"
   transform="scale(0.82760219,-1.20831)"><tspan
     sodipodi:role="line"
     id="tspan835"
     x="159.31868"
     y="-27.956785"
     style="font-style:normal;font-variant:normal;font-weight:normal;font-stretch:normal;font-size:119.17472839px;font-family:'Comic Sans MS';-inkscape-font-specification:'Comic Sans MS';fill:#d0ffd5;stroke-width:0.62070167;fill-opacity:1;">d</tspan></text>

</g></svg>