<?xml version="1.0" encoding="UTF-8" standalone="no"?>
<!-- Created with Inkscape (http://www.inkscape.org/) -->

<svg
   xmlns:dc="http://purl.org/dc/elements/1.1/"
   xmlns:cc="http://creativecommons.org/ns#"
   xmlns:rdf="http://www.w3.org/1999/02/22-rdf-syntax-ns#"
   xmlns:svg="http://www.w3.org/2000/svg"
   xmlns="http://www.w3.org/2000/svg"
   xmlns:sodipodi="http://sodipodi.sourceforge.net/DTD/sodipodi-0.dtd"
   xmlns:inkscape="http://www.inkscape.org/namespaces/inkscape"
   width="1024"
   height="768"
   viewBox="0 0 270.93333 203.2"
   version="1.1"
   id="svg8"
   inkscape:version="0.92.2 5c3e80d, 2017-08-06"
   sodipodi:docname="badI.svg"
   inkscape:export-filename="/Users/radcli14/Desktop/drubble/extra_data/figs/bad_I_2048_1536.png"
   inkscape:export-xdpi="192"
   inkscape:export-ydpi="192">
  <defs
     id="defs2" />
  <sodipodi:namedview
     id="base"
     pagecolor="#ffffff"
     bordercolor="#666666"
     borderopacity="1.0"
     inkscape:pageopacity="0.0"
     inkscape:pageshadow="2"
     inkscape:zoom="0.32"
     inkscape:cx="302.55562"
     inkscape:cy="685"
     inkscape:document-units="mm"
     inkscape:current-layer="layer1"
     showgrid="false"
     units="px"
     width="16in"
     inkscape:window-width="1440"
     inkscape:window-height="790"
     inkscape:window-x="0"
     inkscape:window-y="1"
     inkscape:window-maximized="1" />
  <metadata
     id="metadata5">
    <rdf:RDF>
      <cc:Work
         rdf:about="">
        <dc:format>image/svg+xml</dc:format>
        <dc:type
           rdf:resource="http://purl.org/dc/dcmitype/StillImage" />
        <dc:title></dc:title>
      </cc:Work>
    </rdf:RDF>
  </metadata>
  <g
     inkscape:label="Layer 1"
     inkscape:groupmode="layer"
     id="layer1"
     transform="translate(0,-93.8)">
    <path
       inkscape:connector-curvature="0"
       id="path9982"
       d="m 238.81266,251.79867 c -0.15628,0.21347 -0.18862,0.21388 -1.92579,0.0242 -0.97177,-0.10606 -3.24975,-0.39294 -5.06216,-0.63752 -4.33774,-0.58536 -6.08157,-0.69417 -8.81826,-0.55025 -2.93438,0.15434 -4.50309,0.35258 -9.74121,1.23102 -3.47548,0.58282 -6.01722,0.90046 -11.11318,1.38879 -6.88091,0.65938 -9.74018,1.32857 -16.70439,3.90955 -3.19575,1.18438 -4.14265,1.57705 -7.18269,2.97861 -4.07138,1.87706 -6.11689,2.60326 -9.18595,3.26125 -1.48782,0.31898 -1.7474,0.33333 -2.32108,0.12836 -0.49392,-0.17648 -3.18734,-1.97749 -4.33658,-2.89974 -3.85078,-3.09022 -7.73794,-7.23393 -10.15183,-10.82188 -1.0715,-1.59264 -1.327,-2.10908 -1.33547,-2.69918 -0.008,-0.55121 0.18515,-0.67184 1.50136,-0.93805 5.53671,-1.11985 10.55972,-2.3642 16.90357,-4.1875 4.7038,-1.35195 5.99306,-1.65961 11.15747,-2.66255 5.31213,-1.03162 7.20642,-1.31052 12.21744,-1.79878 4.43862,-0.43248 7.5313,-0.91907 7.5313,-1.18496 0,-0.0629 -0.50329,-0.86783 -1.11839,-1.78864 -1.31586,-1.9698 -1.63497,-2.58439 -3.06733,-5.90745 -3.52169,-8.17021 -4.4645,-11.03688 -5.57483,-16.9505 -0.28229,-1.50347 -1.01138,-5.24401 -1.62021,-8.31231 -1.85487,-9.34795 -2.13041,-11.33315 -2.50873,-18.07511 -0.20259,-3.61015 -0.42763,-6.30999 -0.73003,-8.75864 -0.70731,-5.72714 -0.90593,-8.87505 -1.0686,-16.93645 -0.0709,-3.51265 -0.0935,-3.83515 -0.27638,-3.93301 -0.11991,-0.0642 -2.76607,-0.10697 -6.64996,-0.10766 -7.43648,-0.001 -13.56261,-0.15394 -15.86135,-0.39532 -3.13753,-0.32947 -7.48501,-1.27355 -8.79353,-1.90955 -0.43917,-0.21344 -1.34292,-0.81893 -2.00834,-1.34552 -1.63741,-1.29572 -4.60203,-4.28692 -5.67001,-5.72081 -0.80606,-1.08223 -1.62071,-2.52654 -1.62071,-2.87341 0,-0.28947 0.3565,-0.26636 1.97814,0.1282 3.50817,0.85358 3.58158,0.8612 9.3467,0.97022 2.88421,0.0545 8.83392,0.0682 13.22161,0.0303 5.50962,-0.0476 8.97807,-0.0269 11.21158,0.0668 3.22961,0.13553 3.23418,0.1354 3.38873,-0.0973 0.23617,-0.35567 0.95828,-0.3124 1.75171,0.10502 0.69459,0.36537 0.44397,0.33177 8.28307,1.11023 2.3715,0.2355 3.49181,0.41362 7.38686,1.17447 1.81987,0.35549 2.3348,0.41059 4.35141,0.46568 2.32887,0.0636 8.94588,-0.20555 10.12399,-0.41182 0.32138,-0.0562 0.96776,-0.28926 1.4364,-0.51778 l 0.85205,-0.41548 1.57612,0.003 c 1.52596,0.002 1.60378,0.0143 2.44533,0.36792 1.1481,0.4823 2.24848,1.21261 4.08771,2.71297 2.80738,2.29015 5.60053,5.08427 7.70676,7.70939 0.86158,1.07382 2.39799,3.36735 2.63373,3.93159 0.202,0.48341 0.19986,1.2084 -0.003,1.37763 -0.0878,0.0729 -0.65272,0.23469 -1.25522,0.35947 -1.08415,0.22453 -1.14492,0.22502 -5.89317,0.0468 -8.86775,-0.33282 -12.47525,-0.88634 -17.60413,-2.70108 -2.90198,-1.0268 -5.17633,-1.7385 -6.94232,-2.17241 -1.3506,-0.33186 -5.58545,-1.1052 -6.05208,-1.1052 -0.37117,0 -0.3175,0.25475 0.24364,1.15636 0.62797,1.00899 1.16992,2.16561 1.25213,2.67227 0.0436,0.26834 -0.0456,0.75787 -0.28154,1.54561 -0.18991,0.63409 -0.40142,1.60476 -0.47004,2.15706 -0.16193,1.30372 -0.294,13.59617 -0.19359,18.01932 0.0444,1.9574 0.17774,4.46948 0.31379,5.91346 0.16106,1.70957 0.26824,4.00539 0.33591,7.19657 0.17009,8.01885 0.39085,9.89325 2.11575,17.96355 0.48529,2.27054 1.24182,5.88556 1.68115,8.03338 0.43934,2.14781 1.04778,4.90263 1.35209,6.12181 0.75583,3.02813 2.40393,7.75294 2.82678,8.10388 0.21934,0.18203 5.55321,-0.25141 7.14652,-0.58074 1.76264,-0.36434 3.75217,-0.33095 6.7012,0.11248 3.26936,0.49159 4.05485,0.86812 7.23969,3.47041 4.76098,3.89014 9.26752,8.98287 10.52423,11.8932 0.45779,1.06017 0.50624,1.29781 0.31722,1.55602 z m -57.30741,-31.62544 c -0.44059,2.06004 -1.14248,3.38504 -2.5119,4.74193 -1.88239,1.86515 -4.29373,3.13645 -9.20805,4.85461 -4.73521,1.65554 -7.65988,2.1694 -14.28156,2.50931 -1.81031,0.093 -4.6722,0.25113 -6.35977,0.35156 -4.24829,0.25283 -4.13999,0.25717 -5.13877,-0.20548 -1.18611,-0.54943 -1.81997,-0.97642 -3.78979,-2.55285 -1.9132,-1.53113 -5.7569,-5.29567 -7.16892,-7.02128 -1.86246,-2.27612 -3.2405,-4.5142 -3.38336,-5.49496 -0.0991,-0.68019 -0.0181,-0.7042 1.64766,-0.48859 1.48574,0.1923 5.60301,0.41721 5.86679,0.3205 0.2658,-0.0974 0.13617,-0.36117 -0.54706,-1.11291 -0.96989,-1.06712 -2.19517,-2.61004 -2.90927,-3.66343 -1.73567,-2.56042 -2.22604,-4.00395 -2.76443,-8.13782 -0.3447,-2.64662 -0.84411,-5.47395 -1.39416,-7.8926 -0.93944,-4.13104 -2.18607,-9.41198 -2.52223,-10.68459 -0.48205,-1.82496 -5.03391,-15.49367 -5.75496,-17.28154 -0.87262,-2.16361 -1.01255,-3.75439 -0.37562,-4.2702 0.60667,-0.49129 4.46265,-0.66601 6.24025,-0.28274 1.88676,0.40679 5.06084,1.4809 7.65565,2.59064 2.21774,0.94847 12.31757,5.67128 14.17086,6.62647 6.52706,3.36404 14.19303,9.1012 20.20107,15.11835 1.23067,1.23251 2.67472,2.77091 3.20903,3.41865 5.69641,6.90581 7.65714,10.84609 8.54714,17.17635 0.76288,5.42613 0.96862,9.52349 0.5714,11.38062 z m -15.34338,-22.25918 c -0.38196,-2.97375 -0.77082,-5.18297 -1.19576,-6.7934 -0.34265,-1.29855 -0.36018,-1.33348 -0.83956,-1.67361 -1.47245,-1.04472 -4.75225,-2.67502 -10.01909,-4.98019 -6.22116,-2.72286 -8.78074,-3.63003 -11.49062,-4.07253 -2.26046,-0.3691 -4.16836,-0.091 -4.89673,0.71386 -0.27735,0.30645 -0.54146,1.8853 -0.45001,2.69002 0.18589,1.63551 1.50489,6.29933 3.07714,10.88019 1.09929,3.20289 1.51281,4.66274 3.31855,11.71535 1.25782,4.91273 1.7631,7.1623 2.06157,9.17843 0.0932,0.62976 0.20013,1.1946 0.23758,1.25521 0.0986,0.1595 0.31499,0.14134 2.02796,-0.17012 2.13625,-0.38844 4.10285,-0.96103 6.39507,-1.86197 6.31632,-2.4826 9.96459,-5.19576 11.42405,-8.49585 0.24095,-0.54483 0.43128,-1.14864 0.67368,-2.13719 0.13143,-0.53611 -0.0568,-4.16988 -0.32383,-6.2482 z m -26.73385,38.57698 c -0.21465,0.36855 -0.82405,0.23728 -2.37573,-0.51176 -1.67162,-0.80694 -5.00551,-2.70566 -7.18956,-4.09464 -4.91935,-3.1285 -9.72301,-7.4618 -13.84842,-12.49242 -2.64944,-3.2308 -5.75097,-7.9724 -7.78184,-11.89686 l -0.98888,-1.9109 -1.49972,-1.19708 c -1.7043,-1.36036 -1.79322,-1.39161 -3.96338,-1.39276 -1.76224,-7.9e-4 -3.172292,0.43391 -4.205135,1.29682 -1.573452,1.31459 -2.798859,3.84126 -3.589949,7.40211 -0.389628,1.75381 -0.479141,2.70108 -0.271523,2.87338 0.326325,0.27082 2.880695,0.60221 5.109872,0.66292 l 2.175705,0.0592 1.1449,-0.45849 c 1.76384,-0.70634 3.78285,-1.28118 4.48963,-1.27828 0.73707,0.003 0.87133,0.0691 2.76982,1.36343 2.23995,1.5271 3.62683,2.71144 6.27745,5.36063 2.69538,2.69392 3.99002,4.22584 5.55395,6.57192 1.02357,1.53546 1.06731,1.62628 1.11059,2.3059 0.0538,0.84588 0.16039,0.7663 -2.09969,1.56841 -1.46782,0.52093 -1.54043,0.5348 -2.84516,0.54344 -0.7364,0.005 -2.19244,-0.0806 -3.23567,-0.18982 -6.58173,-0.68941 -7.36908,-0.85977 -11.31857,-2.44899 -6.252551,-2.51595 -9.582056,-4.52959 -13.782281,-8.33538 -3.862753,-3.49999 -7.354278,-7.58957 -8.636172,-10.11543 -0.857887,-1.69039 -0.938973,-2.19749 -0.633712,-3.96334 0.08891,-0.5143 0.315682,-2.08049 0.503937,-3.48041 0.426694,-3.17302 0.775458,-4.84509 1.412357,-6.77119 1.57161,-4.75284 3.195231,-6.05935 7.884006,-6.34416 1.797233,-0.10916 4.074143,-0.0103 4.821706,0.20864 1.801249,0.52837 4.443307,2.40372 7.798189,5.5352 0.84681,0.79043 1.61768,1.45482 1.71304,1.47642 0.14822,0.0336 0.16197,-0.0554 0.0947,-0.61366 -0.0433,-0.35912 -0.12571,-1.05462 -0.18323,-1.54554 -0.0575,-0.49093 -0.10525,-2.70011 -0.10617,-4.9093 -0.002,-5.06251 -0.18,-9.99226 -0.36714,-10.16984 -0.25151,-0.23867 -5.497903,-0.61581 -9.897824,-0.71152 -4.692619,-0.10204 -8.375483,-8e-4 -11.938501,0.32736 -4.431684,0.40853 -6.512061,0.47842 -12.719516,0.42729 -6.558466,-0.0541 -6.268142,-0.0305 -10.878553,-0.87912 -3.369301,-0.62015 -4.04356,-0.93126 -6.775827,-3.12652 -4.420312,-3.55152 -8.83919,-8.4809 -10.103546,-11.27081 -0.530074,-1.16965 -0.556739,-1.52105 -0.127382,-1.67877 0.197087,-0.0723 2.127398,0.2889 6.016638,1.12611 4.230783,0.91073 7.212141,1.18456 12.831106,1.17854 4.055871,-0.005 5.602589,-0.0998 9.803812,-0.60436 4.661821,-0.55997 6.444312,-0.68181 10.893312,-0.74459 3.715566,-0.0525 4.605453,-0.03 7.196575,0.18169 1.626199,0.13284 4.71403,0.28759 6.861845,0.3439 3.937884,0.1033 4.630834,0.16517 5.675301,0.50716 4.0433,1.3239 11.88255,8.5264 15.95741,14.66125 0.92738,1.39621 1.42038,2.30192 1.89233,3.47644 0.98872,2.4606 1.14504,4.15338 1.0081,10.9167 -0.15242,7.52847 -0.11616,12.03205 0.11225,13.93913 0.36962,3.08634 1.6876,7.21848 3.30821,10.37201 l 0.91061,1.7719 0.94306,0.42022 c 1.22913,0.54768 2.32204,1.27839 4.16558,2.78513 4.87688,3.98583 9.33384,9.06296 10.63769,12.11787 0.44963,1.05347 0.45372,1.07264 0.28939,1.35478 z M 78.949143,225.17137 c -0.713763,1.44197 -2.492508,1.84879 -10.585302,2.42101 -2.862225,0.20236 -2.724266,0.1881 -7.084992,0.73228 -6.463585,0.80659 -6.246383,0.7919 -12.496387,0.84566 -3.191042,0.0274 -5.906253,0.0717 -6.033805,0.0982 -0.127554,0.0265 -0.289655,0.1751 -0.360227,0.32999 -0.169455,0.37192 -0.57649,0.36944 -1.430215,-0.009 -0.616586,-0.27312 -0.699703,-0.28302 -1.402167,-0.16737 -1.007685,0.1659 -1.71343,0.1547 -2.076075,-0.0329 -0.658433,-0.34075 -3.341707,-2.23789 -4.465794,-3.15742 -1.454527,-1.18984 -4.269162,-3.98954 -5.754744,-5.72421 -1.436103,-1.6769 -2.654531,-3.40794 -3.18063,-4.51878 -0.831562,-1.75583 -0.813876,-1.7852 1.074817,-1.7852 h 1.425459 l -0.03504,-1.50625 c -0.02126,-0.91385 0.02819,-1.94509 0.125736,-2.62202 0.127925,-0.88773 0.15027,-2.13648 0.109353,-6.11078 l -0.05143,-4.99501 -0.381135,-0.63295 c -0.493043,-0.81877 -0.487022,-1.22603 0.03926,-2.6544 0.389564,-1.05733 0.41002,-1.18 0.390736,-2.34307 -0.04038,-2.43567 -0.682597,-7.91239 -1.491523,-12.71952 -0.691273,-4.10797 -1.142135,-6.24008 -2.217841,-10.48804 -0.543886,-2.14782 -1.198178,-4.90292 -1.45398,-6.12247 -0.542124,-2.5846 -0.639404,-2.88999 -1.234798,-3.87643 -0.340905,-0.56479 -0.448016,-0.86064 -0.456024,-1.25956 -0.0057,-0.28676 0.01754,-0.54941 0.05179,-0.58365 0.192546,-0.19254 0.912093,-0.0427 1.763171,0.36715 2.518485,1.21284 6.767817,5.009 10.159611,9.0761 0.867389,1.0401 2.158601,3.01171 2.761225,4.21625 1.007629,2.01408 1.168458,2.58934 1.628664,5.82549 0.161446,1.13527 0.414345,2.69174 0.561997,3.45882 0.312451,1.62321 0.861092,4.95788 1.06002,6.44287 0.076,0.56731 0.194469,1.0782 0.263266,1.13529 0.0786,0.0652 0.767286,0.006 1.853111,-0.16086 2.408163,-0.36887 6.035824,-0.72282 7.408139,-0.72282 5.230752,0 11.26229,3.33247 17.955379,9.92047 3.613623,3.55689 6.452523,7.02242 8.618444,10.52078 1.539372,2.48638 2.766076,5.80903 4.282914,11.60075 0.990629,3.78253 1.066171,4.37872 0.659039,5.20125 z M 63.060228,206.16236 c -0.09414,-0.54777 -0.358894,-1.77417 -0.588327,-2.72535 l -0.417144,-1.72941 -0.399629,-0.13127 c -1.181192,-0.38801 -5.944727,-0.59769 -8.823913,-0.38839 -1.996335,0.14512 -4.67025,0.67482 -6.11289,1.21098 -3.135743,1.16539 -5.678269,2.90378 -6.635192,4.53665 l -0.309281,0.52775 0.144721,3.18072 c 0.0842,1.85067 0.194793,3.24913 0.264463,3.34428 0.102615,0.14017 0.359062,0.14705 1.793362,0.0481 1.970011,-0.13594 3.507569,-0.37877 7.119595,-1.12447 1.461134,-0.30163 3.846045,-0.74793 5.299803,-0.99174 4.367385,-0.73247 5.884438,-1.08998 6.994627,-1.64833 0.853301,-0.42914 1.169141,-0.68673 1.519526,-1.23923 0.383578,-0.60484 0.420021,-1.30088 0.150279,-2.87029 z"
       style="fill:#cccccc;stroke:#ffffff;stroke-width:2.37206173;stroke-miterlimit:4;stroke-dasharray:none;stroke-opacity:1" />
    <path
       inkscape:connector-curvature="0"
       id="path9994"
       d="m 249.35411,243.40018 c -0.0963,0.0963 -0.28463,0.20262 -0.41841,0.23621 -0.287,0.072 -3.00507,-0.23719 -7.4956,-0.85272 -6.21303,-0.85161 -8.66064,-0.75111 -17.79617,0.73081 -4.40448,0.71447 -5.40469,0.84336 -9.98594,1.28682 -5.07649,0.4914 -5.5503,0.54798 -7.1408,0.85261 -5.26682,1.00877 -11.28876,3.10509 -18.80034,6.54463 -3.53624,1.61926 -5.70226,2.35569 -8.58879,2.9202 -1.3559,0.26515 -1.99605,0.24975 -2.59817,-0.0626 -0.53641,-0.27818 -3.30627,-2.18358 -4.09878,-2.81956 -2.57356,-2.06526 -5.7848,-5.21905 -7.85315,-7.71261 -1.26527,-1.52539 -3.07554,-4.08998 -3.49814,-4.95579 -0.28287,-0.57952 -0.34714,-1.74146 -0.11306,-2.04307 0.0817,-0.10526 0.53234,-0.25643 1.08785,-0.36496 4.54978,-0.88896 10.89074,-2.43636 16.23413,-3.96164 6.49492,-1.85401 6.99457,-1.97433 12.94119,-3.11659 4.49446,-0.86332 6.64258,-1.18022 10.9916,-1.62156 3.86115,-0.39183 7.52245,-0.87289 7.67722,-1.0087 0.0189,-0.0166 -0.42829,-0.72596 -0.99374,-1.57643 -1.14909,-1.72829 -1.92155,-3.27269 -3.48017,-6.95798 -1.93756,-4.58127 -2.38827,-5.72805 -3.06941,-7.80992 -1.00697,-3.07775 -1.37545,-4.60533 -2.3685,-9.81858 -0.4968,-2.60806 -1.04722,-5.41975 -1.22317,-6.24819 -1.60986,-7.58046 -2.17112,-11.56063 -2.56463,-18.18669 -0.28013,-4.7172 -0.37083,-5.78979 -0.78312,-9.2607 -0.6683,-5.62627 -0.82885,-8.12493 -1.00281,-15.60811 -0.0591,-2.53989 -0.12128,-4.62961 -0.13831,-4.6438 -0.017,-0.0142 -3.79661,-0.0599 -8.39907,-0.10159 -12.02851,-0.10892 -13.81555,-0.21103 -17.90775,-1.02295 -4.48848,-0.89054 -5.14232,-1.16459 -7.54092,-3.16054 -2.7696,-2.3047 -5.61282,-5.51496 -6.47815,-7.31446 -0.45456,-0.94525 -0.48456,-1.43186 -0.10365,-1.68143 0.25332,-0.16596 0.38898,-0.14887 2.14782,0.27076 2.77054,0.66101 3.57683,0.78994 5.67097,0.90686 1.04322,0.0583 7.84649,0.11134 15.11838,0.11801 7.27187,0.007 13.81383,0.0453 14.53766,0.0859 1.23617,0.0692 1.32505,0.0601 1.46411,-0.14945 0.12355,-0.18626 0.26657,-0.22185 0.86478,-0.21532 0.57777,0.007 0.84556,0.0756 1.38106,0.35724 0.64963,0.34171 0.74561,0.3571 4.34627,0.69718 5.09343,0.48105 6.79288,0.70085 9.49197,1.22758 3.68365,0.71887 4.2054,0.77709 6.96965,0.77781 2.86817,7.9e-4 8.76131,-0.28715 9.41364,-0.4599 0.23992,-0.0635 0.71689,-0.27459 1.05996,-0.46902 l 0.62375,-0.35353 h 1.89678 1.89676 l 0.96163,0.46011 c 1.26822,0.60676 2.02862,1.13124 4.17081,2.87683 2.65236,2.16129 6.30905,5.89663 7.95927,8.13046 0.6284,0.85063 1.95597,2.85244 2.16231,3.26046 0.25734,0.50893 0.33325,1.11959 0.20046,1.61275 -0.11387,0.42282 -0.15477,0.45535 -0.83858,0.66655 -1.011,0.31227 -2.52643,0.49324 -3.45249,0.41232 -0.43283,-0.0378 -2.29321,-0.12049 -4.1342,-0.18371 -5.8641,-0.20136 -10.15586,-0.70143 -13.40679,-1.56218 -0.68484,-0.18132 -2.44214,-0.74891 -3.90512,-1.26128 -2.89345,-1.0134 -4.72049,-1.58536 -6.45352,-2.0203 -1.17274,-0.29432 -5.62702,-1.11187 -5.69382,-1.04506 -0.0215,0.0215 0.11548,0.28695 0.30419,0.59013 0.51234,0.82314 1.05809,1.95891 1.15336,2.40028 0.127,0.58839 0.0815,1.08251 -0.16913,1.83559 -0.52536,1.5787 -0.55629,2.00653 -0.69038,9.54504 -0.12762,7.17484 -0.0332,13.39189 0.24227,15.95519 0.26334,2.45042 0.35417,4.19719 0.4467,8.59125 0.15477,7.34921 0.39434,9.38451 1.96239,16.67183 0.39716,1.84572 1.15084,5.43951 1.67486,7.9862 0.52399,2.54669 1.1725,5.509 1.44111,6.58291 0.49903,1.99506 1.63342,5.50599 2.28018,7.05711 0.35703,0.85624 0.36455,0.86468 0.76855,0.86251 1.05675,-0.006 5.66208,-0.45725 6.65617,-0.65268 1.97278,-0.38782 2.57101,-0.39691 5.09135,-0.0774 4.0777,0.51687 4.72552,0.70266 6.5303,1.87273 2.18531,1.41681 6.67954,5.49543 9.13214,8.28764 3.21689,3.66235 5.00652,6.91516 4.23116,7.69052 z m -57.07458,-32.58116 c -0.7454,5.11067 -3.83946,7.7458 -12.66344,10.78513 -4.2499,1.46383 -7.56764,2.03991 -13.43317,2.33246 -1.25801,0.0628 -3.74333,0.19689 -5.52294,0.29808 -1.77962,0.10124 -3.81307,0.18892 -4.51879,0.19495 l -1.2831,0.0115 -1.08446,-0.53082 c -4.00765,-1.96165 -11.84936,-9.86483 -13.74799,-13.85577 -0.56697,-1.19177 -0.67012,-1.59134 -0.51569,-1.99753 0.18134,-0.47693 0.56037,-0.55324 1.78333,-0.35903 1.02887,0.1634 5.47157,0.43871 5.56539,0.34489 0.0251,-0.0251 -0.3145,-0.45464 -0.75484,-0.95436 -0.44034,-0.49971 -1.21491,-1.46919 -1.72128,-2.15443 -2.4951,-3.37643 -3.00323,-4.71973 -3.63674,-9.61397 -0.32949,-2.54568 -0.82606,-5.3622 -1.33518,-7.57325 -1.20163,-5.21864 -2.37922,-10.15969 -2.63583,-11.05974 -0.64594,-2.26551 -4.81759,-14.76027 -5.55051,-16.62463 l -0.78952,-2.00836 -0.006,-1.19055 c -0.005,-1.03611 0.0243,-1.23147 0.2265,-1.50625 0.31539,-0.42871 1.0536,-0.65691 2.65856,-0.82191 1.49974,-0.15415 2.6085,-0.0926 4.24994,0.23599 1.20288,0.24079 4.75635,1.3931 6.57607,2.1325 1.41803,0.57615 12.62624,5.75645 14.66997,6.78027 5.56862,2.78962 11.5704,7.02354 17.80513,12.56051 7.35074,6.52808 12.63248,13.92818 14.21215,19.91224 0.58234,2.20606 1.01555,5.25095 1.35518,9.52545 0.23288,2.93087 0.2542,4.05961 0.097,5.13717 z m -16.06042,-19.58799 c -0.36695,-3.62042 -1.08153,-7.82752 -1.58455,-9.329 l -0.25089,-0.7489 -1.17154,-0.69691 c -2.99289,-1.78042 -12.29404,-5.94651 -16.26135,-7.28365 -2.72172,-0.91733 -3.6663,-1.11791 -5.6073,-1.19072 -1.46648,-0.055 -1.67644,-0.0386 -2.24421,0.17656 -0.34451,0.13047 -0.70636,0.32562 -0.80412,0.43364 -0.23882,0.26388 -0.4523,1.71069 -0.36945,2.50372 0.15982,1.52978 1.24764,5.38341 2.96869,10.5168 1.26662,3.77789 1.56427,4.82464 3.39481,11.93851 1.16072,4.51069 1.7291,7.0148 2.03496,8.96513 l 0.19861,1.26649 0.56234,-0.0744 c 3.2478,-0.4297 7.05818,-1.67487 10.93879,-3.5746 4.68586,-2.29395 7.26399,-4.86692 8.14227,-8.126 0.18981,-0.70433 0.217,-3.15806 0.053,-4.77668 z M 149.893,228.17835 c -0.14409,0.14411 -0.37135,0.22295 -0.64155,0.22261 -0.77059,-7.9e-4 -3.54851,-1.39501 -7.50339,-3.76536 -3.90635,-2.34124 -6.67323,-4.42516 -10.34535,-7.79172 l -0.8057,-0.73867 1.0621,1.57474 c 0.58415,0.86612 1.135,1.78138 1.22411,2.03392 0.20957,0.59396 0.20677,1.3217 -0.007,1.62583 -0.16958,0.24211 -1.1149,0.64663 -2.99834,1.28302 -1.3476,0.45536 -2.43621,0.46487 -6.31726,0.0552 -5.96496,-0.62952 -7.10036,-0.90951 -11.93006,-2.94191 -6.20202,-2.60988 -9.48536,-4.80434 -14.496046,-9.68863 -2.705858,-2.6376 -5.578551,-6.0794 -6.507095,-7.79621 -0.670432,-1.2396 -1.117565,-2.3488 -1.175071,-2.91495 -0.03249,-0.32022 0.04215,-1.15204 0.175318,-1.95257 0.127594,-0.76708 0.360364,-2.37375 0.517268,-3.57039 0.397495,-3.0315 0.750173,-4.67102 1.46406,-6.80606 0.747413,-2.23531 1.327501,-3.36247 2.237045,-4.3468 0.745009,-0.80626 1.509951,-1.27428 2.71348,-1.66022 1.332846,-0.4274 2.184867,-0.51857 4.853511,-0.51935 2.88388,-8e-4 3.19298,0.0537 4.77925,0.84359 1.59114,0.79231 3.9537,2.60694 6.67074,5.12367 0.5706,0.52854 0.99179,0.84907 0.95296,0.72524 -0.18949,-0.6042 -0.29587,-3.23402 -0.30235,-7.47427 -0.007,-4.66974 -0.11879,-8.36198 -0.25702,-8.50023 -0.0401,-0.0399 -1.44088,-0.19587 -3.11303,-0.34634 -2.74046,-0.2466 -3.62882,-0.27463 -9.00949,-0.28429 -4.884197,-0.009 -6.324188,0.0243 -7.92182,0.18181 -5.538755,0.54616 -5.977113,0.56565 -12.886882,0.57342 -7.448621,0.008 -7.188041,0.0265 -11.938499,-0.83346 -2.643038,-0.47849 -3.404399,-0.69936 -4.494085,-1.30371 -1.991306,-1.10441 -5.693265,-4.295 -8.400349,-7.23998 -2.421584,-2.63438 -3.908896,-4.65265 -4.619274,-6.26836 -0.450277,-1.02412 -0.500663,-1.59023 -0.170886,-1.92001 0.371529,-0.37152 0.183994,-0.40028 7.921805,1.21459 3.223473,0.67274 7.561895,0.96788 12.775308,0.86909 3.776637,-0.0715 4.291445,-0.10904 8.702832,-0.63303 4.804146,-0.57066 6.780493,-0.69271 11.492198,-0.7097 3.656114,-0.0132 4.824979,0.0244 7.315099,0.23533 1.678933,0.14222 3.855463,0.25177 5.020873,0.2527 2.57969,0.002 5.0586,0.16753 6.0112,0.40123 2.50778,0.6152 6.02086,3.10987 10.4244,7.40246 2.95699,2.88248 6.15614,6.93574 7.57735,9.60032 1.71792,3.2209 1.98722,5.43721 1.74887,14.39315 -0.21972,8.2561 -0.0792,11.96601 0.55627,14.6873 0.48307,2.06862 1.68939,5.3763 2.68007,7.34871 l 0.95271,1.89678 0.78102,0.37134 c 2.0895,0.9935 4.17321,2.57136 7.50648,5.68421 3.36093,3.13867 6.55562,7.11719 7.53952,9.38931 0.46606,1.07629 0.52109,1.67946 0.18396,2.01659 z m -25.4532,-19.15934 c -2.19253,-2.90893 -5.07166,-7.54621 -6.739,-10.85415 -0.32482,-0.64442 -0.69366,-1.23367 -0.81965,-1.30946 -0.126,-0.0759 -0.77071,-0.57505 -1.43269,-1.10943 l -1.20359,-0.97162 -1.67637,-0.0471 c -2.62974,-0.0739 -3.74392,0.30707 -5.07895,1.7366 -1.2271,1.31395 -2.1827,3.48081 -2.84134,6.44282 -0.16374,0.73639 -0.30576,1.64015 -0.3156,2.00834 l -0.0179,0.66944 1.11574,0.18957 c 1.46484,0.24888 4.41014,0.46672 5.19911,0.38454 0.3435,-0.0357 1.22962,-0.29139 1.96916,-0.56802 3.02331,-1.13095 4.42186,-1.38476 5.32811,-0.96696 1.21514,0.56018 4.65161,3.13777 6.55503,4.91669 0.47557,0.44448 0.86469,0.77973 0.86469,0.74498 0,-0.0347 -0.40805,-0.60457 -0.90676,-1.26623 z m -34.673629,7.06931 c -0.141438,0.54837 -0.559869,1.14708 -1.049629,1.50186 -1.086293,0.78692 -3.272553,1.16968 -9.17142,1.60571 -2.147815,0.15876 -5.059916,0.43514 -6.471337,0.61417 -7.788588,0.98794 -9.534077,1.10946 -15.994102,1.11348 l -3.944032,0.002 -0.312681,0.33472 c -0.38959,0.41707 -0.673229,0.423 -1.620621,0.034 -0.701055,-0.2879 -0.765782,-0.29508 -1.510539,-0.16736 -1.59613,0.2737 -1.77471,0.21551 -3.990075,-1.30007 -4.021051,-2.7509 -8.289598,-7.035 -10.934991,-10.97484 -0.775189,-1.1545 -1.380878,-2.54435 -1.336335,-3.06642 0.05931,-0.69508 0.366452,-0.81812 1.806396,-0.72365 l 1.214182,0.0797 -0.07277,-1.12567 c -0.04895,-0.75723 -0.01879,-1.52478 0.09216,-2.34499 0.130013,-0.96113 0.158003,-2.29416 0.132197,-6.29594 l -0.03275,-5.07666 -0.297143,-0.43371 c -0.63094,-0.92092 -0.625149,-1.50724 0.0327,-3.30978 0.411498,-1.12752 0.418797,-1.43823 0.111408,-4.74199 -0.310879,-3.34121 -0.68652,-6.19681 -1.288212,-9.79287 -0.699875,-4.18288 -1.119915,-6.16294 -2.335594,-11.01003 -0.577166,-2.30122 -1.203845,-4.93718 -1.392621,-5.85767 -0.458807,-2.23719 -0.589002,-2.64324 -1.139793,-3.55484 -0.386793,-0.64016 -0.477225,-0.89818 -0.513283,-1.46445 -0.05539,-0.86993 0.101444,-1.06152 0.868942,-1.06152 1.673907,0 6.219208,3.44171 9.918718,7.5105 2.489561,2.73806 3.756228,4.50334 4.863128,6.77746 0.874979,1.79763 1.083057,2.55486 1.506563,5.4826 0.183712,1.27001 0.507521,3.25325 0.719574,4.4072 0.412762,2.24616 0.957824,5.65675 0.960633,6.01094 0.0037,0.46181 0.116424,0.49459 1.106637,0.32172 0.513562,-0.0896 2.068403,-0.29396 3.455201,-0.45402 3.355602,-0.38728 5.729292,-0.40497 7.370119,-0.055 3.70486,0.79037 7.887905,3.14427 12.383934,6.96875 2.581987,2.19632 6.441862,6.21293 8.441328,8.78406 4.233048,5.44333 5.399035,8.01117 7.797766,17.1728 0.634132,2.42198 0.791471,3.44921 0.626351,4.08937 z M 72.893895,197.49528 c -0.154089,-0.999 -0.883901,-4.04994 -0.998108,-4.17252 -0.252879,-0.2714 -1.753128,-0.41737 -4.919934,-0.47864 -3.639074,-0.0704 -4.959767,0.0171 -7.212594,0.47807 -1.801905,0.36865 -2.803263,0.7042 -4.444382,1.48924 -2.352275,1.12522 -3.860365,2.2712 -4.581157,3.4812 l -0.355842,0.59735 0.101261,1.72941 c 0.05569,0.95117 0.133264,2.325 0.172376,3.05294 l 0.07112,1.32353 1.187641,-0.0769 c 1.963171,-0.12704 3.47489,-0.35761 6.989519,-1.06602 1.840989,-0.37107 4.668479,-0.89836 6.283323,-1.17176 5.471319,-0.9263 7.085855,-1.50279 7.703199,-2.75055 0.24958,-0.50445 0.250063,-0.83729 0.0039,-2.43536 z"
       style="fill:#00ff00;stroke-width:0.11157478" />
    <path
       inkscape:connector-curvature="0"
       id="path9992"
       d="m 249.19258,243.41008 c -0.21696,0.19635 -0.28859,0.19675 -1.98045,0.0115 -0.96544,-0.10583 -3.41223,-0.41319 -5.43731,-0.68291 -4.39389,-0.58518 -6.09591,-0.68225 -8.92598,-0.50904 -2.37933,0.14562 -4.61635,0.4383 -9.42806,1.23356 -3.75317,0.62029 -5.54637,0.84248 -11.26905,1.39629 -6.64532,0.64309 -9.63967,1.35908 -16.7931,4.01549 -2.52751,0.93858 -3.9955,1.55293 -6.80496,2.84785 -4.1474,1.91157 -6.23238,2.64774 -9.3154,3.28913 -2.03897,0.4242 -2.09369,0.40855 -4.6461,-1.32931 -3.51806,-2.39533 -7.50494,-6.15695 -10.47517,-9.88336 -1.17838,-1.47836 -2.75766,-3.78612 -3.02462,-4.41979 -0.23461,-0.55688 -0.24402,-1.56267 -0.0168,-1.78995 0.0959,-0.096 1.05234,-0.35227 2.21953,-0.59485 5.28742,-1.09889 9.53203,-2.14892 15.31211,-3.7879 6.62654,-1.87901 6.40267,-1.82554 12.9031,-3.08182 4.23319,-0.81811 6.32269,-1.1215 11.09705,-1.6113 1.83845,-0.18861 4.02252,-0.44278 4.85351,-0.56483 0.831,-0.12206 1.72565,-0.25282 1.98814,-0.29058 0.26248,-0.0378 0.50363,-0.11134 0.53589,-0.16358 0.0323,-0.0522 -0.39776,-0.778 -0.95564,-1.61287 -1.2046,-1.80273 -1.64527,-2.65907 -3.07102,-5.96782 -3.68284,-8.54685 -4.3792,-10.73153 -5.79429,-18.17857 -0.4606,-2.42395 -1.1365,-5.88835 -1.502,-7.69865 -1.67289,-8.28564 -2.01157,-10.78712 -2.4095,-17.79618 -0.22203,-3.91133 -0.33463,-5.22745 -0.73017,-8.53547 -0.65504,-5.47813 -0.82143,-7.96822 -0.99903,-14.95103 -0.0601,-2.36259 -0.10985,-4.57617 -0.11065,-4.91907 l -0.001,-0.62347 -8.78651,-0.0724 c -12.41915,-0.10239 -14.1837,-0.22628 -19.2751,-1.35388 -2.85164,-0.63157 -3.57165,-0.95337 -5.41082,-2.41828 -1.68964,-1.34582 -4.52409,-4.20841 -5.61967,-5.67548 -1.49321,-1.99952 -1.99289,-3.29948 -1.37626,-3.58044 0.19722,-0.0899 0.51283,-0.0519 1.36679,0.16446 3.33217,0.84413 4.22333,0.96504 8.02801,1.08922 2.08863,0.0682 7.55261,0.0937 13.16581,0.0614 5.27749,-0.0303 11.06114,-0.007 12.85255,0.0533 l 3.25713,0.10836 0.33483,-0.24754 c 0.43692,-0.32305 1.18792,-0.24727 2.09763,0.21164 0.61979,0.31266 0.81789,0.34321 4.44226,0.68525 5.06315,0.47779 6.80424,0.70416 9.47135,1.23129 3.54712,0.70109 4.23366,0.77957 6.82694,0.78029 2.22819,7.9e-4 8.00896,-0.25322 9.08038,-0.39874 0.27363,-0.0372 0.85103,-0.25119 1.2831,-0.47563 l 0.78562,-0.40808 h 1.89677 1.89677 l 0.98231,0.46978 c 1.18192,0.56524 2.01688,1.1386 3.90144,2.67905 3.69405,3.01953 7.16904,6.73078 9.27319,9.90366 1.05869,1.59642 1.19152,1.865 1.26241,2.55263 0.0974,0.94499 -0.28042,1.19518 -2.3093,1.52906 -1.16246,0.19131 -9.66313,-0.18075 -13.16583,-0.57624 -3.83862,-0.43341 -5.89582,-0.86855 -8.75862,-1.85256 -4.0902,-1.40591 -6.13076,-2.06079 -7.54284,-2.42071 -1.58084,-0.40293 -6.10746,-1.23777 -6.2015,-1.14375 -0.0305,0.0305 0.22205,0.5237 0.56124,1.09598 1.0929,1.84393 1.23742,2.62132 0.72855,3.91853 -0.46765,1.19213 -0.54538,2.28935 -0.66557,9.39519 -0.14871,8.79226 -0.0619,12.57678 0.40455,17.62882 0.0963,1.04322 0.22038,4.05575 0.27569,6.69448 0.1443,6.88303 0.43289,9.63468 1.57393,15.00682 0.3063,1.4421 1.13065,5.38347 1.83189,8.75861 1.44198,6.94045 1.84759,8.6439 2.64341,11.1017 0.66225,2.04528 1.61685,4.5417 1.77378,4.63868 0.2173,0.1343 5.17978,-0.30436 6.73679,-0.59549 2.18026,-0.40766 3.72405,-0.39173 6.84876,0.0707 3.34744,0.49537 4.1541,0.86069 7.05375,3.19454 5.04651,4.06181 9.71951,9.29172 11.08193,12.40263 0.46174,1.05436 0.51647,1.68184 0.17372,1.99203 z m -57.07634,-32.2319 c -0.58366,3.47428 -2.60294,5.91619 -6.5834,7.96124 -1.90246,0.97745 -6.01297,2.50292 -8.75031,3.24738 -3.8682,1.05201 -6.75605,1.33113 -20.33276,1.9652 l -1.42084,0.0663 -1.26934,-0.63146 c -3.38566,-1.68426 -9.89936,-7.9082 -12.73242,-12.16604 -0.67808,-1.01908 -1.50602,-2.75143 -1.50888,-3.15712 -7.9e-4,-0.13465 0.11642,-0.38218 0.26083,-0.55006 l 0.26256,-0.30525 1.32738,0.19152 c 1.20087,0.17326 5.62195,0.44165 5.71867,0.34715 0.0219,-0.0215 -0.30502,-0.43105 -0.72656,-0.91028 -1.07561,-1.22285 -2.12342,-2.58881 -2.93645,-3.82806 -1.59011,-2.42368 -2.00484,-3.71326 -2.56555,-7.97758 -0.48844,-3.71457 -0.82171,-5.44055 -2.13286,-11.04591 -1.72634,-7.38045 -1.94172,-8.14621 -4.28527,-15.23589 -1.24861,-3.77727 -2.50762,-7.49271 -2.7978,-8.25652 -1.09615,-2.88525 -1.15931,-3.10816 -1.16186,-4.1 -0.002,-1.04665 0.16147,-1.49133 0.64107,-1.73654 0.99383,-0.50811 4.53627,-0.61647 6.48298,-0.19827 1.78904,0.38433 5.32428,1.60351 7.88038,2.71765 1.73813,0.75763 11.71958,5.41349 13.33318,6.2193 3.87951,1.93734 8.86205,5.19806 12.88453,8.43203 7.09059,5.70062 11.72012,10.53171 15.28631,15.95178 1.23246,1.87315 1.73304,2.78435 2.54374,4.63035 1.4438,3.28756 2.04656,6.36443 2.58993,13.2205 0.2004,2.52865 0.19843,3.9241 -0.007,5.14853 z m -16.05238,-22.10679 c -0.5198,-3.9662 -1.17128,-7.21385 -1.57001,-7.82644 -0.3848,-0.59118 -4.74585,-2.8142 -10.1519,-5.17483 -7.4056,-3.23378 -9.99072,-4.073 -12.94653,-4.20291 -1.63298,-0.0717 -2.45475,0.0837 -3.03819,0.57456 -0.28055,0.23608 -0.34213,0.39872 -0.46583,1.23009 -0.0789,0.5301 -0.10858,1.19312 -0.0665,1.48432 0.26081,1.8045 1.46661,6.0331 3.06116,10.73535 1.30188,3.8391 1.52466,4.63066 3.45418,12.27322 0.86793,3.43774 1.58117,6.52812 1.77544,7.69274 0.17979,1.07778 0.38126,1.96548 0.45137,1.98885 0.21689,0.0723 3.13031,-0.50576 4.63669,-0.91997 3.0179,-0.82984 7.4628,-2.81684 9.8762,-4.41494 2.76785,-1.83283 4.35267,-3.76764 5.11403,-6.24345 0.23883,-0.77662 0.25392,-0.98534 0.20983,-2.90096 -0.0304,-1.32199 -0.15266,-2.86644 -0.33997,-4.29563 z m -26.27969,39.0487 c -0.35654,0.32267 -1.0533,0.16588 -2.61256,-0.58787 -3.88988,-1.8804 -8.70353,-4.91201 -12.03294,-7.57831 -1.20179,-0.96242 -1.79913,-1.49084 -4.54168,-4.0177 l -0.942,-0.86789 0.67212,0.8926 c 0.93294,1.23898 2.26247,3.24185 2.45014,3.69103 0.22246,0.53239 0.2022,1.41891 -0.0388,1.70079 -0.20816,0.24341 -2.58512,1.14209 -3.74276,1.41505 -0.87816,0.20706 -1.62882,0.20767 -3.40266,0.002 -0.77987,-0.0901 -2.24638,-0.24327 -3.25892,-0.34037 -4.11607,-0.39474 -5.71506,-0.77175 -9.20492,-2.1704 -7.29621,-2.92411 -10.93078,-5.30566 -16.350825,-10.7138 -2.055534,-2.05102 -3.877895,-4.15278 -5.207949,-6.0064 -0.847474,-1.18107 -1.777195,-3.01304 -1.951953,-3.84619 -0.133634,-0.63713 -0.131816,-0.65932 0.289897,-3.53696 0.09442,-0.64434 0.299046,-2.07529 0.454709,-3.17988 0.346676,-2.46009 0.722814,-4.15717 1.310635,-5.91347 1.33664,-3.99363 2.576044,-5.37128 5.547382,-6.16614 1.013496,-0.27111 1.221273,-0.28637 4.025404,-0.29554 l 2.95671,-0.009 0.94199,0.36267 c 2.05705,0.79197 4.72905,2.75278 7.61777,5.59018 0.59633,0.58573 1.10951,1.03973 1.14037,1.00886 0.0309,-0.0309 0.005,-0.32957 -0.0579,-0.66377 -0.0627,-0.33418 -0.15662,-3.64525 -0.20883,-7.3579 -0.0522,-3.71266 -0.13147,-7.13441 -0.17615,-7.60392 l -0.0813,-0.85364 -0.57139,-0.0654 c -3.61263,-0.41358 -6.34668,-0.54115 -11.78464,-0.54989 -4.530106,-0.007 -6.017247,0.0283 -7.587085,0.18154 -5.710589,0.55746 -5.947582,0.56788 -13.054247,0.57355 -7.689322,0.007 -7.419223,0.0255 -12.329004,-0.88668 -3.50903,-0.65198 -4.063682,-0.91786 -7.196575,-3.44979 -1.785111,-1.44269 -5.928945,-5.56055 -7.224386,-7.1791 -2.373032,-2.96494 -3.488652,-5.25317 -2.865158,-5.87666 0.322759,-0.32276 0.411355,-0.30885 7.690686,1.20824 3.374859,0.70337 7.904571,1.02786 12.886882,0.92316 3.404666,-0.0715 4.962503,-0.17727 7.69866,-0.52256 7.145236,-0.90168 13.965246,-1.11784 19.414007,-0.61534 1.012537,0.0934 3.67361,0.21842 5.91346,0.27783 5.00405,0.13273 5.71849,0.23744 7.41307,1.0865 2.12097,1.06268 4.47015,2.86814 7.86427,6.04405 3.13045,2.9292 6.61724,7.26125 8.1988,10.18632 1.62734,3.00973 1.95015,5.28201 1.78053,12.53319 -0.14132,6.04179 -0.11708,12.26271 0.0535,13.71801 0.37973,3.24082 1.67407,7.357 3.31333,10.53684 l 0.84938,1.64764 0.93293,0.42017 c 1.22734,0.55278 2.10616,1.14041 4.00631,2.6789 4.83935,3.91825 9.55433,9.24135 10.83418,12.23153 0.44421,1.03787 0.4966,1.64598 0.16744,1.94387 z m -24.56697,-18.24 c -1.15595,-1.47279 -1.93111,-2.58797 -3.68385,-5.2998 -1.77111,-2.74024 -2.37037,-3.7657 -3.49545,-5.9815 -0.53801,-1.05955 -0.93087,-1.69769 -1.12248,-1.82322 -0.16213,-0.10618 -0.82621,-0.62382 -1.47573,-1.1502 l -1.18096,-0.95703 -1.68054,-0.0492 c -1.33977,-0.0393 -1.82762,-0.0115 -2.40579,0.13966 -1.35286,0.35238 -2.32842,0.97939 -3.11781,2.00385 -0.50959,0.66134 -1.43525,2.48502 -1.78771,3.52205 -0.69688,2.05043 -1.29566,5.17777 -1.02356,5.34594 0.25031,0.15469 2.71874,0.47624 4.31075,0.56154 1.98767,0.10652 2.78045,0.0115 3.96983,-0.47849 1.49944,-0.61701 3.59599,-1.18915 4.35761,-1.18915 0.80883,0 1.02349,0.10377 2.99288,1.44669 1.70245,1.16092 3.54962,2.67376 5.21337,4.26975 0.62472,0.59929 1.17226,1.08963 1.21671,1.08963 0.0444,0 0.006,-0.0878 -0.0872,-0.19526 -0.0924,-0.10744 -0.54246,-0.67224 -1.00003,-1.25521 z m -35.61818,6.37626 c -0.298903,0.8367 -1.091631,1.52173 -2.111451,1.82458 -1.584008,0.4704 -3.228559,0.67623 -8.444532,1.05687 -1.748937,0.12762 -4.987393,0.45579 -7.196574,0.72926 -6.96084,0.86163 -6.757253,0.8474 -13.082135,0.91511 -3.206379,0.0343 -5.829783,0.10583 -5.829783,0.1589 0,0.21336 -0.465614,0.54279 -0.767139,0.54279 -0.176462,0 -0.615788,-0.13143 -0.97628,-0.29207 -0.626318,-0.2791 -0.692616,-0.2865 -1.492249,-0.16663 -1.183257,0.17739 -1.547494,0.15542 -2.129611,-0.12849 -0.670742,-0.32713 -2.923849,-1.87977 -4.105854,-2.82936 -4.758649,-3.823 -9.942875,-10.19009 -9.942875,-12.21151 0,-0.68503 0.231725,-0.77674 1.756186,-0.69504 l 1.274616,0.0683 -0.07498,-1.27278 c -0.05343,-0.90697 -0.02672,-1.59346 0.09293,-2.38853 0.243454,-1.61785 0.178716,-11.24883 -0.07751,-11.53196 -0.271277,-0.29975 -0.623196,-1.15819 -0.624075,-1.52229 -4.46e-4,-0.18409 0.204103,-0.93723 0.454546,-1.67362 0.453317,-1.33291 0.455047,-1.34439 0.387063,-2.56622 -0.16455,-2.95737 -0.775224,-8.01404 -1.468715,-12.16165 -0.65788,-3.93463 -1.131621,-6.18016 -2.230783,-10.57383 -0.579827,-2.31775 -1.206346,-4.9537 -1.392266,-5.85769 -0.511651,-2.48774 -0.743178,-3.24514 -1.248834,-4.08534 -0.366839,-0.60952 -0.472061,-0.9033 -0.509643,-1.42286 -0.05997,-0.82908 0.06195,-0.98889 0.754392,-0.98889 2.375656,0 9.814046,6.55548 13.269478,11.69445 0.843483,1.25444 1.914879,3.3914 2.279445,4.54649 0.156892,0.4971 0.44076,1.99435 0.63461,3.34724 0.192906,1.3463 0.470877,3.07544 0.617717,3.84252 0.340569,1.77912 0.656239,3.65939 0.944761,5.62737 0.125375,0.8552 0.242982,1.56993 0.261345,1.58829 0.01836,0.0184 0.456722,-0.0414 0.97413,-0.13287 1.365506,-0.24134 5.624362,-0.71073 7.185567,-0.79194 3.707128,-0.19286 7.363916,1.00406 11.48391,3.75888 5.752234,3.84619 11.375024,9.54299 15.517924,15.72221 1.180481,1.7607 1.717184,2.77122 2.489859,4.68797 1.118989,2.77583 1.454042,3.8892 3.322832,11.04146 0.195537,0.74834 0.197118,1.60022 0.0039,2.14085 z m -16.579644,-18.5937 c -0.149108,-0.9166 -0.906523,-4.24697 -1.000433,-4.39892 -0.264793,-0.42845 -6.448506,-0.73543 -9.377392,-0.46554 -2.809645,0.25891 -5.214497,0.89206 -7.440447,1.95891 -2.227187,1.06746 -3.729888,2.21055 -4.515595,3.43497 l -0.356043,0.55485 0.140071,3.08148 c 0.07704,1.69481 0.166696,3.12455 0.199236,3.1772 0.07025,0.11364 1.68364,0.0166 3.548881,-0.21332 0.736392,-0.0908 2.811874,-0.46342 4.612182,-0.82804 1.800309,-0.36463 4.637097,-0.89491 6.303976,-1.17842 5.117186,-0.87034 6.827632,-1.4268 7.629026,-2.48195 0.329954,-0.43443 0.366674,-0.55753 0.366088,-1.22731 -3.31e-4,-0.40945 -0.04966,-1.04571 -0.109548,-1.41391 z"
       style="fill:#00ff00;stroke-width:0.11157478" />
    <path
       inkscape:connector-curvature="0"
       id="path9990"
       d="m 249.24052,243.2278 c -0.26966,0.37552 -0.14912,0.38615 -9.47405,-0.83441 -1.69187,-0.22145 -2.60426,-0.27741 -4.51877,-0.27707 -3.59989,5.5e-4 -4.66405,0.1103 -10.93433,1.12689 -5.05308,0.81927 -6.70395,1.02498 -12.97406,1.61659 -5.38851,0.50844 -8.78706,1.30353 -14.51012,3.3946 -3.41874,1.24913 -4.40848,1.64268 -6.54611,2.60293 -0.95118,0.42727 -2.45744,1.10418 -3.34724,1.50424 -3.14282,1.41299 -5.08402,2.0535 -7.8854,2.60178 -1.80575,0.35342 -1.92945,0.32084 -3.97373,-1.04647 -4.6787,-3.12937 -9.47558,-7.89335 -12.65949,-12.5727 -1.16054,-1.70561 -1.47831,-2.36633 -1.47831,-3.07368 0,-0.54566 0.28791,-0.78772 1.11575,-0.93812 3.62018,-0.65769 11.27773,-2.53065 16.68042,-4.07986 5.47252,-1.56923 6.9111,-1.91621 12.02815,-2.90112 5.07243,-0.97632 6.96282,-1.25872 11.56991,-1.72844 4.54876,-0.46376 7.81025,-0.9297 7.81025,-1.11578 0,-0.0497 -0.48076,-0.81024 -1.06833,-1.69006 -1.22574,-1.83539 -1.79658,-2.97595 -3.49432,-6.98184 -3.29433,-7.77305 -3.95257,-9.86661 -5.25376,-16.70963 -0.43174,-2.27055 -1.06169,-5.47831 -1.39988,-7.12838 -1.78558,-8.71185 -2.17137,-11.52758 -2.6159,-19.09169 -0.2327,-3.95955 -0.36738,-5.47363 -0.83373,-9.37228 -0.56367,-4.71251 -0.76494,-8.13295 -0.91102,-15.48309 -0.0759,-3.8211 -0.0806,-3.88003 -0.31136,-3.9272 -0.12885,-0.0263 -4.32627,-0.0732 -9.32761,-0.1041 -11.40802,-0.0706 -13.14752,-0.17773 -17.46632,-1.07587 -3.82214,-0.79485 -4.50373,-1.07308 -6.48461,-2.64706 -1.37935,-1.09599 -4.13328,-3.80584 -5.12893,-5.04684 -1.50123,-1.87114 -2.29345,-3.35849 -2.06081,-3.86907 0.0649,-0.14256 0.2146,-0.2592 0.33254,-0.2592 0.11795,0 0.93491,0.17111 1.8155,0.38025 2.24984,0.53432 3.21998,0.71773 4.50198,0.85115 0.70756,0.0736 5.87094,0.11467 14.1142,0.11214 7.56791,-0.002 14.0643,0.0456 15.54961,0.11467 2.55098,0.11857 2.55119,0.11856 2.81177,-0.12624 0.21976,-0.20647 0.35506,-0.23697 0.8638,-0.19478 0.35765,0.0296 0.8409,0.1743 1.18705,0.3553 0.59785,0.31262 1.72289,0.46268 7.20252,0.96079 2.12205,0.19289 4.5812,0.53259 6.08697,0.84085 4.6422,0.95027 6.40397,1.08299 11.20712,0.84421 5.52406,-0.27463 5.7038,-0.29482 6.59203,-0.74072 0.98015,-0.49203 1.96148,-0.64915 3.43766,-0.55041 1.24301,0.0831 1.86663,0.303 3.35928,1.18426 1.84649,1.09017 5.63086,4.40218 8.10952,7.09729 1.8771,2.041 2.72638,3.10501 3.97526,4.98031 1.0249,1.53895 1.21009,2.00415 1.11841,2.80938 -0.0481,0.42229 -0.48751,0.6427 -1.78671,0.89621 -0.90845,0.17724 -1.26712,0.17746 -5.80189,0.003 -9.39968,-0.36063 -11.70782,-0.73715 -18.55725,-3.02722 -2.45465,-0.82069 -5.09512,-1.64564 -5.86773,-1.83323 -1.02011,-0.24765 -5.66129,-1.1175 -5.98709,-1.12207 -0.11903,-0.001 0.0428,0.36635 0.4321,0.9828 1.16091,1.83816 1.3624,2.62189 0.98679,3.83844 -0.13804,0.44708 -0.31833,1.11414 -0.40062,1.48234 -0.27375,1.22476 -0.39876,6.49632 -0.34648,14.60981 0.0444,6.89128 0.0787,8.11177 0.28972,10.30903 0.26013,2.70896 0.45637,6.99165 0.45925,10.02318 0.003,3.16068 0.38131,7.01468 1.0112,10.30154 0.12349,0.64435 0.64666,3.15479 1.16262,5.57874 0.51595,2.42397 1.27206,6.03899 1.68024,8.03338 0.40816,1.99441 0.96193,4.47973 1.23058,5.52296 0.72216,2.80422 2.27244,7.30138 2.66377,7.72726 0.18333,0.1995 5.07193,-0.19884 7.26443,-0.59192 2.04083,-0.36589 3.19145,-0.33654 6.63447,0.16925 2.16836,0.31852 2.34187,0.36235 3.33707,0.84298 1.25489,0.60606 2.04866,1.14939 3.9521,2.70527 4.67163,3.81861 9.03032,8.73781 10.47637,11.82361 0.53508,1.14182 0.61198,1.55553 0.35555,1.91264 z M 192.0229,211.29245 c -0.66716,3.48145 -2.60923,5.77793 -6.61403,7.82103 -1.28146,0.65376 -2.46903,1.13456 -5.21413,2.11099 -4.4605,1.58661 -8.23956,2.2724 -14.01182,2.54275 -0.76707,0.0359 -3.30261,0.1739 -5.63452,0.30664 -2.33192,0.13271 -4.51599,0.24095 -4.85351,0.24051 -1.19296,-0.001 -2.82924,-0.92104 -5.45203,-3.06377 -4.68153,-3.82464 -8.91088,-8.6188 -10.20795,-11.57117 -0.44195,-1.00597 -0.50374,-1.47163 -0.23145,-1.74394 0.21765,-0.21763 0.50288,-0.21895 1.89852,-0.009 1.23506,0.18604 5.51323,0.3633 5.51323,0.22844 0,-0.0476 -0.34216,-0.46974 -0.76035,-0.93811 -1.66741,-1.86746 -3.14805,-3.93513 -3.92621,-5.4828 -0.87754,-1.74534 -1.08393,-2.6272 -1.78851,-7.64202 -0.42913,-3.05439 -0.75006,-4.67554 -1.88844,-9.53965 -1.73752,-7.42413 -1.94609,-8.16333 -4.40748,-15.62047 -1.30646,-3.95811 -2.56219,-7.67355 -2.79051,-8.25654 -0.97013,-2.47704 -1.08705,-2.8911 -1.10042,-3.89701 -0.0152,-1.1368 0.10227,-1.40212 0.74417,-1.68251 0.9928,-0.43366 3.86146,-0.57493 5.61037,-0.27631 1.99115,0.33997 5.61226,1.54479 8.63376,2.87262 2.75226,1.20951 12.58023,5.8036 13.94684,6.51947 6.44599,3.37656 14.22264,9.21991 20.08479,15.09167 2.29775,2.30151 3.89515,4.15558 5.93229,6.8855 1.54499,2.07042 2.44298,3.51758 3.38096,5.44858 0.99985,2.05837 1.41682,3.14519 1.84747,4.81541 0.94996,3.68433 1.72242,12.57745 1.28896,14.83943 z m -15.85098,-21.99791 c -0.50782,-3.97098 -1.25627,-7.70561 -1.63594,-8.16308 -0.25341,-0.30535 -2.7509,-1.71655 -4.70227,-2.65701 -1.05677,-0.50929 -3.52806,-1.62877 -5.49176,-2.48772 -7.61321,-3.33008 -10.31002,-4.18333 -13.2774,-4.20086 -1.60786,-0.009 -2.38366,0.16964 -2.84041,0.65582 -0.30848,0.32836 -0.60916,1.88469 -0.50756,2.62708 0.23321,1.704 1.47162,6.02585 3.18113,11.10169 1.19765,3.55598 1.45455,4.4679 3.22159,11.4364 1.29871,5.1215 1.92419,7.91685 2.08468,9.3165 0.11019,0.96071 0.19498,1.08248 0.69637,0.99982 3.07432,-0.50689 5.2196,-1.09834 7.91122,-2.18104 6.02382,-2.42313 9.32815,-4.84328 10.85636,-7.95136 0.76592,-1.55774 0.90467,-2.28608 0.84272,-4.42376 -0.0294,-1.01253 -0.18176,-2.84515 -0.33873,-4.07248 z m -26.365,38.65691 c -0.50904,0.62861 -1.62994,0.18016 -6.49683,-2.59929 -5.24869,-2.9975 -9.10034,-5.93671 -13.24763,-10.10933 -3.12072,-3.13976 -5.30506,-5.86932 -7.99698,-9.99309 -2.0607,-3.1568 -2.72766,-4.28348 -3.91762,-6.618 l -0.83521,-1.63854 -1.51376,-1.1896 -1.51377,-1.1896 -1.07082,-0.0802 c -4.17095,-0.31271 -6.16095,1.01562 -7.83173,5.22771 -0.59144,1.49107 -1.47242,5.39047 -1.31219,5.80803 0.12248,0.31917 3.33655,0.74023 5.65027,0.74023 1.4328,0 1.47117,-0.007 2.65429,-0.45784 1.36399,-0.52019 2.91188,-1.011 3.84091,-1.21787 0.9708,-0.21618 1.45708,-0.0436 3.21725,1.14224 2.29091,1.54332 3.9596,2.9359 6.45462,5.38661 2.45383,2.41025 3.93878,4.14958 5.51047,6.45438 1.32101,1.93725 1.42388,2.15158 1.42388,2.96704 0,0.82631 0.0459,0.79214 -2.11992,1.58029 l -1.61783,0.58876 -1.45048,0.007 c -0.79776,0.003 -2.55506,-0.10674 -3.9051,-0.24544 -5.69919,-0.58573 -6.78089,-0.8215 -10.37646,-2.26168 -6.24836,-2.50275 -9.75049,-4.55713 -13.61213,-7.98498 -1.891296,-1.67886 -4.040439,-3.82638 -5.34868,-5.34468 -2.426239,-2.81579 -3.336969,-4.09087 -4.168811,-5.83659 -0.643603,-1.35067 -0.700763,-1.96721 -0.370603,-3.99788 0.128281,-0.78901 0.335211,-2.23792 0.459848,-3.21978 0.316868,-2.49615 0.734699,-4.56136 1.252836,-6.1924 1.709465,-5.38118 3.255765,-6.68497 8.342774,-7.03441 2.919636,-0.20055 4.644876,0.0318 6.250706,0.84188 1.55598,0.78494 4.13952,2.78314 6.31147,4.88152 0.74634,0.72107 1.41437,1.31101 1.48453,1.31101 0.0751,0 0.10364,-0.10319 0.0693,-0.25104 -0.19359,-0.83565 -0.27921,-2.73099 -0.28099,-6.22029 -0.002,-4.24448 -0.1793,-10.04636 -0.31045,-10.16817 -0.044,-0.0408 -1.3853,-0.19221 -2.98082,-0.33648 -2.65269,-0.23987 -3.46427,-0.26221 -9.48385,-0.26108 -5.955115,8e-4 -6.822333,0.0248 -9.093346,0.24792 -4.419728,0.4343 -6.210824,0.49745 -12.719525,0.44843 -6.836961,-0.0514 -6.417375,-0.0173 -11.35872,-0.92576 -3.214911,-0.59106 -4.069881,-1.03887 -7.543971,-3.95128 -1.555724,-1.30421 -4.752442,-4.46649 -6.038895,-5.97385 -0.939187,-1.10046 -2.298871,-2.9931 -2.765389,-3.84934 -0.894819,-1.6423 -1.034171,-2.46163 -0.456069,-2.68142 0.305391,-0.11612 1.7131,0.12632 5.513373,0.94954 3.229824,0.69964 3.904636,0.815 5.857673,1.00133 5.841235,0.55729 11.056188,0.49071 16.903572,-0.21576 7.477997,-0.90351 12.978088,-1.08262 18.800346,-0.61228 1.595516,0.12889 4.633151,0.27635 6.750281,0.3277 5.0545,0.12258 5.77417,0.27135 8.06271,1.66667 4.48707,2.73579 10.68849,8.945 13.9528,13.97034 1.28479,1.97791 2.12725,4.01222 2.49155,6.01643 0.21368,1.17559 0.24963,4.81003 0.14837,15.00244 -0.0464,4.67231 -0.028,5.55643 0.14433,6.92973 0.41678,3.32155 1.7655,7.5491 3.38069,10.59679 0.78154,1.4747 0.87168,1.58032 1.61001,1.88644 0.9987,0.41405 2.28978,1.25285 3.83532,2.49177 4.89643,3.92506 9.62847,9.19991 11.04843,12.31582 0.52276,1.1471 0.58811,1.53397 0.3159,1.87014 z M 89.334899,216.59988 c -0.905629,1.56126 -2.257365,1.86507 -11.296036,2.53881 -1.626206,0.12122 -3.910698,0.34632 -5.076653,0.5002 -7.188985,0.94889 -8.811411,1.06293 -15.174167,1.06671 -2.577372,0.001 -4.736344,0.0392 -4.79771,0.0837 -0.06136,0.0445 -0.166868,0.18132 -0.23445,0.30405 -0.186666,0.339 -0.798061,0.34029 -1.598572,0.003 -0.641947,-0.2702 -0.728146,-0.27999 -1.413694,-0.16062 -0.401535,0.0699 -1.028506,0.1056 -1.393267,0.0792 -0.623042,-0.0451 -0.759386,-0.11317 -2.251451,-1.12397 -0.873536,-0.59181 -1.938151,-1.35586 -2.365811,-1.69789 -3.958216,-3.16565 -8.355805,-8.13347 -9.651227,-10.90268 -0.576511,-1.2324 -0.629313,-1.47429 -0.398655,-1.82633 0.186353,-0.28441 0.193921,-0.28564 1.546454,-0.25023 l 1.359184,0.0356 -0.03332,-1.3947 c -0.01881,-0.78752 0.0358,-1.90469 0.125456,-2.56622 0.124982,-0.9222 0.147329,-2.21637 0.105003,-6.08083 l -0.05378,-4.90929 -0.34249,-0.54264 c -0.537305,-0.85134 -0.531646,-1.41069 0.03038,-3.0034 0.453453,-1.28502 0.46226,-1.33767 0.391879,-2.34307 -0.259602,-3.70842 -0.773112,-7.96006 -1.458345,-12.07442 -0.723399,-4.3435 -1.137663,-6.31575 -2.323841,-11.06332 -0.580232,-2.32233 -1.237591,-5.09524 -1.460794,-6.16201 -0.44766,-2.13952 -0.671741,-2.83149 -1.172784,-3.62154 -0.395948,-0.62436 -0.583497,-1.35504 -0.463232,-1.80472 0.479949,-1.7946 5.994594,2.02047 11.050459,7.64478 2.038014,2.26716 3.489491,4.37912 4.473722,6.50949 0.659304,1.42706 0.864167,2.23619 1.285681,5.07791 0.215244,1.45111 0.560171,3.54666 0.766507,4.65678 0.206334,1.11011 0.517346,2.9858 0.691138,4.16819 l 0.315986,2.14981 0.507521,-0.0569 c 0.279135,-0.0313 1.310858,-0.16162 2.292716,-0.28957 4.586165,-0.59769 6.682087,-0.69796 8.483004,-0.40587 2.656409,0.43085 5.427895,1.59201 8.240211,3.45237 2.933276,1.94036 5.106441,3.75646 8.217754,6.86753 3.359852,3.3596 4.959286,5.27329 7.251306,8.6761 1.337203,1.98524 1.908364,3.05344 2.760653,5.163 1.067792,2.64295 1.414319,3.79724 3.214295,10.70672 0.08728,0.33506 0.158296,0.93756 0.157789,1.3389 -7.82e-4,0.59183 -0.05867,0.82931 -0.306826,1.25708 z m -16.420044,-19.9414 c -0.118871,-0.5523 -0.349128,-1.56817 -0.511692,-2.25748 l -0.295568,-1.25333 -0.409496,-0.11008 c -0.843182,-0.22675 -2.038867,-0.33983 -4.314624,-0.40807 -5.258307,-0.15766 -8.950334,0.46526 -12.266263,2.06956 -2.141153,1.03593 -3.725275,2.25111 -4.4979,3.45036 l -0.385479,0.59832 0.14312,3.11455 c 0.08745,1.90314 0.189553,3.15254 0.262502,3.21224 0.151537,0.12401 2.639962,-0.0416 4.19186,-0.27899 0.644346,-0.0986 2.627588,-0.47324 4.407204,-0.83263 1.779616,-0.35938 4.5913,-0.88228 6.248185,-1.16201 4.205768,-0.71001 5.814019,-1.16244 6.795111,-1.91156 0.8141,-0.62162 0.977598,-1.02194 0.907662,-2.2225 -0.03218,-0.55229 -0.15575,-1.45604 -0.274622,-2.00835 z"
       style="fill:#00ff00;stroke-width:0.11157478" />
    <path
       inkscape:connector-curvature="0"
       id="path9988"
       d="m 249.09381,243.28692 c -0.1999,0.18092 -0.30575,0.18151 -1.81308,0.0103 -0.88045,-0.10009 -3.28278,-0.4075 -5.33855,-0.68306 -6.63588,-0.88947 -9.3004,-0.81015 -17.29408,0.5148 -5.03579,0.83469 -6.98932,1.08202 -12.77532,1.61745 -6.1264,0.56694 -9.46915,1.3695 -16.30735,3.91526 -2.92474,1.08882 -4.24516,1.64147 -7.51426,3.145 -3.58671,1.64963 -5.41032,2.30997 -7.94199,2.87586 -1.37403,0.30712 -2.00158,0.39674 -2.55929,0.36548 -0.71365,-0.04 -0.78791,-0.0738 -2.17192,-0.98695 -2.71683,-1.79263 -4.84408,-3.58359 -7.63812,-6.43054 -2.663,-2.71341 -3.97993,-4.30981 -5.67645,-6.88103 -0.82734,-1.25389 -0.94564,-1.4962 -0.98968,-2.0273 -0.0908,-1.09468 -0.0787,-1.10767 1.28616,-1.39025 5.818,-1.20451 10.68461,-2.40034 16.37455,-4.02356 5.57986,-1.59182 6.59585,-1.83801 11.73019,-2.84238 4.66143,-0.91186 7.67122,-1.37317 11.25486,-1.72505 4.20758,-0.41315 8.31105,-0.97023 8.49395,-1.15313 0.0361,-0.0362 -0.44417,-0.82994 -1.06739,-1.76396 -1.25667,-1.88338 -1.69161,-2.74192 -3.32914,-6.57129 -3.26547,-7.63635 -4.18379,-10.44628 -5.2144,-15.9552 -0.28126,-1.50346 -1.03406,-5.36953 -1.6729,-8.59125 -1.90841,-9.6243 -2.09242,-10.94557 -2.5096,-18.01932 -0.27389,-4.64397 -0.3663,-5.72852 -0.78434,-9.20492 -0.65431,-5.44123 -0.83081,-8.21909 -0.99397,-15.64367 -0.0549,-2.49811 -0.12824,-4.58799 -0.16298,-4.6442 -0.0366,-0.0592 -3.49887,-0.13403 -8.23811,-0.17794 -8.23675,-0.0763 -12.56604,-0.19698 -14.42054,-0.40189 -2.96097,-0.32718 -7.33022,-1.28413 -8.59815,-1.88316 -1.25381,-0.59239 -3.31816,-2.29081 -5.47317,-4.50297 -1.8352,-1.88389 -3.03584,-3.42099 -3.61571,-4.62897 -0.61937,-1.29021 -0.4211,-1.56664 0.89242,-1.24413 2.43283,0.59733 4.75459,1.0032 6.318,1.10446 0.91278,0.0591 7.68462,0.11283 15.04857,0.11947 7.36393,0.007 14.04167,0.051 14.83943,0.0986 1.38519,0.0828 1.45969,0.0762 1.65509,-0.14516 0.32325,-0.36621 1.19665,-0.3184 2.03057,0.11111 0.64364,0.33154 0.78813,0.35483 4.34772,0.70076 5.39236,0.52405 6.96668,0.72924 9.81859,1.27977 3.85825,0.74479 4.11475,0.7735 6.86184,0.76794 2.38502,-0.005 8.31477,-0.28825 9.14914,-0.43732 0.21478,-0.0383 0.74197,-0.25137 1.17153,-0.4733 l 0.78102,-0.40354 h 1.78521 1.78518 l 1.05663,0.50208 c 1.22609,0.58262 2.15594,1.22665 4.17952,2.89485 2.58717,2.1328 5.73412,5.32569 7.46753,7.57656 1.24813,1.62071 2.4552,3.51449 2.6048,4.08662 0.19551,0.74782 0.0954,1.23476 -0.28449,1.38285 -1.21464,0.47358 -2.44756,0.58401 -5.14962,0.46128 -1.31937,-0.0599 -3.55365,-0.1606 -4.96508,-0.22371 -4.60644,-0.20596 -8.61037,-0.74966 -11.54799,-1.56814 -0.64434,-0.17953 -2.25101,-0.70765 -3.57038,-1.17361 -4.42934,-1.56431 -6.56099,-2.13657 -10.33584,-2.77474 -1.83218,-0.30975 -2.16054,-0.33802 -2.16054,-0.18597 0,0.0548 0.27432,0.53648 0.60959,1.07049 1.11112,1.76981 1.2788,2.62243 0.79532,4.04391 -0.4418,1.29899 -0.52121,2.20793 -0.62649,7.17086 -0.18064,8.51687 -0.10101,14.92563 0.22683,18.24247 0.27876,2.82079 0.35086,4.21934 0.44568,8.64705 0.16113,7.5232 0.36415,9.1851 2.11896,17.34672 0.42258,1.96545 1.17136,5.53431 1.66396,7.9308 0.99569,4.84413 1.65849,7.53366 2.3907,9.70117 0.76528,2.26532 1.54944,4.20059 1.73017,4.26995 0.31207,0.11976 5.4318,-0.33036 6.99099,-0.61463 2.14192,-0.39051 3.30828,-0.37825 6.47133,0.0681 l 2.56622,0.3621 1.34783,0.66157 c 1.13209,0.55568 1.67661,0.92519 3.4021,2.30868 3.207,2.57135 6.96255,6.40556 8.99012,9.1784 1.03849,1.42023 1.4031,2.01298 1.8741,3.0466 0.44705,0.98111 0.50139,1.51033 0.18452,1.79709 z m -57.07549,-32.34237 c -0.35033,2.25381 -1.28118,4.08062 -2.81251,5.51964 -1.97801,1.85877 -4.53639,3.16862 -9.57813,4.90384 -4.2822,1.4738 -7.677,2.05734 -13.6679,2.34937 -2.19486,0.10698 -6.25344,0.3264 -9.49051,0.51304 -1.25333,0.0723 -1.31005,0.0654 -2.00835,-0.24334 -1.22901,-0.54337 -2.18798,-1.17016 -3.99504,-2.61116 -1.93732,-1.54487 -5.84715,-5.36726 -7.36491,-7.20022 -2.17539,-2.62715 -3.64924,-5.26757 -3.36203,-6.02303 0.14396,-0.37865 0.40727,-0.41833 1.51956,-0.22908 0.5454,0.0929 1.9707,0.21904 3.16735,0.28052 2.66071,0.13668 2.90094,0.13841 2.90094,0.0208 0,-0.0512 -0.41556,-0.56669 -0.92347,-1.14539 -2.30049,-2.62115 -3.90141,-5.10369 -4.52569,-7.01795 -0.34889,-1.06983 -0.5168,-1.97273 -0.96494,-5.18823 -0.51135,-3.66908 -0.74164,-4.86039 -1.90883,-9.87436 -1.91064,-8.20765 -2.05033,-8.70678 -4.52813,-16.17835 -1.29229,-3.89674 -2.64263,-7.83811 -3.00077,-8.75861 -0.75029,-1.92845 -0.87789,-2.41588 -0.88166,-3.36788 -0.003,-0.87285 0.125,-1.20772 0.56615,-1.476 0.88613,-0.53889 4.31773,-0.66946 6.3469,-0.24148 1.38231,0.29153 4.12216,1.18218 6.30583,2.04983 2.17637,0.86475 14.5271,6.6057 16.28992,7.57201 6.69475,3.66974 14.13093,9.34631 19.80864,15.12133 3.57325,3.63451 6.79542,7.83257 8.53616,11.12148 2.14161,4.04637 2.90541,7.29746 3.51275,14.95216 0.24856,3.13284 0.25702,3.87506 0.0587,5.15115 z m -15.67731,-20.64598 c -0.27724,-2.40798 -0.61539,-4.69532 -0.90624,-6.12992 -0.22213,-1.0957 -0.69537,-2.86033 -0.82204,-3.06529 -0.14014,-0.22676 -2.81836,-1.73674 -4.64638,-2.61962 -3.18896,-1.54019 -9.01329,-4.07695 -11.59366,-5.04956 -4.64934,-1.75246 -7.94201,-2.20697 -9.70086,-1.33907 -0.65727,0.32432 -0.85937,0.73311 -0.96006,1.942 -0.0653,0.78399 -0.0344,1.16986 0.17133,2.1378 0.44428,2.09039 1.42562,5.43786 2.73402,9.32609 1.44463,4.29308 1.64034,4.98254 3.49947,12.32901 1.3511,5.33895 1.78263,7.26318 2.03538,9.07602 0.095,0.68174 0.18957,1.00678 0.3058,1.05138 0.20504,0.0786 2.12642,-0.24029 3.64433,-0.60501 1.58639,-0.38118 2.97433,-0.84434 4.99827,-1.66793 6.77264,-2.756 10.13911,-5.58998 11.25108,-9.47143 0.27192,-0.94917 0.26742,-3.50115 -0.0103,-5.91447 z m -26.62332,37.70445 c -0.0964,0.0964 -0.32207,0.17533 -0.50141,0.17533 -0.60474,0 -2.52652,-0.94506 -6.13761,-3.01824 -5.07693,-2.91474 -8.63779,-5.62763 -12.65871,-9.64426 -3.26091,-3.25743 -5.39828,-5.88585 -8.03063,-9.8756 -2.18361,-3.30962 -2.81011,-4.35583 -4.05842,-6.7771 l -0.96195,-1.86584 -1.48358,-1.1896 c -1.68645,-1.35226 -1.62776,-1.33141 -3.77929,-1.34303 -2.21681,-0.012 -3.5136,0.47847 -4.76079,1.80058 -1.26355,1.33942 -2.38373,3.95253 -3.01993,7.04472 -0.34881,1.69537 -0.37555,2.40029 -0.0943,2.48704 0.4425,0.13653 2.41507,0.40259 3.87722,0.52296 2.27909,0.18765 2.97878,0.11077 4.52556,-0.49744 1.98158,-0.77915 3.6782,-1.22114 4.4681,-1.164 0.61771,0.0447 0.75682,0.11575 2.41382,1.23312 2.27783,1.53599 4.31164,3.2475 6.66763,5.61094 2.14437,2.15114 3.79746,4.12074 5.24024,6.24352 1.15364,1.69735 1.39267,2.17765 1.396,2.80489 0.003,0.76623 -0.12975,0.85616 -2.49134,1.6743 -1.7164,0.59461 -2.42777,0.66752 -4.38492,0.44935 -0.91121,-0.10158 -2.43499,-0.26093 -3.38616,-0.35415 -4.547,-0.4456 -6.07452,-0.81991 -10.08139,-2.47032 -6.66256,-2.74428 -10.11148,-5.0141 -15.232884,-10.02511 -4.068008,-3.98031 -7.004161,-7.94534 -7.489454,-10.11385 -0.144798,-0.64702 -0.154168,-0.53619 0.319414,-3.77798 0.121031,-0.82845 0.303964,-2.13387 0.406524,-2.90095 0.438388,-3.27868 1.342903,-6.52607 2.375755,-8.52942 1.543634,-2.99407 3.974516,-3.98553 9.389405,-3.82959 1.51988,0.0439 1.97346,0.0968 2.56097,0.29942 2.02736,0.6992 4.33145,2.33084 7.63272,5.40511 0.84735,0.78908 1.56805,1.4073 1.60154,1.3738 0.0335,-0.0335 10e-4,-0.45318 -0.0701,-0.93262 -0.0803,-0.53462 -0.16722,-3.5898 -0.22463,-7.9009 -0.0515,-3.86607 -0.12933,-7.24044 -0.173,-7.49861 -0.0943,-0.55793 0.26271,-0.48023 -3.84595,-0.83709 -2.47964,-0.21539 -3.5977,-0.24741 -8.70282,-0.24915 -5.520118,-0.001 -6.04738,0.0156 -9.149143,0.30389 -4.608489,0.4283 -8.224334,0.55998 -13.612125,0.49572 -5.16461,-0.0616 -5.694963,-0.10974 -10.087302,-0.9164 -2.480576,-0.45554 -2.766298,-0.53244 -3.702639,-0.99675 -3.054156,-1.51444 -8.941029,-7.02149 -11.936207,-11.1661 -0.971956,-1.34495 -1.858002,-3.15441 -1.811595,-3.69958 0.0199,-0.23382 0.116236,-0.45724 0.227079,-0.52666 0.244388,-0.15306 1.358943,0.0332 5.51741,0.92166 1.707466,0.36484 3.475964,0.71948 3.930001,0.78812 4.335124,0.65523 12.683905,0.73534 17.472741,0.16766 7.236235,-0.85781 8.895271,-0.97512 13.946846,-0.98617 3.25571,-0.007 4.578174,0.0385 6.980369,0.2405 1.630025,0.13712 3.839215,0.24976 4.909295,0.2503 2.87992,0.001 5.36566,0.17793 6.35282,0.45094 2.11645,0.58534 4.52045,2.17077 7.97759,5.26117 5.22319,4.66913 9.52157,10.2587 10.75048,13.97984 0.7,2.11964 0.87137,5.06185 0.67911,11.65957 -0.14433,4.95267 -0.0872,11.09081 0.11678,12.55215 0.43982,3.15081 1.86843,7.51094 3.37852,10.3112 l 0.80716,1.49679 1.33888,0.67987 c 1.44743,0.73498 1.83928,1.00573 3.9609,2.73676 4.5602,3.72064 9.06869,8.85164 10.39675,11.83228 0.45524,1.02173 0.52823,1.55546 0.25068,1.83301 z m -60.179299,-11.9856 c -0.346196,1.13811 -1.05035,1.67668 -2.750581,2.1038 -1.518641,0.3815 -2.848063,0.53115 -8.079495,0.90947 -1.748937,0.12648 -4.334681,0.37795 -5.746105,0.55884 -7.508825,0.96232 -9.638708,1.10935 -16.105676,1.11185 l -3.832458,0.001 -0.31268,0.33471 c -0.383553,0.41061 -0.579363,0.4158 -1.44924,0.0386 -0.677265,-0.2937 -0.691893,-0.29499 -1.764658,-0.15368 -0.756221,0.0996 -1.202261,0.10905 -1.482276,0.0311 -0.538103,-0.14955 -3.094992,-1.87277 -4.677437,-3.15238 -0.704979,-0.57006 -2.185534,-1.94666 -3.290124,-3.05911 -3.042287,-3.06394 -4.84893,-5.33619 -5.861109,-7.37165 -0.947253,-1.9049 -0.781494,-2.2115 1.119182,-2.07007 0.644344,0.0479 1.216036,0.0615 1.270424,0.0302 0.05439,-0.0315 0.07033,-0.58955 0.03541,-1.24045 -0.03947,-0.7359 -0.0047,-1.64757 0.09177,-2.41075 0.116148,-0.91822 0.149149,-2.50668 0.131027,-6.30703 l -0.02422,-5.07969 -0.349384,-0.52747 c -0.192159,-0.2901 -0.381926,-0.70095 -0.421702,-0.91298 -0.08156,-0.43473 0.146172,-1.43097 0.559789,-2.44891 0.337282,-0.83005 0.343441,-1.45749 0.04561,-4.64725 -0.651168,-6.97413 -1.713886,-13.10227 -3.529915,-20.35518 -0.583879,-2.33191 -1.209058,-4.96786 -1.389284,-5.85767 -0.469663,-2.31879 -0.725193,-3.17468 -1.143432,-3.82988 -0.449792,-0.70463 -0.631698,-1.20661 -0.631698,-1.74318 0,-0.52524 0.161333,-0.67512 0.726696,-0.67512 1.620681,0 6.340973,3.6856 10.071243,7.86363 2.228376,2.49586 3.244904,3.91371 4.316194,6.02022 0.946133,1.86043 1.136041,2.52448 1.581515,5.53016 0.213734,1.44211 0.508947,3.24961 0.65603,4.01669 0.36872,1.923 0.571368,3.1355 0.886696,5.30542 0.148644,1.02289 0.295286,1.88482 0.325873,1.9154 0.03059,0.0306 0.522997,-0.0235 1.094242,-0.12021 0.571245,-0.0967 2.193427,-0.30808 3.604849,-0.46972 5.355513,-0.61333 7.506839,-0.36468 11.263489,1.30184 5.146861,2.28326 12.438221,8.65136 17.297778,15.10747 3.534039,4.6951 4.79899,7.45619 6.721791,14.67208 1.198982,4.49955 1.264166,4.8486 1.041849,5.57945 z M 73.115563,197.4395 c -0.228113,-1.37441 -0.906024,-4.13391 -1.05344,-4.28811 -0.31108,-0.32542 -1.715578,-0.47025 -5.151438,-0.53123 -2.234151,-0.0397 -3.808338,-0.0152 -4.660399,0.0728 -4.363359,0.44987 -8.664781,2.21404 -10.877787,4.46137 -0.972426,0.98752 -1.25924,1.58 -1.176013,2.42929 0.03478,0.35491 0.114048,1.72355 0.176159,3.04141 0.06211,1.31787 0.16069,2.44388 0.219071,2.50227 0.158699,0.15869 3.378659,-0.11076 5.198718,-0.4351 0.853224,-0.15203 2.630799,-0.49987 3.950172,-0.77297 1.319372,-0.27311 3.779596,-0.72983 5.467159,-1.01493 5.689873,-0.96128 7.263483,-1.55782 7.940375,-3.01011 0.218965,-0.46978 0.212189,-0.97992 -0.03258,-2.45464 z"
       style="fill:#00ff00;stroke-width:0.11157478" />
    <path
       inkscape:connector-curvature="0"
       id="path9986"
       d="m 249.19121,243.15726 c -0.0832,0.13619 -0.2611,0.19511 -0.58797,0.19475 -0.65397,-6.6e-4 -3.73162,-0.37234 -7.16314,-0.86498 -2.87709,-0.41306 -2.9303,-0.41644 -6.47133,-0.4123 -4.0432,0.005 -4.42246,0.0429 -10.99013,1.10664 -5.24695,0.84981 -6.12153,0.95876 -12.55215,1.56371 -3.29967,0.3104 -5.09394,0.60353 -7.81023,1.27596 -4.02108,0.99544 -9.72002,3.06064 -14.50473,5.2563 -4.98596,2.28801 -6.72074,2.90581 -10.04212,3.57627 -1.78829,0.36099 -1.93517,0.3229 -3.9299,-1.01964 -0.90663,-0.6102 -2.17563,-1.53049 -2.81998,-2.04509 -2.57034,-2.05278 -5.71808,-5.1847 -7.86221,-7.82269 -1.09447,-1.34659 -3.06102,-4.23613 -3.25263,-4.77926 -0.19194,-0.54397 -0.19874,-1.20417 -0.0147,-1.43045 0.0869,-0.10686 0.89632,-0.32823 2.14781,-0.58738 5.42522,-1.12336 9.5772,-2.15379 15.62045,-3.87666 5.19629,-1.4814 6.70921,-1.84569 11.72278,-2.82275 4.84627,-0.94446 6.90175,-1.25264 11.54057,-1.73024 5.14989,-0.53024 7.90108,-0.93513 7.99367,-1.17642 0.03,-0.0782 -0.41186,-0.83781 -0.98191,-1.68808 -1.17559,-1.75349 -1.88675,-3.14067 -3.25796,-6.35496 -3.48476,-8.16869 -4.23675,-10.50821 -5.4834,-17.05962 -0.39702,-2.08646 -1.07475,-5.55085 -1.50606,-7.69867 -1.80843,-9.00555 -2.14218,-11.38198 -2.50718,-17.85195 -0.22694,-4.02316 -0.436,-6.47693 -0.84078,-9.86925 -0.63615,-5.33137 -0.82281,-8.39256 -0.96167,-15.77063 -0.071,-3.77236 -0.0933,-4.11456 -0.27534,-4.21195 -0.11909,-0.0637 -2.99338,-0.10606 -7.20674,-0.10617 -7.76282,0 -13.15022,-0.13986 -15.42175,-0.39976 -3.31998,-0.37986 -7.33117,-1.27728 -8.65783,-1.93699 -2.68923,-1.33727 -7.82793,-6.55685 -8.99615,-9.13778 -0.36901,-0.81522 -0.38499,-0.94069 -0.14525,-1.13964 0.14614,-0.12129 0.513,-0.067 2.21839,0.32794 3.84209,0.88989 2.20807,0.81322 19.47516,0.91388 8.56057,0.0499 15.92404,0.12411 16.36324,0.1649 0.74856,0.0696 0.80687,0.0587 0.93102,-0.17331 0.11972,-0.22368 0.19994,-0.24319 0.83415,-0.2028 0.52342,0.0333 0.81647,0.12063 1.15338,0.34357 0.42838,0.28349 0.62881,0.31631 3.89022,0.63708 6.8739,0.67608 6.77547,0.66252 11.7509,1.61819 3.17184,0.60925 5.40345,0.63754 12.94266,0.16408 1.71756,-0.10789 1.73592,-0.1118 2.6778,-0.58004 l 0.94839,-0.47145 1.67362,0.002 c 1.61158,0.002 1.7005,0.0144 2.39885,0.3307 1.32249,0.599 2.17422,1.15362 3.96906,2.58456 2.09152,1.6675 6.1804,5.6992 7.67581,7.56849 1.06174,1.32723 2.77196,3.82678 2.96415,4.33228 0.16272,0.428 0.14987,1.36168 -0.0207,1.49807 -0.0767,0.0614 -0.49093,0.20557 -0.92049,0.32048 -0.67215,0.17982 -1.14655,0.20589 -3.40303,0.18708 -6.53654,-0.0545 -11.77846,-0.49585 -15.78783,-1.3293 -0.78943,-0.16411 -3.10175,-0.87028 -5.63452,-1.72073 -2.3626,-0.79333 -4.99854,-1.61828 -5.85768,-1.83323 -1.9812,-0.49568 -6.19648,-1.21625 -6.33057,-1.08217 -0.0587,0.0587 0.11317,0.42889 0.41676,0.89827 1.24719,1.92793 1.47021,2.83008 1.02391,4.14181 -0.15636,0.4596 -0.33994,1.13688 -0.40796,1.50508 -0.20327,1.10064 -0.3298,6.06699 -0.33113,12.99845 -0.001,6.5005 0.0774,9.03501 0.37918,12.21744 0.23524,2.48097 0.28613,3.5679 0.39969,8.53547 0.16447,7.1958 0.22202,7.608 2.71014,19.41402 0.45913,2.17849 1.0683,5.09059 1.35373,6.47133 0.73053,3.53382 1.39448,6.0984 2.17391,8.39679 0.66156,1.95077 1.39805,3.85149 1.55629,4.01644 0.13451,0.14021 5.75922,-0.35335 7.03174,-0.61703 1.74792,-0.36218 3.94123,-0.32498 6.90875,0.11719 2.14431,0.31952 2.32569,0.36579 3.32206,0.84749 1.30969,0.63318 1.70198,0.90007 3.74567,2.54825 4.58202,3.69531 9.18074,8.84603 10.59775,11.86984 0.48864,1.04274 0.60726,1.56086 0.42544,1.85836 z m -57.29617,-31.78574 c -0.67388,3.39131 -2.52165,5.57119 -6.44711,7.60592 -1.87295,0.97083 -5.98067,2.50008 -8.67976,3.23138 -2.80612,0.76029 -6.36436,1.25412 -10.41788,1.44585 -4.1331,0.1955 -8.00024,0.4095 -9.37791,0.51893 l -1.56765,0.12454 -0.77541,-0.30675 c -1.22787,-0.48575 -2.19297,-1.10003 -3.97129,-2.5277 -4.84077,-3.88621 -9.25625,-8.86427 -10.57509,-11.92243 -0.38543,-0.89374 -0.4166,-1.3988 -0.0986,-1.59787 0.1344,-0.0841 0.47216,-0.0771 1.17153,0.0245 2.15008,0.31205 6.17092,0.4576 6.17092,0.22339 0,-0.0698 -0.31864,-0.484 -0.70809,-0.9205 -1.82241,-2.04254 -3.35278,-4.22289 -4.15982,-5.92657 -0.67128,-1.41708 -0.957,-2.64183 -1.48929,-6.38397 -0.56145,-3.94705 -0.79019,-5.13164 -1.96672,-10.18439 -1.81631,-7.80043 -1.96537,-8.3323 -4.39326,-15.67626 -2.18898,-6.62126 -2.54923,-7.66619 -3.50058,-10.1533 -0.44478,-1.16278 -0.60259,-2.3415 -0.4095,-3.05859 0.10836,-0.40226 0.19909,-0.50611 0.59563,-0.68153 0.98915,-0.43754 3.92021,-0.58138 5.65518,-0.27753 1.80886,0.31678 5.09414,1.37999 7.75445,2.50949 2.04581,0.86862 13.14451,6.0336 14.65503,6.81998 5.9106,3.07714 12.60166,7.97998 18.86387,13.8224 4.12218,3.84583 8.49414,9.40074 10.42557,13.24645 1.91623,3.81542 2.59727,6.71988 3.19926,13.64392 0.24974,2.87249 0.26731,5.28966 0.0465,6.40072 z m -15.56792,-21.62596 c -0.46867,-3.79282 -0.9326,-6.36465 -1.45066,-8.04192 l -0.2108,-0.6825 -1.43284,-0.85491 c -2.11054,-1.25924 -5.79268,-2.99215 -11.79954,-5.55317 -5.85442,-2.49603 -9.78228,-3.41975 -12.0404,-2.83158 -0.83726,0.21807 -1.33966,0.52865 -1.48387,0.9173 -0.26568,0.71604 -0.37656,1.88106 -0.24808,2.60652 0.38834,2.19272 1.4356,5.84047 3.05531,10.642 1.19012,3.52806 1.48927,4.58543 3.34605,11.82693 1.2367,4.82317 1.54213,6.16456 1.92662,8.46134 0.15578,0.93058 0.32339,1.73397 0.37247,1.7853 0.12107,0.12664 3.08714,-0.42386 4.78291,-0.88769 2.98284,-0.81588 7.64949,-2.89879 10.11669,-4.51547 1.49023,-0.97652 3.45984,-2.90078 4.10109,-4.00668 0.5168,-0.89126 1.05147,-2.25331 1.19277,-3.03846 0.14774,-0.82093 0.0352,-3.69883 -0.22772,-5.82701 z m -26.65632,38.2087 c -0.18883,0.18883 -0.32673,0.23146 -0.58296,0.18021 -0.87374,-0.17475 -3.80607,-1.69666 -7.284,-3.78046 -4.54659,-2.72411 -7.98786,-5.44402 -11.78259,-9.31268 -3.27808,-3.34195 -5.32189,-5.90701 -8.02591,-10.07278 -1.99684,-3.07632 -2.63523,-4.16199 -3.75295,-6.38246 -0.77943,-1.54843 -0.86672,-1.67304 -1.51963,-2.16967 -0.38097,-0.28976 -1.05402,-0.82281 -1.49563,-1.18454 -0.76858,-0.62952 -0.84022,-0.66244 -1.67363,-0.76919 -1.23664,-0.15839 -2.94636,-0.0547 -3.84896,0.23316 -2.43203,0.77595 -4.06613,3.13749 -5.147,7.4382 -0.48993,1.94938 -0.69612,3.35189 -0.5234,3.56001 0.25048,0.3018 3.51798,0.71869 5.6726,0.72374 l 1.4869,0.003 1.25573,-0.491 c 1.44542,-0.56516 3.46338,-1.16813 4.19436,-1.25325 0.73421,-0.0855 1.20006,0.12808 3.07289,1.40869 3.47721,2.37765 7.12428,5.82122 10.16339,9.59627 0.70543,0.87624 2.32336,3.24611 2.65549,3.88961 0.18902,0.36626 0.27532,1.43654 0.13422,1.66484 -0.0824,0.13332 -2.60381,1.07609 -3.50751,1.31149 -0.79569,0.20724 -2.04393,0.2072 -3.93956,-1.3e-4 -0.82166,-0.0899 -2.27716,-0.24027 -3.23446,-0.33425 -3.67819,-0.36107 -5.39525,-0.77218 -8.61306,-2.06224 -7.11568,-2.85277 -10.22405,-4.79549 -15.326992,-9.5794 -3.548699,-3.32684 -6.563858,-7.05007 -7.767032,-9.59102 -0.585298,-1.2361 -0.646743,-1.99058 -0.321627,-3.94932 0.125735,-0.75748 0.285501,-1.85422 0.35505,-2.43721 0.185297,-1.55334 0.527784,-3.66982 0.788742,-4.87431 0.285185,-1.31629 1.206407,-4.03771 1.730893,-5.11331 0.844755,-1.73239 2.027528,-2.78536 3.735698,-3.32568 1.377503,-0.43573 2.461686,-0.55929 4.955498,-0.56472 2.02221,-0.005 2.30998,0.0193 3.0683,0.25246 2.08498,0.64119 4.8288,2.57663 8.0349,5.66769 0.72072,0.69486 1.37227,1.26338 1.44788,1.26338 0.0965,0 0.11579,-0.11562 0.0646,-0.3882 -0.21486,-1.14531 -0.28512,-2.58582 -0.28589,-5.86139 -7.9e-4,-4.89843 -0.19534,-10.50358 -0.36963,-10.66871 -0.0756,-0.0717 -1.41111,-0.24048 -3.09003,-0.39051 -2.69888,-0.24118 -3.52107,-0.26409 -9.42806,-0.26279 -5.831319,0.001 -6.719625,0.0258 -8.981774,0.24743 -4.500355,0.44097 -6.114361,0.49776 -12.775309,0.44953 -6.98519,-0.0506 -6.365734,-0.001 -11.157473,-0.88063 -3.416513,-0.62668 -4.010034,-0.91563 -7.224684,-3.51733 -1.682195,-1.36143 -5.383782,-5.01495 -6.764728,-6.67688 -1.747684,-2.10329 -3.360466,-4.80251 -3.360466,-5.6242 0,-0.12559 0.120938,-0.30758 0.268751,-0.40442 0.315202,-0.20654 0.858049,-0.1193 5.588921,0.89816 4.237737,0.91141 5.516183,1.06876 10.513516,1.29391 4.147566,0.18687 7.713873,0.0174 12.972972,-0.61628 3.676601,-0.44306 5.860589,-0.61176 9.489148,-0.73293 3.50945,-0.11722 5.019434,-0.0722 9.366988,0.27911 1.196628,0.0966 3.907908,0.21895 6.025038,0.27166 4.17448,0.10387 4.86571,0.18971 6.2647,0.7775 2.01491,0.84658 4.67927,2.84745 8.37775,6.29152 3.1503,2.93359 6.86644,7.61117 8.26003,10.39707 0.66402,1.32741 1.16124,2.7604 1.39008,4.00624 0.20548,1.11866 0.24266,5.10392 0.14169,15.18461 -0.0443,4.42012 -0.0243,5.35868 0.14428,6.76256 0.40894,3.40652 1.81593,7.77674 3.51347,10.91325 l 0.75008,1.38588 0.79599,0.34353 c 1.29381,0.55837 2.16939,1.13418 4.1436,2.72496 1.9536,1.57418 5.96365,5.48053 7.46276,7.26977 1.28619,1.53512 2.5851,3.4264 3.12323,4.54764 0.63616,1.32548 0.70577,1.70333 0.37475,2.03434 z M 89.308925,216.47412 c -0.261639,0.49501 -0.877252,1.0473 -1.427744,1.28087 -1.079518,0.45805 -3.441095,0.8032 -7.555033,1.10422 -4.215645,0.30847 -5.211855,0.40255 -7.754451,0.73234 -6.973981,0.90456 -11.749423,1.19863 -16.856219,1.03797 -1.262643,-0.0397 -2.43177,-0.0381 -2.598058,0.003 -0.17687,0.0443 -0.345862,0.19034 -0.407209,0.3517 -0.140207,0.36876 -0.676962,0.36891 -1.552491,4.4e-4 -0.64715,-0.27238 -0.665403,-0.27362 -1.657707,-0.11318 -1.347567,0.21796 -1.585575,0.13457 -3.650464,-1.27887 -2.713126,-1.85718 -5.117561,-4.00893 -7.735241,-6.92236 -2.162251,-2.40652 -3.596125,-4.45923 -4.212742,-6.03089 -0.25931,-0.66094 -0.285209,-0.82068 -0.172982,-1.067 l 0.131989,-0.28969 1.419923,0.039 1.419922,0.039 -0.03752,-1.50626 c -0.02136,-0.85763 0.02047,-1.8426 0.09715,-2.28728 0.09439,-0.54738 0.128634,-2.34987 0.114472,-6.02504 l -0.0202,-5.24402 -0.347764,-0.54264 c -0.541817,-0.84546 -0.538397,-1.40654 0.01819,-2.9837 l 0.456959,-1.29486 -0.113542,-1.58889 c -0.259455,-3.6307 -0.722364,-7.42658 -1.408945,-11.55344 -0.729401,-4.38424 -1.157368,-6.42129 -2.332373,-11.10169 -0.57772,-2.30123 -1.228387,-5.05046 -1.445931,-6.1094 -0.433403,-2.10973 -0.668369,-2.83985 -1.166858,-3.6259 -0.400904,-0.63215 -0.601751,-1.33065 -0.506856,-1.76271 0.304413,-1.38597 4.133002,0.90685 8.296728,4.96866 3.503751,3.418 5.679367,6.22979 6.994517,9.03978 0.704682,1.50566 0.897067,2.25674 1.336334,5.21725 0.22071,1.48751 0.475345,3.05602 0.565852,3.48558 0.202027,0.95885 0.864351,4.97781 1.054349,6.39777 0.08952,0.66905 0.193647,1.06297 0.290835,1.10026 0.08326,0.0319 0.891397,-0.0461 1.795861,-0.17336 3.625074,-0.51026 4.888454,-0.62084 7.111637,-0.62243 1.893878,-0.001 2.384618,0.0344 3.243581,0.23705 4.710725,1.11088 9.834418,4.45786 15.504492,10.12808 3.227514,3.2276 5.025963,5.393 7.360586,8.86245 2.074899,3.08348 3.273762,6.01101 4.756546,11.6151 0.430276,1.6262 0.879118,3.30718 0.997428,3.7355 0.281168,1.01796 0.278124,2.20743 -0.0071,2.74696 z M 73.182076,197.53779 c -0.337908,-1.96209 -0.981045,-4.4053 -1.188901,-4.51654 -0.38871,-0.20803 -2.322557,-0.41931 -4.504956,-0.49216 -6.244343,-0.20846 -10.645427,0.76338 -14.362958,3.17162 -1.15689,0.74945 -2.368872,1.92642 -2.747015,2.6677 -0.245638,0.48152 -0.245905,0.48919 -0.118586,3.40303 0.140952,3.22577 0.156651,3.37659 0.358747,3.44638 0.189677,0.0654 2.715273,-0.0997 3.822397,-0.25004 0.490928,-0.0667 2.499274,-0.44416 4.462985,-0.83886 1.96372,-0.39472 4.499256,-0.87139 5.634534,-1.05927 5.316833,-0.87988 6.948954,-1.33894 7.98043,-2.24457 0.840808,-0.73825 0.981898,-1.43745 0.663323,-3.28729 z"
       style="fill:#00ff00;stroke:#ffffff;stroke-width:1.18603086;stroke-miterlimit:4;stroke-dasharray:none;stroke-opacity:1" />
    <path
       inkscape:connector-curvature="0"
       id="path9984"
       d="m 249.02984,243.23875 c -0.19626,0.16286 -1.5277,0.0263 -7.14345,-0.73289 -6.67133,-0.90184 -9.28598,-0.81084 -17.90775,0.62325 -3.98679,0.66315 -5.39811,0.84787 -9.76279,1.27788 -5.8251,0.5739 -6.10504,0.60703 -7.69866,0.9115 -5.2017,0.99381 -11.48304,3.16478 -18.51768,6.40016 -3.75596,1.72744 -5.78874,2.43812 -8.60541,3.00851 -2.15608,0.43661 -2.20886,0.42408 -4.39677,-1.04314 -2.33862,-1.56831 -4.21178,-3.14936 -6.81271,-5.75027 -2.60121,-2.60122 -4.12585,-4.4094 -5.75411,-6.82418 l -1.20623,-1.78892 -0.0435,-0.77017 c -0.0409,-0.7239 -0.0277,-0.77665 0.21993,-0.87802 0.1449,-0.0593 1.26762,-0.31514 2.49494,-0.56849 5.02781,-1.03791 9.80717,-2.23324 15.39733,-3.85094 3.95314,-1.14396 6.69837,-1.82801 9.42278,-2.34793 1.13818,-0.21721 3.07359,-0.5913 4.30091,-0.83132 2.64609,-0.51748 5.28691,-0.87988 9.76279,-1.33975 3.03966,-0.31232 5.5414,-0.63269 6.85092,-0.87732 0.61469,-0.11484 0.84004,-0.28178 0.67787,-0.50215 -0.84406,-1.14694 -2.30998,-3.50322 -2.74996,-4.42021 -0.55607,-1.15892 -2.10115,-4.73782 -3.4441,-7.9776 -1.56424,-3.77368 -2.59092,-7.34674 -3.51052,-12.21744 -0.34178,-1.81031 -1.01961,-5.27471 -1.50628,-7.69866 -1.94323,-9.6786 -2.19919,-11.54154 -2.62152,-19.07928 -0.19386,-3.45971 -0.3841,-5.62775 -0.77835,-8.87021 -0.60457,-4.97213 -0.77564,-7.70825 -0.95107,-15.21148 -0.0607,-2.59791 -0.13408,-4.76175 -0.16299,-4.80851 -0.0289,-0.0468 -3.83257,-0.11966 -8.45255,-0.16198 -11.77332,-0.10778 -14.0254,-0.22523 -17.66069,-0.92076 -2.74858,-0.52588 -4.61306,-1.02361 -5.4171,-1.44612 -1.59707,-0.83922 -5.12983,-4.0041 -7.0037,-6.27435 -1.60607,-1.9458 -2.51326,-3.75677 -1.98371,-3.95996 0.0857,-0.0329 0.85149,0.1072 1.70151,0.31142 1.67723,0.40295 2.89137,0.65518 4.11175,0.85421 0.53915,0.0879 5.70494,0.1554 16.68042,0.21782 8.74468,0.0497 15.98391,0.0966 16.08716,0.10423 0.10331,0.008 0.29155,-0.09 0.41841,-0.21687 0.12687,-0.12686 0.34361,-0.23037 0.48169,-0.23003 0.41206,7.9e-4 1.12164,0.23222 1.4677,0.4782 0.28393,0.20184 0.91244,0.28917 5.07665,0.70539 5.59346,0.55907 5.86364,0.5949 8.76928,1.16296 3.78469,0.73992 4.19173,0.78559 6.98423,0.78374 2.89902,-0.001 8.74279,-0.29258 9.41726,-0.46838 0.24546,-0.0639 0.72245,-0.275 1.05997,-0.46894 l 0.61366,-0.35261 h 1.85422 1.8542 l 1.26989,0.63252 c 2.70075,1.34521 7.9658,6.07933 11.10097,9.98151 1.2021,1.4962 2.70953,3.85656 2.84105,4.44856 0.18318,0.82458 0.034,1.11716 -0.67724,1.32839 -0.9278,0.27552 -2.33954,0.42783 -3.29208,0.35519 -0.49093,-0.0374 -2.34864,-0.11774 -4.12827,-0.17844 -3.36191,-0.11467 -4.87199,-0.2182 -7.41971,-0.50861 -3.80217,-0.43343 -5.90089,-0.92364 -9.76919,-2.28187 -4.60439,-1.61669 -6.49795,-2.13294 -10.19978,-2.78069 -2.19776,-0.38458 -2.56913,-0.41145 -2.56913,-0.18584 0,0.0854 0.27431,0.59226 0.60958,1.12627 1.09529,1.74459 1.27979,2.58774 0.84931,3.88131 -0.53371,1.60384 -0.56284,2.00536 -0.69764,9.62075 -0.12791,7.22683 -0.0349,13.30857 0.24307,15.8994 0.2634,2.45484 0.35403,4.19841 0.44653,8.59125 0.15574,7.39546 0.38316,9.30993 2.00474,16.87722 0.4239,1.97821 1.17873,5.58 1.67738,8.00397 0.49865,2.42396 1.15953,5.40864 1.46864,6.63263 0.71563,2.83377 2.31018,7.4458 2.71909,7.86457 0.13546,0.13872 0.50672,0.13432 2.80951,-0.0333 1.45939,-0.10617 3.33126,-0.31288 4.1597,-0.45927 2.76787,-0.48905 2.84462,-0.4877 7.19657,0.12647 1.89318,0.26718 2.07234,0.31388 3.12409,0.81427 1.29682,0.61696 2.25114,1.285 4.44107,3.1088 4.44373,3.70079 8.54192,8.40064 9.91301,11.36836 0.45134,0.97691 0.54039,1.58752 0.26487,1.81618 z m -57.12909,-32.21999 c -0.70194,4.17226 -3.19483,6.69834 -8.87003,8.98811 -5.9491,2.4003 -9.95085,3.25196 -16.90358,3.59752 -1.28869,0.064 -3.6987,0.19097 -5.35559,0.28205 -1.65688,0.0911 -3.59272,0.19747 -4.30185,0.23641 -1.24966,0.0686 -1.31147,0.0609 -2.00836,-0.24713 -1.23388,-0.54555 -2.18267,-1.17079 -4.04793,-2.66752 -2.00559,-1.60936 -5.58365,-5.10514 -7.14089,-6.9767 -2.11114,-2.53725 -3.7074,-5.2992 -3.47884,-6.01932 0.10457,-0.32951 0.37647,-0.36129 1.52065,-0.17772 0.83557,0.13405 4.52719,0.3861 5.76493,0.39361 0.50108,0.003 0.39434,-0.31101 -0.40603,-1.1945 -1.66816,-1.84141 -3.2303,-4.01354 -4.0264,-5.59866 -0.80299,-1.59884 -1.09285,-2.84524 -1.73129,-7.44448 -0.15435,-1.11197 -0.40927,-2.71865 -0.56649,-3.5704 -0.28613,-1.54991 -1.94517,-8.7665 -2.90824,-12.65033 -0.59969,-2.4184 -4.83439,-15.31419 -5.93548,-18.07511 l -0.73422,-1.84098 -0.007,-1.18715 c -0.009,-1.67746 0.0596,-1.73136 2.55963,-1.99972 2.25275,-0.24184 4.12719,0.0533 7.47551,1.17701 2.9072,0.97567 4.06021,1.46905 11.481,4.91285 7.86793,3.6513 9.6474,4.61602 14.2027,7.6999 4.46763,3.02451 9.8244,7.48517 13.48074,11.22555 4.27419,4.37244 7.60968,9.01149 9.36409,13.02366 1.37528,3.14509 2.01351,6.38004 2.51993,12.77254 0.24935,3.14748 0.25888,4.11452 0.0527,5.34051 z m -15.61129,-22.11473 c -0.49416,-3.71821 -1.19459,-7.15787 -1.58415,-7.77934 -0.21931,-0.34985 -2.49607,-1.67074 -4.76002,-2.76157 -2.26475,-1.09121 -7.66931,-3.47751 -10.12213,-4.46927 -5.09021,-2.05815 -8.69721,-2.74953 -10.76122,-2.06266 -1.20367,0.40056 -1.46776,0.93092 -1.44551,2.90285 0.0174,1.54275 1.24597,6.02149 3.2269,11.76383 0.88515,2.56588 1.40064,4.39456 3.05292,10.83006 1.29611,5.04828 1.63154,6.5093 2.01949,8.79594 0.17527,1.03306 0.34938,1.90899 0.38691,1.94653 0.10296,0.10296 1.82895,-0.16733 3.51164,-0.55 2.51279,-0.57148 5.70682,-1.76867 8.63567,-3.23686 4.84531,-2.42888 7.19893,-4.92011 8.1526,-8.62922 0.15205,-0.59136 -0.0374,-4.67587 -0.3131,-6.75029 z m -26.64192,39.02886 c -0.43322,0.43322 -1.98309,-0.24857 -6.61638,-2.91055 -6.27748,-3.60664 -11.17561,-7.67716 -16.00567,-13.30126 -1.6877,-1.96515 -3.20667,-4.03291 -5.04075,-6.86185 -1.90691,-2.9413 -2.55589,-4.04804 -3.71107,-6.32865 -0.54815,-1.0822 -0.95427,-1.7481 -1.14056,-1.87016 -0.15913,-0.10423 -0.82075,-0.62025 -1.47029,-1.14664 -1.36566,-1.10673 -1.43885,-1.13062 -3.48653,-1.13772 -1.56394,-0.006 -2.3406,0.14572 -3.40254,0.66222 -0.65837,0.32021 -1.70992,1.26391 -2.18136,1.95766 -0.38797,0.5709 -1.17631,2.19225 -1.49056,3.06557 -0.44377,1.23329 -1.05312,3.8128 -1.13631,4.81024 -0.0704,0.84401 -0.0645,0.87397 0.19409,0.98084 0.77565,0.32064 5.12926,0.75454 6.45909,0.64376 0.46119,-0.0385 1.09083,-0.20849 1.7294,-0.46712 0.55229,-0.22368 1.67625,-0.60895 2.49767,-0.85617 1.23542,-0.3718 1.61475,-0.44176 2.19512,-0.4048 0.6723,0.0428 0.76844,0.0892 2.30005,1.11021 0.87914,0.58605 2.17582,1.53393 2.88153,2.10642 1.55659,1.26274 5.62674,5.30423 6.96511,6.91608 1.07139,1.29027 2.87954,3.876 3.27044,4.67685 0.27565,0.56472 0.33771,1.47491 0.11306,1.65706 -0.30568,0.24777 -3.25205,1.258 -4.01399,1.37629 -0.88431,0.13726 -0.85638,0.13886 -4.99568,-0.2851 -5.51719,-0.56508 -6.66093,-0.81235 -10.09752,-2.18293 -7.63459,-3.04484 -11.66498,-5.71829 -17.182512,-11.39756 -3.355645,-3.45402 -5.663322,-6.64046 -6.358937,-8.7804 -0.198921,-0.61194 -0.179288,-1.55157 0.05511,-2.63725 0.05297,-0.24546 0.251975,-1.6262 0.442191,-3.06831 0.409577,-3.10525 0.761306,-4.88944 1.302246,-6.60579 1.413512,-4.4849 2.74401,-5.95294 6.009872,-6.63114 1.242281,-0.25799 5.37482,-0.32882 6.41556,-0.10996 2.09047,0.43957 4.71657,2.24729 8.7555,6.02695 0.64882,0.60718 1.21269,1.07092 1.25305,1.03055 0.0403,-0.0403 0.009,-0.51202 -0.0696,-1.04814 -0.0944,-0.64385 -0.17358,-3.30428 -0.23336,-7.83661 -0.088,-6.67821 -0.1484,-8.0864 -0.35175,-8.21209 -0.0542,-0.0334 -1.49056,-0.18295 -3.19204,-0.33219 -2.342,-0.20541 -4.21857,-0.28826 -7.72396,-0.34099 -4.847978,-0.0729 -6.882076,-4.5e-4 -11.363976,0.40511 -3.582849,0.32418 -6.713837,0.44548 -11.50885,0.44588 -4.924954,4.4e-4 -6.510493,-0.0941 -9.316493,-0.5554 -4.22208,-0.69405 -4.811196,-0.83592 -6.045958,-1.45609 -2.437476,-1.22422 -7.170656,-5.46082 -10.356912,-9.2703 -1.854616,-2.21739 -3.228019,-4.58451 -3.156465,-5.44035 0.05521,-0.66044 -0.234008,-0.69678 7.788199,0.97846 2.796946,0.58405 6.780603,0.90463 11.245464,0.90494 3.501242,0 5.799176,-0.14459 9.786374,-0.61675 5.337725,-0.63209 7.133747,-0.7461 11.994284,-0.76135 3.457138,-0.0103 4.852172,0.0289 6.471341,0.18437 1.135268,0.10904 3.846532,0.2441 6.025042,0.30027 4.31522,0.11122 5.20061,0.196 6.48452,0.62089 4.60136,1.52271 14.19371,10.96779 17.17758,16.91381 1.55376,3.09625 1.77633,5.09165 1.5476,13.87464 -0.15739,6.04336 -0.0945,10.75429 0.16885,12.63824 0.39852,2.85161 1.81754,7.18383 3.24459,9.90569 0.45211,0.86232 0.91228,1.64301 1.02257,1.73487 0.11031,0.0918 0.47668,0.28888 0.8142,0.43784 1.13078,0.49906 2.13577,1.15931 3.83522,2.51965 4.9114,3.93137 9.49152,9.05884 10.93982,12.24722 0.41037,0.9034 0.50018,1.48611 0.26523,1.72105 z M 89.426896,216.04304 c -0.582745,1.79971 -2.118797,2.23795 -9.881774,2.81927 -2.147815,0.16085 -5.687522,0.51459 -7.866016,0.78612 -6.495821,0.80965 -6.883384,0.83645 -13.139531,0.90879 l -5.719812,0.0662 -0.138689,0.29078 c -0.193314,0.40532 -0.610195,0.42214 -1.422874,0.0574 l -0.676406,-0.30355 -1.112433,0.14723 c -0.784899,0.10387 -1.220531,0.11409 -1.479583,0.0346 -0.725174,-0.22256 -3.7891,-2.39283 -5.54326,-3.92646 -2.662996,-2.32819 -5.736228,-5.72953 -7.359964,-8.14576 -0.629682,-0.937 -1.342867,-2.47136 -1.342867,-2.88908 0,-0.52384 0.149206,-0.57152 1.506259,-0.48144 0.675028,0.0449 1.29736,0.0573 1.382961,0.0275 0.126524,-0.0438 0.142792,-0.29575 0.08696,-1.34674 -0.04587,-0.86341 -0.01668,-1.66348 0.08788,-2.40861 0.119608,-0.85245 0.150296,-2.32946 0.130048,-6.25911 l -0.0265,-5.14338 -0.347649,-0.52485 c -0.191208,-0.28867 -0.37815,-0.71053 -0.415429,-0.93746 -0.07562,-0.46037 0.129496,-1.35405 0.554765,-2.41706 0.343935,-0.85971 0.349161,-1.35323 0.04854,-4.58426 -0.310878,-3.34121 -0.686519,-6.19681 -1.288212,-9.79287 -0.698201,-4.17287 -1.118184,-6.15447 -2.333478,-11.01003 -0.575973,-2.30122 -1.228693,-5.06269 -1.450488,-6.1366 -0.392397,-1.89993 -0.576145,-2.4209 -1.338041,-3.79355 -0.210992,-0.38013 -0.272017,-0.63759 -0.251234,-1.05996 l 0.02746,-0.55787 0.488071,-0.035 c 2.100923,-0.15061 9.578587,6.4102 12.944829,11.35762 1.163141,1.70949 2.161087,3.74071 2.52187,5.13302 0.08909,0.34381 0.338111,1.8028 0.55338,3.2422 0.215269,1.4394 0.564514,3.57107 0.7761,4.73702 0.211586,1.16596 0.515786,2.9981 0.676,4.07144 0.160215,1.07333 0.333761,1.99398 0.385659,2.04588 0.0519,0.0519 0.740226,-0.009 1.529615,-0.1353 1.539345,-0.24631 4.970697,-0.62099 6.790844,-0.74155 2.701106,-0.17888 5.935349,0.63068 8.977495,2.24718 2.114931,1.12382 5.187328,3.35277 7.758715,5.62876 1.561217,1.38186 4.719373,4.59492 6.076216,6.18183 2.856524,3.34089 5.206613,6.91325 6.315116,9.59963 1.123623,2.72302 1.452351,3.75866 2.72697,8.59125 0.79336,3.00793 0.975005,4.08069 0.788506,4.65669 z m -16.246449,-18.7709 c -0.08503,-0.52161 -0.344652,-1.70151 -0.576932,-2.62201 l -0.422323,-1.67362 -0.948389,-0.21025 c -0.826284,-0.18317 -1.47271,-0.21187 -5.020864,-0.22297 -4.375363,-0.0137 -4.72552,0.0172 -7.427559,0.65567 -3.628258,0.8573 -7.528779,3.24788 -8.492342,5.20485 -0.231462,0.47009 -0.235813,0.55256 -0.131614,2.49451 0.05927,1.10458 0.142847,2.53554 0.185728,3.17989 l 0.07796,1.17153 1.338897,-0.0292 c 1.822018,-0.0397 3.214789,-0.2433 7.381433,-1.07887 1.955995,-0.39226 4.810787,-0.9228 6.343994,-1.17901 5.343084,-0.89283 6.985335,-1.5151 7.680562,-2.91024 0.321706,-0.64558 0.322632,-0.8714 0.01148,-2.78028 z"
       style="fill:none;stroke-width:0.11157478" />
  </g>
</svg>
