<?xml version="1.0" encoding="UTF-8" standalone="no"?>
<svg
   xmlns:dc="http://purl.org/dc/elements/1.1/"
   xmlns:cc="http://creativecommons.org/ns#"
   xmlns:rdf="http://www.w3.org/1999/02/22-rdf-syntax-ns#"
   xmlns:svg="http://www.w3.org/2000/svg"
   xmlns="http://www.w3.org/2000/svg"
   xmlns:sodipodi="http://sodipodi.sourceforge.net/DTD/sodipodi-0.dtd"
   xmlns:inkscape="http://www.inkscape.org/namespaces/inkscape"
   version="1.1"
   id="Contours"
   x="0px"
   y="0px"
   width="200"
   height="200"
   viewBox="0 0 200 188.43554"
   enable-background="new 0 0 416.304993 416.304993"
   xml:space="preserve"
   sodipodi:docname="donk.svg"
   style="fill:none;stroke:#000000;stroke-linecap:round;stroke-linejoin:round"
   inkscape:version="0.92.2 5c3e80d, 2017-08-06"
   inkscape:export-filename="/Users/radcli14/Desktop/drubble/game/a/donk_face.png"
   inkscape:export-xdpi="96"
   inkscape:export-ydpi="96"><metadata
     id="metadata61"><rdf:RDF><cc:Work
         rdf:about=""><dc:format>image/svg+xml</dc:format><dc:type
           rdf:resource="http://purl.org/dc/dcmitype/StillImage" /><dc:title></dc:title></cc:Work></rdf:RDF></metadata><defs
     id="defs59" /><sodipodi:namedview
     pagecolor="#ffffff"
     bordercolor="#666666"
     borderopacity="1"
     objecttolerance="10"
     gridtolerance="10"
     guidetolerance="10"
     inkscape:pageopacity="0"
     inkscape:pageshadow="2"
     inkscape:window-width="1312"
     inkscape:window-height="791"
     id="namedview57"
     showgrid="false"
     inkscape:zoom="2.27"
     inkscape:cx="93.866782"
     inkscape:cy="90.871001"
     inkscape:window-x="0"
     inkscape:window-y="0"
     inkscape:window-maximized="0"
     inkscape:current-layer="Contours" /><g
     id="g90"
     transform="matrix(0.47881354,0,0,0.47881354,0.44052853,108.63417)"><path
       style="opacity:1;fill:#000000;stroke:none"
       inkscape:connector-curvature="0"
       id="path2"
       d="m 152.97046,-124.86518 c -0.73884,-0.8996 -0.73691,-2.32495 0.004,-3.22254 8.19557,0.22001 16.39113,0.44003 24.5867,0.66005 0.29421,1.72978 -2.11995,2.45875 -3.87455,2.46685 -6.9055,0.0319 -13.811,0.0638 -20.71651,0.0956 z"
       class="selected" /><path
       style="opacity:1;fill:#000000;stroke:none"
       inkscape:connector-curvature="0"
       id="path4"
       d="m 221.96683,-179.96071 c 3.13267,0.18288 6.24276,0.7495 9.23865,1.68316 -5.5947,2.00239 -11.50644,3.11604 -17.44623,3.28654 -0.27347,-3.62924 4.57424,-5.18181 8.20758,-4.9697 z"
       class="selected" /><path
       style="opacity:1;fill:#000000;stroke:none"
       inkscape:connector-curvature="0"
       id="path6"
       d="m 202.85184,-127.83912 c 4.58411,-1.19438 9.40147,-1.48642 14.09629,-0.85454 0.76324,0.69099 0.77019,2.04733 0.0141,2.74611 -4.74895,0.8245 -9.74625,0.15459 -14.11037,-1.89157 z"
       class="selected" /><path
       style="opacity:1;fill:#000000;stroke:none"
       inkscape:connector-curvature="0"
       id="path8"
       d="m 296.78563,-103.29605 c 4.93898,-1.63351 10.0046,-2.88401 15.13637,-3.73657 0.55228,0.65515 0.69561,1.62847 0.35562,2.41501 -4.47595,3.0523 -10.56371,3.57162 -15.49199,1.32156 z"
       class="selected" /><path
       style="opacity:1;fill:#000000;stroke:none"
       inkscape:connector-curvature="0"
       id="path10"
       d="m 311.84962,-72.525863 c -4.14333,0.88677 -8.43732,1.06522 -12.63995,0.5253 -1.06688,-0.13706 -1.51933,-1.4062 -1.74777,-2.45731 4.83769,-0.90616 9.96046,-0.21827 14.38772,1.93201 z"
       class="selected" /><path
       style="opacity:1;fill:#000000;stroke:none"
       inkscape:connector-curvature="0"
       id="path12"
       d="m 177.46406,-190.05879 c 3.98754,-1.09012 7.97509,-2.18024 11.96264,-3.27036 2.52432,-0.6901 6.27499,-0.62241 6.57046,1.97781 -0.0363,2.00682 -2.41527,3.15262 -4.42212,3.11835 -2.00686,-0.0343 -4.01068,-0.75473 -5.98564,-0.39673 -1.74098,0.31559 -3.27521,1.44511 -5.03538,1.62515 -1.76016,0.18004 -3.87969,-1.47089 -3.08996,-3.05422 z"
       class="selected" /><path
       style="opacity:1;fill:#000000;stroke:none"
       inkscape:connector-curvature="0"
       id="path14"
       d="m 179.64677,-133.57887 c -4.49724,1.62908 -9.69468,1.20216 -13.86582,-1.13894 4.44641,-1.85696 9.78203,-1.41869 13.86582,1.13894 z"
       class="selected" /><path
       style="opacity:1;fill:#000000;stroke:none"
       inkscape:connector-curvature="0"
       id="path16"
       d="m 243.93435,-166.97559 c -3.39145,0.44751 -7.43672,0.65195 -9.5841,-2.01094 4.3719,-0.6278 8.82534,-0.68541 13.21202,-0.17093 -0.25507,1.5495 -1.99051,2.67799 -3.51028,2.28261 z"
       class="selected" /><path
       style="opacity:1;fill:#000000;stroke:none"
       inkscape:connector-curvature="0"
       id="path18"
       d="m 312.82321,-89.633733 c -2.65433,0.46685 -5.47521,-0.0874 -7.75558,-1.52384 3.77542,-0.88938 7.79376,-0.723 11.48274,0.47547 -0.56204,1.33008 -2.14076,2.1409 -3.54925,1.82287 z"
       class="selected" /><path
       style="opacity:1;fill:#000000;stroke:none"
       inkscape:connector-curvature="0"
       id="path20"
       d="m 155.96419,-134.92081 c -0.84749,0.58644 -1.75975,-1.13694 -0.93832,-1.75936 1.87346,-0.67202 4.12125,-0.13472 5.48828,1.31188 -1.42789,0.58765 -3.01732,0.77699 -4.5433,0.54122 z"
       class="selected" /><path
       style="opacity:1;fill:#000000;stroke:none"
       inkscape:connector-curvature="0"
       id="path22"
       d="m 297.91377,-109.98933 c 1.70598,-0.6523 3.41194,-1.3046 5.11792,-1.9569 0.96734,1.16113 -0.63731,2.69838 -2.00343,3.34466 -0.83482,0.39494 -1.78336,0.79726 -2.65093,0.48068 -0.86758,-0.31659 -1.23056,-1.75243 -0.38593,-2.12595 z"
       class="selected" /><path
       style="opacity:1;fill:#000000;stroke:none"
       inkscape:connector-curvature="0"
       id="path24"
       d="m 278.46827,-135.81229 c -0.0225,-1.9099 3.0116,-2.8762 4.09772,-1.30504 -0.48802,1.29758 -2.31705,1.85485 -3.4457,1.04983 z"
       class="selected" /><path
       style="opacity:1;fill:#000000;stroke:none"
       inkscape:connector-curvature="0"
       id="path26"
       d="m 225.05704,-129.61266 c 1.67594,-0.48919 4.15662,-0.51712 4.44119,1.20541 -1.00406,0.48305 -2.08898,0.97902 -3.18884,0.80077 -1.09986,-0.17824 -2.0954,-1.36295 -1.64402,-2.38164 z"
       class="selected" /><path
       style="opacity:1;fill:#000000;stroke:none"
       inkscape:connector-curvature="0"
       id="path28"
       d="m 192.3437,-129.44709 c -1.07512,1.25897 -3.50774,0.74066 -3.9763,-0.84721 1.22855,-0.9923 3.34961,-0.47079 3.97795,0.97807 z"
       class="selected" /><path
       style="opacity:1;fill:#000000;stroke:none"
       inkscape:connector-curvature="0"
       id="path30"
       d="m 266.97821,-134.76478 c -1.52828,-0.0707 -2.98994,-1.93433 -2.00143,-3.102 1.51493,0.0467 2.9768,1.9041 1.98219,3.04774 z"
       class="selected" /><path
       style="opacity:1;fill:#000000;stroke:none"
       inkscape:connector-curvature="0"
       id="path32"
       d="m 179.13602,21.699697 c 2.8036,0.5044 2.14233,4.73803 0.68453,7.18535 -8.25967,13.86614 -18.99612,26.25204 -31.54939,36.39636 -0.98245,0.79392 -2.06322,1.60888 -3.32435,1.67995 -1.26114,0.0711 -2.65032,-0.98991 -2.41475,-2.23089 6.48587,-4.2495 12.02875,-9.79054 17.1223,-15.63696 7.37234,-8.46204 13.90826,-17.65242 19.48166,-27.39381 z"
       class="selected" /><path
       style="opacity:1;fill:#000000;stroke:none"
       inkscape:connector-curvature="0"
       id="path34"
       d="m 338.87549,-6.5422527 c 1.19673,0.39709 2.39345,0.79418 3.59017,1.19127 -3.27941,2.99059 -9.30303,1.92875 -11.36219,-2.00291 2.61802,0.21945 5.23604,0.43889 7.85406,0.65834 z"
       class="selected" /><path
       style="opacity:1;fill:#000000;stroke:none"
       inkscape:connector-curvature="0"
       id="path36"
       d="m 229.94754,-189.74749 c 1.11587,-0.24421 2.9082,0.35292 2.31379,1.32836 -0.69837,1.3867 -3.30764,-0.23333 -2.37457,-1.4743 z"
       class="selected" /><path
       style="opacity:1;fill:#000000;stroke:none"
       inkscape:connector-curvature="0"
       id="path38"
       d="m 295.21709,-28.414963 c 0.87123,-2.47072 1.74246,-4.94143 2.61369,-7.41215 2.04374,0.34325 4.00684,1.15796 5.69304,2.36271 -0.68534,1.17827 -2.13083,1.86299 -3.47667,1.64688 -0.94444,3.07405 -1.88889,6.1481 -2.83333,9.22214 -2.12924,-0.47379 -2.07664,-3.51109 -1.5091,-5.61728 z"
       class="selected" /><path
       style="opacity:1;fill:#000000;stroke:none"
       inkscape:connector-curvature="0"
       id="path40"
       d="m 300.96233,-38.915223 c -1.09514,0.41269 -2.73166,-0.3096 -2.46479,-1.44908 2.67462,-0.83107 5.6203,-0.76234 8.25325,0.19255 -1.39615,1.51511 -3.80423,1.98677 -5.6688,1.11032 z"
       class="selected" /><path
       style="opacity:1;fill:#000000;stroke:none"
       inkscape:connector-curvature="0"
       id="path42"
       d="m 84.970785,2.1729273 c -2.999568,-3.1e-4 -5.999136,-6.2e-4 -8.998704,-9.3e-4 -0.504079,-0.57557 -0.649395,-1.44141998 -0.360839,-2.15000998 6.099131,-2.54226002 13.616694,-1.23684002 18.501687,3.21279998 -3.075361,0.51074 -6.277246,0.2404 -9.22344,-0.77873 z"
       class="selected" /><path
       style="opacity:1;fill:#000000;stroke:none"
       inkscape:connector-curvature="0"
       id="path44"
       d="m 303.19339,-48.117813 c 0.80924,0.5837 1.61847,1.16739 2.4277,1.75108 -1.12295,1.89906 -4.69065,1.06417 -4.85434,-1.13596 0.72944,-0.15312 1.45889,-0.30623 2.18833,-0.45934 z"
       class="selected" /><path
       style="opacity:1;fill:#000000;stroke:none"
       inkscape:connector-curvature="0"
       id="path46"
       d="m 79.922738,9.2203673 c -1.272435,0.2936 -1.627269,-1.69078 -1.336537,-2.96387 2.483766,0.23245 4.940286,0.75471 7.303797,1.55279 -1.464583,1.50921 -3.891912,1.98551 -5.818221,1.14167 z"
       class="selected" /><path
       style="opacity:1;fill:#000000;stroke:none"
       inkscape:connector-curvature="0"
       id="path48"
       d="m 151.4754,-17.439143 c 10.19993,2.35577 19.52726,8.3233703 25.94098,16.59697032 1.65183,2.13082998 3.39459,4.59243998 6.04901,5.06472998 6.95165,-11.54504 17.41454,-20.9437803 29.63626,-26.6220603 2.01029,-0.93399 4.43459,-1.75439 6.35195,-0.64205 1.91737,1.11233 1.5708,4.92968 -0.64035,4.77335 -6.27667,-0.44379 -8.73709,8.3531003 -14.24982,11.3868003 -1.87763,1.03328 -4.05552,1.34232 -6.0904,2.01493 -5.49836,1.81745 -9.94909,6.52437 -11.45628,12.11575 -0.75287,2.7930097 -4.71038,3.5197497 -7.2163,2.07473 -2.50592,-1.44502 -3.8983,-4.19712 -5.25211,-6.75347 -1.3538,-2.55634998 -2.99913,-5.23887 -5.69124,-6.29727 -3.02213,-1.18814 -6.43699,0.0221 -9.66593,-0.32261 -6.34169,-0.67708 -10.38587,-6.8927103 -13.49651,-12.4604203 1.31983,-1.58064 3.77434,-1.39277 5.78074,-0.92938 z"
       class="selected" /><path
       style="opacity:1;fill:#000000;stroke:none"
       inkscape:connector-curvature="0"
       id="path50"
       d="m 47.751586,-48.338603 c 1.038254,-0.0868 0.941743,-2.0461 -0.100011,-2.03041 -9.592004,-4.97958 -22.78103,-1.14722 -28.210858,8.19728 -2.467302,-4.04144 1.053453,-9.23411 5.108875,-11.67837 8.040684,-4.84622 18.806589,-4.47056 26.747725,0.53711 7.941137,5.00768 12.87217,14.28093 13.063725,23.66719 0.118147,5.78917 -2.135808,12.37807 -7.556597,14.41363 0.252464,-5.95048 0.504929,-11.90095 0.757394,-17.85142 0.162215,-3.82331 -0.117094,-8.4702 -3.493148,-10.27194 -3.175808,-1.69488 -7.085312,0.33638 -9.67169,2.84017 -3.702106,3.58391 -6.327319,8.26635 -7.453522,13.29444 -0.276466,1.23431 -0.493809,2.55155 -1.3089,3.51881 -0.815091,0.96727 -2.48459,1.3449 -3.315151,0.39089 -0.533013,-10.40895 5.892376,-20.82943 15.432158,-25.02738 z"
       class="selected" /><path
       style="opacity:1;fill:#000000;stroke:none"
       inkscape:connector-curvature="0"
       id="path52"
       d="m 369.55975,-9.9449027 c -3.11574,-4.7998003 -1.98226,-11.0550403 -2.44006,-16.7591103 -0.70201,-8.74668 -5.67647,-17.0498 -13.05755,-21.79499 -4.02907,-2.59023 -9.75992,-0.57446 -12.65914,3.23831 -2.89922,3.81277 -3.5876,8.84258 -3.74617,13.6298 -0.15858,4.78723 0.10019,9.67699 -1.27464,14.26529 -2.84028,-3.03328 -4.38586,-7.24099 -4.18436,-11.39158 0.12354,-2.54466 0.86972,-5.03232 0.94232,-7.57894 0.0726,-2.54662 -0.7182,-5.35694 -2.88073,-6.7038 5.43507,-0.76632 8.0737,-6.82508 11.71853,-10.92904 5.11184,-5.75576 13.40227,-8.08246 21.03048,-7.04796 7.62821,1.03451 14.6029,5.08788 20.27754,10.28963 1.60903,1.47495 3.17642,3.11935 3.88536,5.18378 0.70894,2.06442 0.33412,4.64579 -1.40857,5.96013 -3.01282,-5.61501 -7.21444,-10.7601 -12.77402,-13.87402 -5.55958,-3.11392 -12.59864,-3.95552 -18.35955,-1.23204 14.52597,8.96186 21.16418,28.85553 14.93056,44.7445403 z"
       class="selected" /><path
       style="opacity:1;fill:#000000;stroke:none"
       inkscape:connector-curvature="0"
       id="path54"
       d="m 226.4509,159.91806 c -14.99508,2.12388 -26.96918,15.67005 -42.11026,16.00385 -14.89464,0.32837 -26.8665,-12.12086 -41.20961,-16.14994 -4.96112,-1.39361 -12.13377,-0.28456 -12.58039,4.84919 -0.54162,6.22582 -9.69895,7.86755 -14.90734,4.41401 -5.20838,-3.45354 -7.90828,-9.54855 -11.97832,-14.29081 -5.060043,-5.89577 -12.168773,-9.61111 -17.946221,-14.80584 -5.777449,-5.19474 -10.385099,-13.13654 -7.960256,-20.51789 1.220765,-3.71607 4.0279,-6.65947 6.751062,-9.46729 3.17739,-3.27617 6.35478,-6.55234 9.53217,-9.82851 -6.365309,-2.498803 -11.30773,-8.337883 -12.720711,-15.028523 -2.427151,4.36222 -8.892966,3.68923 -13.541271,1.86898 -9.807399,-3.84052 -19.234277,-10.98802 -21.769442,-21.21092 -2.535165,-10.2229 5.118631,-22.85748 15.630241,-22.19362 5.212741,0.32921 8.944309,-6.06328 7.487882,-11.07924 -1.456427,-5.01597 -6.378341,-8.30818 -11.389249,-9.7819 -5.010907,-1.47372 -10.319407,-1.55694 -15.440327,-2.58515 -19.966549,-4.00902 -34.735223,-22.3224697 -39.94139,-42.01082 -3.946319,-14.92393 -3.178763,-31.44052 4.136755,-45.03391 7.315518,-13.59339 21.682959,-23.68897 37.117901,-23.93328 7.720032,-0.12219 15.390494,2.09979 23.083711,1.4454 7.693217,-0.65438 16.030416,-5.63794 16.51403,-13.343767 1.235648,-19.68865 15.816941,-37.84267 34.775525,-43.29627 3.95983,-7.92089 10.19685,-14.68712 17.76976,-19.27752 6.05715,-3.6716 13.08515,-6.09504 17.84421,-11.34108 4.75906,-5.24605 5.76535,-14.91675 -0.30689,-18.56334 14.04908,-16.91021 38.00865,-23.60238 59.73005,-20.20933 21.7214,3.39305 41.25822,15.70154 56.97294,31.07618 15.71472,15.37464 28.06215,33.78941 40.29062,52.0595 8.99887,13.44488 17.99775,26.88976 26.99662,40.334637 31.62071,-9.753317 69.24874,11.37764 77.3789,43.45407 8.13017,32.07642 -14.88984,68.57938 -47.33872,75.06527 1.82365,-5.50749 -6.75261,-9.54162 -11.67851,-6.4767 -4.92589,3.06492 -6.59863,9.29063 -8.27468,14.84481 -10.27644,34.05475 -34.68426,61.85923 -59.86506,86.984093 -17.28378,17.24539 -36.87919,34.6016 -61.05373,38.02566 M 72.505523,75.242937 c 19.71521,3.23257 39.430417,6.46514 59.145627,9.6977 27.93469,4.58026 58.12018,8.8416 83.30123,-4.09055 23.0681,-11.847 37.04707,-35.69053 49.49428,-58.44038 -5.48142,1.4241 -10.64412,4.06152 -15.01051,7.66828 1.11457,-6.15059 6.43007,-11.30519 12.612,-12.23024 6.18194,-0.92505 12.77346,2.4478 15.63962,8.00272 2.67422,5.18292 2.13823,11.36694 1.53548,17.16787 -2.05282,-4.33444 -4.10563,-8.66889 -6.15844,-13.00334 -1.69069,12.44513 -4.57562,24.72773 -8.60227,36.62419 -3.94518,11.65577 -9.07416,23.0854 -16.85394,32.61936 -16.16745,19.812923 -42.29946,29.353363 -67.82184,30.949043 -25.52238,1.59569 -50.90474,-3.82153 -75.90335,-9.20743 -3.47914,-0.74957 -7.872545,-2.72711 -7.334933,-6.24524 3.779113,-0.49698 7.080253,-3.56801 7.848513,-7.30144 -9.892274,-3.49211 -21.186177,6.26891 -20.854619,16.75423 0.331558,10.48532 10.10074,19.14659 20.532849,20.25248 9.84429,1.04357 19.56402,-3.4052 29.45368,-2.96512 8.01923,0.35685 15.50067,3.88202 23.20377,6.13984 7.70309,2.25783 16.6118,3.08233 23.23856,-1.44772 2.16997,-1.48339 4.02673,-3.50153 6.48262,-4.43845 2.45588,-0.93693 5.88033,-0.19881 6.61123,2.32606 0.57554,1.98817 -0.77591,4.02429 -2.32215,5.40023 -8.68616,7.72944 -22.07392,3.96565 -33.41975,1.4228 -12.17357,-2.72837 -24.78428,-3.49646 -37.199,-2.26569 -1.50205,0.14891 -3.0697,0.35168 -4.30979,1.21219 -2.64504,1.83543 -2.61479,6.00254 -0.80033,8.662 1.81446,2.65946 4.8447,4.17471 7.74212,5.57828 2.63341,-7.20099 11.49643,-10.41779 19.08947,-9.35255 7.59305,1.06524 14.29219,5.3154 20.97398,9.07608 6.68179,3.76068 14.0625,7.21384 21.69126,6.44503 4.97135,-0.501 9.57055,-2.76007 14.04574,-4.98223 10.76177,-5.34377 21.52354,-10.68754 32.28531,-16.0313 4.04083,3.79893 10.60549,1.77343 15.54792,-0.74304 37.89241,-19.29317 66.17238,-56.482163 74.63871,-98.152093 1.69475,-8.34131 2.63104,-16.99803 0.97,-25.34612 -3.58993,-18.0422797 -19.9838,-32.3972397 -38.21796,-34.8317897 -18.23416,-2.4345503 -37.20161,6.48456 -48.05651,21.3365797 2.15906,-9.1824897 9.54194,-16.9442497 18.60498,-19.5597797 -1.90447,-4.3125403 -8.546,-4.0906203 -12.11781,-1.01374 -3.5718,3.07688 -5.18948,7.78029 -7.6776,11.78458 -4.13401,6.65313 -11.01024,11.5432997 -18.65169,13.2645097 -3.59532,0.80984 -9.05404,-2.63967 -6.20966,-4.9831 11.52276,0.13679 22.50634,-8.7656897 24.75813,-20.0671097 2.25179,-11.3014203 -4.48084,-23.7338303 -15.17605,-28.0239403 -10.69521,-4.29011 -24.15307,0.0434 -30.3354,9.76818 -2.94222,4.62809 -10.01493,4.41556 -14.80062,1.7373 -4.78569,-2.67827 -8.408,-7.0937 -13.16095,-9.82965 -9.20212,-5.29706 -22.1338,-2.7659 -28.65974,5.60965 -6.52594,8.37556 -5.81877,21.5336403 1.56727,29.16150032 6.52492,6.73854998 16.67304,8.80934998 23.54607,15.19245968 -7.85794,3.57951 -16.71114,-1.52121 -23.99848,-6.1531397 -7.28735,-4.63193 -16.84748,-8.99019998 -24.05718,-4.23832 C 93.921072,14.325257 81.857943,29.523847 75.454841,46.864587 c -3.02948,8.20437 -16.670749,8.09065 -19.607284,16.32874 -1.64367,4.61111 1.209163,9.85506 5.30032,12.54325 4.091156,2.6882 9.120783,3.42419 13.969966,4.09456 -0.870773,-1.5294 -1.741546,-3.0588 -2.61232,-4.5882 M 321.90585,-74.784543 c 4.20712,-8.19133 0.20738,-18.06233 -4.11386,-26.194037 -12.47881,-23.48266 -27.82799,-45.43823 -45.5971,-65.22243 -10.18968,-11.34522 -21.33182,-22.09974 -34.59897,-29.61813 -13.26716,-7.51839 -28.92257,-11.61036 -43.93728,-8.94534 -6.82173,1.21082 -13.7288,4.04117 -17.88783,9.58233 -4.15904,5.54117 -4.5797,14.22583 0.46093,18.97916 2.87874,2.71465 -1.9993,6.64551 -5.78935,7.78216 -13.60089,4.07893 -25.96128,12.20241 -35.10111,23.06911 -1.56891,1.86534 -3.12208,4.04173 -2.98845,6.47548 0.1043,1.89971 1.2271,3.57719 2.37893,5.09148 15.82875,20.80981 45.55463,29.79279 70.25904,21.23184 10.21659,-3.54041 19.33911,-9.66021 29.31516,-13.83055 9.97605,-4.17033 21.69962,-6.2486 31.41595,-1.50452 11.2502,5.49301 16.78447,18.85918 16.96554,31.377467 0.14835,10.25583 3.95849,21.09985 12.46728,26.82737 8.50879,5.72753 22.06505,4.02247 26.75112,-5.10139 m 78.10603,63.73967 c 1.21403,-3.80123 1.50137,-7.82667 1.78029,-11.80729 0.49056,-7.00105 0.97855,-14.06951 -0.0661,-21.00954 -2.84341,-18.88979 -18.31053,-35.44425 -37.12542,-38.74714 -18.81488,-3.30288 -39.41614,7.49194 -46.67206,25.16283 -1.69394,4.12541 -2.70834,8.60975 -2.28266,13.04904 0.32018,3.33899 1.43752,6.54279 2.54627,9.70856 3.55473,10.14966 7.10947,20.29932 10.66421,30.4489803 1.00005,2.85542 2.0953,5.85275 4.40822,7.80311 15.88286,13.3931897 41.62548,13.0830797 57.1811,-0.68882 4.26667,-3.77741998 7.83243,-8.49134 9.56616,-13.9197303 m -231.1691,-68.05044 c -3.05773,-6.1882 0.0727,-14.64195 6.4234,-17.34616 -3.709,5.39744 -3.80088,13.04018 -0.22271,18.52523 3.57817,5.48505 10.60999,8.48066 17.04439,7.26104 -0.30164,2.07392 -2.02299,3.86301 -4.08373,4.24444 2.60194,3.51623 8.42726,2.57033 11.5686,-0.47368 3.14134,-3.044 4.54258,-7.40216 6.64036,-11.24056 5.94449,-10.87689 17.93294,-17.65705 30.23287,-19.19175 12.29993,-1.5347 24.82129,1.67277 35.99917,7.02988 1.85815,0.89053 3.39866,-1.75465 3.59993,-3.80532 1.15155,-11.732757 -6.59266,-23.754087 -17.75186,-27.556187 -10.40385,-3.54475 -21.89127,-0.30111 -31.88081,4.28305 -9.98953,4.58417 -19.52432,10.56162 -30.28087,12.82038 -22.40598,4.705037 -44.53633,-7.45741 -64.2105,-19.16607 -8.07148,-4.80356 -18.65589,-5.06394 -26.95381,-0.66307 -8.297913,4.40088 -14.019553,13.30933 -14.570483,22.68587 -0.03982,0.67777 -0.05124,1.37764 0.19096,2.011907 0.882383,2.31073 4.134022,2.23536 6.561872,1.76248 11.489501,-2.237887 23.524861,-3.937957 34.766451,-0.67557 11.24159,3.26239 21.46122,12.77054 21.96253,24.46521 0.33405,7.79282 12.57432,10.4112 17.6387,4.47895 -4.65296,-2.50532 -8.2919,-6.83493 -9.95928,-11.84957 2.12209,1.49174 4.6916,2.33809 7.28482,2.3995 m -119.162086,90.2403 c 3.98386,0.27037 8.286474,0.24104 11.562859,-2.0413997 4.212524,-2.93459 5.3888,-8.62448998 5.55158,-13.75583 0.16278,-5.13134 -0.294314,-10.5159503 1.903367,-15.1557203 4.827044,-10.19089 -3.901199,-21.6012 -4.25474,-32.87195 -0.175963,-5.60952 1.759461,-11.03744 2.905138,-16.53154 0.275769,-1.32245 0.500527,-2.73107 0.02786,-3.99659 -0.586213,-1.56953 -2.108123,-2.57051 -3.59156,-3.34929 -13.370442,-7.01928 -30.814407,-4.00855 -42.24701,5.85728 -11.432603,9.86583 -16.958193,25.60097 -16.032039,40.6735 0.756805,12.31653 5.921432,24.7917803 15.773403,32.2220103 8.038463,6.06251 18.355935,8.2677897 28.401138,8.9495297 m 39.398215,-28.80345 c 1.319379,0.85714 2.712186,1.74013 4.280857,1.86141 4.224095,0.32659 6.661538,-4.5464 8.164298,-8.50764 1.85917,-4.90078 4.07206,-9.66733 6.61574,-14.25033 2.0297,-3.65694 4.71819,-7.52257 8.81981,-8.34085 5.38082,-1.07347 7.81351,-7.16812 9.89041,-12.24671 3.41508,-8.35084 8.24469,-16.12115 14.221,-22.88006 1.24127,-1.40382 0.93548,-3.68531 -0.1787,-5.19198 -1.11419,-1.50667 -2.83477,-2.42197 -4.49651,-3.28806 -1.77073,-0.92289 -3.84447,-1.86437 -5.68357,-1.0866 -0.88829,0.37567 -1.57333,1.10738 -2.17599,1.86037 -3.80365,4.75246 -5.29878,10.89886 -8.04377,16.33198 -2.74499,5.43311 -7.73951,10.6344 -13.81789,10.30748 -1.39654,-0.0751 -2.77439,-0.44473 -4.17223,-0.40012 -3.888863,0.12409 -6.922283,3.3222 -9.221996,6.46067 -5.963603,8.13866 -10.196907,17.53885 -12.338749,27.3986 -1.093645,5.03449 3.817015,9.16518 8.13729,11.97184 m 167.764455,-66.80547 c -4.59133,9.70049 -13.30796,17.36381 -23.51661,20.67488 -7.15064,2.31923 -10.77029,10.07696 -13.56639,17.05494 -0.24377,0.60837 -0.42166,1.447 0.13134,1.79874 3.60861,2.29522 7.21722,4.59045 10.82583,6.88567 0.69625,0.44284 1.41658,0.89524 2.22992,1.03439 3.23295,0.55311 4.92386,-3.53549 6.64895,-6.32511 2.05527,-3.32356 5.74036,-5.58341 9.63453,-5.9083 4.71463,-0.39335 7.99648,-4.69688 10.64933,-8.61412 4.43074,-6.54251 8.86147,-13.08502 13.29221,-19.62753 0.75578,-1.116 1.54722,-2.43967 1.15157,-3.72813 -0.26143,-0.85137 -0.98778,-1.46396 -1.68234,-2.02144 -2.38583,-1.91495 -4.92746,-3.83236 -7.92368,-4.45034 -2.99621,-0.61797 -6.56587,0.46116 -7.87466,3.22635 m 35.86107,69.39258 c 9.4016,1.74773 19.04892,7.1585703 27.93534,3.62642 -3.62024,-12.90271 -8.00966,-25.58955 -13.1372,-37.97076 1.37535,-1.20462 2.75069,-2.40924 4.12604,-3.61386 -4.5659,-2.19471 -9.34303,-3.94971 -14.24383,-5.23285 -1.17154,-0.30674 -2.95301,-0.14327 -2.92056,1.06732 0.44007,16.41342 -8.43688,32.76277 -22.44199,41.33312 2.3931,-0.006 4.78621,-0.0111 7.17931,-0.0166 4.51594,-0.0104 9.06301,-0.0182 13.50289,0.8072 m -95.22762,-39.14213 c -2.32237,-2.32479 -5.82881,-2.9085 -9.09916,-3.2292 -6.07344,-0.59558 -12.19567,-0.69285 -18.28496,-0.29053 -3.23618,0.21381 -6.57615,0.60419 -9.37338,2.24554 -2.79723,1.64136 -4.91683,4.84784 -4.33676,8.03878 0.60097,3.30592 3.70216,5.47018 6.54298,7.26461 3.53861,2.23519 7.07721,4.47038 10.61581,6.70557 2.03004,1.28229 4.15426,2.59847 6.542,2.85162 3.24234,0.34374 6.33169,-1.32407 9.08908,-3.06411 3.60265,-2.27344 7.18476,-4.89925 9.22075,-8.64122 2.036,-3.74196 2.09435,-8.86722 -0.91636,-11.88106 m 114.29033,48.9730903 c 9.76045,8.79239 14.87453,21.9808397 15.61009,35.0969197 0.73555,13.11608 -2.57835,26.18979 -7.56805,38.34197 -1.74723,4.25531 -3.74456,8.79326 -2.76645,13.28812 11.48493,-19.18313 20.86526,-39.62529 27.91863,-60.84193 1.15963,-3.48817 -1.94913,-7.00306 -5.2686,-8.58205 -3.31946,-1.57899 -7.16672,-2.2117797 -9.96631,-4.5938597 -3.32856,-2.83216 -4.41717,-7.47479998 -7.00399,-10.99742 -2.58682,-3.52261 -8.65931,-5.43046 -10.95532,-1.71175 M 75.069355,-19.818983 c -5.341256,13.8629503 -5.070386,29.7977403 0.738952,43.47114 0.858264,2.0201 1.844743,4.01215 3.245282,5.70208 C 86.118336,15.770477 97.353425,4.3920373 110.84654,-2.8443527 98.086634,-6.4573227 85.938562,-12.221023 75.069357,-19.818983 m 53.607003,-31.18952 c -1.23732,2.38643 -2.50093,4.80992 -4.37094,6.74101 -2.18718,2.25861 -5.06591,3.70298 -7.53063,5.65497 -5.95586,4.71685 -9.11897,12.03334 -12.05374,19.04104 -1.32805,3.17116 -2.19052,7.74225 0.89147,9.26582 1.90996,0.9441903 4.31088,-0.12843 5.60947,-1.81753 1.29859,-1.68911 1.78717,-3.84137 2.35707,-5.89433 1.34224,-4.83506 3.3581,-9.56431 6.57802,-13.41289 3.43587,-4.10667 8.06891,-7.02151 11.8893,-10.77311 5.59205,-5.49135 9.27153,-12.58936 12.85748,-19.55835 1.77244,-3.44458 3.57347,-6.97869 4.06177,-10.82164 0.48829,-3.84295 -0.59296,-8.1219 -3.67533,-10.46832 -5.53798,10.68111 -11.07596,21.36222 -16.61394,32.04333 m 124.19044,20.67448 c 2.93532,-4.4512 6.41983,-9.28431 11.65648,-10.28769 1.68501,-0.32286 2.7878,-1.90102 3.70747,-3.34936 3.60154,-5.67191 7.20307,-11.34382 10.80461,-17.01573 1.72898,-2.7229 3.50042,-5.55884 3.92517,-8.75621 0.42475,-3.19737 -0.89934,-6.86908 -3.86785,-8.13063 -5.17456,8.42422 -10.34911,16.84844 -15.52366,25.27265 -2.3403,3.81004 -4.92937,7.84178 -9.03621,9.6102 -10.73625,4.62308 -16.60057,18.23646 -12.58485,29.21434 3.63961,-5.51919 7.27922,-11.03838 10.91884,-16.55757 M 140.61291,111.87724 c 4.4671,0.12464 8.29304,-3.23967 10.81512,-6.92879 2.52207,-3.68913 4.28756,-7.929313 7.36226,-11.172263 -9.30443,-1.52341 -18.72004,-2.36731 -28.14707,-2.52276 -0.69302,-0.0114 -1.42935,-0.008 -2.01728,0.3594 -1.29654,0.8095 -1.08988,2.72707 -0.72251,4.21077 0.88494,3.57391 1.79991,7.219363 3.77983,10.323533 1.97993,3.10416 5.24924,5.62741 8.92965,5.73011 m 81.35469,-3.64654 c -4.36532,-3.96561 -11.16083,-4.99619 -16.50565,-2.50318 -5.34481,2.49301 -8.92217,8.36187 -8.68907,14.2549 0.0494,1.24953 0.42234,2.71252 1.59249,3.15357 0.67838,0.25568 1.43473,0.0812 2.13605,-0.10243 5.67833,-1.48689 11.23663,-3.43195 16.60309,-5.81007 1.86283,-0.8255 3.78221,-1.76721 4.9809,-3.41485 1.19869,-1.64764 1.39034,-4.20788 -0.11781,-5.57794 m -45.83851,-0.28122 c 1.85099,1.39628 4.08376,2.52536 6.39161,2.30269 3.10441,-0.29953 5.43766,-2.89619 7.26002,-5.42722 2.5825,-3.58677 4.81637,-7.424433 6.65991,-11.441353 -9.52749,0.34833 -19.05498,0.69665 -28.58248,1.04497 0.93364,5.32842 3.95229,10.263163 8.27094,13.520913 m -24.47306,16.9507 c 0.38462,0.60694 1.21935,0.69429 1.93749,0.71848 7.23059,0.24352 14.46117,0.48705 21.69176,0.73057 0.83213,0.028 1.75961,0.0223 2.36775,-0.54638 1.01123,-0.94562 0.42352,-2.61706 -0.22476,-3.84039 -1.4776,-2.78825 -2.99678,-5.63177 -5.30143,-7.78729 -2.30466,-2.15551 -5.58027,-3.53517 -8.64346,-2.77719 -2.02934,0.50215 -3.73262,1.86286 -5.23677,3.31472 -2.4408,2.35595 -4.55091,5.05402 -6.2493,7.9906 -0.39113,0.67626 -0.75946,1.537 -0.34128,2.19688 m 84.81262,-20.61573 c 5.59586,-7.610023 11.19172,-15.220043 16.78758,-22.830063 0.76314,-1.03783 1.56229,-2.35697 1.02472,-3.52764 -0.2138,-0.4656 -0.6137,-0.8191 -1.03365,-1.11259 -2.76506,-1.93247 -6.66152,-1.6523 -9.58752,0.0265 -2.926,1.67885 -5.006,4.5303 -6.54705,7.53116 -3.17177,6.17634 -4.26781,13.9901 -0.64408,19.912593 m -1.73721,-31.144683 c -5.26267,1.80881 -9.43384,5.78242 -13.96431,9.01387 -4.36407,3.11276 -9.14729,5.58092 -13.91163,8.03764 3.84821,6.1118 13.39956,6.44527 19.14412,2.06773 5.74456,-4.37753 8.19292,-11.91699 8.73182,-19.11924 M 124.16916,120.70944 c 1.60526,0.1774 2.66749,-1.79547 2.49062,-3.40079 -0.17688,-1.60532 -1.07844,-3.05179 -1.33592,-4.64617 -0.86206,-5.33795 -6.72357,-9.29699 -11.99728,-8.1033 -5.2737,1.19368 -8.85901,7.29096 -7.33836,12.47984 5.93519,1.76047 12.02762,2.99043 18.18094,3.67042 M 109.19609,89.394337 c 0.29587,-0.96433 -0.83931,-1.71426 -1.78354,-2.0691 -6.87532,-2.58373 -14.140875,-4.12624 -21.472906,-4.5588 1.357558,5.10259 3.402578,10.96558 8.426333,12.59077 4.942554,1.59891 9.975103,-1.81799 14.050443,-5.03933 0.32124,-0.25393 0.65956,-0.53206 0.77967,-0.92354 m 144.63444,-27.31674 c 0.53346,1.76813 1.70806,3.33527 3.25548,4.34344 0.45085,0.29374 0.96539,0.54871 1.50171,0.50502 1.15016,-0.0937 1.7275,-1.40363 2.06369,-2.50755 1.82518,-5.99335 3.65037,-11.98671 5.47556,-17.98006 -1.63034,-2.43387 -5.36415,-0.22161 -7.22964,2.03708 -3.21637,3.89434 -6.52573,8.76652 -5.0668,13.60206 m 20.63836,-103.40265 c -0.70822,0.76371 -1.41644,1.52742 -2.12466,2.29113 3.93888,1.72043 9.01059,0.22842 11.39038,-3.35087 -3.05725,-0.77048 -6.40626,-0.31113 -9.14316,1.25407 M 103.4527,99.703257 c 1.50407,0.495733 3.22121,0.974223 4.60325,0.20095 1.38204,-0.77327 1.47135,-3.38032 -0.0948,-3.61481 -1.81778,0.61431 -3.45333,1.75758 -4.6547,3.25371 m 145.63119,-32.25737 c -1.47233,-0.70319 -3.31887,0.72594 -3.41595,2.3547 1.87935,1.13147 4.54149,0.72223 5.99423,-0.92146 -0.60847,-0.81193 -1.54233,-1.37264 -2.54499,-1.52807 M 73.429798,-45.264203 c 1.536759,1.59663 4.179135,1.98803 6.112756,0.90546 -0.881251,-2.48141 -4.698658,-3.21059 -6.432472,-1.2287 m 69.379398,1.62477 c 2.36296,-0.1603 4.6226,-1.46087 5.94816,-3.42357 -2.28907,-1.27217 -5.61996,0.46838 -5.8827,3.07399 M 164.0473,-185.93134 c -0.70514,-0.90072 -2.46492,-0.35951 -2.54204,0.7818 1.94632,1.59133 4.84966,1.9002 7.08721,0.75397 -0.34621,-1.73171 -2.82413,-1.69618 -4.52603,-1.22477 z"
       class="selected" /></g><path
     style="opacity:1;fill:#ffcc00;fill-opacity:1;fill-rule:nonzero;stroke:none;stroke-width:1.93971348;stroke-linecap:round;stroke-linejoin:round;stroke-miterlimit:4;stroke-dasharray:none;stroke-dashoffset:0;stroke-opacity:1"
     d="m 83.734623,195.00816 c -1.332599,-0.45184 -4.773995,-2.06681 -7.647546,-3.58884 -4.54848,-2.40918 -5.60774,-2.79472 -8.184841,-2.97911 -3.5447,-0.25363 -6.409263,0.79303 -7.978149,2.91507 l -0.996671,1.34807 -1.362916,-0.95603 c -1.980083,-1.38893 -2.473233,-2.14828 -2.351948,-3.62149 0.184837,-2.24517 1.319465,-2.50713 9.799605,-2.26251 5.796255,0.16719 8.63407,0.46917 12.555066,1.33603 7.579242,1.67561 11.303599,1.43714 14.083237,-0.90177 1.74004,-1.46415 1.857978,-3.51148 0.237767,-4.12748 -1.365053,-0.51899 -2.042304,-0.288 -5.015035,1.71052 -2.279793,1.53266 -2.509635,1.59081 -6.167401,1.56021 -3.122745,-0.0261 -4.688348,-0.32032 -8.791234,-1.65198 -5.709491,-1.85312 -8.844268,-2.05293 -15.05218,-0.95941 -2.059472,0.36277 -4.452572,0.65986 -5.318001,0.66019 -6.000064,0.002 -11.821347,-5.98857 -10.764623,-11.07821 0.764156,-3.68051 4.408207,-6.70681 7.775964,-6.45776 l 1.834855,0.13569 -1.208544,1.43172 c -0.664699,0.78744 -1.476579,1.43172 -1.804179,1.43172 -1.693884,0 -0.967025,2.22575 0.987516,3.02392 1.861408,0.76014 15.470737,3.40898 21.876343,4.25789 8.34999,1.10658 20.483999,0.74064 26.300744,-0.7932 14.407348,-3.79912 23.526138,-11.38737 28.787238,-23.95543 1.88424,-4.5012 4.31335,-12.68769 5.07831,-17.11468 0.80545,-4.66134 0.83317,-4.68193 2.37311,-1.76212 l 1.39404,2.64318 0.1325,-3.07172 c 0.26114,-6.05409 -2.31867,-9.26309 -7.44688,-9.26309 -2.84026,0 -4.31801,0.81107 -6.01161,3.29949 -1.70165,2.50025 -1.2349,2.76494 1.86804,1.05935 1.57257,-0.86439 3.04019,-1.50492 3.26138,-1.42338 0.22118,0.0815 -0.67241,2.00282 -1.98575,4.26953 -9.13923,15.77345 -17.22365,22.90333 -29.301832,25.84212 -1.543626,0.37558 -5.383687,0.79468 -8.533467,0.93134 -7.046837,0.30572 -11.79248,-0.23171 -33.503247,-3.79409 -8.887042,-1.45822 -16.55605,-2.65132 -17.042239,-2.65132 -0.742042,0 -0.794505,0.10782 -0.326736,0.67145 0.876194,1.05574 0.22693,1.23477 -2.297832,0.63359 -3.25911,-0.77603 -5.640519,-3.13967 -5.640519,-5.59842 0,-2.19653 1.020608,-3.2802 5.297078,-5.6244 3.150628,-1.72705 3.161153,-1.73907 5.037272,-5.75385 2.490186,-5.32885 5.01273,-8.99111 8.796711,-12.77116 3.885812,-3.88177 6.881675,-5.94608 9.051775,-6.23715 2.199046,-0.29496 5.147777,0.72559 9.262098,3.20559 3.903782,2.35308 7.383326,3.48104 9.508511,3.08235 2.64937,-0.49702 2.375613,-0.75622 -5.662625,-5.36154 -3.990754,-2.28641 -5.776228,-4.44273 -6.478095,-7.82361 -1.373412,-6.61569 3.328228,-12.355015 10.121196,-12.355015 3.306529,0 5.025881,0.76232 8.809797,3.906055 4.645754,3.85977 7.198454,3.83643 10.964097,-0.10025 2.878013,-3.008719 5.352313,-4.064284 9.489607,-4.048367 6.70426,0.02579 12.28685,6.958057 10.9108,13.548647 -0.96131,4.60425 -4.73279,8.30732 -9.5613,9.3879 -2.59886,0.58159 -3.263975,1.68017 -1.56707,2.58832 3.23862,1.73326 9.38635,-2.00834 12.53223,-7.62728 2.37371,-4.23976 4.71265,-5.85195 6.83896,-4.71398 1.21206,0.64867 1.16717,1.18652 -0.12609,1.51111 -1.60184,0.40204 -5.37957,4.02788 -6.40622,6.14865 -1.38186,2.85453 -1.08725,3.38042 0.69964,1.24886 2.47788,-2.95585 7.28628,-6.09474 11.25875,-7.34964 11.83561,-3.73887 24.22579,2.315 27.72079,13.54444 2.79433,8.97821 -1.52413,25.06193 -10.26268,38.22251 -3.65947,5.51128 -12.85133,14.78328 -18.05212,18.2095 -7.70413,5.07539 -11.2489,6.39765 -13.67306,5.10028 -0.75415,-0.40361 -2.46369,0.29145 -10.88937,4.42732 -11.296845,5.54523 -12.887197,5.95919 -17.233017,4.48567 z m -9.963744,-51.08908 c 6.471088,-5.59544 13.487974,-14.88866 13.487974,-17.86357 0,-2.09167 -1.105481,-1.4486 -3.246476,1.8885 -4.219784,6.57724 -10.943696,14.27012 -14.752824,16.87882 -0.57142,0.39134 -0.906637,0.92561 -0.744926,1.18726 0.661117,1.06971 2.401688,0.37729 5.256252,-2.09101 z m 14.970564,-24.7235 c 0.685313,-0.26055 1.428392,-1.16169 1.972806,-2.39243 1.011868,-2.28749 3.679366,-4.43141 6.072154,-4.8803 1.189939,-0.22323 2.29589,-1.02161 4.297287,-3.10219 1.62173,-1.68588 3.13358,-2.85778 3.79631,-2.94267 0.82634,-0.10584 1.13575,-0.4397 1.23923,-1.33715 0.56721,-4.919366 -12.757562,3.13295 -16.961853,10.25025 -0.421798,0.71404 -0.931569,1.29826 -1.132828,1.29826 -0.20126,0 -1.893102,-1.56174 -3.759644,-3.47054 -3.47955,-3.55833 -6.000687,-5.14877 -10.080449,-6.35917 -2.274529,-0.67483 -4.10622,-0.57659 -4.10622,0.22022 0,0.87836 2.790903,4.42603 4.118938,5.23582 0.981445,0.59845 2.203586,0.84663 4.174859,0.8478 2.489454,0.001 2.912983,0.1351 3.964758,1.25093 0.647665,0.68711 1.652445,2.05735 2.23285,3.04498 0.852621,1.45084 1.753493,2.27143 2.99093,2.72438 0.0448,0.0164 0.576193,-0.15829 1.180872,-0.38819 z"
     id="path92"
     inkscape:connector-curvature="0"
     transform="translate(0,-5.78223)" /><g
     id="g106"
     style="fill:#b25000"><path
       transform="translate(0,-5.78223)"
       inkscape:connector-curvature="0"
       id="path94"
       d="m 37.503696,126.78412 c -2.54729,-5.48402 -3.309026,-12.17465 -2.03703,-17.89202 0.413029,-1.85649 0.860187,-3.37544 0.993684,-3.37544 0.133497,0 1.358962,0.67146 2.723255,1.49213 3.681793,2.21473 6.491605,3.5523 10.286954,4.89693 l 3.401134,1.20497 -2.639639,1.70608 c -3.245786,2.09786 -7.545514,6.4047 -9.874531,9.89086 -0.960929,1.43836 -1.868288,2.76926 -2.016354,2.95755 -0.148066,0.18829 -0.524929,-0.20819 -0.837473,-0.88106 z m 3.628917,-8.12078 c 0.930816,-0.49816 0.932656,-0.51742 0.08117,-0.85009 -1.440022,-0.56261 -3.29414,-0.45845 -3.29414,0.18506 0,1.26055 1.514501,1.57402 3.212968,0.66503 z m 4.053819,-3.01765 c -1.295251,-2.09576 -8.131056,-2.70566 -8.506148,-0.75893 -0.112021,0.58139 0.344658,0.74655 2.422908,0.87621 5.483938,0.34216 6.356789,0.32533 6.08324,-0.11728 z"
       style="opacity:1;fill:#b25000;fill-opacity:1;fill-rule:nonzero;stroke:none;stroke-width:1.93971348;stroke-linecap:round;stroke-linejoin:round;stroke-miterlimit:4;stroke-dasharray:none;stroke-dashoffset:0;stroke-opacity:1" /><path
       transform="translate(0,-5.78223)"
       inkscape:connector-curvature="0"
       id="path96"
       d="m 145.18837,82.206726 c -5.46727,-1.370194 -8.52497,-6.169802 -9.25289,-14.524071 -0.60603,-6.955441 -3.19504,-11.787567 -7.65715,-14.291299 -1.91521,-1.074645 -3.03315,-1.369524 -5.79914,-1.529645 -4.42052,-0.2559 -7.86801,0.763452 -15.47653,4.576091 -7.171594,3.59369 -11.200977,4.939853 -15.857508,5.297783 -6.669985,0.512696 -14.209777,-1.654719 -19.91253,-5.724116 -3.130386,-2.233797 -6.771103,-6.118277 -7.160365,-7.639785 -0.338069,-1.32141 1.092173,-3.535334 4.001856,-6.194621 4.083633,-3.732211 7.378292,-5.66897 14.107448,-8.29304 1.293745,-0.504502 2.444337,-1.305142 2.808823,-1.954519 0.562386,-1.00196 0.514325,-1.251835 -0.539449,-2.804658 -2.939968,-4.332285 0.183572,-10.067432 6.505541,-11.944855 8.737642,-2.594801 19.402544,0.244988 29.181244,7.770214 4.86654,3.745061 14.48861,14.188027 19.84276,21.535622 5.61621,7.70722 12.03429,18.319462 14.06406,23.254806 2.65022,6.443947 0.20848,11.757035 -5.77247,12.560568 -0.96916,0.130203 -2.35683,0.08769 -3.0837,-0.09448 z m 3.52423,-2.222485 1.32158,-0.318049 -1.14157,-0.473418 c -1.82015,-0.754819 -4.95982,-1.059815 -5.68662,-0.55241 -0.57358,0.400441 -0.54793,0.547432 0.19433,1.113745 0.89159,0.680246 3.05286,0.773876 5.31228,0.230132 z m 3.17534,-8.66259 c 0.1983,-0.595652 -1.26346,-1.033062 -3.47974,-1.041265 -1.85886,-0.0069 -2.65829,0.73941 -1.14534,1.069199 3.21106,0.699933 4.38512,0.692845 4.62508,-0.02793 z m -3.70165,-5.922978 c 1.65405,-0.459318 2.3943,-1.288657 1.88531,-2.112216 -0.24735,-0.400216 -4.20388,0.30363 -6.86561,1.221352 l -1.10132,0.379718 1.10132,0.462855 c 1.44181,0.605956 2.92044,0.620291 4.9803,0.04829 z m -2.61741,-3.583348 c 0.25816,-0.412388 0.35986,-0.859318 0.226,-0.993177 -0.44984,-0.449841 -3.02942,0.720811 -3.02942,1.374802 0,0.893414 2.19204,0.595018 2.80342,-0.381625 z m -60.768964,-7.22685 c 0.383252,-0.147068 0.696822,-0.543544 0.696822,-0.881057 0,-0.495308 -1.189478,-0.613662 -6.167401,-0.613662 -4.845815,0 -6.167401,0.125866 -6.167401,0.587372 0,0.323054 0.132159,0.71953 0.293686,0.881057 0.367106,0.367107 10.395576,0.390347 11.344294,0.02629 z m 19.859814,-1.05419 c 0,-0.509315 -0.68234,-0.690669 -2.97659,-0.791122 -3.656444,-0.160096 -5.286074,0.48108 -2.95815,1.16388 2.2971,0.67376 5.93474,0.445282 5.93474,-0.372758 z m 5.63044,-0.660793 c -0.12139,-0.554526 -2.32647,-0.860622 -2.32647,-0.322947 0,0.681067 0.58906,1.025983 1.52372,0.892191 0.49455,-0.07079 0.85579,-0.326953 0.80275,-0.569244 z M 92.444242,52.295298 c 0.105963,-0.31789 -0.293268,-0.523128 -1.017597,-0.523128 -1.02109,0 -1.111607,0.09684 -0.631387,0.675465 0.613442,0.739152 1.375281,0.668772 1.648984,-0.152337 z m -6.911474,-1.404185 c 1.452451,0 0.924208,-0.821967 -0.874593,-1.360901 -1.771554,-0.53077 -4.888309,-0.228627 -4.888309,0.473881 0,0.46191 3.472414,1.311032 4.331183,1.05912 0.322681,-0.09465 0.966954,-0.1721 1.431719,-0.1721 z m -8.406074,-1.54185 c -0.721441,-0.869282 -2.643172,-0.869282 -2.643172,0 0,0.465761 0.470996,0.660793 1.595791,0.660793 1.368532,0 1.517691,-0.0941 1.047381,-0.660793 z m 51.541846,-0.01383 c 0,-0.703377 -1.17075,-1.385167 -1.61527,-0.940653 -0.14062,0.140628 -0.1383,0.561594 0.005,0.93548 0.33784,0.880402 1.6101,0.884489 1.6101,0.0052 z m 7.04846,-0.457342 c 0,-0.45918 -0.32135,-0.644147 -0.95668,-0.550661 -1.41035,0.207529 -1.5614,1.242095 -0.18135,1.242095 0.74031,0 1.13803,-0.241642 1.13803,-0.691432 z M 118.86853,33.820629 c 0.13491,-0.408618 -0.69384,-0.550661 -3.21281,-0.550661 -3.0101,0 -3.33069,0.07702 -2.83027,0.68 0.70357,0.847743 5.75619,0.739602 6.04308,-0.129339 z m -9.25337,-4.096333 c 1.93885,-0.684007 1.46335,-1.177818 -1.48937,-1.546737 -2.78214,-0.347605 -5.44844,0.55529 -5.44844,1.845019 0,0.631772 0.37577,0.695798 2.75331,0.469125 1.51432,-0.144374 3.39734,-0.489707 4.1845,-0.767407 z M 93.75665,23.904907 c 0.920191,-0.725995 0.642623,-2.048817 -0.489527,-2.332968 -0.572104,-0.143589 -2.653601,0.181091 -4.625551,0.721512 -3.256565,0.892475 -4.112122,1.492342 -3.294531,2.309933 0.423418,0.423418 7.759966,-0.185934 8.409609,-0.698477 z m 18.17181,0.161091 c 0,-0.495172 -1.14587,-0.957064 -1.49878,-0.60415 -0.5303,0.530292 -0.24096,0.997547 0.61772,0.997547 0.48458,0 0.88106,-0.177029 0.88106,-0.393397 z"
       style="opacity:1;fill:#b25000;fill-opacity:1;fill-rule:nonzero;stroke:none;stroke-width:1.93971348;stroke-linecap:round;stroke-linejoin:round;stroke-miterlimit:4;stroke-dasharray:none;stroke-dashoffset:0;stroke-opacity:1" /><path
       transform="translate(0,-5.78223)"
       inkscape:connector-curvature="0"
       id="path98"
       d="m 149.37339,109.16969 c -0.60573,-0.10393 -2.88546,-0.67088 -5.06608,-1.25989 -2.18062,-0.58901 -4.87872,-1.07106 -5.99578,-1.07124 -1.11707,-1.7e-4 -2.94102,-0.12504 -4.05323,-0.27748 l -2.02219,-0.27718 2.5303,-2.5303 c 3.95097,-3.950973 6.67746,-9.908436 6.67746,-14.590453 0,-1.153179 0.20294,-2.222107 0.45096,-2.375397 0.44778,-0.276742 5.3478,1.189308 6.57999,1.968685 0.55208,0.349199 0.53039,0.531615 -0.15299,1.286741 -0.77174,0.85276 -0.75214,0.992662 0.63632,4.542312 1.46424,3.743386 4.88414,14.115602 4.70146,14.259052 -0.32443,0.25477 -3.35603,0.48475 -4.28622,0.32515 z m -5.78063,-7.57412 c 0.37903,-1.4789 0.82156,-2.229133 1.40486,-2.38167 0.46835,-0.122474 0.85154,-0.444385 0.85154,-0.715356 0,-0.453231 -1.7534,-1.351924 -2.63769,-1.351924 -0.55397,0 -1.49803,3.0999 -1.3937,4.57632 0.19578,2.77058 1.04793,2.70943 1.77499,-0.12737 z m 3.35875,-5.937079 c 0.7796,-0.570054 0.74504,-0.62578 -0.56669,-0.913885 -1.49073,-0.327419 -3.17883,0.01189 -3.17883,0.638946 0,0.331614 0.84735,0.616049 2.44884,0.822018 0.25656,0.033 0.84006,-0.213189 1.29668,-0.547079 z m -0.32869,-3.467818 c -0.0994,-0.302864 -0.70946,-0.613271 -1.3556,-0.689794 -0.91484,-0.108347 -1.11621,0.0135 -0.91008,0.550661 0.31672,0.825363 2.53576,0.961631 2.26568,0.139133 z"
       style="opacity:1;fill:#b25000;fill-opacity:1;fill-rule:nonzero;stroke:none;stroke-width:1.93971348;stroke-linecap:round;stroke-linejoin:round;stroke-miterlimit:4;stroke-dasharray:none;stroke-dashoffset:0;stroke-opacity:1" /><path
       transform="translate(0,-5.78223)"
       inkscape:connector-curvature="0"
       id="path100"
       d="m 152.47084,151.5207 c -0.008,-0.50175 0.76304,-2.97973 1.71245,-5.50661 0.94942,-2.52689 2.03972,-6.12233 2.42291,-7.98987 0.81142,-3.95459 0.90761,-10.31444 0.20651,-13.65327 -0.65053,-3.09798 -2.97398,-8.03273 -4.92604,-10.46236 -1.68307,-2.09484 -1.71782,-2.66505 -0.16239,-2.66505 1.45075,0 2.77895,1.11131 4.10464,3.4344 1.78394,3.12609 2.31308,3.60612 5.66549,5.13961 4.64052,2.12272 4.70089,2.42983 1.93524,9.84511 -2.19349,5.88122 -7.62492,17.47757 -9.83968,21.00819 -0.85484,1.36272 -1.1085,1.55534 -1.11913,0.84985 z"
       style="opacity:1;fill:#b25000;fill-opacity:1;fill-rule:nonzero;stroke:none;stroke-width:1.93971348;stroke-linecap:round;stroke-linejoin:round;stroke-miterlimit:4;stroke-dasharray:none;stroke-dashoffset:0;stroke-opacity:1" /></g><g
     id="g138"
     style="fill:#f2f2f7"><path
       id="path108"
       transform="translate(0,-5.78223)"
       d="M 126.7207 136.35352 C 125.84155 136.35352 123.65178 138.64269 122.78711 140.46484 C 121.8734 142.39031 121.86591 143.8081 122.76367 145.08984 C 123.98885 146.83902 124.7538 146.09444 126.08398 141.85938 C 127.49623 137.36303 127.61342 136.35352 126.7207 136.35352 z M 119.44336 146.92578 C 118.97308 146.92578 118.46616 147.1249 118.31641 147.36719 C 118.162 147.61704 118.53251 147.80664 119.17188 147.80664 C 119.7919 147.80664 120.29883 147.60948 120.29883 147.36719 C 120.29883 147.1249 119.91364 146.92578 119.44336 146.92578 z M 112.05273 150.00977 C 111.81685 150.00977 109.95815 151.21747 107.92188 152.69336 C 105.88558 154.16926 103.27784 155.85765 102.12695 156.44531 C 100.97607 157.03297 100.03516 157.70312 100.03516 157.93359 C 100.03516 158.16406 100.57979 158.64829 101.24609 159.00977 C 104.6472 160.8549 109.06333 159.15507 111.07812 155.22656 C 112.05823 153.31618 112.67578 150.00977 112.05273 150.00977 z M 119.36328 150.89062 C 117.96831 150.89062 117.34281 151.20212 115.95508 152.58984 C 113.44691 155.09801 112.21871 159.43402 113.0918 162.69336 C 113.24049 163.24842 113.51175 163.64472 113.69531 163.57422 C 114.02426 163.44791 119.85943 155.72731 121.38281 153.40234 C 122.42803 151.80713 121.69048 150.89064 119.36328 150.89062 z M 41.859375 154.29102 L 42.326172 155.52148 C 43.119076 157.60697 44.194184 159.17374 45.152344 159.63867 C 45.65626 159.88318 46.466591 160.09332 46.951172 160.10742 C 47.987486 160.13762 52.457031 157.66891 52.457031 157.06641 C 52.457031 156.51259 47.213416 154.91975 44.240234 154.57031 L 41.859375 154.29102 z M 64.384766 158.46875 C 62.987996 158.48792 62.065356 158.59781 61.9375 158.80469 C 61.323975 159.79739 63.113444 164.60172 64.679688 166.16797 C 65.827472 167.31575 66.505641 167.63086 67.830078 167.63086 C 70.045811 167.63086 71.356385 166.55515 73.978516 162.57812 L 76.095703 159.36523 L 73.857422 159.08984 C 70.360341 158.65656 66.712715 158.43681 64.384766 158.46875 z M 91.925781 159.47656 C 91.487887 159.46934 90.973132 159.4704 90.380859 159.48047 C 89.591163 159.4939 88.662793 159.52255 87.589844 159.56641 C 84.137201 159.70753 81.250551 159.87385 81.175781 159.93555 C 81.101015 159.99724 81.359517 160.81131 81.75 161.74609 C 82.623111 163.83624 84.403593 165.78322 86.158203 166.56641 C 86.885075 166.89085 87.519189 167.16483 87.568359 167.17383 C 87.617531 167.18331 88.171303 166.95584 88.798828 166.66992 C 89.885638 166.17474 93.867188 160.76058 93.867188 159.77734 C 93.867188 159.59766 93.239465 159.49824 91.925781 159.47656 z M 55.671875 164.54883 C 54.046792 164.5522 52.079508 166.21629 51.529297 168.05273 C 51.23499 169.03504 51.134105 169.97981 51.304688 170.15039 C 51.475268 170.32097 53.242187 170.80276 55.230469 171.22266 C 60.244334 172.28151 60.628959 172.20422 60.509766 170.16797 C 60.329518 167.08867 58.138029 164.54383 55.671875 164.54883 z M 102.09961 164.72266 C 99.763917 164.67516 97.374019 165.73305 96.1875 167.68555 C 94.963916 169.69904 94.531758 171.9059 95.203125 172.71484 C 95.496514 173.06836 95.774282 173.35742 95.820312 173.35742 C 96.282319 173.35742 103.71399 170.65683 104.80664 170.0918 C 105.59505 169.6841 106.47173 168.8404 106.75586 168.2168 C 107.22163 167.19456 107.14414 166.98096 105.97266 166.04688 C 104.88189 165.17713 103.50102 164.75115 102.09961 164.72266 z M 79.283203 168.07812 C 78.473502 168.11724 77.673474 168.4272 76.917969 169.02148 C 75.670503 170.00274 73.162109 173.22095 73.162109 173.83984 C 73.162109 174.0325 74.103025 174.26477 75.253906 174.35547 C 76.404787 174.44622 79.180686 174.55591 81.421875 174.59961 C 86.062602 174.69004 86.238487 174.51719 84.423828 171.64258 C 82.895485 169.22153 81.064546 167.99206 79.283203 168.07812 z "
       style="opacity:1;fill:#f2f2f7;fill-opacity:1;fill-rule:nonzero;stroke:none;stroke-width:1.93971348;stroke-linecap:round;stroke-linejoin:round;stroke-miterlimit:4;stroke-dasharray:none;stroke-dashoffset:0;stroke-opacity:1" /></g><path
     style="opacity:1;fill:#ffd60a;fill-opacity:1;fill-rule:nonzero;stroke:none;stroke-width:1.93971348;stroke-linecap:round;stroke-linejoin:round;stroke-miterlimit:4;stroke-dasharray:none;stroke-dashoffset:0;stroke-opacity:1"
     d="M 20.451226,119.13131 C 9.6348525,117.32423 3.4227428,109.80145 3.3881898,98.468206 3.3665643,91.375096 5.9794413,85.206203 10.804226,80.959258 15.063454,77.210135 21.085161,75.4347 26.157274,76.432577 c 3.094144,0.608736 5.956091,1.932845 6.339986,2.933261 0.143858,0.374888 -0.08412,2.199632 -0.506623,4.054987 -0.982518,4.314589 -0.763617,7.793163 0.864132,13.732029 l 1.269499,4.631786 -0.813767,2.41667 c -0.447571,1.32917 -0.950914,4.41619 -1.11854,6.86004 -0.345532,5.03758 -1.101808,6.81731 -3.350374,7.88432 -1.518444,0.72055 -4.759407,0.79225 -8.390361,0.18564 z m 8.24484,-12.30779 c 0.467862,-0.25039 1.271388,-1.27996 1.785613,-2.28792 0.77362,-1.51642 0.900021,-2.37705 0.7325,-4.987379 -0.339587,-5.291473 -3.026887,-9.364622 -7.575919,-11.482842 -5.946317,-2.768854 -14.3529757,0.0312 -14.3529757,4.780635 0,1.700803 0.4265246,1.704041 1.9099607,0.0145 0.762546,-0.868491 2.181099,-1.940078 3.15234,-2.381304 1.999028,-0.908139 6.112927,-1.080634 8.014748,-0.336057 1.170901,0.458417 1.192561,0.513751 0.387994,0.99119 -3.842554,2.280213 -6.857113,6.89806 -6.857113,10.504057 0,3.05055 1.691061,2.83711 2.450002,-0.30922 0.554446,-2.298564 1.834778,-4.411699 3.686766,-6.084859 1.907267,-1.723101 3.29006,-2.01652 4.682117,-0.993511 0.779255,0.572668 0.852119,1.178477 0.821261,6.8282 -0.01862,3.40987 0.04397,6.19977 0.139093,6.19977 0.09513,0 0.555752,-0.20487 1.023613,-0.45526 z"
     id="path140"
     inkscape:connector-curvature="0"
     transform="translate(0,-5.78223)" /><path
     style="opacity:1;fill:#ffcc00;fill-opacity:1;fill-rule:nonzero;stroke:none;stroke-width:1.93971348;stroke-linecap:round;stroke-linejoin:round;stroke-miterlimit:4;stroke-dasharray:none;stroke-dashoffset:0;stroke-opacity:1"
     d="m 167.87559,119.86337 c -2.79318,-0.77845 -6.27543,-2.62824 -7.77992,-4.13273 -1.90511,-1.90511 -8.2945,-20.42598 -8.25128,-23.91793 0.0579,-4.682273 3.70043,-10.501854 8.50137,-13.582609 9.81169,-6.296144 22.00747,-3.490407 28.85941,6.639342 3.09434,4.574594 4.17151,10.482487 3.38361,18.557907 -0.58808,6.02734 -1.57235,8.36088 -4.84199,11.47959 -2.76503,2.6374 -4.77814,3.80829 -8.38728,4.87831 -2.82589,0.83781 -8.61672,0.8772 -11.48392,0.0781 z m -4.15909,-7.4856 c 0.82477,-0.6056 0.81111,-0.64469 -0.385,-1.10132 -1.74927,-0.66781 -4.38785,-0.61881 -4.15827,0.0772 0.21347,0.6472 2.01741,1.63618 3.00142,1.64549 0.3777,0.004 1.07154,-0.27606 1.54185,-0.62139 z m 14.7482,-6.30117 c 0.87708,-5.38904 -1.08331,-11.286035 -5.14653,-15.481077 -1.28951,-1.331346 -2.25339,-2.511808 -2.14195,-2.623249 0.56222,-0.562215 5.07858,-0.11253 6.846,0.681641 2.06227,0.926662 4.84873,3.46174 6.06641,5.519136 0.88492,1.495143 1.6802,1.555252 1.94935,0.147333 0.34468,-1.803126 -0.75633,-3.537546 -3.60502,-5.67894 -2.81721,-2.117739 -7.24185,-3.829626 -9.89826,-3.829626 -4.00994,0 -6.69935,1.612163 -11.04984,6.623815 -0.72856,0.83928 -1.71838,1.744944 -2.1996,2.012585 -0.75223,0.41837 -0.79118,0.587551 -0.27772,1.206231 0.41785,0.50348 0.58083,1.94504 0.54266,4.799723 -0.0463,3.461428 0.0889,4.313778 0.89143,5.621108 0.85649,1.39519 0.97589,1.45772 1.26188,0.6608 0.17373,-0.48412 0.43523,-2.90266 0.58109,-5.37453 0.38601,-6.541198 2.11705,-9.382331 5.71646,-9.382331 2.09672,0 4.78908,2.440617 6.47887,5.873078 1.10199,2.238448 1.40003,3.489443 1.59615,6.699573 0.27377,4.48126 0.94033,6.89815 1.58484,5.74648 0.21671,-0.38723 0.5784,-1.83702 0.80378,-3.22175 z"
     id="path142"
     inkscape:connector-curvature="0"
     transform="translate(0,-5.78223)" /><path
     style="opacity:1;fill:#ffd60a;fill-opacity:1;fill-rule:nonzero;stroke:none;stroke-width:1.93971348;stroke-linecap:round;stroke-linejoin:round;stroke-miterlimit:4;stroke-dasharray:none;stroke-dashoffset:0;stroke-opacity:1"
     d="m 91.361275,83.227853 c -0.360242,-0.160599 -0.257365,-0.498977 0.330397,-1.08674 1.259335,-1.259334 1.048502,-1.734581 -0.769507,-1.734581 -5.450157,0 -9.128794,-5.687664 -6.989756,-10.807101 0.786651,-1.882721 0.289034,-1.946746 -1.468738,-0.188975 -1.409628,1.409629 -2.041561,3.510481 -1.718353,5.712642 0.225341,1.535341 0.311174,1.499957 -1.650395,0.680362 -0.840235,-0.351073 -1.5277,-0.489003 -1.5277,-0.306512 0,0.758091 2.656936,4.445422 3.546056,4.921265 0.865892,0.463412 0.894286,0.582589 0.284158,1.192717 -0.977839,0.977839 -4.084427,0.868848 -5.506931,-0.193204 -0.859379,-0.641619 -1.298508,-1.52907 -1.667108,-3.369116 -1.016983,-5.076768 -4.903375,-9.196891 -10.248834,-10.865207 -3.333128,-1.040268 -9.941587,-1.148714 -14.988563,-0.245966 -4.677186,0.836604 -5.064183,0.659848 -4.771169,-2.179181 0.320683,-3.107123 1.58495,-5.415512 4.30575,-7.861745 3.95973,-3.560137 9.442172,-4.306728 14.020539,-1.909296 11.672939,6.112459 14.429705,7.433108 17.669273,8.464601 4.887695,1.556264 10.498234,1.902569 14.724555,0.908859 1.677798,-0.39449 6.138471,-2.180673 9.912611,-3.969295 8.2162,-3.893783 11.41069,-4.821221 15.6712,-4.549717 3.60367,0.229646 5.88415,1.26071 8.21138,3.712563 1.96672,2.072042 2.87519,3.824354 3.50484,6.760323 0.58018,2.705239 -0.10802,5.101137 -1.31662,4.583761 -4.63412,-1.983759 -8.55589,-2.976931 -12.5333,-3.174009 -5.27466,-0.261354 -8.26895,0.332204 -12.31332,2.440866 -3.49128,1.820291 -5.73661,4.19221 -7.942799,8.390588 -0.865573,1.647188 -1.955833,3.34065 -2.422798,3.763248 -0.873528,0.790533 -3.416894,1.322549 -4.344868,0.90885 z"
     id="path144"
     inkscape:connector-curvature="0"
     transform="translate(0,-5.78223)" /><path
     style="opacity:1;fill:#b25000;fill-opacity:1;fill-rule:nonzero;stroke:none;stroke-width:1.93971348;stroke-linecap:round;stroke-linejoin:round;stroke-miterlimit:4;stroke-dasharray:none;stroke-dashoffset:0;stroke-opacity:1"
     d="m 81.935108,97.108443 c -5.987447,-3.619222 -7.146073,-5.059998 -5.941815,-7.388775 1.151084,-2.225951 3.547547,-2.817297 10.691872,-2.638304 4.977595,0.124708 6.347468,0.301704 7.331903,0.947326 3.454632,2.26565 2.026232,6.749272 -3.210101,10.076225 -2.911729,1.849995 -4.44834,1.677406 -8.871859,-0.996472 z"
     id="path146"
     inkscape:connector-curvature="0"
     transform="translate(0,-5.78223)" /><g
     id="g154"
     style="fill:#64d2ff"><path
       transform="translate(0,-5.78223)"
       inkscape:connector-curvature="0"
       id="path148"
       d="m 43.570464,105.86079 c -2.062581,-1.23429 -3.475401,-2.59543 -3.938197,-3.79414 -0.938647,-2.431252 3.233193,-12.352195 6.693622,-15.917932 1.606679,-1.655573 1.892577,-1.777429 4.17021,-1.777429 4.382895,0 6.121004,-1.565348 9.407367,-8.472318 1.748099,-3.673992 2.48395,-4.786664 3.301261,-4.991795 1.302845,-0.326994 3.539108,0.777693 4.479409,2.212774 0.675022,1.030214 0.622173,1.163486 -1.612249,4.065723 -1.270581,1.650327 -3.343642,5.181211 -4.606802,7.846409 -2.456959,5.184049 -3.052773,5.932913 -5.535826,6.957846 -2.277933,0.940265 -4.78355,4.679209 -6.998299,10.443032 -0.848537,2.2083 -2.050974,3.82284 -3.039626,4.08138 -0.470291,0.12298 -1.514682,-0.17112 -2.32087,-0.65355 z"
       style="opacity:1;fill:#64d2ff;fill-opacity:1;fill-rule:nonzero;stroke:none;stroke-width:1.93971348;stroke-linecap:round;stroke-linejoin:round;stroke-miterlimit:4;stroke-dasharray:none;stroke-dashoffset:0;stroke-opacity:1" /><path
       transform="translate(0,-5.78223)"
       inkscape:connector-curvature="0"
       id="path150"
       d="m 109.26037,94.874731 c -1.56119,-0.97887 -2.99175,-1.923352 -3.17903,-2.098849 -0.44387,-0.415947 0.76119,-3.271311 2.36342,-5.60007 0.99449,-1.445438 2.07094,-2.224912 5.01119,-3.628661 4.35563,-2.079487 7.12921,-4.46773 9.33062,-8.034289 1.1508,-1.864447 1.90718,-2.619865 2.82507,-2.821466 1.4726,-0.323438 3.80238,0.657444 5.26862,2.21819 l 0.99709,1.061344 -3.84914,5.677459 c -5.37158,7.923033 -5.3538,7.904391 -8.59466,9.015464 -2.40209,0.823517 -3.10303,1.314974 -4.48259,3.14292 -0.8994,1.191718 -1.90905,2.319977 -2.24367,2.507241 -0.38517,0.215552 -1.64991,-0.312548 -3.44692,-1.439283 z"
       style="opacity:1;fill:#64d2ff;fill-opacity:1;fill-rule:nonzero;stroke:none;stroke-width:1.93971348;stroke-linecap:round;stroke-linejoin:round;stroke-miterlimit:4;stroke-dasharray:none;stroke-dashoffset:0;stroke-opacity:1" /></g><path
     style="opacity:1;fill:#64d2ff;fill-opacity:1;fill-rule:nonzero;stroke:none;stroke-width:1.93971348;stroke-linecap:round;stroke-linejoin:round;stroke-miterlimit:4;stroke-dasharray:none;stroke-dashoffset:0;stroke-opacity:1"
     d=""
     id="path164"
     inkscape:connector-curvature="0"
     transform="translate(0,-5.78223)" /><g
     id="g171"
     style="fill:#007aff"><path
       transform="translate(0,-5.78223)"
       inkscape:connector-curvature="0"
       id="path156"
       d="m 50.783082,108.95279 c -0.959148,-0.95915 -0.554503,-2.85436 1.475047,-6.90859 1.403087,-2.802798 2.540416,-4.433789 3.794316,-5.441251 4.655916,-3.740854 5.027919,-4.222023 8.498664,-10.992652 1.901858,-3.710089 3.957182,-7.613469 4.567388,-8.674178 1.023762,-1.779586 1.154726,-1.866664 1.695395,-1.127256 0.322261,0.440719 0.58593,1.851944 0.58593,3.136056 0,1.941914 -0.369046,3.044455 -2.19336,6.552762 -2.583691,4.968652 -4.588053,7.615133 -7.821615,10.327353 -3.502363,2.937682 -5.214938,5.377846 -6.515846,9.284126 -1.320837,3.96611 -2.68251,5.24704 -4.085919,3.84363 z"
       style="opacity:1;fill:#007aff;fill-opacity:1;fill-rule:nonzero;stroke:none;stroke-width:1.93971348;stroke-linecap:round;stroke-linejoin:round;stroke-miterlimit:4;stroke-dasharray:none;stroke-dashoffset:0;stroke-opacity:1" /><path
       transform="translate(0,-5.78223)"
       inkscape:connector-curvature="0"
       id="path158"
       d="m 116.1869,106.54456 c -0.52603,-0.52602 -0.30967,-3.90774 0.3794,-5.93004 0.91839,-2.695346 2.82667,-4.883483 5.64703,-6.475193 2.49826,-1.409933 3.18334,-2.326977 9.35821,-12.52698 l 2.60361,-4.300793 0.81507,0.990017 c 1.39244,1.691308 0.72637,3.797998 -3.14922,9.960507 -3.12172,4.963816 -3.76934,5.727509 -5.85979,6.910044 -1.97791,1.118881 -2.89249,2.124121 -5.77384,6.346238 -3.95087,5.78929 -3.64267,5.404 -4.02047,5.0262 z"
       style="opacity:1;fill:#007aff;fill-opacity:1;fill-rule:nonzero;stroke:none;stroke-width:1.93971348;stroke-linecap:round;stroke-linejoin:round;stroke-miterlimit:4;stroke-dasharray:none;stroke-dashoffset:0;stroke-opacity:1" /><path
       transform="translate(0,-5.78223)"
       inkscape:connector-curvature="0"
       id="path166"
       d="m 131.31172,95.582291 c 0,-0.367277 2.94571,-1.521419 3.84047,-1.504716 1.39996,0.02614 -1.12933,1.747459 -2.56769,1.747459 -0.70003,0 -1.27278,-0.109234 -1.27278,-0.242743 z"
       style="opacity:1;fill:#007aff;fill-opacity:1;fill-rule:nonzero;stroke:none;stroke-width:1.93971348;stroke-linecap:round;stroke-linejoin:round;stroke-miterlimit:4;stroke-dasharray:none;stroke-dashoffset:0;stroke-opacity:1" /></g></svg>