<?xml version="1.0" encoding="UTF-8" standalone="no"?>
<svg
   xmlns:dc="http://purl.org/dc/elements/1.1/"
   xmlns:cc="http://creativecommons.org/ns#"
   xmlns:rdf="http://www.w3.org/1999/02/22-rdf-syntax-ns#"
   xmlns:svg="http://www.w3.org/2000/svg"
   xmlns="http://www.w3.org/2000/svg"
   xmlns:sodipodi="http://sodipodi.sourceforge.net/DTD/sodipodi-0.dtd"
   xmlns:inkscape="http://www.inkscape.org/namespaces/inkscape"
   version="1.1"
   id="Contours"
   x="0px"
   y="0px"
   width="200"
   height="200"
   viewBox="0 0 200 230.65775"
   enable-background="new 0 0 684.209412 684.209412"
   xml:space="preserve"
   sodipodi:docname="luka.svg"
   style="fill:none;stroke:#000000;stroke-linecap:round;stroke-linejoin:round"
   inkscape:version="0.92.2 5c3e80d, 2017-08-06"
   inkscape:export-filename="/Users/radcli14/Desktop/drubble/game/a/luka_face.png"
   inkscape:export-xdpi="96"
   inkscape:export-ydpi="96"><metadata
     id="metadata187"><rdf:RDF><cc:Work
         rdf:about=""><dc:format>image/svg+xml</dc:format><dc:type
           rdf:resource="http://purl.org/dc/dcmitype/StillImage" /><dc:title></dc:title></cc:Work></rdf:RDF></metadata><defs
     id="defs185" /><sodipodi:namedview
     pagecolor="#ffffff"
     bordercolor="#666666"
     borderopacity="1"
     objecttolerance="10"
     gridtolerance="10"
     guidetolerance="10"
     inkscape:pageopacity="0"
     inkscape:pageshadow="2"
     inkscape:window-width="1380"
     inkscape:window-height="803"
     id="namedview183"
     showgrid="false"
     inkscape:pagecheckerboard="true"
     inkscape:zoom="2.43"
     inkscape:cx="30.594418"
     inkscape:cy="92.960336"
     inkscape:window-x="0"
     inkscape:window-y="0"
     inkscape:window-maximized="0"
     inkscape:current-layer="Contours" /><path
     class="selected"
     d="m 55.160178,200.89134 c 9.501088,11.56546 19.982647,23.77794 34.472067,27.53127 1.297407,0.33607 1.236046,2.43462 0.132157,3.19466 -1.103893,0.76003 -2.586396,0.55631 -3.892429,0.25549 -2.067879,-0.47629 -4.097401,-1.11901 -6.062489,-1.91988 -11.852574,-4.83054 -20.593714,-15.00629 -28.376533,-25.16726 -2.306633,-3.01146 -4.680433,-6.37715 -4.564255,-10.16871 8.181306,-0.57499 16.41961,-0.33596 24.553817,0.71239 1.148607,0.14803 2.679462,0.97121 2.155035,2.00378 -0.163237,0.32139 -0.496742,0.51594 -0.821642,0.6721 -5.440756,2.61496 -12.717987,-0.67017 -17.595728,2.88616 z"
     id="path2"
     inkscape:connector-curvature="0"
     style="opacity:1;fill:#007aff;fill-opacity:1;stroke:none;stroke-width:0.28384498" /><path
     class="selected"
     d="m 81.131425,189.20143 c -0.356879,0.001 -0.760873,-0.0237 -0.992172,-0.29548 -0.258732,-0.30402 -0.174568,-0.76043 -0.07628,-1.14737 2.687271,-10.5788 5.129684,-21.33174 5.177861,-32.24642 0.04183,-9.47694 -1.7479,-18.95862 -5.241445,-27.76823 -0.509917,-1.28585 -1.066585,-2.65443 -0.793086,-4.01039 0.273501,-1.35594 1.79748,-2.53898 3.031103,-1.9132 0.724543,0.36754 1.078316,1.18786 1.36489,1.94807 6.412171,17.00983 7.114857,36.11616 1.969479,53.55105 -0.31798,1.07747 0.632577,2.0775 1.491696,2.80136 2.458969,2.07177 4.917939,4.14354 7.376909,6.21531 -4.173502,1.86402 -8.738141,2.84675 -13.308954,2.8653 z"
     id="path4"
     inkscape:connector-curvature="0"
     style="opacity:1;fill:#000000;fill-opacity:1;stroke:none;stroke-width:0.28384498" /><path
     class="selected"
     d="m 156.85546,182.06742 c 0.66911,-1.14072 1.9656,-2.45394 3.07016,-1.72672 0.86817,0.57159 0.67557,1.88186 0.3421,2.86635 -3.84661,11.35575 -12.60409,20.25031 -21.09054,28.71965 -1.88354,1.87974 -3.77165,3.7636 -5.84616,5.43019 -9.50272,7.63409 -22.02437,10.10225 -34.008224,12.33116 -0.952456,0.17716 -2.029612,0.32831 -2.810208,-0.24547 -0.780595,-0.57378 -0.662256,-2.15353 0.305101,-2.20625 3.911621,-0.21314 7.874821,-0.43556 11.601601,-1.64274 2.24348,-0.72671 4.35896,-1.79783 6.42939,-2.92684 14.25771,-7.7747 26.87067,-18.54898 36.77792,-31.41658 -1.55888,0.79471 -3.49533,0.80154 -5.05978,0.0178 -0.81231,-1.09394 0.5035,-2.72413 1.86606,-2.72222 1.36256,0.002 2.5054,0.97419 3.51309,1.89131 1.6365,-2.7899 3.273,-5.57979 4.90949,-8.36968 z"
     id="path6"
     inkscape:connector-curvature="0"
     style="opacity:1;fill:#007aff;fill-opacity:1;stroke:none;stroke-width:0.28384498" /><path
     class="selected"
     d="m 154.71422,178.98959 c -11.0663,6.93575 -24.10224,9.86714 -36.85475,12.68516 -4.12491,0.91151 -8.24982,1.82303 -12.37474,2.73454 -1.10514,0.24421 -2.31758,-0.6679 -2.38925,-1.79743 -0.0716,-1.12954 1.01574,-2.18758 2.14288,-2.08502 1.6596,0.0475 3.283,-0.43701 4.87245,-0.91678 15.784,-4.76431 31.56799,-9.52862 47.35199,-14.29293 0.0999,1.60608 -1.38508,2.81789 -2.74858,3.67246 z"
     id="path8"
     inkscape:connector-curvature="0"
     style="opacity:1;fill:#007aff;fill-opacity:1;stroke:none;stroke-width:0.28384498" /><path
     class="selected"
     d="m 37.327667,152.54003 c 0.952496,2.33917 1.90499,4.67832 2.857487,7.01749 0.284901,0.69967 0.607523,1.44533 1.250184,1.84244 0.589392,0.36419 1.325956,0.35832 2.01876,0.3517 9.252563,-0.0884 18.519163,1.74107 27.043943,5.3391 -0.07754,0.73331 -1.059982,0.90244 -1.796707,0.87115 -9.273316,-0.39411 -18.5248,-1.3014 -27.698002,-2.71634 -0.621037,-0.0958 -1.268618,-0.20482 -1.773416,-0.57905 -0.446291,-0.33084 -0.729327,-0.83155 -0.999316,-1.31708 -1.783729,-3.20775 -3.588677,-6.46968 -4.409955,-10.04694 -0.52904,-2.30436 -0.271991,-5.32641 1.922864,-6.20534 3.076296,-1.23191 5.980601,-2.89243 8.602771,-4.91862 1.108214,-0.85632 2.218973,-1.80447 3.580902,-2.13094 1.361927,-0.32649 3.060395,0.22675 3.479843,1.56297 0.328751,1.04726 -0.242101,2.20331 -1.080634,2.9116 -0.83853,0.7083 -1.90297,1.07595 -2.921967,1.48394 -3.739929,1.49743 -7.183702,3.73043 -10.076757,6.53392 z"
     id="path10"
     inkscape:connector-curvature="0"
     style="opacity:1;fill:#ffffff;stroke:none;stroke-width:0.28384498" /><path
     class="selected"
     d="m 162.12478,151.50549 c -1.05059,7.74141 -5.23996,15.01059 -11.41153,19.8007 -3.66262,2.84276 -7.92353,4.80189 -12.1998,6.59345 -7.5798,3.17557 -15.72204,5.95116 -23.86622,4.85119 -2.33766,-0.31572 -4.99943,-1.28947 -5.64484,-3.55836 2.82217,0.69024 5.77098,0.64267 8.66901,0.43653 7.86269,-0.5593 15.72792,-2.29345 22.72192,-5.92922 6.99399,-3.63578 13.08324,-9.27241 16.47139,-16.38966 1.17785,-2.47424 2.53509,-5.51539 5.26007,-5.80463 z"
     id="path12"
     inkscape:connector-curvature="0"
     style="opacity:1;fill:#ffffff;stroke:none;stroke-width:0.28384498" /><path
     class="selected"
     d="m 102.81037,183.88252 c 1.08325,0.77038 1.58754,2.26685 1.19148,3.53572 -0.31008,2.21578 -3.90816,2.91557 -5.026126,0.97755 1.807516,-0.2514 1.778076,-2.87173 1.241246,-4.61591 -2.220761,-7.21534 -4.441522,-14.43066 -6.662284,-21.646 -0.835063,-2.71314 0.06135,-5.62299 0.952379,-8.31828 1.438355,-4.35089 2.876709,-8.7018 4.315062,-13.0527 0.61493,-1.86011 1.248563,-3.75671 2.423633,-5.32433 1.30055,-1.73504 3.16856,-2.94097 4.99953,-4.1026 7.65987,-4.85967 15.52503,-9.66089 24.26372,-12.09508 8.73868,-2.43419 18.5949,-2.24636 26.33631,2.48232 -1.54975,2.76739 -5.48294,2.73286 -8.6223,2.28052 -2.48887,-0.35862 -4.97306,-0.74974 -7.45173,-1.1732 -2.30037,-0.39302 -4.6292,-0.81557 -6.95361,-0.60742 -3.70467,0.33173 -7.06223,2.22483 -10.28883,4.07516 -3.29181,1.88772 -6.58362,3.77545 -9.87543,5.66319 -4.57081,2.62119 -9.35949,5.45712 -11.92858,10.05742 -1.09269,1.95662 -1.730133,4.26998 -1.2349,6.45563 0.45286,1.99863 1.78303,3.66644 3.07477,5.25736 1.14958,1.41583 2.81439,2.99031 4.52689,2.36302 11.65093,-4.26777 23.30187,-8.53554 34.95279,-12.80331 5.09181,-1.86515 10.24019,-3.74418 15.62434,-4.3892 0.0235,-5.03655 0.0469,-10.0731 0.0704,-15.10965 2.09427,-0.29721 4.03762,1.4607 4.69838,3.4701 0.66077,2.0094 0.35766,4.19244 0.0479,6.28489 -0.46685,3.15302 -1.39243,6.88746 -4.4086,7.91811 -18.37767,6.2798 -36.58449,13.05962 -54.59349,20.32944 -1.85665,0.74949 -4.09133,2.21392 -3.55305,4.14243 1.37474,4.92537 2.38279,9.95303 3.01308,15.02766 0.14214,1.14455 -0.003,2.68815 -1.13297,2.91716 m 57.52243,-58.54754 c -0.16223,-0.30039 -0.72786,-0.15592 -0.72617,0.18548 0.14584,0.39048 0.88455,0.18923 0.81216,-0.22128 z"
     id="path14"
     inkscape:connector-curvature="0"
     style="opacity:1;fill:#ffffff;fill-opacity:1;stroke:none;stroke-width:0.28384498" /><path
     class="selected"
     d="m 142.26807,137.02775 c 0.8993,0.36005 1.24989,1.53183 0.97749,2.46144 -0.2724,0.9296 -1.00457,1.64831 -1.76321,2.25065 -3.92058,3.1128 -9.37612,4.18603 -14.18364,2.79025 -1.92139,-0.55785 -3.7721,-1.51506 -5.10034,-3.01132 -1.32824,-1.49625 -2.07451,-3.57971 -1.67998,-5.54118 0.13441,-0.66822 0.3943,-1.30985 0.48015,-1.98603 0.17759,-1.39877 -0.40052,-2.77071 -0.96598,-4.06234 0.67957,0.58472 1.20692,1.34488 1.51665,2.18619 1.13095,-2.44839 3.52921,-4.12535 6.08265,-4.99347 2.55343,-0.86813 5.28453,-1.03068 7.97703,-1.18595 2.54626,-0.14682 4.44184,2.21694 5.86646,4.33246 0.47026,0.69832 -0.12174,1.72811 -0.93366,1.95077 -0.81192,0.22267 -1.67286,-0.13699 -2.36698,-0.61342 -0.69411,-0.47645 -1.30858,-1.07935 -2.06878,-1.44111 -2.27428,-1.08227 -4.91699,0.30088 -6.96903,1.76128 -1.3027,0.9271 -2.61923,1.96289 -3.28511,3.41655 -0.88469,1.93135 -0.34239,4.41717 1.26631,5.80458 1.29662,1.11826 3.08592,1.48947 4.79792,1.51768 0.65733,0.0108 1.31736,-0.023 1.96382,-0.14256 1.81992,-0.33641 3.50073,-1.37535 4.61532,-2.85283 0.50199,-0.66542 0.89695,-1.41935 1.49813,-1.99672 0.60119,-0.57736 1.50096,-0.95475 2.27478,-0.64495 z"
     id="path16"
     inkscape:connector-curvature="0"
     style="opacity:1;fill:#007aff;fill-opacity:1;stroke:none;stroke-width:0.28384498" /><path
     class="selected"
     d="m 96.106427,208.48992 c -2.55124,-0.2245 -4.191869,-2.72721 -5.440807,-4.96313 -0.253965,-0.45466 -0.513885,-0.92865 -0.549106,-1.44823 -0.03522,-0.51959 0.223692,-1.09832 0.719116,-1.25885 -0.307296,1.09251 0.09505,2.35041 0.979328,3.06178 0.606354,-0.84392 0.460629,-2.13835 -0.318177,-2.82633 2.764312,-1.86667 6.363775,-2.44141 9.571929,-1.52836 0.45615,0.12981 1.00562,0.26884 1.35696,-0.0498 1.91856,-1.73964 4.6834,-2.49838 7.22116,-1.98167 0.34357,0.0699 0.70216,0.17298 0.94071,0.42993 0.2426,0.26131 0.31676,0.6332 0.37045,0.9857 0.25088,1.64702 0.27298,3.3287 0.0656,4.98176 -0.0515,0.4102 -0.12953,0.84547 -0.41241,1.14693 -0.44082,0.46975 -1.18347,0.43465 -1.82381,0.3643 -1.23455,-0.1356 -2.4691,-0.2712 -3.70366,-0.40681 -0.66987,-0.0736 -1.53721,-0.36424 -1.49766,-1.03698 0.0854,-1.45193 -1.18022,-2.58371 -2.32968,-3.47483 0.29764,1.56435 0.33661,3.17763 0.11473,4.75453 -0.10812,0.76859 -0.34771,1.62527 -1.03629,1.98345 -1.324162,0.68877 -2.741562,1.39737 -4.228406,1.26652 z"
     id="path18"
     inkscape:connector-curvature="0"
     style="opacity:1;fill:#ffffff;fill-opacity:1;stroke:none;stroke-width:0.28384498" /><path
     class="selected"
     d="m 48.145804,175.62528 c 0.788857,-0.94643 2.241526,-0.8601 3.46186,-0.69038 5.215879,0.72536 10.431761,1.45075 15.647641,2.17613 0.87238,0.12133 2.000763,0.55182 1.89113,1.42574 -3.653647,1.3839 -7.705587,0.84947 -11.612514,0.86482 -0.585455,0.002 -1.324622,0.13282 -1.464034,0.70133 3.396,0.71902 6.792001,1.43803 10.188002,2.15705 0.551559,0.11678 1.267118,0.55297 0.9946,1.04651 -1.255558,0.11337 -2.511114,0.22673 -3.766578,0.34109 -4.760033,0.43055 -9.531247,0.86144 -14.309941,0.77562 -1.446647,-0.026 -3.127722,-0.23015 -3.885254,-1.46286 -0.860223,-1.39984 0.447058,-3.53491 2.084946,-3.40518 0.516854,0.041 1.006652,0.25968 1.523139,0.30495 0.516493,0.0453 1.125526,-0.16227 1.275989,-0.65843 -0.815205,-0.22988 -1.63041,-0.45978 -2.445616,-0.68967 -0.129856,-0.9936 -0.224905,-2.11659 0.416669,-2.88631 z"
     id="path20"
     inkscape:connector-curvature="0"
     style="opacity:1;fill:#ffffff;stroke:none;stroke-width:0.28384498" /><path
     class="selected"
     d="m 84.057932,194.68932 c 0.144645,2.19333 -2.205855,3.99714 -4.393215,3.78015 -0.50767,-0.0504 -1.021511,-0.19128 -1.421575,-0.50785 -0.728343,-0.57633 -0.925056,-1.58131 -1.072287,-2.49834 -0.205823,-1.28195 -0.353837,-2.76812 0.535537,-3.71404 0.820576,-0.87275 2.171183,-0.90143 3.369112,-0.90171 4.255908,-0.001 8.511622,-0.41357 12.68847,-1.2301 0.707528,-0.13829 1.444221,-0.28758 2.14029,-0.1 1.375569,0.37083 2.072627,1.86359 2.592235,3.19014 0.460967,1.17683 0.921934,2.35366 1.382906,3.5305 -1.41652,0.91603 -3.459409,0.70339 -4.656918,-0.48472 -0.537958,-0.53374 -0.900133,-1.21645 -1.374893,-1.8071 -0.474761,-0.59066 -1.131712,-1.11557 -1.889458,-1.12523 -0.75775,-0.01 -1.526662,0.72402 -1.309452,1.45003 0.434753,1.4531 -0.05849,3.1405 -1.207416,4.1307 -0.413088,0.35602 -0.958226,0.63466 -1.489861,0.5132 -0.478291,-0.10928 -0.825852,-0.5101 -1.138207,-0.88844 -0.918426,-1.11243 -1.836849,-2.22487 -2.755275,-3.3373 z"
     id="path22"
     inkscape:connector-curvature="0"
     style="opacity:1;fill:#007aff;fill-opacity:1;stroke:none;stroke-width:0.28384498" /><path
     class="selected"
     d="m 104.72594,215.38127 c 0.98354,1.84468 1.79841,3.77925 2.43113,5.7717 0.10975,0.34545 0.2136,0.72252 0.0895,1.063 -0.19132,0.5242 -0.81527,0.72176 -1.35821,0.85063 -2.18328,0.51821 -4.36657,1.03644 -6.549851,1.55466 -0.199459,0.0474 -0.410788,0.0944 -0.606246,0.0325 -0.239178,-0.0757 -0.399194,-0.29583 -0.534753,-0.50692 -1.599454,-2.49072 -2.173448,-5.61901 -1.562436,-8.51531 0.192142,-0.9108 0.561472,-1.87948 1.377745,-2.32688 0.539068,-0.29546 1.18198,-0.31072 1.796657,-0.31891 1.351564,-0.018 2.838764,0.0114 3.854304,0.90344 0.46131,0.40521 0.77344,0.95025 1.06231,1.49205 z"
     id="path24"
     inkscape:connector-curvature="0"
     style="opacity:1;fill:#ffffff;fill-opacity:1;stroke:none;stroke-width:0.28384498" /><path
     class="selected"
     d="m 83.845776,218.7127 c 0.249012,-1.49671 1.240516,-2.76211 2.324886,-3.82337 0.711951,-0.69679 1.579426,-1.37526 2.575141,-1.34475 1.103622,0.0338 1.977937,0.922 2.637155,1.80776 1.391591,1.86981 2.395186,3.99906 3.258101,6.16427 0.396849,0.99575 0.772326,2.06056 0.594881,3.11769 -0.177442,1.05714 -1.111405,2.06369 -2.175501,1.93438 -2.46632,-0.29974 -4.884596,-0.99142 -7.136388,-2.04119 -0.345394,-0.16102 -0.695205,-0.33645 -0.954164,-0.61603 -0.334283,-0.36091 -0.47972,-0.85281 -0.614814,-1.32583 -0.360714,-1.26302 -0.724869,-2.57722 -0.509297,-3.87293 z"
     id="path26"
     inkscape:connector-curvature="0"
     style="opacity:1;fill:#ffffff;fill-opacity:1;stroke:none;stroke-width:0.28384498" /><path
     class="selected"
     d="m 113.04629,171.56215 c 2.61052,-0.47605 5.13918,-1.31413 7.65779,-2.1496 6.60931,-2.19244 13.21863,-4.38488 19.82794,-6.57732 0.41124,-0.13643 0.82668,0.31577 0.82049,0.74902 -0.006,0.43323 -0.2868,0.80951 -0.56924,1.13809 -3.7485,4.36083 -9.66468,6.039 -15.2259,7.50219 -6.03777,1.58855 -12.4952,3.16872 -18.41153,1.17493 -0.68396,-0.23049 -1.49054,-0.75425 -1.31491,-1.4543 2.40837,0.1793 4.83952,0.0502 7.21536,-0.38301 z"
     id="path28"
     inkscape:connector-curvature="0"
     style="opacity:1;fill:#ffffff;stroke:none;stroke-width:0.28384498" /><path
     class="selected"
     d="m 80.789223,200.74548 c 1.467862,-0.003 2.935724,-0.006 4.403583,-0.009 0.958661,-0.002 2.02289,0.0368 2.709842,0.70545 0.64162,0.62455 0.747333,1.60165 0.815382,2.49446 0.106867,1.40207 0.213734,2.80414 0.320601,4.20621 0.02442,0.31984 0.04533,0.65821 -0.09935,0.94451 -0.248511,0.49173 -0.86861,0.63826 -1.411768,0.73064 -1.453967,0.24729 -2.907932,0.49459 -4.361898,0.74187 -1.101197,0.18733 -2.323936,0.35141 -3.257614,-0.26175 -1.232945,-0.80971 -1.360727,-2.53592 -1.360586,-4.01097 9.2e-5,-0.98403 1.91e-4,-1.96806 2.87e-4,-2.9521 8.3e-5,-0.84152 0.07064,-1.82336 0.768516,-2.29362 0.421839,-0.28426 0.964332,-0.29509 1.473006,-0.29609 z"
     id="path30"
     inkscape:connector-curvature="0"
     style="opacity:1;fill:#ffffff;fill-opacity:1;stroke:none;stroke-width:0.28384498" /><path
     class="selected"
     d="m 154.457,149.70798 c -3.53948,6.4495 -10.88392,9.70818 -17.86327,12.03467 -2.84631,0.94878 -5.71937,1.81733 -8.61461,2.60425 -2.49145,0.67718 -5.1879,1.28595 -7.6033,0.37396 -0.51216,-0.19339 -1.07735,-0.58561 -1.01949,-1.13 2.65687,-0.57307 5.30074,-1.20642 7.92889,-1.89939 1.86499,-0.49175 3.72243,-1.01363 5.56059,-1.59771 7.64219,-2.42828 14.94061,-5.93571 21.61119,-10.38578 z"
     id="path32"
     inkscape:connector-curvature="0"
     style="opacity:1;fill:#ffffff;stroke:none;stroke-width:0.28384498" /><path
     class="selected"
     d="m 111.52115,197.22778 c 2.41686,-2.05942 5.69895,-2.70132 8.82281,-3.27056 1.01349,-0.18472 2.4035,-0.14715 2.65996,0.85064 0.29791,1.15902 0.59814,2.33957 0.53897,3.53481 -0.0592,1.19524 -0.53395,2.42937 -1.50918,3.12293 -0.39452,0.28057 -0.85203,0.46114 -1.31755,0.59404 -3.67477,1.04908 -7.97456,-1.2104 -9.19501,-4.83186 z"
     id="path34"
     inkscape:connector-curvature="0"
     style="opacity:1;fill:#ffffff;fill-opacity:1;stroke:none;stroke-width:0.28384498" /><path
     class="selected"
     d="m 123.09843,-1.223033 c 3.91421,1.66634091 7.99463,2.9419533 12.16099,3.801734 0.29892,0.061686 0.61108,0.1209767 0.90594,0.042144 0.54886,-0.146747 0.86172,-0.7086689 1.30013,-1.0700085 0.43841,-0.3613396 1.30486,-0.3657641 1.38255,0.1970323 -0.50749,0.5986399 -1.01499,1.1972798 -1.52247,1.7959184 3.48758,-0.5474629 7.22259,0.9993811 9.30189,3.8523633 -0.84764,1.4149688 0.40888,3.1364916 1.62301,4.2529716 1.21411,1.116482 2.60392,2.643031 2.00692,4.180629 -0.29255,0.753493 -1.00051,1.250733 -1.6709,1.702317 -1.83192,1.234033 -3.66385,2.468067 -5.49578,3.702099 1.95619,1.18884 4.86094,-1.048034 6.64451,0.386854 0.85199,0.68544 0.99531,1.910978 1.02018,3.00419 0.168,7.385845 -2.06612,14.590533 -4.277,21.639712 -0.21493,0.68532 -0.45974,1.414738 -1.02932,1.852281 -0.72661,0.558179 -1.74222,0.470279 -2.65138,0.356373 -26.56931,-3.328818 -53.221669,-5.99477 -79.92392,-7.994538 -1.264827,-0.09472 -2.266725,-1.206451 -2.639581,-2.41878 -0.372857,-1.212327 -0.248748,-2.514359 -0.121043,-3.776283 0.571469,-5.64721 1.142938,-11.294422 1.714407,-16.941632 0.114922,-1.135661 1.084645,-2.675647 1.963048,-1.946721 5.498315,4.562681 11.793343,8.162606 18.514112,10.587634 1.962071,0.707965 4.433731,1.213976 5.904519,-0.265111 -0.563327,0.29577 -0.516166,1.189442 -0.06528,1.638352 0.450876,0.448914 1.124207,0.569583 1.753392,0.664168 9.326036,1.401973 18.792947,1.865121 28.211307,1.380185 2.10232,-0.108251 4.46629,-0.398115 5.74919,-2.067155 -0.0891,0.558864 0.44394,1.126926 1.00734,1.073572 4.87634,-0.186774 10.62869,-0.887478 12.96113,-5.173899 -4.30502,0.763999 -8.61003,1.527997 -12.91505,2.291995 -2.91956,0.518123 -5.84136,1.036576 -8.78737,1.37314 C 97.208799,29.059428 77.514662,23.319325 62.72265,11.334041 81.107605,1.7999518 102.43723,0.19820005 123.09843,-1.223033 m 17.09965,23.361185 c -0.0643,0.196741 -0.12858,0.393477 -0.19287,0.590216 0.97909,0.01191 1.93754,-0.603635 2.33397,-1.498959 -0.78102,-0.229591 -1.69953,0.193007 -2.03328,0.935496 m 4.50243,-15.3293417 c -0.16762,-0.2832282 -0.62936,-0.3216852 -0.84151,-0.070084 0.008,0.7034504 0.69526,1.322447 1.39574,1.2574354 0.0857,-0.4416348 -0.15534,-0.9261751 -0.5593,-1.1241838 m -1.23541,-1.9355053 c -0.23194,-0.1252717 -0.46388,-0.2505462 -0.69582,-0.3758184 -0.27164,0.2193794 -0.20073,0.7268527 0.12059,0.8633776 0.32136,0.1365248 0.73584,-0.1647424 0.70517,-0.512549 z"
     id="path36"
     inkscape:connector-curvature="0"
     style="opacity:1;fill:#ff3b30;fill-opacity:1;stroke:none;stroke-width:0.28384498" /><path
     class="selected"
     d="m 127.16323,207.09573 c 0.76744,0.98402 1.15708,2.25541 1.07276,3.50046 -0.0728,1.07521 -1.14129,1.76349 -2.08984,2.27499 -1.64233,0.88561 -3.28466,1.77122 -4.92698,2.65683 -0.45517,0.24545 -1.06915,0.47346 -1.43886,0.11188 -1.45059,-1.41867 -2.28014,-3.49346 -2.05224,-5.50962 0.22792,-2.01615 1.56766,-3.90598 3.45447,-4.65213 2.05926,-0.81436 4.61885,-0.12859 5.98069,1.61758 z"
     id="path38"
     inkscape:connector-curvature="0"
     style="opacity:1;fill:#ffffff;fill-opacity:1;stroke:none;stroke-width:0.28384498" /><path
     class="selected"
     d="m 116.8936,215.02574 c 0.76522,0.77574 0.50292,2.16125 -0.26764,2.93168 -0.77056,0.77045 -1.87969,1.07554 -2.94099,1.32252 -1.06129,0.24697 -2.17245,0.48593 -3.02019,1.17054 -0.24027,0.19403 -0.45413,0.42073 -0.63382,0.67192 -0.89553,-1.37748 -1.80103,-2.77556 -2.30603,-4.33901 -0.505,-1.56347 -0.57032,-3.33897 0.18792,-4.79655 0.75824,-1.45757 2.46817,-2.47228 4.06825,-2.0992 2.35879,0.54997 3.21157,3.41381 4.9125,5.1381 z"
     id="path40"
     inkscape:connector-curvature="0"
     style="opacity:1;fill:#ffffff;fill-opacity:1;stroke:none;stroke-width:0.28384498" /><path
     class="selected"
     d="m 44.138773,167.18076 c 0.439232,-0.68904 1.43813,-0.66036 2.246459,-0.54071 4.783325,0.70808 9.515176,1.76363 14.145941,3.15561 -0.123026,0.86265 -1.130089,1.24578 -1.975049,1.45876 -2.443611,0.61591 -4.931178,1.23649 -7.44812,1.11164 -2.516943,-0.12486 -5.113722,-1.10851 -6.602051,-3.14209 -0.435086,-0.59449 -0.763167,-1.422 -0.36718,-2.04321 z"
     id="path42"
     inkscape:connector-curvature="0"
     style="opacity:1;fill:#ffffff;stroke:none;stroke-width:0.28384498" /><path
     class="selected"
     d="m 55.326952,150.2911 c 0.703556,-2.53028 1.69016,-4.98175 2.935494,-7.29399 1.102174,0.02 2.177188,0.68216 2.661995,1.67219 0.484808,0.99002 0.339376,2.26445 -0.380468,3.09932 -1.618619,1.87728 -1.908457,4.78613 -0.692087,6.94588 0.958144,1.70125 2.681952,2.84409 4.477864,3.61024 1.795912,0.76615 3.710263,1.21733 5.531821,1.92034 0.607114,0.2343 1.323935,0.73644 1.125082,1.35608 -0.185006,0.57647 -0.971061,0.62463 -1.573177,0.56132 -2.128664,-0.22384 -4.262694,-0.44853 -6.352687,-0.9103 -1.75316,-0.38734 -3.565044,-1.00191 -4.730122,-2.368 -1.250341,-1.46606 -1.523741,-3.51367 -2.413476,-5.22279 -0.313438,-0.60209 -0.712819,-1.1871 -0.79362,-1.86107 -0.06083,-0.5074 0.06648,-1.01686 0.203381,-1.50922 z"
     id="path44"
     inkscape:connector-curvature="0"
     style="opacity:1;fill:#007aff;fill-opacity:1;stroke:none;stroke-width:0.28384498" /><path
     class="selected"
     d="m 80.469132,215.57445 c 0.252869,1.25693 0.505741,2.51385 0.758611,3.77079 0.09088,0.45172 0.179669,0.93271 0.01393,1.36264 -0.165739,0.42994 -0.69292,0.75325 -1.098047,0.53375 -3.059174,-1.65758 -5.920033,-3.68077 -8.502259,-6.01276 -0.600985,-0.54275 -1.229539,-1.41254 -0.76373,-2.07494 0.274474,-0.39032 0.80596,-0.48038 1.280569,-0.52966 1.552813,-0.1612 3.114534,-0.23655 4.675655,-0.22547 0.84498,0.006 1.751639,0.0583 2.421526,0.5733 0.776384,0.59694 1.020588,1.64224 1.213742,2.60235 z"
     id="path46"
     inkscape:connector-curvature="0"
     style="opacity:1;fill:#ffffff;fill-opacity:1;stroke:none;stroke-width:0.28384498" /><path
     class="selected"
     d="m 161.88212,145.66866 c -10.0353,0.98499 -19.83711,4.2772 -28.43234,9.54972 -0.7221,0.44296 -1.49887,0.91682 -2.34446,0.86576 -0.84559,-0.0511 -1.67912,-0.9178 -1.35146,-1.699 9.53331,-4.75734 19.38855,-9.60511 30.0198,-10.307 0.54697,-0.0361 1.12716,-0.0541 1.6075,0.21005 0.48035,0.26411 0.7903,0.9149 0.50096,1.38047 z"
     id="path48"
     inkscape:connector-curvature="0"
     style="opacity:1;fill:#ffffff;stroke:none;stroke-width:0.28384498" /><path
     class="selected"
     d="m 135.92083,192.90738 c -0.92201,1.16769 -2.06632,2.15921 -3.35335,2.90564 -0.74527,0.43223 -1.55957,0.78829 -2.41967,0.83791 -1.6121,0.093 -3.08115,-0.88793 -4.30042,-1.94666 -0.49154,-0.42682 -1.01012,-1.00166 -0.87409,-1.63828 0.15144,-0.7088 0.99142,-0.99187 1.69904,-1.1487 2.75247,-0.61002 5.50494,-1.22005 8.25742,-1.83007 0.32234,-0.0715 0.66266,-0.14227 0.97751,-0.0429 0.53807,0.16985 0.81897,0.80579 0.75504,1.3664 -0.0639,0.56061 -0.39182,1.05387 -0.74148,1.49671 z"
     id="path50"
     inkscape:connector-curvature="0"
     style="opacity:1;fill:#ffffff;fill-opacity:1;stroke:none;stroke-width:0.28384498" /><path
     class="selected"
     d="m 72.2257,206.59648 c -1.170795,-0.71734 -2.727338,-0.57063 -3.87771,-1.32028 -1.201702,-0.7831 -1.635029,-2.54428 -0.933872,-3.79556 0.262427,-0.46832 0.90583,-0.51602 1.442577,-0.50614 1.58668,0.0292 3.173362,0.0584 4.760042,0.0875 1.059672,0.0195 2.463748,0.35911 2.481937,1.41881 0.01869,1.08907 0.03739,2.17813 0.05608,3.2672 0.01449,0.84437 -0.076,1.87094 -0.835086,2.24101 -1.074635,0.52392 -2.074547,-0.76801 -3.093972,-1.39259 z"
     id="path52"
     inkscape:connector-curvature="0"
     style="opacity:1;fill:#ffffff;fill-opacity:1;stroke:none;stroke-width:0.28384498" /><path
     class="selected"
     d="m 134.49744,139.7811 c -2.00752,1.04937 -4.42081,-0.22805 -6.20578,-1.62273 -1.07098,-0.83681 -1.02603,-2.56447 -0.27255,-3.69563 0.75347,-1.13115 2.00632,-1.80889 3.20883,-2.44229 0.62853,-0.33106 1.60379,-0.5536 1.87972,0.10101 -0.28113,0.4738 -0.56227,0.94759 -0.8434,1.42139 -0.26974,0.45461 0.39119,0.9903 0.89927,0.84438 0.50809,-0.14591 0.82007,-0.63804 1.13071,-1.06575 0.31064,-0.42773 0.75483,-0.86255 1.27982,-0.80067 0.70857,0.0835 0.98255,0.95882 1.04785,1.66932 0.19348,2.10908 -0.24747,4.60983 -2.12445,5.59097 z"
     id="path54"
     inkscape:connector-curvature="0"
     style="opacity:1;fill:#ff3b30;fill-opacity:1;stroke:none;stroke-width:0.28384498" /><path
     class="selected"
     d="m 131.43137,206.35485 c -1.25859,-0.45401 -1.72022,-2.10705 -1.31976,-3.38369 0.40046,-1.27663 1.41004,-2.25385 2.38232,-3.173 0.95808,-0.90573 2.45338,-0.88304 3.75212,-0.65603 0.68357,0.11947 1.41798,0.31585 1.83416,0.87113 0.4562,0.60865 0.37935,1.49118 0.015,2.15891 -0.3643,0.66773 -0.96486,1.16903 -1.55127,1.65349 -0.4848,0.4005 -0.9696,0.80102 -1.45439,1.20153 -1.04936,0.86692 -2.37784,1.78954 -3.65822,1.32766 z"
     id="path56"
     inkscape:connector-curvature="0"
     style="opacity:1;fill:#ffffff;fill-opacity:1;stroke:none;stroke-width:0.28384498" /><path
     class="selected"
     d="m 68.437061,154.56818 c -1.985557,-1.08099 -3.574765,-2.87222 -4.411581,-4.97241 -0.202273,-0.50764 -0.361173,-1.08227 -0.162451,-1.59131 0.4373,-1.12019 2.089665,-0.99552 3.153889,-0.43565 1.700433,0.89457 3.077843,2.3885 3.83169,4.15582 0.485082,1.13722 0.470062,2.83815 -0.713161,3.19671 -0.568734,0.17233 -1.176455,-0.069 -1.698386,-0.35316 z"
     id="path58"
     inkscape:connector-curvature="0"
     style="opacity:1;fill:#ff3b30;fill-opacity:1;stroke:none;stroke-width:0.28384498" /><path
     class="selected"
     d="m 165.014,173.13558 c -1.44256,-0.73772 -0.34364,-3.6533 -1.86923,-4.19986 -0.56192,-0.20138 -1.16439,0.0897 -1.72961,0.28156 -0.6869,0.23328 -1.5094,0.30116 -2.08184,-0.14445 -0.57244,-0.44561 -0.58204,-1.53869 0.10245,-1.77895 2.66375,-0.93497 5.6076,-1.05455 8.3384,-0.33872 -0.77387,1.67471 -1.19333,3.51218 -1.22287,5.35681 -0.54168,0.21454 -1.05861,0.49149 -1.5373,0.82361 z"
     id="path60"
     inkscape:connector-curvature="0"
     style="opacity:1;fill:#ffffff;fill-opacity:1;stroke:none;stroke-width:0.28384498" /><path
     class="selected"
     d="m 138.84289,188.63616 c 0.55761,-0.66991 1.50277,-0.83595 2.36578,-0.95807 0.75425,-0.10677 1.50849,-0.21344 2.26273,-0.32017 0.32358,-0.0458 0.69369,-0.0786 0.93772,0.13879 0.17633,0.15706 0.23595,0.40374 0.28651,0.6344 0.20294,0.92572 0.38198,1.98019 -0.17089,2.74991 -0.2552,0.35528 -0.63711,0.598 -1.02706,0.79622 -1.15951,0.58937 -2.59462,0.84367 -3.74669,0.23989 -1.15208,-0.60378 -1.74022,-2.28127 -0.9081,-3.28097 z"
     id="path62"
     inkscape:connector-curvature="0"
     style="opacity:1;fill:#ffffff;fill-opacity:1;stroke:none;stroke-width:0.28384498" /><path
     class="selected"
     d="m 144.61699,196.64464 c 0.0692,0.18338 0.11947,0.3809 0.0887,0.57448 -0.0587,0.36918 -0.38643,0.6264 -0.68952,0.84515 -0.68418,0.4938 -1.39244,0.99882 -2.21445,1.18916 -0.82201,0.19033 -1.79549,-0.0127 -2.2757,-0.70646 -0.35982,-0.51985 -0.37713,-1.22164 -0.1727,-1.81984 0.36973,-1.08126 1.46017,-1.87381 2.60277,-1.89171 1.14258,-0.0179 2.25733,0.74009 2.66074,1.80924 z"
     id="path64"
     inkscape:connector-curvature="0"
     style="opacity:1;fill:#ffffff;fill-opacity:1;stroke:none;stroke-width:0.28384498" /><path
     class="selected"
     d="m 72.144873,172.25819 c 0.220389,0.51596 -0.504557,0.89978 -1.057202,0.99658 -2.322315,0.40685 -4.644632,0.81369 -6.966948,1.22053 -0.494066,0.0866 -1.039033,0.1644 -1.466943,-0.0974 -0.794028,-0.48563 -0.535495,-1.8184 0.241897,-2.33012 0.777472,-0.51172 1.785088,-0.44876 2.712245,-0.36689 2.17898,0.19242 4.357965,0.38483 6.536951,0.57726 z"
     id="path66"
     inkscape:connector-curvature="0"
     style="opacity:1;fill:#ffffff;stroke:none;stroke-width:0.28384498" /><path
     class="selected"
     d="m 161.14671,174.60306 c -0.0817,-0.25017 0.24663,-0.51733 0.47491,-0.38635 -0.10497,-0.6915 -0.97587,-0.89962 -1.66153,-1.03769 -0.68566,-0.13807 -1.51938,-0.65933 -1.28441,-1.3181 1.86374,-0.93732 4.44904,0.72243 4.3726,2.80719 -0.004,0.11836 -0.0158,0.23727 -0.0488,0.35102 -0.13331,0.45968 -0.65505,0.76806 -1.12203,0.66319 -0.467,-0.10486 -0.80679,-0.60672 -0.73075,-1.07926 z"
     id="path68"
     inkscape:connector-curvature="0"
     style="opacity:1;fill:#ffffff;fill-opacity:1;stroke:none;stroke-width:0.28384498" /><path
     class="selected"
     d="m 63.730907,202.92559 c -1.828623,0.60493 -4.010616,-0.1 -5.139732,-1.66037 -0.147158,-0.20337 -0.283126,-0.45019 -0.222368,-0.69375 0.08997,-0.36068 0.532712,-0.48412 0.901825,-0.52819 1.268082,-0.15138 2.556927,-0.1278 3.818626,0.0699 0.892319,0.13978 1.98011,0.6276 1.927432,1.52927 -0.03756,0.64289 -0.674382,1.08093 -1.285782,1.28319 z"
     id="path70"
     inkscape:connector-curvature="0"
     style="opacity:1;fill:#ffffff;fill-opacity:1;stroke:none;stroke-width:0.28384498" /><path
     class="selected"
     d="m 62.201323,206.04757 c 0.858989,-1.34281 3.042639,-1.14608 4.163517,-0.0127 1.12088,1.13342 1.448691,2.81001 1.683195,4.38672 0.06853,0.46073 -0.459601,0.83091 -0.923156,0.78523 -0.463558,-0.0457 -0.849003,-0.36298 -1.19833,-0.6711 -1.236247,-1.09043 -2.417337,-2.24339 -3.537249,-3.45299 -0.163948,-0.17707 -0.336524,-0.3797 -0.336085,-0.62102 2.72e-4,-0.14865 0.068,-0.28894 0.148108,-0.41416 z"
     id="path72"
     inkscape:connector-curvature="0"
     style="opacity:1;fill:#ffffff;fill-opacity:1;stroke:none;stroke-width:0.28384498" /><path
     class="selected"
     d="m 89.906327,235.06657 c 0.290287,-1.17727 1.635989,-1.80015 2.848444,-1.81334 0.691968,-0.007 1.385174,0.12869 2.022844,0.39747 -1.588187,0.58451 -3.217223,1.058 -4.871286,1.41588 z"
     id="path74"
     inkscape:connector-curvature="0"
     style="opacity:1;fill:#ffffff;fill-opacity:1;stroke:none;stroke-width:0.28384498" /><path
     class="selected"
     d="m 152.78131,185.87151 c -0.58753,0.0827 -1.21905,0.15848 -1.74653,-0.11311 -0.5275,-0.27164 -0.83106,-1.04217 -0.42633,-1.47602 0.15627,-0.1675 0.38103,-0.25073 0.59973,-0.31891 0.94138,-0.29344 1.93709,-0.41159 2.92101,-0.34657 -0.0654,0.86025 -0.57468,1.67475 -1.31946,2.11018 z"
     id="path82"
     inkscape:connector-curvature="0"
     style="opacity:1;fill:#ffffff;fill-opacity:1;stroke:none;stroke-width:0.28384498" /><path
     class="selected"
     d="m 41.307244,192.84539 c 0.631025,-0.0575 1.176927,0.69937 0.923143,1.27998 -0.42555,-0.29573 -0.746062,-0.73952 -0.893006,-1.23646 z"
     id="path148"
     inkscape:connector-curvature="0"
     style="opacity:1;fill:#000000;stroke:none;stroke-width:0.28384498" /><path
     class="selected"
     d="M 6.6627806,83.658629 C 5.7217894,81.763341 4.7807988,79.86805 3.8398085,77.972761 3.4435696,79.044724 3.0473306,80.116687 2.6510917,81.18865 2.3639641,76.254081 1.180373,71.373046 -0.82463484,66.855041 13.468034,52.383318 35.033385,45.488459 55.070617,48.984248 c 0.689962,0.120374 1.421332,0.274079 1.920594,0.765278 0.540086,0.531359 0.686447,1.336285 0.772635,2.089016 0.900973,7.868674 -2.016699,16.086893 -7.677724,21.625894 6.651185,-2.44554 10.928764,-10.093444 9.531144,-17.040788 -0.563275,-2.79994 3.651183,-3.683698 6.473046,-3.24322 6.053268,0.944891 12.106539,1.889781 18.159807,2.834668 3.010113,0.469865 6.802604,0.59009 8.309239,-2.057853 -0.302421,2.123128 2.590718,3.034595 4.733671,3.11766 7.772401,0.30128 15.544811,0.602557 23.317211,0.903837 0.23961,-0.388544 -0.73818,-0.375034 -0.65717,0.07421 0.081,0.449241 0.64512,0.591165 1.09926,0.637433 6.61385,0.673809 13.2277,1.347613 19.84156,2.021421 2.51625,0.25635 3.01973,3.787955 2.27047,6.203698 -0.74926,2.415742 -2.00217,5.167472 -0.61762,7.284125 1.07777,-4.204493 2.15552,-8.408987 3.23329,-12.613482 0.52432,-2.045483 1.0808,-4.157434 2.39209,-5.812561 2.518,-3.17825 7.76459,-3.683878 10.8432,-1.044987 3.97576,0.967169 7.95151,1.934339 11.92727,2.901509 3.17813,2.19991 7.33325,2.927463 11.06979,1.938291 -1.21681,0.608344 -2.43363,1.216693 -3.65044,1.825038 1.60195,0.706778 3.36551,1.044266 5.11522,0.978887 1.02579,-1.152983 2.05156,-2.305969 3.07734,-3.458955 1.30632,5.513748 8.2251,8.875328 13.36707,6.494565 -2.59314,2.319059 0.42936,6.275039 1.5871,9.555601 1.90073,5.385975 -3.40471,11.852421 -9.05822,11.040439 0.0639,-0.718947 1.38027,-0.154599 1.16488,0.534293 -0.21539,0.688895 -1.06553,0.905919 -1.77965,1.010823 -15.50541,2.277705 -31.1319,3.730907 -46.79143,4.351415 2.6904,0.889197 5.38079,1.778395 8.07119,2.667593 2.37829,0.786051 4.80808,1.599009 6.78653,3.13523 5.3308,4.139266 5.25321,13.465416 -0.14572,17.515426 -9.92615,0.32711 -19.8523,0.65421 -29.77845,0.98132 -1.14901,0.0379 -2.59509,0.3031 -2.86179,1.42143 -7.01596,-1.66667 -14.38268,-1.84079 -21.46954,-0.50749 -2.79823,0.52645 -4.95368,-3.01504 -4.25662,-5.77572 0.69706,-2.76067 3.09565,-4.70388 5.35295,-6.43935 14.83775,-0.37976 29.6755,-0.75953 44.51326,-1.13929 -11.45274,-7.716282 -26.27932,-7.583392 -40.08281,-7.171041 -16.263281,0.485833 -32.526561,0.971665 -48.789841,1.457498 -6.773418,0.202344 -13.746019,0.448162 -19.937744,3.201823 -6.191725,2.75366 -11.485255,8.66512 -11.39398,15.44094 0.0166,1.2322 0.987084,2.88374 2.035626,2.23632 10.295391,-6.35686 22.634267,-9.34434 34.697207,-8.4009 2.047908,0.16017 2.982021,2.94191 2.105612,4.79973 -0.876407,1.85781 -2.82257,2.92862 -4.662628,3.84172 -8.693718,4.31415 -17.768433,7.86017 -27.083867,10.58328 10.15906,1.58871 19.869887,5.32664 29.142036,9.77161 4.927089,2.362 10.287581,5.60984 11.334534,10.97259 1.125817,5.76671 -3.303724,11.81876 -1.328434,17.35236 0.236917,0.66369 0.559094,1.41517 0.220354,2.03314 -0.338744,0.61796 -1.626735,0.31518 -1.337178,-0.32731 1.786507,7.47647 1.326254,15.47472 -1.306079,22.69692 -1.182174,-1.50578 -1.697836,-3.51629 -1.386331,-5.40517 -5.130776,4.92531 -12.841251,5.71264 -19.934119,6.23677 -2.681347,0.19812 -5.425112,0.39071 -8.017694,-0.32161 -6.767693,-1.85942 -10.396855,-9.06333 -12.848222,-15.6398 -1.321813,-3.54613 -2.541532,-7.13031 -3.657138,-10.74662 -0.623331,-2.02057 -0.747293,-4.95692 1.29987,-5.48641 1.872041,-0.48419 3.23609,1.71129 3.917243,3.52099 2.430961,6.45862 4.861923,12.91725 7.292885,19.37589 1.109239,2.94704 4.775367,3.87732 7.912667,4.14725 8.175952,0.70344 16.490605,-0.24531 24.29792,-2.77252 0.505231,-7.45869 1.010456,-14.91738 1.515685,-22.37606 0.177202,-2.61602 0.346158,-5.30561 -0.450639,-7.80361 -1.243897,-3.89969 -4.628595,-6.70633 -8.073835,-8.91657 -9.118943,-5.85013 -19.874106,-9.1195 -30.706146,-9.33409 -3.048399,-0.0604 -6.275264,0.0739 -8.931143,-1.42362 2.726363,7.26574 4.323745,14.95386 4.717329,22.70428 -1.50935,1.02009 -3.698658,-0.0224 -4.572559,-1.6208 -0.873902,-1.59844 -0.825579,-3.51766 -0.840651,-5.33934 -0.05634,-6.80953 -1.32551,-13.6073 -3.730045,-19.97842 1.484128,-0.83426 3.65441,0.25965 3.866559,1.94892 0.408825,-0.93133 0.465905,-2.01216 0.157449,-2.98138 3.713683,0.99278 7.740277,0.7768 11.326455,-0.60753 -2.052431,-0.0301 -4.104861,-0.0602 -6.157292,-0.0903 -3.679349,-0.054 -8.15334,-0.60773 -9.611566,-3.98619 -0.62411,-1.44596 -0.502922,-3.09381 -0.306079,-4.65637 1.32439,-10.51308 5.630702,-20.63401 12.287322,-28.878304 3.51315,-4.351072 11.508422,2.505951 15.868795,-0.995649 -7.999528,-1.680731 -15.999053,-3.361461 -23.99858,-5.042191 -0.717392,-0.150725 -1.494193,-0.295593 -2.159172,0.01291 -0.66498,0.308499 -1.052465,1.278923 -0.532788,1.795939 0.519679,0.517014 1.60946,-0.389742 1.056947,-0.871508 -0.426822,0.143003 -0.85364,0.286014 -1.28046,0.42902 -4.32815,-3.093593 -9.434157,-5.08981 -14.7128553,-5.752053 -0.6052994,0.754828 -1.2105988,1.509657 -1.8158983,2.264484 m 71.2783206,8.778685 c -6.1486,0.321463 -12.334048,-0.06729 -18.394016,-1.156062 -1.412383,-0.253755 -3.254351,-0.34333 -3.871497,0.952182 9.372949,2.820762 19.357443,3.590119 29.051887,2.238601 3.824825,-0.533223 7.5971,-1.390412 11.409769,-2.004487 8.849305,-1.425287 17.910125,-1.530041 26.790015,-0.309735 0.37744,-1.172472 -1.23602,-1.91827 -2.45896,-2.065096 -5.9393,-0.713059 -11.95908,-0.753496 -17.90743,-0.120291 -5.336905,0.568121 -10.673811,1.136234 -16.010715,1.704348 -2.865045,0.304984 -5.731753,0.610103 -8.609053,0.760538 M 61.957383,112.87303 c -0.656187,-0.78569 -1.873979,-1.03563 -2.786593,-0.5719 0.678217,0.78313 1.825318,1.12447 2.821357,0.83954 M 186.67712,63.331537 c -0.61659,-0.57127 -1.6607,-0.601583 -2.30939,-0.06705 0.6286,0.557404 1.45856,0.882679 2.2985,0.900829 0.26335,-0.200961 0.2868,-0.645308 0.0461,-0.872869 M 53.36725,92.59883 c 0.757829,-0.483029 0.288277,-1.938242 -0.608952,-1.887234 -0.05757,0.589694 0.122431,1.199208 0.491147,1.66301 M 26.777363,58.150734 c -0.170317,-0.776884 -1.56422,-0.745598 -1.699505,0.03815 0.438102,0.40916 1.179303,0.439746 1.649627,0.06807 m 36.801728,53.003895 c 0.162846,-0.54153 -0.871416,-0.85255 -1.03426,-0.31101 -0.162848,0.54154 0.871414,0.85255 1.03426,0.31101 M 6.7490883,80.017776 c -0.3876842,0.259377 -0.186559,0.999391 0.279082,1.026842 0.2950233,-0.303501 0.4612824,-0.728329 0.4506362,-1.151459 -0.2514311,0.01627 -0.502863,0.03252 -0.7542949,0.04877 M 194.88846,84.229496 c -0.24535,0.210395 -0.15514,0.681507 0.15052,0.786388 0.30572,0.10488 0.66613,-0.211627 0.60161,-0.528337 -0.17427,-0.198192 -0.46805,-0.28188 -0.72059,-0.205277 M 41.405025,80.914136 c 0.149131,0.366795 0.773564,0.378431 0.936251,0.01744 0.04463,-0.397183 -0.618345,-0.317568 -0.918407,-0.05354 z"
     id="path156"
     inkscape:connector-curvature="0"
     style="opacity:1;fill:#ffffff;fill-opacity:1;stroke:none;stroke-width:0.28384498" /><path
     class="selected"
     d="m 83.38489,24.696921 c -0.525858,0.146247 -1.080994,-0.485103 -0.868663,-0.98792 0.491765,0.005 0.926719,0.48041 0.888048,0.970674 z"
     id="path158"
     inkscape:connector-curvature="0"
     style="opacity:1;fill:#000000;stroke:none;stroke-width:0.28384498" /><path
     style="opacity:1;fill:#ff3b30;fill-opacity:1;fill-rule:nonzero;stroke:none;stroke-width:7.68859148;stroke-linecap:round;stroke-linejoin:round;stroke-miterlimit:4;stroke-dasharray:none;stroke-dashoffset:0;stroke-opacity:1"
     d="m 31.06941,128.92875 c -4.77022,-0.35075 -7.892814,-2.17464 -8.485774,-4.9565 -1.226432,-5.7538 3.954833,-20.98214 9.755075,-28.671296 l 3.732216,-4.947653 4.828875,0.872483 c 5.169301,0.933993 9.482656,0.845906 9.386483,-0.191689 C 50.204434,90.151014 26.160657,85.266435 24.09404,85.713047 23.170689,85.91259 20.929647,85.309918 19.113948,84.373774 17.298246,83.437631 14.067427,82.254075 11.934349,81.743648 9.801271,81.233223 7.7538113,80.432572 7.3844385,79.964424 6.8798434,79.324894 6.5713992,79.384599 6.1439701,80.20454 5.7221111,81.013799 5.3958521,80.786433 4.8815578,79.324777 4.5001159,78.240697 3.9192045,77.55639 3.5906449,77.804094 3.2620842,78.051798 2.4347324,76.144745 1.7520833,73.566197 1.0694355,70.987649 0.34435786,68.386843 0.14080153,67.78663 -0.38190632,66.24536 8.6195666,59.052718 15.346966,55.636117 26.68461,49.878141 43.013532,47.075893 53.350207,49.114285 c 3.153283,0.621827 3.590714,0.965516 4.009874,3.150552 0.961946,5.01451 -2.016222,14.743188 -5.740391,18.751939 -1.811828,1.950279 -1.853478,3.073214 -0.0838,2.259173 4.941372,-2.272993 9.268374,-10.140524 8.749038,-15.907855 -0.380489,-4.225005 1.399579,-4.504303 15.235323,-2.390482 6.929308,1.058657 12.732192,1.547507 14.184518,1.194941 1.358251,-0.329729 3.185977,-0.214377 4.085424,0.257837 0.895186,0.469973 5.812178,1.015624 10.926647,1.212559 5.11448,0.196935 12.46352,0.759868 16.3312,1.250961 3.86768,0.491094 10.18769,1.217221 14.04445,1.613616 7.98136,0.820317 8.20843,1.056979 7.26951,7.576956 -1.12081,7.78308 0.28227,6.994279 2.46691,-1.386885 3.14121,-12.050901 6.86445,-15.390556 13.55956,-12.162594 1.38611,0.668305 4.91223,1.758428 7.8358,2.422497 2.92355,0.664068 5.53469,1.498042 5.80251,1.853273 0.2678,0.355232 1.8951,0.888484 3.61622,1.185001 1.7211,0.29652 2.97569,0.848205 2.788,1.225968 -0.91108,1.833607 4.84558,1.649626 6.55265,-0.209422 1.09578,-1.193319 1.35243,-1.084963 3.07292,1.297338 1.87101,2.590719 5.88996,4.468245 8.95618,4.184043 1.10053,-0.102006 1.60489,0.359604 1.72369,1.577582 0.0924,0.946977 0.82773,3.340717 1.63415,5.319416 1.2624,3.097548 1.35074,3.966507 0.6356,6.251305 -1.01317,3.23677 -4.31136,6.184277 -5.36146,4.791398 -0.51241,-0.679677 -0.97708,-0.419902 -1.78659,0.998807 l -1.09406,1.917393 -23.71811,2.198389 c -13.04498,1.209115 -23.70096,2.370534 -23.67998,2.580933 0.0207,0.210427 2.60647,1.186897 5.74551,2.17 10.21109,3.19795 13.7759,7.785906 11.73281,15.100246 -0.53318,1.90873 -1.41914,3.91994 -1.96885,4.46937 -0.76515,0.76478 -4.61085,1.11445 -16.40392,1.4915 -8.47245,0.27091 -15.89912,0.73694 -16.50374,1.03562 -0.6046,0.29868 -3.48274,0.26444 -6.39587,-0.0762 -2.91312,-0.34058 -8.14673,-0.3611 -11.63024,-0.0456 -5.95547,0.53938 -6.39448,0.46742 -7.35215,-1.20539 -1.45694,-2.54487 -0.78127,-5.28848 1.89905,-7.71129 l 2.32496,-2.1016 19.26332,-0.43757 c 25.33874,-0.57558 25.49626,-0.58865 24.0877,-1.99791 -1.28095,-1.28158 -7.63581,-3.906715 -12.30364,-5.082518 -6.14209,-1.547163 -17.49654,-1.753271 -48.42702,-0.879053 -35.081006,0.991528 -42.975486,1.793721 -48.759177,4.954641 -3.980021,2.17517 -8.319838,7.13898 -9.28736,10.62273 -0.680246,2.44936 -0.38115,6.27762 0.525661,6.7282 0.368841,0.18327 2.730316,-0.72942 5.247721,-2.0282 8.414091,-4.34101 24.169734,-7.79316 25.331403,-5.55025 0.356443,0.68821 0.616567,0.68193 1.029203,-0.0249 0.805767,-1.38013 4.719866,-0.77051 5.828642,0.90782 2.099367,3.17776 -4.927861,7.60058 -21.972412,13.82904 -7.386525,2.69921 -9.889454,3.10301 -16.308159,2.63103 z m 31.283972,-16.00314 c -0.09146,-0.98678 -2.355244,-1.6757 -2.990883,-0.91019 -0.25899,0.31191 0.0656,0.84063 0.721321,1.17494 1.568837,0.79987 2.359689,0.70761 2.269562,-0.26475 z M 122.76481,91.383736 c -0.20162,-0.69397 -1.43022,-1.490733 -2.73022,-1.770587 -1.29999,-0.279854 -13.24063,0.227901 -26.534754,1.128345 -17.809435,1.206276 -25.409285,1.434411 -28.875466,0.866792 -10.477954,-1.715862 -12.139242,0.592782 -1.999641,2.778841 6.09655,1.314395 6.744335,1.295722 27.664405,-0.797381 15.486286,-1.549435 22.826866,-1.986277 26.493216,-1.576606 2.78933,0.311679 5.35898,0.581463 5.7103,0.599522 0.35133,0.01806 0.47381,-0.534959 0.27216,-1.228926 z m -68.556181,0.314618 c -0.05854,-0.631601 -0.45095,-1.116434 -0.872018,-1.077406 -0.421068,0.03903 -0.71768,0.587725 -0.659138,1.219326 0.05854,0.631602 0.45095,1.116435 0.872018,1.077407 0.421068,-0.03903 0.71768,-0.587725 0.659138,-1.219327 z M 42.390662,80.825342 c -0.03903,-0.421068 -0.222882,-0.751497 -0.408566,-0.734286 -0.185684,0.01721 -0.518594,0.395537 -0.739801,0.840726 -0.221205,0.445187 -0.03735,0.775616 0.408567,0.734285 0.445918,-0.04133 0.778828,-0.419658 0.7398,-0.840725 z M 186.70233,63.211005 c -0.57846,-0.578736 -1.345,-0.831146 -1.70344,-0.560911 -0.92126,0.694546 0.12899,1.856574 1.55823,1.724101 0.97319,-0.0902 1.00034,-0.307627 0.14521,-1.16319 z M 26.793294,58.334236 c 0.221206,-0.445189 -0.155238,-0.757767 -0.836538,-0.694618 -0.681301,0.06315 -0.993879,0.43959 -0.694618,0.836538 0.299263,0.396947 0.675705,0.709525 0.836538,0.694618 0.160834,-0.01491 0.473412,-0.391349 0.694618,-0.836538 z"
     id="path371"
     inkscape:connector-curvature="0" /></svg>