<?xml version="1.0" encoding="UTF-8" standalone="no"?>
<svg
   xmlns:dc="http://purl.org/dc/elements/1.1/"
   xmlns:cc="http://creativecommons.org/ns#"
   xmlns:rdf="http://www.w3.org/1999/02/22-rdf-syntax-ns#"
   xmlns:svg="http://www.w3.org/2000/svg"
   xmlns="http://www.w3.org/2000/svg"
   xmlns:sodipodi="http://sodipodi.sourceforge.net/DTD/sodipodi-0.dtd"
   xmlns:inkscape="http://www.inkscape.org/namespaces/inkscape"
   version="1.1"
   id="Contours"
   x="0px"
   y="0px"
   width="288.030457px"
   height="288.030457px"
   viewBox="0.000001 0.000000 288.030457 331.288757"
   enable-background="new 0 0 288.030457 288.030457"
   xml:space="preserve"
   stroke="black"
   fill="none"
   stroke-linecap="round"
   stroke-linejoin="round"
   sodipodi:docname="myFace2.svg"
   inkscape:version="0.92.2 5c3e80d, 2017-08-06"
   inkscape:export-filename="/Users/radcli14/Desktop/drubble/game/a/myFace2.png"
   inkscape:export-xdpi="66.659615"
   inkscape:export-ydpi="66.659615"><metadata
     id="metadata61"><rdf:RDF><cc:Work
         rdf:about=""><dc:format>image/svg+xml</dc:format><dc:type
           rdf:resource="http://purl.org/dc/dcmitype/StillImage" /><dc:title /></cc:Work></rdf:RDF></metadata><defs
     id="defs59" /><sodipodi:namedview
     pagecolor="#ffffff"
     bordercolor="#666666"
     borderopacity="1"
     objecttolerance="10"
     gridtolerance="10"
     guidetolerance="10"
     inkscape:pageopacity="0"
     inkscape:pageshadow="2"
     inkscape:window-width="1333"
     inkscape:window-height="783"
     id="namedview57"
     showgrid="false"
     inkscape:snap-others="false"
     inkscape:object-nodes="false"
     inkscape:snap-nodes="false"
     inkscape:zoom="1.4283557"
     inkscape:cx="24.668546"
     inkscape:cy="88.006771"
     inkscape:window-x="0"
     inkscape:window-y="0"
     inkscape:window-maximized="0"
     inkscape:current-layer="Contours" /><path
     style="fill:#ececec;stroke:none;stroke-width:1.15018654px;stroke-linecap:butt;stroke-linejoin:miter;stroke-opacity:1"
     d="m 26.995497,314.833 43.51674,1.40377 16.84519,2.80753 51.939333,8.42259 56.15063,-9.82635 16.8452,-9.82637 37.90168,2.80754 22.46025,-29.47909 -7.01883,-18.24896 -15.44142,-16.84518 25.26778,-71.59206 -49.13181,-123.531401 -37.90168,-29.479083 -67.38075,-4.211298 -70.188293,47.728043 -40.70921,12.63389 -11.2301297,16.84519 8.4226,35.094149 25.2677797,32.28661 -15.44142,42.11299 1.40377,29.47907 14.03765,32.28662 16.84519,18.24895 -5.61506,21.05649 z"
     id="path3754"
     inkscape:connector-curvature="0" /><path
     style="fill:#34c759;stroke:none;stroke-width:1.15018654px;stroke-linecap:butt;stroke-linejoin:miter;stroke-opacity:1;fill-opacity:1"
     d="m 87.864586,312.02546 7.01884,-18.24895 -15.44143,-26.67156 1.40376,-23.86401 -11.23013,-43.51674 16.8452,-61.76571 9.82635,-39.305435 30.882864,-21.05649 8.4226,4.2113 9.82635,19.652725 60.36194,46.32427 14.03765,43.51674 -14.03765,46.32427 -15.44143,36.49791 4.2113,42.11298 -53.3431,9.82636 z"
     id="path3752"
     inkscape:connector-curvature="0" /><path
     style="fill:#917c6f;stroke:none;stroke-width:1.15018654px;stroke-linecap:butt;stroke-linejoin:miter;stroke-opacity:1"
     d="m 90.554409,199.33474 -11.23013,-11.23012 -2.80753,-25.26779 21.05649,-4.21129 49.131791,4.21129 4.2113,22.46025 -23.86402,14.03766 z"
     id="path3756"
     inkscape:connector-curvature="0" /><path
     style="fill:#34c759;stroke:none;stroke-width:1.15018654px;stroke-linecap:butt;stroke-linejoin:miter;stroke-opacity:1;fill-opacity:1"
     d="m 55.577973,200.73852 -11.230126,-33.69038 7.018829,-8.4226 11.230126,21.05649 v 14.03766 z"
     id="path3787"
     inkscape:connector-curvature="0" /><path
     style="fill:#917c6f;stroke:none;stroke-width:1.15018654px;stroke-linecap:butt;stroke-linejoin:miter;stroke-opacity:1"
     d="m 160.86041,186.19369 18.24896,15.44143 32.28661,-4.21129 2.80754,-11.23014 v -19.65271 l -8.4226,-5.61507 -35.09415,2.80753 -12.63389,11.23013 z"
     id="path3789"
     inkscape:connector-curvature="0" /><g
     id="g3785"><path
       id="path2"
       d=" M135.024525 251.147087 C140.131033 251.744227 145.477743 249.278888 148.339465 245.007641 C149.671814 245.372293 149.784532 247.163918 149.944149 248.536016 C150.103766 249.908114 151.466309 251.554513 152.550105 250.698058 C154.706770 248.993783 157.762231 250.655663 160.250109 251.824515 C162.737988 252.993368 166.803209 252.767003 166.978787 250.023843 C170.345538 251.437290 168.727718 257.094618 165.309125 258.377610 C161.890532 259.660601 158.117399 258.398833 154.484712 258.029468 C146.126604 257.179629 136.715697 260.944896 129.805808 256.166441 C128.927435 255.559014 128.074795 254.716101 128.007154 253.650300 C127.916215 252.217361 129.331488 251.075410 130.747078 250.835224 C132.162667 250.595038 133.598421 250.980320 135.024525 251.147084 z"
       stroke="none"
       opacity="1.000000"
       fill="#000000"
       class="selected" /><path
       id="path4"
       d=" M110.682330 304.295884 C105.490087 297.737979 100.297844 291.180074 95.105601 284.622168 C99.515887 282.576141 103.815412 287.345862 106.907902 291.097308 C115.840278 301.933032 129.727231 308.510680 143.769953 308.557268 C157.812676 308.603855 171.742966 302.118492 180.747042 291.342275 C182.116306 289.703518 185.320028 288.313379 185.729562 290.409254 C185.853961 291.045890 185.524873 291.675030 185.195746 292.234008 C178.270113 303.996270 166.013632 312.475917 152.564886 314.809672 C145.139281 316.098234 137.533759 315.593990 130.014339 315.085743 C126.827505 314.870341 123.567125 314.637603 120.640207 313.358751 C116.483412 311.542531 113.498185 307.852365 110.682329 304.295885 z"
       stroke="none"
       opacity="1.000000"
       fill="#000000"
       class="selected" /><path
       id="path6"
       d=" M133.071234 297.363794 C133.679797 296.920267 134.463160 296.814499 135.210550 296.722439 C140.398068 296.083472 145.585585 295.444503 150.773103 294.805535 C156.475854 294.103103 159.346656 284.867742 164.922643 286.254518 C164.093117 291.201689 162.641513 296.374167 158.921044 299.738796 C153.629399 304.524333 145.614653 304.178059 138.507968 303.547263 C136.716265 303.388230 134.802948 303.181048 133.420660 302.030063 C132.038372 300.879079 131.617587 298.423228 133.071233 297.363795 z"
       stroke="none"
       opacity="1.000000"
       fill="#000000"
       class="selected" /><path
       id="path8"
       d=" M136.440712 274.660572 C140.972631 277.074914 145.986537 279.566651 151.014764 278.525367 C155.202485 277.658141 159.052778 274.385930 163.239668 275.257154 C160.407602 282.485548 150.981334 283.915242 143.224137 284.225324 C137.049118 284.472161 133.347131 277.625526 131.158045 271.846279 C132.918935 272.784376 134.679824 273.722474 136.440712 274.660572 z"
       stroke="none"
       opacity="1.000000"
       fill="#000000"
       class="selected" /><path
       id="path10"
       d=" M46.375296 157.350859 C48.568673 155.615566 51.903285 156.094868 54.190676 157.704211 C56.478067 159.313554 57.960554 161.801943 59.374910 164.214771 C60.396508 165.957570 61.418104 167.700368 62.439701 169.443166 C64.474621 172.914649 66.580379 176.960336 65.292988 180.772778 C63.859593 185.017589 65.172627 189.639042 65.228687 194.118985 C65.284746 198.598929 63.092034 203.944700 58.636084 204.411112 C54.673185 194.102104 50.710286 183.793096 46.747387 173.484087 C45.603154 170.507502 44.447739 167.484552 44.150714 164.309476 C43.914070 161.779812 44.382764 158.927254 46.375296 157.350860 M61.619879 197.440908 C61.168292 192.044733 60.716706 186.648558 60.265119 181.252383 C59.990486 177.970692 59.659189 174.523440 57.797817 171.806786 C55.684068 168.721788 51.611459 166.435542 51.757044 162.698705 C49.113131 162.280366 47.631438 166.060644 48.698659 168.515501 C49.765880 170.970358 52.143587 172.576518 53.691456 174.760410 C58.435221 181.453387 54.976174 192.628378 61.619879 197.440908 z"
       stroke="none"
       opacity="1.000000"
       fill="#000000"
       class="selected" /><path
       id="path12"
       d=" M62.228298 303.348286 C59.992015 309.578530 54.153957 314.365830 47.606375 315.338494 C46.207929 315.546239 44.256650 315.128243 44.267027 313.714489 C48.066995 310.888452 51.866960 308.062418 55.666926 305.236384 C57.592748 303.804150 60.066794 302.305220 62.228298 303.348285 z"
       stroke="none"
       opacity="1.000000"
       fill="#000000"
       class="selected" /><path
       id="path14"
       d=" M170.144315 295.740724 C170.568700 289.556556 172.268759 283.462752 175.107035 277.952014 C175.642900 276.911590 176.541100 275.730629 177.687777 275.964652 C178.400575 283.242565 175.523030 290.786385 170.144315 295.740724 z"
       stroke="none"
       opacity="1.000000"
       fill="#000000"
       class="selected" /><path
       id="path16"
       d=" M16.070185 102.572081 C15.149497 104.878905 14.214101 107.261526 14.252079 109.745004 C14.290056 112.228482 15.548391 114.865483 17.863715 115.764584 C18.646549 116.068579 19.530133 116.174102 20.191384 116.691780 C20.852634 117.209457 21.086126 118.397587 20.360464 118.820264 C17.505364 120.090950 13.989000 118.344687 12.406421 115.649937 C10.823843 112.955188 10.777668 109.628203 11.189358 106.530343 C11.363366 105.220976 11.648632 103.843548 12.551992 102.879878 C13.455353 101.916208 15.169903 101.605535 16.070185 102.572081 z"
       stroke="none"
       opacity="1.000000"
       fill="#000000"
       class="selected" /><path
       id="path18"
       d=" M72.826820 130.447532 C74.410179 134.948055 73.934763 140.128456 71.558707 144.265615 C71.130919 145.265206 69.488451 145.391411 68.912974 144.468910 C69.296678 139.557027 69.796746 134.332438 72.826819 130.447532 z"
       stroke="none"
       opacity="1.000000"
       fill="#000000"
       class="selected" /><path
       id="path20"
       d=" M182.531436 230.695842 C181.068605 231.570868 179.117541 230.063458 178.895409 228.373428 C178.673278 226.683398 179.564877 225.068498 180.425180 223.596961 C181.659505 221.485672 182.893827 219.374384 184.128149 217.263096 C186.910298 220.215173 185.488060 224.986876 183.909143 228.723468 C183.591390 229.475452 183.232026 230.276769 182.531437 230.695842 z"
       stroke="none"
       opacity="1.000000"
       fill="#000000"
       class="selected" /><path
       id="path22"
       d=" M106.022191 78.027183 C103.911043 81.865429 101.332881 85.446518 98.362684 88.666302 C95.537114 83.977794 100.617269 77.159565 106.022191 78.027183 z"
       stroke="none"
       opacity="1.000000"
       fill="#000000"
       class="selected" /><path
       id="path24"
       d=" M185.799909 243.482065 C186.202216 240.346388 188.161137 237.449178 190.921241 235.907703 C192.366493 239.956583 190.237521 244.941624 186.313282 246.697348 C185.009203 246.300954 184.793284 244.151129 185.992487 243.503315 z"
       stroke="none"
       opacity="1.000000"
       fill="#000000"
       class="selected" /><path
       id="path26"
       d=" M88.374824 210.073739 C87.790986 209.056385 88.316506 207.574917 89.410934 207.152892 C93.139963 209.231619 94.210481 214.894357 91.497625 218.190898 C89.255005 216.237277 88.206484 213.010037 88.872609 210.111373 z"
       stroke="none"
       opacity="1.000000"
       fill="#000000"
       class="selected" /><path
       id="path28"
       d=" M154.449550 265.013458 C151.781906 265.014006 149.114262 265.014555 146.446618 265.015103 C145.969006 264.236944 145.786044 263.282674 145.941973 262.383046 C148.197421 262.012562 150.490381 261.870834 152.774287 261.960739 C153.797713 262.001021 154.956382 262.161380 155.547568 262.997754 C156.138753 263.834129 155.373620 265.376438 154.422913 264.995415 z"
       stroke="none"
       opacity="1.000000"
       fill="#000000"
       class="selected" /><path
       id="path30"
       d=" M69.964230 298.566684 C71.203510 295.893097 75.909674 298.045329 75.769992 300.988859 C75.645793 303.606138 80.450894 304.208821 80.976921 301.641942 C82.265881 304.033873 80.732510 307.454199 78.089208 308.083252 C75.445906 308.712306 72.536225 306.349339 72.609567 303.633207 C72.663274 301.644208 71.627003 299.659473 69.964232 298.566683 z"
       stroke="none"
       opacity="1.000000"
       fill="#000000"
       class="selected" /><path
       id="path32"
       d=" M119.531639 297.680257 C117.689168 296.281167 115.722457 293.601385 117.401546 292.009903 C118.522993 290.946966 120.518751 291.582736 121.381896 292.864322 C122.245041 294.145908 122.295698 295.789317 122.317048 297.334317 C122.552089 298.711214 120.027960 299.314065 119.615424 297.979562 z"
       stroke="none"
       opacity="1.000000"
       fill="#000000"
       class="selected" /><path
       id="path34"
       d=" M226.312281 173.573099 C226.634987 171.082147 231.137373 171.007916 231.542018 173.486877 C231.163339 176.208500 226.239067 176.247211 225.817645 173.531880 z"
       stroke="none"
       opacity="1.000000"
       fill="#000000"
       class="selected" /><path
       id="path36"
       d=" M179.494940 238.472598 C179.334773 236.773225 180.017179 235.014805 181.281755 233.868345 C181.907868 235.789473 182.525336 237.931016 181.684843 239.768492 C180.844350 241.605969 177.808827 242.343611 176.875023 240.551752 C177.566470 239.872377 178.257918 239.193001 178.949366 238.513625 z"
       stroke="none"
       opacity="1.000000"
       fill="#000000"
       class="selected" /><path
       id="path38"
       d=" M233.073213 202.314463 C232.668204 201.752827 232.263195 201.191192 231.858186 200.629557 C232.620870 199.444580 234.112561 198.775351 235.504769 198.993562 C236.265179 200.300969 234.941191 202.229258 233.447895 201.989244 z"
       stroke="none"
       opacity="1.000000"
       fill="#000000"
       class="selected" /><path
       id="path40"
       d=" M108.007558 242.514911 C107.812931 240.868204 107.882770 238.744531 109.424220 238.133420 C111.306380 239.120797 112.383264 241.439010 111.923750 243.514166 C110.714001 244.482900 108.622130 243.911149 108.073303 242.461762 z"
       stroke="none"
       opacity="1.000000"
       fill="#000000"
       class="selected" /><path
       id="path42"
       d=" M286.525841 166.034568 C286.829206 165.021037 287.132571 164.007507 287.435936 162.993976 C288.227944 164.892467 288.228675 167.107031 287.437922 169.006045 C286.125394 169.519565 285.751600 167.204879 286.360438 165.933757 z"
       stroke="none"
       opacity="1.000000"
       fill="#000000"
       class="selected" /><path
       id="path44"
       d=" M85.229977 257.748405 C82.137523 266.356761 87.209175 275.522531 91.742589 283.467040 C96.276002 291.411548 100.451560 301.381718 95.846905 309.285147 C94.327437 311.893161 97.999581 314.402160 100.921802 315.157900 C130.048844 322.690689 161.151346 322.437729 190.152014 314.432183 C188.804419 312.115484 185.420891 311.288615 183.156688 312.722661 C182.293598 308.774395 182.711117 304.556698 184.331562 300.854282 C183.992113 302.881835 187.373287 303.650306 188.741778 302.116217 C190.110269 300.582128 189.955828 298.272085 189.821898 296.220681 C187.432069 259.615884 216.875254 227.836924 219.808158 191.271634 C221.945991 191.345751 222.533198 194.239696 222.384616 196.373647 C220.986491 216.453104 211.957126 235.060672 204.780508 253.865870 C197.603891 272.671067 192.160910 293.501678 198.109505 312.730654 C198.897810 315.278866 199.833218 318.227016 198.352134 320.445393 C197.398595 321.873607 195.686398 322.561347 194.069151 323.138881 C160.535867 335.113907 122.468957 333.841993 89.809804 319.655306 C86.425129 318.185050 82.561479 319.402517 78.895277 319.822798 C75.229075 320.243080 70.634692 319.164789 69.685052 315.598859 C81.059002 317.996726 92.871251 306.135395 90.426241 294.771485 C88.197262 284.411642 76.801922 276.084841 79.226692 265.769067 C84.732625 242.345011 63.865935 218.493362 69.890630 195.197338 C74.206450 207.634687 78.522269 220.072036 82.838089 232.509385 C88.251082 248.108575 93.664076 263.707766 99.077070 279.306957 C93.649039 272.688044 88.991955 265.437426 85.229977 257.748405 z"
       stroke="none"
       opacity="1.000000"
       fill="#000000"
       class="selected" /><path
       id="path46"
       d=" M149.399762 151.773065 C146.558288 152.396822 143.397307 150.487677 142.626861 147.682422 C145.603867 145.833922 150.174903 148.507002 150.023624 152.007951 z"
       stroke="none"
       opacity="1.000000"
       fill="#000000"
       class="selected" /><path
       id="path48"
       d=" M180.465079 122.081559 C178.964478 121.980032 177.463564 120.206940 178.433072 119.057084 C179.411786 118.902221 180.551007 118.897982 181.228350 119.621216 C181.905694 120.344450 181.398559 121.913533 180.428186 121.712940 z"
       stroke="none"
       opacity="1.000000"
       fill="#000000"
       class="selected" /><path
       id="path50"
       d=" M137.374163 128.117681 C138.906671 128.677765 139.064229 131.402819 137.476828 131.780222 C135.739342 131.359518 135.682056 128.319915 137.402453 127.834040 z"
       stroke="none"
       opacity="1.000000"
       fill="#000000"
       class="selected" /><path
       id="path52"
       d=" M90.260308 161.395269 C88.773042 161.225277 87.117821 160.964110 86.210238 159.773669 C79.539348 151.023708 86.974281 139.048157 90.515506 128.630754 C92.725772 122.128706 93.317626 115.163268 95.532969 108.662949 C100.482559 94.139728 114.012403 82.913275 129.199470 80.728009 C126.682348 79.214867 124.165226 77.701726 121.648104 76.188584 C125.686210 71.854025 132.599035 76.798677 136.248779 81.464946 C141.823916 88.592870 147.399052 95.720793 152.974189 102.848716 C150.797821 103.187275 148.621453 103.525833 146.445084 103.864392 C169.339452 117.666817 190.753255 133.923291 210.201251 152.265440 C208.797474 153.180182 207.393697 154.094924 205.989920 155.009666 C207.140512 157.783559 205.207601 161.067348 202.537951 162.442597 C199.868300 163.817847 196.716294 163.770279 193.716221 163.636457 C186.910407 163.332866 179.915963 162.772579 173.436770 164.877650 C166.957577 166.982720 161.042409 172.560042 160.933021 179.371745 C160.755609 190.419443 174.308190 195.959263 185.329413 196.743937 C196.723456 197.555154 209.946270 195.603494 216.097052 185.977997 C214.817167 192.463879 213.537282 198.949761 212.257397 205.435642 C211.095235 211.324958 208.406346 218.601527 202.407034 218.808684 C201.863980 212.480458 205.000562 205.967778 210.286968 202.447088 C200.584807 201.316773 190.540367 203.341646 182.033911 208.142660 C180.325034 207.060598 178.616157 205.978535 176.907280 204.896472 C174.957997 217.706490 173.883598 230.649562 173.694046 243.605655 C169.821415 243.020851 167.201956 239.080393 166.680972 235.198661 C166.159987 231.316929 167.218842 227.423598 167.991466 223.584025 C169.315534 217.004040 169.813431 210.258251 169.469768 203.555173 C169.353428 201.285944 169.052812 198.821945 167.450894 197.210488 C165.848977 195.599031 162.525437 195.678872 161.779092 197.825009 C161.594050 198.357105 161.590071 198.932611 161.588069 199.495958 C161.532614 215.106231 161.477158 230.716504 161.421703 246.326777 C157.120043 239.504911 148.989949 231.749737 142.371856 236.358748 C139.901727 235.773611 140.336895 231.634013 142.629498 230.544107 C144.922101 229.454202 147.622908 230.410880 149.947012 231.431892 C152.271115 232.452904 154.863047 233.556114 157.259693 232.719446 C157.566141 229.488757 152.822455 229.018868 149.799716 227.838057 C144.192677 225.647714 143.951748 216.120710 149.440907 213.649752 C150.453001 217.806209 151.465095 221.962667 152.477189 226.119125 C155.805820 211.502900 155.674040 196.110470 152.095645 181.553379 C153.846547 180.938483 155.597450 180.323587 157.348352 179.708690 C156.558170 176.455090 151.192754 177.269422 149.587164 180.207513 C147.981573 183.145604 148.518235 186.751213 147.844982 190.031005 C147.171729 193.310796 143.944718 196.727244 140.914779 195.302544 C135.739883 192.869269 132.188448 200.923899 132.346890 206.640128 C132.594573 215.576019 133.699874 224.487939 135.642664 233.213594 C129.504147 236.803853 124.719741 242.650590 122.415143 249.378158 C118.457729 248.788367 120.697918 242.801427 122.933446 239.483085 C129.549062 229.663093 126.554458 216.533173 123.319547 205.143092 C121.008429 206.780513 118.697311 208.417934 116.386194 210.055355 C115.080594 208.117421 114.379780 205.778163 114.404790 203.441594 C104.814358 206.571928 93.900393 205.374667 85.216668 200.239660 C85.375447 202.734413 84.608411 205.277560 83.096711 207.268481 C82.193926 203.280969 81.883484 199.159875 82.178714 195.082117 C93.839974 196.768855 105.737790 196.811748 117.410908 195.209135 C125.359748 194.117833 133.928925 191.803970 138.565681 185.256034 C143.202437 178.708097 140.494199 167.136896 132.522697 166.225770 C118.435233 164.615602 104.347771 163.005435 90.260308 161.395269 M136.985246 117.097575 C135.878328 116.126597 135.110811 114.784744 134.795542 113.346456 C134.687148 112.851951 134.630582 112.347792 134.572105 111.844935 C133.832176 105.482110 132.710810 99.016754 129.622745 93.404545 C128.703444 91.733818 127.524655 90.075670 125.777207 89.312212 C124.029759 88.548754 121.614503 89.054087 120.847728 90.800082 C117.952285 97.393197 112.405888 102.776628 105.729381 105.474219 C100.860614 107.441407 99.763243 115.131479 103.887450 118.381962 C105.028485 119.281265 105.172501 121.187780 104.179509 122.248286 C103.186517 123.308792 101.274660 123.290313 100.302351 122.210812 C103.377500 132.287973 99.703093 144.073074 91.445770 150.616950 C89.947541 151.804287 92.650736 153.624370 94.562176 153.595202 C105.733646 153.424716 116.905115 153.254233 128.076584 153.083751 C131.507679 153.031390 135.026940 152.992964 138.255096 154.156650 C141.944424 155.486578 145.315602 158.374644 149.219259 157.998739 C151.104187 157.817229 152.821568 156.874467 154.644390 156.361419 C157.576152 155.536250 160.817550 155.870132 163.519543 157.275608 C161.962112 153.043181 160.404681 148.810753 158.847249 144.578326 C155.257397 134.822653 150.885284 124.167480 141.549182 119.596113 C139.985789 118.830606 138.293870 118.245487 136.985246 117.097575 M170.034455 135.543277 C175.016574 138.110755 177.102175 143.973325 180.253609 148.608183 C183.405043 153.243042 190.074123 156.982958 194.339376 153.346880 C184.783372 147.441364 178.843898 137.238262 170.739879 129.458981 C165.599774 124.524847 159.541639 120.550211 152.968872 117.799739 C151.433334 118.969903 151.977836 121.378888 152.758677 123.144518 C155.995843 130.464338 160.786578 137.092643 166.721303 142.462749 C169.261540 144.761308 170.289406 148.232736 171.695810 151.356549 C173.102213 154.480361 175.413266 157.683502 178.808406 158.140883 C179.116520 149.957625 170.503243 143.718903 170.034455 135.543277 M150.556925 174.186906 C151.737726 172.328748 152.373467 170.128727 152.365814 167.927141 C154.860671 170.077142 158.569512 167.601485 160.865239 165.240033 C161.235649 164.859018 161.623000 164.446549 161.722820 163.924618 C161.960089 162.684006 160.368839 161.768875 159.137928 162.052201 C157.907018 162.335527 156.979371 163.309279 155.972045 164.071321 C153.569193 165.889084 150.360353 166.597311 147.415600 165.959827 C147.019853 168.992719 148.240507 172.189592 150.556925 174.186906 M94.183708 134.753911 C92.469834 136.414242 92.590812 139.571771 94.426705 141.096096 C96.680206 139.391089 97.692357 136.211479 96.839156 133.517529 C95.907505 132.837008 94.353001 133.445650 94.131083 134.577833 M138.307570 101.460094 C138.188859 102.747582 140.219122 103.362686 141.105025 102.420937 C141.990929 101.479188 141.706521 99.863313 140.842022 98.901878 C139.977523 97.940442 138.706890 97.471428 137.489125 97.036956 C136.549137 98.389309 136.729173 100.405477 137.893896 101.569883 M102.337967 98.980547 C101.858832 100.604732 103.587163 102.421948 105.233316 102.024798 C106.879469 101.627649 107.589059 99.222263 106.422041 97.995227 C105.255023 96.768191 102.817102 97.356362 102.337967 98.980547 M133.595374 82.392778 C132.279329 82.127188 130.864473 83.253802 130.828587 84.595898 C130.792701 85.937995 132.145331 87.138607 133.473688 86.943724 C134.206081 85.770098 134.195610 84.174427 133.447876 83.010509 z"
       stroke="none"
       opacity="1.000000"
       fill="#000000"
       class="selected" /><path
       opacity="1.000000"
       fill="#000000"
       stroke="none"
       id="path54"
       d=" M24.402840 84.971372 C26.106121 82.447826 28.635584 79.923615 31.667277 80.203412 C34.698971 80.483209 36.386187 85.481524 33.529398 86.534237 C33.822754 83.188571 27.746784 84.965602 27.297513 88.293918 C26.848242 91.622235 28.117433 95.726157 25.543856 97.883987 C22.413248 100.508862 25.462053 106.177707 29.508532 106.740451 C33.555010 107.303195 37.314123 104.770812 40.614370 102.362692 C37.148089 95.805961 36.925315 87.629958 40.029410 80.894201 C41.497668 83.555706 42.965926 86.217211 44.434185 88.878716 C49.081622 89.090448 50.765392 81.781045 47.477388 78.489764 C44.189383 75.198483 38.853366 75.266299 34.297442 76.208140 C22.322870 78.683629 10.706919 86.733313 7.607691 98.561805 C4.386963 110.854014 10.883643 123.558394 18.537849 133.701599 C26.192055 143.844804 35.451059 153.348699 39.074540 165.528267 C42.152880 175.875458 39.179267 189.399873 29.054416 193.145262 C33.106100 190.570257 39.020608 193.838531 40.167691 198.500182 C41.314773 203.161834 38.708025 208.100242 34.959095 211.098963 C31.210166 214.097683 26.495375 215.558935 21.902800 216.957169 C20.568718 219.939802 26.010609 220.939998 28.875659 219.369214 C31.740710 217.798431 36.608212 216.649569 37.142500 219.872985 C32.387280 221.893053 27.632060 223.913121 22.876839 225.933188 C26.583557 228.128065 31.014433 229.075647 35.294651 228.588845 C29.409050 230.318624 28.616683 238.371080 29.924695 244.364537 C32.218801 254.876390 37.395747 264.744084 44.741110 272.605865 C48.061999 276.160231 51.882569 279.404570 54.067338 283.750673 C56.252107 288.096775 56.261911 294.061391 52.524168 297.174443 C51.187100 298.288046 49.468134 298.966109 48.400074 300.339828 C47.332014 301.713547 47.470789 304.244780 49.157998 304.670434 C42.423866 309.526977 35.689734 314.383520 28.955601 319.240063 C26.373212 317.333498 27.426085 312.992643 29.895452 310.941801 C32.364819 308.890959 35.674436 308.222948 38.520054 306.737624 C46.755289 302.439090 49.679583 290.411204 44.337106 282.811571 C42.297545 279.910309 39.387443 277.760574 36.848713 275.284290 C32.508730 271.051059 29.251515 265.856378 26.037416 260.715826 C21.469088 253.409355 16.844365 245.978080 14.491245 237.688510 C12.138125 229.398941 12.322504 219.985662 16.972322 212.730779 C16.061154 211.344339 15.149986 209.957900 14.238818 208.571460 C17.136464 201.910530 20.034111 195.249599 22.931758 188.588669 C26.306829 180.830265 29.755539 172.421820 27.954107 164.155093 C26.727960 158.528335 23.201492 153.720964 19.762869 149.101471 C14.889618 142.554680 10.016367 136.007889 5.143116 129.461098 C3.544836 120.547528 1.946556 111.633957 0.348276 102.720386 C-2.260960 88.168736 10.169887 72.800913 24.945518 72.311672 C21.544107 72.501367 19.715397 77.560688 22.209442 79.881317 C25.895062 69.596349 38.412941 66.333504 47.756371 60.670934 C57.747922 54.615579 64.834018 44.887339 73.004391 36.536088 C94.908519 14.147037 126.169294 1.213920 157.488999 1.583361 C159.856217 1.611285 163.128350 2.888207 162.393244 5.138566 C163.593429 3.425711 164.793615 1.712856 165.993802 0.000000 C169.589271 0.917981 172.275431 4.579456 172.071663 8.284663 C175.047066 4.710976 180.830141 3.906855 184.667645 6.533227 C187.922808 12.866814 194.730615 17.217936 201.845651 17.512327 C205.949727 17.682137 212.173042 18.888499 210.914563 22.798551 C208.268056 21.328839 204.667420 21.853703 202.550609 24.017764 C216.127915 27.799020 230.831900 34.435555 235.532428 47.722623 C244.519805 73.127407 255.142857 97.953413 267.313965 121.995878 C269.241905 119.657809 269.572671 116.126343 268.112433 113.470928 C272.772251 113.964167 275.998670 118.624886 276.858915 123.231095 C277.719160 127.837305 276.876666 132.571935 276.896354 137.257744 C276.938890 147.381753 280.999754 157.111934 281.543084 167.221443 C283.073108 195.689884 256.957463 220.878805 260.749012 249.135082 C261.052447 251.396412 261.678665 253.840400 263.526202 255.179167 C265.373738 256.517933 268.683260 255.760591 268.928613 253.492224 C269.168274 251.276477 266.969284 248.123405 269.078039 247.402208 C276.893078 253.871446 279.165205 265.246374 277.318232 275.222073 C275.471260 285.197771 270.188128 294.150565 264.996386 302.866739 C263.135235 305.991338 261.233542 309.166154 258.536488 311.606010 C251.147251 318.290592 239.347917 317.782531 230.505119 313.190213 C224.064977 309.845663 215.469182 304.903901 210.705975 310.378690 C207.772863 305.991571 212.120606 299.799159 217.268861 298.639227 C222.417116 297.479295 227.669805 299.483628 232.770397 300.837855 C237.870989 302.192083 243.896440 302.710169 247.875233 299.243300 C251.854026 295.776432 250.404788 287.320217 245.127686 287.366747 C245.385645 283.500674 249.983877 281.859693 253.400202 280.031638 C256.816528 278.203582 259.409907 272.708835 255.927033 271.010998 C245.071403 265.719080 242.284185 251.180671 244.578738 239.323854 C246.873292 227.467037 252.779624 216.435291 254.123756 204.433525 C256.375511 205.839436 258.627267 207.245347 260.879022 208.651257 C272.731893 176.152461 265.979130 137.564945 243.794161 111.022724 C241.828763 108.671311 239.750316 106.405690 237.990735 103.896545 C235.746924 100.696894 234.055327 97.149900 232.374632 93.621767 C229.169582 86.893689 225.964531 80.165612 222.759480 73.437534 C212.747040 52.419313 200.415841 29.313065 178.177486 22.423208 C172.277452 20.595267 166.056522 20.081784 159.886161 19.801773 C141.015759 18.945436 121.449072 20.331066 104.578499 28.828662 C82.303499 40.048431 67.743209 61.942210 54.208193 82.891247 C49.455266 90.247665 44.619819 97.794153 42.630276 106.323450 C40.730917 114.466127 27.706959 115.174108 22.757155 108.435400 C17.807350 101.696691 19.725150 91.901738 24.402840 84.971372 M37.445816 73.012888 C40.533944 72.665566 43.525083 71.490533 46.023907 69.643090 C44.881797 67.351704 41.798334 66.617925 39.339914 67.332797 C36.881493 68.047670 34.907833 69.841778 33.028910 71.580894 C34.013736 72.886500 35.880721 73.445040 37.420759 72.894789 M30.999853 202.157528 C32.595723 203.270805 34.273954 200.118583 32.914811 198.726133 C31.555669 197.333683 29.290368 197.592969 27.378442 197.954525 C26.812406 198.061565 26.216594 198.182714 25.784888 198.564137 C24.791148 199.442132 25.308594 201.223044 26.428782 201.932671 C27.548971 202.642299 28.970478 202.595876 30.294655 202.525527 M240.379209 95.257033 C239.748488 94.064274 239.117766 92.871515 238.487045 91.678756 C235.979872 95.012719 236.452394 100.220695 239.518664 103.048977 C241.359789 101.013949 241.604654 97.708505 240.083490 95.424401 M265.445109 271.062191 C264.048449 270.291674 262.039283 271.600880 262.159636 273.191437 C262.279988 274.781994 264.429362 275.781385 265.735178 274.865306 C267.040993 273.949226 266.855170 271.613743 265.430312 270.896711 M257.657796 287.048593 C257.769577 286.217648 257.881358 285.386703 257.993138 284.555758 C256.064240 283.391785 253.326113 283.820699 251.845535 285.518750 C253.241418 286.962680 255.492793 287.508408 257.394906 286.863909 M269.452723 280.034392 C268.822233 278.731535 266.447006 279.074086 266.210343 280.502002 C266.542785 282.199540 269.755025 281.697257 269.553399 279.979269 M269.953552 126.525832 C270.452439 125.174200 268.082629 124.793745 266.812048 125.473025 C266.866750 126.878601 269.027675 127.589181 269.905897 126.490381 z"
       class="selected" /></g><path
     style="fill:#34bd59;stroke:none;stroke-width:1.23465586px;stroke-linecap:butt;stroke-linejoin:miter;stroke-opacity:1;fill-opacity:1"
     d="m 93.52191,311.04205 16.48754,11.41995 29.83459,9.51661 31.40484,-5.70998 16.48754,-11.41993 -45.53702,5.70998 z"
     id="path21689"
     inkscape:connector-curvature="0" /></svg>