<?xml version="1.0" encoding="UTF-8" standalone="no"?>
<svg
   xmlns:dc="http://purl.org/dc/elements/1.1/"
   xmlns:cc="http://creativecommons.org/ns#"
   xmlns:rdf="http://www.w3.org/1999/02/22-rdf-syntax-ns#"
   xmlns:svg="http://www.w3.org/2000/svg"
   xmlns="http://www.w3.org/2000/svg"
   xmlns:sodipodi="http://sodipodi.sourceforge.net/DTD/sodipodi-0.dtd"
   xmlns:inkscape="http://www.inkscape.org/namespaces/inkscape"
   version="1.1"
   id="Contours"
   x="0px"
   y="0px"
   width="200"
   height="200"
   viewBox="1e-06 0 200 174.25021"
   enable-background="new 0 0 720.624756 720.624756"
   xml:space="preserve"
   sodipodi:docname="pigy.svg"
   style="fill:none;stroke:#000000;stroke-linecap:round;stroke-linejoin:round"
   inkscape:version="0.92.2 5c3e80d, 2017-08-06"
   inkscape:export-filename="/Users/radcli14/Desktop/drubble/game/a/pigy_face.png"
   inkscape:export-xdpi="96"
   inkscape:export-ydpi="96"><metadata
     id="metadata505"><rdf:RDF><cc:Work
         rdf:about=""><dc:format>image/svg+xml</dc:format><dc:type
           rdf:resource="http://purl.org/dc/dcmitype/StillImage" /><dc:title></dc:title></cc:Work></rdf:RDF></metadata><defs
     id="defs503" /><sodipodi:namedview
     pagecolor="#ffffff"
     bordercolor="#666666"
     borderopacity="1"
     objecttolerance="10"
     gridtolerance="10"
     guidetolerance="10"
     inkscape:pageopacity="0"
     inkscape:pageshadow="2"
     inkscape:window-width="1354"
     inkscape:window-height="799"
     id="namedview501"
     showgrid="false"
     inkscape:zoom="2.86"
     inkscape:cx="116.20994"
     inkscape:cy="99.035782"
     inkscape:window-x="0"
     inkscape:window-y="0"
     inkscape:window-maximized="0"
     inkscape:current-layer="Contours" /><path
     class="selected"
     d="m 74.696673,26.601362 c 2.214634,-0.582745 4.413324,-1.235251 6.648781,-1.726952 1.91066,-0.420259 3.859836,-0.681316 5.800689,-0.95285 0.408509,-0.05715 0.852208,0.167312 1.284848,0.224474 0.386406,0.05106 0.994726,0.385872 0.594211,-0.551005 -0.192471,-0.450226 0.007,-0.923054 0.799561,-0.554639 0.820782,0.381557 1.687425,1.174445 2.642701,-0.05024 0.205247,-0.263118 1.324331,0.246844 2.023745,0.252697 4.090197,0.03422 8.194141,-0.173623 12.267141,0.09046 3.42669,0.222181 6.85042,0.827349 10.21372,1.542342 2.63329,0.559801 5.15821,1.594858 7.75919,2.322846 1.13752,0.31838 2.37793,0.284432 3.51406,0.606064 3.60533,1.020665 6.90559,2.702428 10.09257,4.628255 3.03834,1.835999 6.12552,3.594203 9.18469,5.397274 0.24178,0.142507 0.48061,0.335965 0.63862,0.561211 0.69492,0.990677 1.24742,1.060307 2.02338,0.08381 2.12669,-2.676281 5.08886,-4.363514 7.77024,-6.378214 1.71097,-1.285542 3.47868,-2.506154 5.28641,-3.657001 1.00036,-0.636868 2.14418,-1.053871 3.20794,-1.598851 1.63882,-0.839591 3.20716,-1.841771 4.91027,-2.522708 2.09244,-0.836614 4.28488,-1.43865 6.44836,-2.096984 2.90286,-0.88332 5.82006,-1.721153 8.72924,-2.584611 0.43391,-0.128787 0.92457,-0.877977 1.22696,0.178061 0.0331,0.115508 0.728,0.170902 1.04378,0.05874 0.51984,-0.184632 0.95856,-0.580368 1.47201,-0.793018 0.62465,-0.258715 1.37603,-0.898919 1.6613,0.452039 0.0576,0.273047 0.81492,0.453255 1.27681,0.583734 0.75135,0.212239 1.52052,0.443803 2.29119,0.479359 0.44097,0.02035 1.20657,-0.241186 1.29419,-0.530649 0.28789,-0.951165 0.7693,-0.521583 1.30523,-0.378422 0.59139,0.157985 1.20941,0.219154 1.81494,0.327413 0.5827,0.104182 1.18703,0.179131 0.5361,0.971505 -0.17731,0.21582 -0.31568,0.553066 -0.2946,0.821164 0.25329,3.218578 -1.343,5.84672 -2.69904,8.588364 -2.49448,5.043375 -6.16205,9.321691 -9.26799,13.964724 -0.46267,0.691624 -1.16541,1.224678 -1.68128,1.887826 -0.27667,0.355655 -0.46098,0.81805 -0.55428,1.259264 -0.0566,0.267876 0.14002,0.587272 0.22286,0.883531 -0.43862,-0.0845 -0.88957,-0.132541 -1.31035,-0.269721 -0.19414,-0.0633 -0.39176,-0.464291 -0.48051,-0.431631 -0.43665,0.16064 -0.83731,0.415405 -1.25066,0.636935 0.25945,0.137474 0.53064,0.257553 0.77563,0.4165 0.36846,0.239074 0.71856,0.505367 1.07648,0.760089 -0.39922,0.291868 -0.78173,0.609986 -1.20255,0.867982 -0.396,0.242782 -0.93963,0.326786 -1.23381,0.644805 -2.01462,2.177847 -3.97714,4.401985 -5.96332,6.605243 -2.07763,2.304721 -4.18932,4.580948 -6.2134,6.929913 -0.26871,0.311842 -0.27509,1.037412 -0.11601,1.469837 0.43397,1.179584 0.9878,2.321114 1.55439,3.448597 1.8461,3.673658 2.55325,7.623681 3.05066,11.638572 0.25803,2.082905 0.66899,4.147144 0.96754,6.225807 0.25788,1.795489 0.52931,3.594447 0.65445,5.401219 0.0993,1.434542 -0.0368,2.8834 -0.0257,4.325584 0.0111,1.452671 0.11722,2.905304 0.10508,4.357334 -0.0161,1.92904 -0.0456,3.86174 -0.18571,5.78471 -0.0974,1.33743 -0.37441,2.66378 -0.59949,3.99046 -0.52766,3.11004 -1.3656,6.20466 -1.50557,9.33019 -0.0913,2.038 -1.25829,3.75376 -1.15233,5.804 0.039,0.75418 -0.84745,1.52128 -1.18491,2.3332 -1.1771,2.83213 -2.34385,5.67063 -3.39318,8.54924 -0.1589,0.43591 0.33628,1.09478 0.50977,1.65621 0.0917,0.29667 0.14201,0.60563 0.21102,0.90903 -0.25524,-0.0306 -0.57356,0.0231 -0.75448,-0.10699 -0.67241,-0.48342 -0.65746,-0.0198 -0.63389,0.41596 0.0426,0.78748 -0.13298,1.31944 -0.92026,1.82452 -0.51117,0.32795 -0.57262,1.30707 -0.87584,1.9769 -0.25697,0.56766 -0.5692,1.11149 -0.86706,1.66061 -0.0187,0.0345 -0.1251,0.0233 -0.19071,0.0334 -0.0152,-0.17376 -0.0367,-0.34724 -0.0444,-0.52132 -0.0183,-0.41372 -0.03,-0.82772 -0.0443,-1.24161 -0.2624,0.39229 -0.64424,0.75152 -0.76819,1.18215 -0.93161,3.23601 -2.70899,6.02942 -4.78202,8.63402 -2.58692,3.25028 -5.20801,6.48364 -7.98686,9.57512 -2.72756,3.03442 -5.58697,5.9679 -8.55924,8.77156 -1.29998,1.22626 -3.01458,2.0352 -4.56786,2.99157 -0.23006,0.14167 -0.60919,0.0505 -0.91936,0.067 0.026,-0.37062 -0.0985,-0.91246 0.10336,-1.08315 1.04141,-0.88078 2.19814,-1.62925 3.25518,-2.49378 1.74103,-1.42394 3.4426,-2.89469 5.1401,-4.36868 0.14412,-0.12515 0.18088,-0.42278 0.18023,-0.64003 -6.9e-4,-0.22592 -0.10736,-0.45155 -0.16768,-0.67731 0.28312,-0.009 0.65314,-0.13653 0.83433,-0.008 0.79093,0.56168 0.89392,-0.21425 1.13983,-0.55529 0.62292,-0.86376 1.09809,-1.83894 1.77779,-2.6527 1.94632,-2.33023 3.96583,-4.60163 5.95423,-6.8981 0.57514,-0.66425 1.15415,-1.32612 1.69953,-2.01339 0.0756,-0.0953 -0.0327,-0.33108 -0.0559,-0.50182 -0.13285,0.088 -0.28916,0.15488 -0.39501,0.26737 -1.30822,1.39028 -2.56432,2.83078 -3.92129,4.17333 -2.74027,2.71112 -5.41586,5.50265 -8.33941,8.01315 -2.93985,2.52447 -6.09335,4.8223 -9.25724,7.07917 -2.44505,1.74409 -5.25746,2.80627 -8.14038,3.71179 -1.9874,0.62425 -3.85663,1.61816 -5.85205,2.20811 -2.42921,0.71818 -4.9209,1.25823 -7.41281,1.73967 -2.15975,0.41724 -4.35736,0.64634 -6.53894,0.95379 -0.13528,0.0191 -0.32504,0.0531 -0.40812,-0.0152 -1.65707,-1.36111 -3.36875,-0.027 -5.04577,-0.12846 -0.25346,-0.0154 -0.49104,-0.28324 -0.73596,-0.43431 0.43516,-0.37858 0.87399,-1.08604 1.30487,-1.08142 2.45928,0.0264 4.92703,0.41944 7.37129,0.29579 1.81886,-0.092 3.58604,-0.92737 5.41235,-1.16833 3.44909,-0.45504 6.65936,-1.65649 9.89634,-2.77907 1.40565,-0.48752 2.70431,-1.26853 4.10503,-1.77354 4.66589,-1.68218 8.55339,-4.50878 12.19052,-7.74353 2.45992,-2.1878 5.12131,-4.17566 7.43354,-6.50072 2.87054,-2.88648 5.50582,-6.00189 8.17472,-9.07526 0.92485,-1.065 1.75062,-2.24596 2.41434,-3.4811 0.30507,-0.56767 0.43024,-1.66469 0.0863,-2.05533 -1.42163,-1.61466 -3.04861,-3.05624 -4.61087,-4.55064 -0.90304,-0.86384 -1.79338,-1.74562 -2.75552,-2.54261 -0.44581,-0.36928 -1.02514,-0.70656 -1.58644,-0.79301 -1.16695,-0.17974 -1.95061,0.62745 -1.50801,1.66595 0.31645,0.74252 0.0679,0.52388 -0.42144,0.74904 -1.09437,0.5036 -2.0468,0.87643 -3.33183,0.4685 -1.38659,-0.44017 -2.66279,0.2441 -3.81104,1.04772 -0.23388,0.16369 -0.51429,0.26342 -0.77325,0.39264 0.13591,-0.27976 0.2622,-0.56457 0.41106,-0.83756 0.10161,-0.18636 0.32387,-0.34904 0.33938,-0.53461 0.10825,-1.29418 1.04001,-1.48883 2.07416,-1.50779 0.83329,-0.0153 1.7473,0.2483 2.12674,-0.85861 0.0327,-0.0954 0.30143,-0.11303 0.46053,-0.16678 -0.0169,0.18641 0.0141,0.39402 -0.0601,0.55501 -0.18242,0.39579 -1.2346,0.66626 -0.35034,1.19277 0.78701,0.46864 1.07513,-0.2477 1.38261,-0.88988 0.20905,-0.43659 0.6904,-0.77631 1.10907,-1.08134 0.68655,-0.50023 0.86121,-1.44998 0.21916,-1.84921 -1.92712,-1.1983 -3.83009,-2.45272 -5.84781,-3.48775 -2.96605,-1.52153 -6.09988,-2.62297 -9.33259,-3.55124 -1.53563,-0.44096 -2.51858,-0.55639 -3.41753,0.73373 -0.5582,0.80112 -0.88878,1.81754 -1.59221,2.44589 -1.61064,1.43881 -3.27778,2.87344 -5.12413,3.9875 -2.33175,1.40695 -4.77957,2.71991 -7.33869,3.64313 -1.88942,0.68163 -4.03563,0.68464 -6.07011,0.97169 -1.8673,0.26346 -3.73968,0.49264 -5.6057,0.76419 -0.23945,0.0348 -0.56787,0.17819 -0.66274,0.36516 -1.0375,2.04459 -3.12173,0.60221 -4.551622,1.32156 -0.07438,0.0374 -0.290143,-0.19553 -0.440079,-0.3026 0.136673,-0.1652 0.252352,-0.44908 0.413404,-0.4765 1.122357,-0.19101 2.262157,-0.28932 3.378157,-0.50709 0.34932,-0.0682 0.64267,-0.41228 0.96165,-0.63008 -0.30515,-0.23514 -0.60387,-0.65963 -0.91668,-0.66985 -0.93049,-0.0304 -1.87843,0.22997 -2.798253,0.14768 -3.209657,-0.28712 -6.405244,-0.72961 -9.616285,-0.99594 -1.975929,-0.16389 -3.988941,0.0358 -5.951605,-0.1988 -2.520603,-0.30132 -5.055528,-0.7061 -7.495811,-1.37623 -2.670066,-0.7332 -5.291813,-1.70323 -7.829425,-2.80342 -1.21012,-0.52467 -2.101249,-1.71736 -3.270253,-2.38167 -2.064353,-1.17316 -3.667399,-2.78831 -4.993641,-4.66382 -0.931363,-1.31708 -1.653005,-2.77709 -2.464159,-4.17558 -1.162871,-2.00488 -1.182846,-2.09063 -3.400433,-1.54789 -3.078041,0.75332 -6.256506,1.33865 -9.143472,2.56064 -3.881661,1.64301 -7.55489,3.78459 -10.696255,6.65283 -1.617221,1.47659 -3.217342,2.97203 -4.79447,4.48967 -0.780143,0.75071 -0.719782,1.55266 -0.07421,2.41663 1.378647,1.84495 2.602132,3.80986 4.076345,5.5753 1.427485,1.70949 3.087139,3.23284 4.649931,4.83314 0.507387,0.51955 1.017912,1.03734 1.549342,1.53291 1.798982,1.67763 3.563189,3.39481 5.424861,5.00318 2.165057,1.87047 4.390056,3.67737 6.641468,5.44775 2.780569,2.18647 5.551418,4.39392 8.444369,6.43124 2.845032,2.00359 5.777458,3.90491 8.787911,5.659 1.823368,1.06243 3.86676,1.76225 5.813367,2.62047 1.674041,0.73805 3.313598,1.57343 5.038341,2.17192 1.424846,0.49443 2.958334,0.6809 4.431182,1.05165 0.82925,0.20874 1.617293,0.59481 2.453011,0.75332 0.813406,0.15425 1.663322,0.14066 2.498301,0.16473 2.186299,0.063 4.37302,0.13274 6.55991,0.14516 0.933436,0.005 1.867226,-0.16569 2.801752,-0.17562 0.418499,-0.004 0.898961,0.1024 1.238321,0.32467 0.23434,0.1535 0.44254,0.65339 0.35372,0.88428 -0.0838,0.21797 -0.564105,0.37858 -0.88237,0.40188 -0.657623,0.0481 -1.411696,-0.21088 -1.963097,0.0242 -0.654893,0.27922 -0.969337,0.2752 -1.274511,-0.33596 -0.06112,-0.12243 -0.284042,-0.30382 -0.321051,-0.28139 -1.451176,0.87964 -2.844337,-0.026 -4.262812,-0.0826 -0.612756,-0.0245 -1.264118,0.50023 -1.856254,0.43126 -1.830726,-0.21323 -3.672877,-0.47475 -5.452459,-0.93417 -2.630611,-0.67915 -5.2846,-1.36909 -7.793298,-2.37811 -2.720109,-1.09405 -5.295184,-2.54004 -7.913213,-3.87095 -1.218089,-0.61923 -2.425226,-1.27378 -3.572013,-2.01016 -2.106163,-1.35246 -4.158469,-2.78541 -6.249797,-4.16057 -0.228722,-0.15039 -0.566842,-0.13859 -0.85257,-0.2085 -0.190778,-0.0467 -0.424777,-0.0519 -0.560768,-0.16588 -1.589741,-1.33286 -3.154887,-2.69395 -4.746343,-4.02479 -1.276724,-1.06769 -2.599604,-2.0829 -3.860083,-3.16821 -0.349973,-0.30135 -0.550089,-0.76991 -0.819856,-1.16114 -0.17188,-0.24927 -0.293275,-0.56718 -0.526541,-0.73494 -1.680879,-1.20882 -3.857854,-2.0725 -4.954422,-3.65926 -1.215042,-1.75822 -3.183408,-2.43785 -4.383607,-4.02386 -0.178521,-0.2359 -0.245838,-0.57802 -0.463146,-0.75384 -0.252248,-0.20408 -0.613196,-0.27895 -0.926968,-0.40991 0.05375,0.24762 0.02514,0.56804 0.174804,0.73088 0.886119,0.96409 1.796341,1.9085 2.731407,2.82729 1.281537,1.25922 2.543633,2.54462 3.909132,3.71182 0.821042,0.70183 1.352489,1.67407 2.481974,2.1356 0.608334,0.24856 0.972107,1.18058 1.337886,1.86034 0.327892,0.60931 0.476668,1.15503 1.457667,0.88475 0.286405,-0.0789 0.83612,0.82604 1.291056,1.25354 0.499049,0.46895 1.052417,0.88352 1.538772,1.36399 0.946518,0.93506 1.871773,1.89139 2.784412,2.85838 0.195035,0.20665 0.234772,0.60782 0.455042,0.72932 1.41036,0.77788 2.907841,1.41703 4.260128,2.27792 0.778779,0.49577 1.243947,1.46564 2.022953,1.96078 0.855408,0.54368 1.881885,0.96681 2.883917,1.11369 1.135616,0.16643 1.897042,0.71388 2.781165,1.34825 1.297159,0.93075 2.82817,1.55849 4.288213,2.25773 1.76428,0.84496 3.48439,1.95026 5.356839,2.36677 2.939966,0.654 5.140394,2.67773 7.912377,3.62351 0.884296,0.30171 1.387324,1.70706 2.022182,2.63547 0.05854,0.0856 -0.204191,0.54695 -0.299217,0.54117 -0.453456,-0.0276 -1.001359,-0.0284 -1.328197,-0.27647 -0.619626,-0.47021 -1.004858,-1.32599 -1.672986,-1.63217 -4.949486,-2.26821 -9.969694,-4.38853 -14.909502,-6.67616 -1.39536,-0.64622 -2.619464,-1.66427 -3.880823,-2.56724 -0.898313,-0.64309 -1.736937,-0.69334 -2.653549,-0.0743 -0.61152,0.41298 -2.14363,0.0763 -2.53339,-0.53253 -0.02669,-0.0417 0.07935,-0.23779 0.144802,-0.24963 0.177891,-0.0322 0.381738,0.0425 0.549188,-0.008 0.529841,-0.1604 1.047732,-0.35872 1.570253,-0.54238 -0.380405,-0.36145 -0.72106,-0.77782 -1.148025,-1.07488 -1.913877,-1.3315 -3.934392,-2.52921 -5.756154,-3.97011 -1.481057,-1.17143 -2.733704,-2.62049 -4.08918,-3.94491 -0.6416,-0.62689 -1.286033,-1.25097 -1.930534,-1.87499 -0.89817,-0.86963 -1.779814,-1.75672 -2.702217,-2.60092 -0.710382,-0.65014 -1.386113,-1.55656 -2.23464,-1.78389 -0.974925,-0.26117 -1.368476,-0.82253 -1.907497,-1.48161 -0.533841,-0.65277 -1.292655,-1.1284 -1.951713,-1.68294 -0.136229,-0.11462 -0.282534,-0.22207 -0.39917,-0.35409 -1.741269,-1.97096 -3.480958,-3.94336 -5.187891,-5.94262 -0.02259,-0.0265 0.356672,-0.44136 0.596551,-0.60844 0.238056,-0.16581 0.537096,-0.24744 0.809399,-0.36597 -0.254576,-0.33431 -0.455712,-0.87012 -0.777194,-0.95213 -0.405231,-0.10337 -0.967512,0.0728 -1.34583,0.30815 -0.199108,0.12383 -0.168674,0.6283 -0.208378,0.96469 -0.02997,0.25388 0.09089,0.67965 -0.02301,0.74416 -0.739893,0.41898 -1.507759,0.98486 -2.302881,1.04582 -0.511742,0.0393 -1.085604,-0.70097 -1.631624,-1.09182 0.224965,-0.16785 0.456953,-0.48677 0.673669,-0.47707 0.882763,0.0395 1.027767,-0.66245 1.448453,-1.15195 0.53448,-0.62193 0.725954,-1.27978 0.09286,-1.62806 -1.903013,-1.0469 -2.732607,-2.92892 -3.838364,-4.5819 -0.555634,-0.83059 -0.891164,-1.80971 -1.275514,-2.74177 -0.41594,-1.00865 -0.838492,-2.02306 -1.131149,-3.06913 -0.180027,-0.64348 -0.116978,-1.35139 -0.173878,-2.02949 -0.02078,-0.24766 -0.01816,-0.51723 -0.119511,-0.73506 -0.604027,-1.29822 -1.325968,-2.55097 -1.834211,-3.88288 -0.613819,-1.60862 -1.105599,-3.26764 -1.551315,-4.93034 -0.286852,-1.07008 -0.391059,-2.18685 -0.586957,-3.281 -0.06716,-0.37512 -0.03411,-0.89847 -0.27002,-1.09091 -1.026883,-0.83764 -0.685565,-1.92694 -0.753605,-2.96876 -0.08736,-1.33763 -0.372749,-2.66525 -0.41963,-4.00234 -0.05498,-1.56812 0.09004,-3.14196 0.08176,-4.71298 -0.0067,-1.27858 -0.09727,-2.55751 -0.175961,-3.83479 -0.15019,-2.43771 -0.697177,-4.842211 0.124843,-7.313811 0.440712,-1.325098 0.275528,-2.837014 0.446511,-4.257362 0.178315,-1.481242 0.451449,-2.951286 0.646627,-4.430874 0.151654,-1.149671 0.126247,-2.3345 0.395789,-3.453591 0.414555,-1.721173 1.027552,-3.395666 1.531003,-5.097191 0.3131,-1.058191 0.514596,-2.151676 0.880753,-3.190484 0.684348,-1.941505 1.463196,-3.850755 2.181416,-5.781054 0.525872,-1.413344 -0.0663,-2.466873 -1.499688,-3.054869 C 22.152265,66.140805 20.089062,65.130295 18.49097,63.396938 18.219815,63.102836 17.715313,63.028817 17.385622,62.770771 16.68389,62.221537 16.018529,61.626482 15.352598,61.034688 14.691516,60.447202 13.971241,59.902338 13.410946,59.231162 11.611412,57.075509 9.6967102,55.042836 8.1510799,52.641402 7.0064827,50.863047 6.0883068,49.003692 5.2475093,47.136548 4.3388764,45.11877 3.9753604,42.865623 3.3632703,40.718103 3.2138042,40.193704 2.9012483,39.686632 2.8751913,39.161501 2.8217736,38.084955 1.383394,36.903463 3.1608816,35.88258 c 0.2944535,-0.169113 0.073508,-1.201423 0.09074,-1.834828 -0.188543,-0.0033 -0.4419495,-0.08612 -0.5553524,0.0028 -0.8916808,0.699142 -0.8463531,0.0043 -0.8086503,-0.535477 0.098604,-1.41177 0.306749,-2.818429 0.3529157,-4.230841 0.045449,-1.390469 -0.13351,-2.788941 -0.070781,-4.177678 0.080933,-1.791691 0.1058364,-3.623453 0.5247408,-5.351721 0.3813235,-1.573227 1.6229384,-2.219699 3.4252638,-1.790749 4.1743678,0.99349 8.3782538,1.928998 12.2911358,3.776953 4.11594,1.943856 8.336738,3.688367 12.367283,5.786838 2.589628,1.348274 4.983516,3.09296 7.342835,4.820622 1.78708,1.308626 3.464747,2.78964 5.035711,4.34492 1.39055,1.376664 2.557418,2.969431 3.846408,4.447191 0.220235,0.252495 0.534346,0.500238 0.848762,0.576116 0.247976,0.05985 0.563092,-0.147891 0.848391,-0.236781 -0.108919,-0.194843 -0.181123,-0.424725 -0.333388,-0.578203 -0.533733,-0.538004 -0.55496,-0.684127 0.320373,-0.819231 0.631111,-0.09741 1.21068,-0.644495 1.768337,-1.050352 3.576947,-2.603282 6.978077,-5.464931 11.223537,-7.05776 0.796861,-0.298971 1.457966,-0.940366 2.251264,-1.255193 2.215295,-0.879176 4.211911,-2.243917 6.661315,-2.634309 1.052242,-0.167708 2.000017,-0.929492 3.016111,-1.375662 0.27795,-0.122048 0.631447,-0.07861 1.017904,-0.04154 0.262533,0.210113 0.457436,0.350653 0.652338,0.491193 0.08191,-0.120861 0.16382,-0.24172 0.245731,-0.362582 -0.275711,-0.06498 -0.551422,-0.129961 -0.827132,-0.194941 m -52.553491,5.977108 c -0.252747,-0.352872 -0.49429,-0.714241 -0.763013,-1.054992 -0.132241,-0.16769 -0.314773,-0.297226 -0.474549,-0.444028 0.0496,0.220264 0.16389,0.449741 0.132992,0.658546 -0.04198,0.283647 -0.14987,0.586309 -0.326224,0.806192 -0.0575,0.07169 -0.479193,-0.02323 -0.629399,-0.156068 -0.935457,-0.827308 -1.855256,-1.673196 -2.744437,-2.547939 -0.172498,-0.169697 -0.321615,-0.670728 -0.254215,-0.720034 0.938498,-0.686524 0.150346,-1.110719 -0.27541,-1.440552 -1.093034,-0.846766 -2.245372,-1.621853 -3.399308,-2.388979 -0.177917,-0.118277 -0.489587,-0.04302 -0.739402,-0.05727 0.124453,0.24705 0.205328,0.530246 0.381429,0.73445 0.554023,0.642438 1.180144,1.226985 1.711906,1.885552 0.987096,1.222478 1.889918,2.511845 2.905453,3.71008 0.398959,0.470734 2.217562,2.80926 2.773258,3.637719 0.352416,0.525396 0.923808,0.957189 1.489497,1.270088 0.185043,0.102352 0.645264,-0.386238 1.008733,-0.453642 0.465702,-0.08636 1.000448,-0.133966 1.432492,0.01095 0.467294,0.156743 0.85054,0.554542 1.267137,0.983105 -0.138514,0.306604 -0.277032,0.613203 -0.41555,0.919807 -0.18616,-0.176256 -0.349785,-0.387465 -0.563944,-0.520294 -0.295733,-0.183425 -0.62957,-0.307755 -0.947085,-0.457398 -0.04069,0.431231 -0.213137,0.904674 -0.08728,1.282537 0.143388,0.430477 0.563929,0.768072 0.844841,1.159275 1.291112,1.798019 2.561661,3.610477 3.872934,5.394177 0.295958,0.402593 0.662903,1.006612 1.253398,0.228203 0.07378,-0.09724 0.305684,-0.0791 0.464322,-0.114423 -0.03566,0.185953 -0.05882,0.37523 -0.10903,0.557325 -0.314285,1.139703 0.06322,2.091011 0.847069,2.145268 0.412669,0.02856 0.822882,0.09129 1.234205,0.13859 -0.438409,0.133373 -0.877178,0.265599 -1.314979,0.400846 -0.12206,0.03771 -0.292992,0.04845 -0.353673,0.132536 -0.552648,0.765746 -0.924059,0.227591 -1.255205,-0.185524 -1.044386,-1.302907 -2.051331,-2.634628 -3.091239,-3.941048 -2.083866,-2.617922 -3.460347,-5.806576 -6.448984,-7.699589 -0.124904,-0.07912 -0.175982,-0.29268 -0.229101,-0.453862 -0.113844,-0.345436 -0.109425,-0.773861 -0.322869,-1.035188 -2.128662,-2.606177 -4.232365,-5.236032 -6.467238,-7.7532 -1.369773,-1.542794 -2.9172991,-2.942011 -4.4577524,-4.327922 -1.0306532,-0.92725 -2.2023135,-1.70221 -3.2825049,-2.578939 -0.3363075,-0.272959 -0.5798098,-0.655905 -0.865797,-0.9885 -0.1213924,0.405071 -0.3543842,0.812188 -0.3467129,1.214894 0.067991,3.569086 0.088876,7.142715 0.3083503,10.70405 0.1454224,2.359756 0.5668442,4.705486 0.9250974,7.048615 0.087193,0.570272 0.4120132,1.105598 0.6275711,1.656992 -0.440169,-0.45492 -0.8623002,-0.928961 -1.3305937,-1.354097 -0.1575946,-0.143061 -0.4325042,-0.16183 -0.6537943,-0.237405 0.025846,0.245996 -0.044082,0.578983 0.092894,0.724037 0.9775969,1.035257 0.8015382,2.401729 1.1257773,3.618973 0.1371659,0.514933 0.1183833,1.090641 0.8286443,0.399649 0.096288,-0.09367 0.3085444,-0.07269 0.4671023,-0.10479 0.027687,0.16902 0.09961,0.344172 0.076264,0.506113 -0.2487168,1.725239 0.5072486,2.351889 2.1892447,1.81991 0.1607122,-0.05083 0.3625269,0.02333 0.5452593,0.03949 -0.13283,0.122708 -0.2469592,0.278222 -0.4014527,0.362923 -1.2217077,0.669788 -1.3465708,1.30644 -0.5125346,2.569043 0.9906689,1.499713 2.1262628,2.932905 2.9132208,4.530368 1.111531,2.256324 2.742789,4.068825 4.465444,5.843166 0.599825,0.617818 1.202867,1.232649 1.799773,1.853167 0.455371,0.473394 1.637436,0.388484 1.241107,1.539731 -0.0088,0.0256 0.287045,0.143004 0.432756,0.230455 0.698223,0.419053 1.394722,0.840905 2.089821,1.264935 0.695707,0.424396 1.391088,0.849376 2.082942,1.27977 1.130193,0.703066 2.265194,1.399278 3.378901,2.126755 0.20716,0.13532 0.323648,0.404174 0.481979,0.611399 0.169384,-0.246921 0.419188,-0.472227 0.495204,-0.744248 0.524332,-1.876354 1.50614,-3.492603 2.737527,-5.0019 0.300824,-0.368718 0.596224,-1.16137 0.409127,-1.415096 -0.574645,-0.779303 -0.07623,-0.700936 0.448141,-0.844802 0.995951,-0.273249 2.831564,-2.58694 2.605331,-3.37562 C 33.156295,55.097454 32.753425,54.019479 32.228364,53.020976 31.710481,52.036128 30.976401,51.16226 30.371989,50.218259 30.242426,50.0159 30.26242,49.72144 30.213517,49.469411 c 0.255791,5.19e-4 0.617506,-0.106561 0.750145,0.01919 0.846252,0.801381 1.832494,1.545934 2.40564,2.51746 0.695323,1.178638 1.022462,2.565154 1.52311,3.856434 0.07637,0.19698 0.229317,0.365407 0.346849,0.547039 0.376807,-0.513423 0.760255,-1.022414 1.123204,-1.545092 0.05389,-0.0776 0.03418,-0.312897 0.0097,-0.318694 -1.340776,-0.318928 -1.5359,-1.665513 -1.867671,-2.52744 C 33.111917,48.400511 31.37087,44.98602 29.183592,41.785048 28.046351,40.120438 26.826188,38.51039 25.646734,36.739854 25.368882,36.268283 25.163668,35.731913 24.798546,35.338188 23.95346,34.426895 23.030975,33.584637 22.143182,32.578484 m 150.948958,64.17919 c -0.29052,-3.255691 -0.51007,-6.519356 -0.88961,-9.765027 -0.46941,-4.014138 -1.08319,-7.996172 -2.43371,-11.85854 -1.19612,-3.420849 -2.24855,-6.880552 -4.22617,-9.975318 -0.41502,-0.649435 -0.78536,-1.329919 -1.24234,-1.949202 -0.98789,-1.338847 -1.75994,-3.138236 -3.10888,-3.821778 -1.20368,-0.609942 -1.96147,-0.756442 -1.60416,-2.230643 0.0636,-0.262458 -0.51108,-0.673725 -0.791,-1.016276 -0.0877,0.25825 -0.17545,0.516503 -0.26319,0.774753 -0.1782,-0.06747 -0.41329,-0.08578 -0.52528,-0.210444 -0.68025,-0.757306 -1.32363,-1.546335 -1.99758,-2.309267 -0.3625,-0.410376 -0.82724,-0.749051 -1.1175,-1.199613 -0.15767,-0.244754 -0.0465,-0.656115 -0.0566,-0.992329 0.25082,0.122276 0.50837,0.233146 0.75014,0.370728 0.16882,0.09608 0.31601,0.228726 0.47286,0.345039 -0.043,-0.187759 -0.0285,-0.42006 -0.13813,-0.55632 -0.99459,-1.23653 -1.93791,-2.52441 -3.04159,-3.661554 -1.07715,-1.109833 -2.31128,-2.075907 -3.5009,-3.077236 -1.3076,-1.100665 -2.59483,-2.233785 -3.98029,-3.2337 -1.31817,-0.951354 -2.83532,-1.646278 -4.11,-2.644348 -1.18438,-0.927361 -2.00675,-2.138063 -3.63261,-2.691801 -1.74565,-0.594537 -3.20991,-1.953699 -4.86004,-2.869938 -0.39925,-0.221686 -1.17089,-0.205025 -1.55488,0.03502 -0.9054,0.566037 -1.73717,1.277449 -2.49765,2.028489 -2.30681,2.278156 -4.43655,4.745229 -6.87499,6.874649 -3.23415,2.824289 -5.40441,6.419101 -7.8444,9.806768 -2.72817,3.787738 -4.71253,7.987994 -6.16632,12.417095 -1.57773,4.806763 -3.24844,9.590771 -3.94767,14.621416 -0.39795,2.862981 -0.74652,5.734228 -1.03124,8.609948 -0.13076,1.320758 0.39518,2.207919 1.86793,2.682241 1.9778,0.636985 3.92042,1.463894 5.75119,2.438597 4.60506,2.451734 8.7611,5.503379 12.02276,9.577817 1.07177,1.33885 1.97605,2.82127 2.82627,4.3098 0.40802,0.71434 0.43706,1.62668 0.76714,2.39591 1.10995,2.58659 2.30206,5.1392 3.41692,7.72382 1.04852,2.43083 1.98754,4.86338 1.63563,7.63344 -0.0709,0.55864 0.83255,1.55968 1.50353,1.82053 1.55603,0.60495 3.35076,0.65574 4.85855,1.33641 3.87865,1.75087 7.88713,3.38064 11.40911,5.69498 4.02861,2.64723 7.59602,5.97175 11.34501,9.02424 0.79856,0.65021 1.32491,0.60094 1.70837,-0.24265 0.71242,-1.56722 1.4697,-3.11481 2.18599,-4.68039 1.32768,-2.90185 2.82914,-5.74515 3.90377,-8.73537 1.05961,-2.94846 1.75948,-6.03089 2.47152,-9.08718 0.73061,-3.13605 1.34656,-6.30138 1.8941,-9.47359 0.35299,-2.04499 0.49191,-4.12548 0.7276,-6.18998 0.11616,-1.01751 0.53491,-2.11341 0.28457,-3.03474 -0.43229,-1.59091 -0.83788,-3.112858 -0.36623,-5.014453 M 75.786333,72.995869 c -0.325775,-1.806651 -0.530959,-3.643933 -0.998522,-5.414566 -1.860396,-7.045177 -4.152459,-13.95168 -7.830698,-20.312836 -1.7331,-2.997229 -3.816053,-5.802855 -6.617299,-7.960951 -1.614035,-1.243459 -1.468057,-1.190704 -3.319186,-0.0397 -1.537115,0.955761 -3.093348,1.885205 -4.678514,2.761213 -0.425818,0.235318 -1.271016,0.08826 -0.426971,0.878485 0.03753,0.03513 -0.167371,0.470086 -0.336295,0.540018 -0.667293,0.276254 -1.527617,0.303481 -2.025716,0.741193 -3.379667,2.969923 -6.692425,6.013409 -10.007828,9.053027 -0.553386,0.507348 -1.250418,1.034495 -1.471883,1.68624 -0.567654,1.670537 -1.708152,2.762151 -3.13257,3.687115 -0.284391,0.184673 -0.509352,0.49654 -0.687868,0.792592 -1.24593,2.066227 -2.59223,4.085627 -3.674509,6.232469 -1.32251,2.623357 -2.58407,5.299446 -3.572971,8.055921 -1.453395,4.051225 -2.687196,8.180789 -3.922543,12.303494 -0.538804,1.798151 -1.119783,3.649625 -1.207977,5.498612 -0.186605,3.912007 -0.106965,7.838948 -0.04817,11.758485 0.03632,2.42154 0.190249,4.84406 0.375558,7.25992 0.148914,1.94135 0.379802,3.87958 0.660122,5.8072 0.170207,1.17043 0.507932,2.3171 0.762498,3.47612 0.336801,1.53335 0.612692,3.08176 1.011224,4.59934 0.54501,2.07534 1.170496,4.13069 1.78119,6.18899 0.406421,1.36982 0.852999,2.72813 1.27006,4.09499 0.187346,0.61402 0.513853,1.08356 1.034241,0.34935 0.811835,-1.14541 1.643836,-2.17727 2.879661,-2.97754 2.902139,-1.87928 5.656753,-3.97615 8.531183,-5.89852 4.040926,-2.70249 8.672543,-3.97437 13.338262,-5.16169 0.865879,-0.22035 1.669527,-0.45103 1.849858,-1.77696 0.419742,-3.08632 1.882674,-5.82214 3.598363,-8.44628 1.151258,-1.76087 2.446661,-3.59085 2.925816,-5.56539 0.402397,-1.65822 1.313819,-2.69411 2.333151,-3.81608 0.336911,-0.37083 0.763598,-0.66421 1.093269,-1.0402 3.081611,-3.514583 6.605688,-6.473775 10.926973,-8.443495 2.244387,-1.02303 2.729971,-2.157484 2.134798,-4.606369 -0.431631,-1.775981 -0.791058,-3.57284 -1.088161,-5.37538 -0.481854,-2.923431 -0.886209,-5.859141 -1.458546,-8.928816 m 24.948047,11.734124 c 0.0959,-0.14212 0.25235,-0.274262 0.27865,-0.427844 0.44567,-2.602378 0.67412,-5.259181 1.35399,-7.800123 1.10119,-4.115621 2.45807,-8.167568 3.77808,-12.224153 1.36417,-4.192342 3.48139,-8.011276 5.84918,-11.753363 1.73489,-2.741854 3.78329,-5.233692 5.75225,-7.775012 1.80164,-2.325372 4.1626,-4.225362 6.15686,-6.417982 2.30562,-2.534929 5.18468,-4.304184 8.03357,-6.128404 0.14618,-0.09361 0.45313,-0.01847 0.65515,0.05627 1.31912,0.488031 2.62747,1.004106 3.94676,1.491695 0.15714,0.05807 0.35916,-7.6e-4 0.54038,-0.0054 -0.0851,-0.162236 -0.12698,-0.403657 -0.26199,-0.47458 -1.50778,-0.792159 -3.01076,-1.597842 -4.55629,-2.314205 -0.77859,-0.360874 -0.75862,-0.27397 -0.86908,0.515555 -0.0396,0.283465 -0.4323,0.735217 -0.66644,0.736784 -0.74201,0.005 -1.5293,-0.04661 -2.22008,-0.291063 -2.45122,-0.867437 -4.8576,-1.856086 -7.30298,-2.740196 -5.58865,-2.020533 -11.41888,-2.755221 -17.32701,-2.969925 -4.793729,-0.174209 -9.560916,-0.07629 -14.293949,0.973437 -3.146126,0.697767 -6.392229,0.94941 -9.573494,1.510329 -4.083963,0.720082 -7.753957,2.617994 -11.529427,4.174512 -2.367828,0.976185 -4.584603,2.306976 -6.860077,3.495397 -0.937137,0.489445 -0.789778,0.912657 0.02508,1.794004 1.872665,2.025469 3.607557,4.173066 5.418133,6.254556 0.271857,0.312517 0.620635,0.709811 0.984652,0.769433 1.347905,0.22078 2.576072,-0.04475 3.519451,-1.150488 0.228681,-0.268032 0.626893,-0.396926 0.947146,-0.589803 -0.069,0.489181 0.04358,1.163834 -0.241513,1.432304 -0.81147,0.764192 -1.608101,1.692356 -2.978192,1.477052 -0.25512,-0.04009 -0.554307,0.1897 -0.83316,0.294939 0.202421,0.164981 0.418508,0.316509 0.604261,0.497909 0.326236,0.318595 0.76648,0.603023 0.927107,0.993508 0.830213,2.018279 1.643439,4.046822 2.356699,6.10705 1.250533,3.612141 2.655175,7.194931 3.569689,10.891296 1.07413,4.341553 1.702626,8.789653 2.507987,13.194435 0.346112,1.893011 0.634301,3.79619 0.979471,5.68938 0.305325,1.674645 0.645677,3.343302 0.985237,5.011736 0.187282,0.920226 0.829881,0.910157 1.59152,0.760812 2.043102,-0.400587 4.091627,-1.058326 6.142503,-1.074779 3.679982,-0.02954 7.413781,-0.256021 11.006942,0.981258 0.85279,0.29365 1.615284,0.08803 1.533004,-1.162668 -0.077,-1.171074 0.0347,-2.354105 0.0699,-3.803672 m 16.7489,23.916385 c -0.38673,-0.28101 -0.73869,-0.63513 -1.16605,-0.83072 -2.16497,-0.99076 -4.34058,-1.96043 -6.52915,-2.90008 -4.23187,-1.81693 -8.63038,-3.25481 -13.234579,-3.48323 -4.062914,-0.20158 -8.160563,-0.73857 -12.250804,0.15532 -3.893898,0.85099 -7.852264,1.41474 -11.757704,2.2195 -2.93571,0.60493 -5.631534,1.733 -7.789629,3.91951 -2.366089,2.39723 -3.999347,5.26974 -5.494379,8.19387 -0.965734,1.8889 -0.848769,4.00311 -0.307145,6.08753 0.978825,3.76698 3.051991,6.65177 6.382886,8.85 2.921054,1.92778 5.83352,3.73524 9.304176,4.53098 2.954571,0.6774 5.880394,1.48875 8.8542,2.06618 1.354311,0.26297 2.793727,0.10251 4.194432,0.13806 1.382575,0.0351 2.976828,-0.3338 4.091414,0.22142 1.261281,0.6283 2.441942,0.72513 3.716015,0.76918 2.323171,0.0803 4.649147,0.0879 6.971517,0.18277 1.1167,0.0457 2.23694,0.36918 3.3395,0.30426 1.79225,-0.10553 3.58921,-0.33816 5.35118,-0.68051 1.9786,-0.38441 4.05722,-0.6689 5.84566,-1.50463 2.53134,-1.18286 4.83672,-2.83083 7.23878,-4.27985 2.78122,-1.67778 4.01422,-4.18536 4.05483,-7.31919 0.003,-0.23963 -0.15804,-0.4773 -0.21253,-0.72236 -0.18432,-0.82873 -0.29127,-1.6795 -0.54322,-2.48721 -0.66242,-2.12358 -0.88555,-4.61379 -2.19801,-6.25432 -2.14678,-2.68343 -5.0184,-4.80908 -7.86139,-7.17649 M 185.39832,29.7358 c -0.69684,0.436959 -1.3406,1.017362 -2.09922,1.287236 -4.39989,1.56521 -7.64595,4.967876 -11.76439,7.020802 -2.22788,1.110536 -4.08091,3.008723 -5.96368,4.70075 -1.52363,1.369255 -2.76195,3.04249 -4.27478,4.425193 -0.94189,0.860906 -0.88673,1.628727 -0.33553,2.542737 0.18318,0.303746 0.4984,0.5309 0.75325,0.793071 -0.27158,0.0044 -0.54812,-0.01576 -0.81042,0.03486 -0.0504,0.0097 -0.10763,0.322989 -0.0534,0.452712 0.16198,0.38781 0.31891,0.800875 0.58324,1.120107 0.87391,1.055437 1.61816,2.655942 2.73474,2.980799 2.07725,0.604363 1.63307,2.165924 2.08855,3.420838 0.10026,0.27626 0.1404,0.782717 0.27429,0.805219 1.15053,0.19336 1.08875,1.102862 1.35729,1.895194 0.22485,0.663397 0.75921,0.967124 1.29669,0.149723 0.30427,-0.46277 0.54672,-0.982842 0.92476,-1.377928 3.50039,-3.658161 7.09263,-7.23425 10.51745,-10.958637 2.3081,-2.509957 4.47611,-5.156582 6.54736,-7.859595 1.97903,-2.58268 3.79041,-5.29247 5.60289,-7.993243 1.41972,-2.115487 2.74209,-4.294591 4.07108,-6.466982 0.187,-0.305692 0.16549,-0.734093 0.24048,-1.105702 -0.39319,0.0092 -0.78985,-0.01005 -1.17862,0.03551 -0.38379,0.045 -0.75769,0.165502 -1.13922,0.23573 -3.34109,0.614987 -6.3106,2.113025 -9.37278,3.861604 M 68.665064,103.56058 c 1.186507,-0.47082 2.337195,-1.08478 3.567432,-1.38081 2.145039,-0.51616 4.332242,-0.87702 6.514157,-1.22923 3.146445,-0.5079 6.291553,-1.19824 9.460206,-1.350287 3.174364,-0.152335 6.378758,0.233171 9.566652,0.433907 3.200079,0.20152 6.322279,0.77509 9.258199,2.11237 2.09128,0.95258 4.72318,0.62202 6.39505,2.58682 0.0587,0.069 0.29473,-0.0324 0.40011,0.0273 2.34187,1.32498 4.75773,2.54565 6.9835,4.03857 1.36849,0.91792 2.43654,2.26358 3.65974,3.39615 0.19543,0.18094 0.49736,0.25123 0.75005,0.37268 -0.0441,-0.27831 -0.005,-0.60869 -0.14566,-0.82655 -0.98268,-1.51728 -1.96578,-3.03679 -3.02066,-4.50593 -1.21795,-1.69625 -2.45556,-3.3848 -3.79102,-4.99165 -0.73083,-0.87933 -1.71397,-1.55198 -2.52589,-2.372486 -1.76173,-1.780376 -3.88454,-2.999347 -6.12621,-4.103769 -1.49573,-0.736908 -2.86105,-1.732865 -4.26719,-2.639071 -1.44942,-0.934118 -3.6738,-0.115949 -4.69558,-2.007162 -0.0106,-0.01958 -0.0885,1.04e-4 -0.13393,-0.0062 -2.324787,-0.325608 -4.640332,-0.782984 -6.97685,-0.939727 -2.120348,-0.142242 -4.264311,0.09936 -6.396466,0.07098 -3.715312,-0.04945 -7.056279,1.439564 -10.25338,2.868099 -3.728837,1.666143 -6.863462,4.381472 -9.462939,7.592676 -0.649032,0.80177 -1.611266,1.3621 -2.246509,2.17156 -0.892077,1.13673 -1.624323,2.39585 -2.390227,3.62346 -0.07841,0.12569 0.07985,0.39341 0.128297,0.59522 0.123768,-0.034 0.281676,-0.0317 0.365881,-0.10784 0.639027,-0.57768 1.41483,-1.07829 1.85995,-1.77897 0.823335,-1.29603 1.929014,-1.70927 3.523287,-1.65009 M 165.54876,59.186802 c -0.31681,-0.418784 -0.63293,-0.83808 -0.95057,-1.256255 -0.97008,-1.277177 -2.09926,-2.469717 -2.86459,-3.855583 -0.70178,-1.27083 -2.079,-2.343981 -1.6683,-4.085611 0.0272,-0.115424 -0.25663,-0.319447 -0.41879,-0.456017 -0.32909,-0.277153 -0.66372,-0.550276 -1.01537,-0.798765 -0.3142,-0.222042 -0.63747,-0.444775 -0.98712,-0.602429 -0.50362,-0.227065 -1.07769,-0.327844 -1.54036,-0.610537 -0.36509,-0.223068 -0.60751,-0.6392 -0.90442,-0.969586 0.46643,-0.209562 0.91671,-0.483301 1.40608,-0.601527 0.24356,-0.05884 0.55579,0.237051 0.84216,0.248669 0.45431,0.01841 1.08922,0.10672 1.33992,-0.137933 1.20754,-1.178454 2.26579,-2.503381 3.46496,-3.690913 1.42539,-1.411533 2.89715,-2.785042 4.42883,-4.084284 1.51982,-1.289176 3.36608,-2.277425 4.63885,-3.754361 0.92337,-1.071526 1.94921,-1.351266 3.1101,-1.858918 2.3148,-1.012234 4.41704,-2.481829 6.6631,-3.659813 1.10864,-0.581449 1.43555,-1.073799 0.50791,-2.111036 -0.63214,-0.706803 -0.11507,-1.757954 0.85048,-1.84228 0.73146,-0.06388 1.48885,-0.05546 2.21033,0.06323 0.4402,0.07241 0.83429,0.414647 1.24908,0.635693 -0.4747,0.04951 -0.9484,0.116796 -1.42442,0.142801 -0.36779,0.02009 -0.74767,-0.06477 -1.10539,-0.0056 -0.37285,0.06174 -0.99003,0.187054 -1.03022,0.379175 -0.076,0.36332 0.0806,0.884162 0.33717,1.169695 0.21666,0.241161 0.79734,0.434993 1.06906,0.31839 1.92009,-0.823976 3.76623,-1.820047 5.70617,-2.591386 1.93624,-0.769871 3.94942,-1.356678 5.94291,-1.980624 0.22769,-0.07127 0.54568,0.134963 0.8218,0.212533 -0.2046,0.196071 -0.39258,0.413854 -0.61936,0.580996 -0.16666,0.122849 -0.39636,0.16031 -0.57551,0.270869 -0.17846,0.110158 -0.32888,0.264004 -0.4916,0.398694 0.21178,0.04776 0.4345,0.162796 0.63343,0.131632 0.85585,-0.134089 1.70983,-0.29075 2.55076,-0.493896 0.12979,-0.03136 0.29892,-0.373024 0.26224,-0.528638 -0.39142,-1.660431 -1.50182,-2.262746 -3.22797,-1.985331 -1.91022,0.306991 -3.84491,0.466095 -5.76753,0.700808 -2.00601,0.244896 -4.04906,0.339963 -6.00789,0.787159 -5.17952,1.182464 -10.21224,2.826669 -14.94162,5.256278 -1.71826,0.8827 -3.45353,1.761877 -5.05923,2.820373 -2.45369,1.617478 -4.8796,3.295636 -7.1669,5.128573 -1.50236,1.203939 -2.76027,2.707527 -4.07828,4.121194 -0.25633,0.274933 -0.54378,0.65934 0.20138,1.031673 1.34036,0.669724 2.56324,1.566874 3.8281,2.379666 0.29634,0.190425 0.56426,0.423364 0.84524,0.636751 -0.38796,0.146729 -0.77085,0.308445 -1.1652,0.436205 -0.44715,0.144874 -1.1941,0.140832 -1.30755,0.407457 -0.49992,1.174965 -1.09682,0.981417 -1.89115,0.354908 -0.11509,-0.09077 -0.41806,0.04754 -0.63407,0.07985 0.13764,0.157925 0.28654,0.307783 0.41116,0.475047 0.99233,1.331999 3.12275,1.369623 3.70605,3.215417 0.23488,0.743228 0.75524,1.406319 1.18467,2.082037 0.51008,0.802594 2.17978,2.061261 3.23044,2.502829 0.0781,0.03281 0.13935,0.120018 0.19164,0.193439 1.22835,1.724723 2.50652,3.41813 3.66655,5.186072 1.21753,1.855601 2.31238,3.78836 3.48683,5.671808 0.14061,0.225503 0.44388,0.353436 0.67175,0.526597 0.14501,-0.303208 0.49608,-0.767907 0.40183,-0.883596 -0.64544,-0.792196 0.0688,-1.099087 0.47239,-1.530982 0.13712,-0.146739 0.25268,-0.312875 0.37809,-0.470151 -0.17362,-0.02892 -0.34615,-0.06966 -0.52101,-0.08485 -1.40949,-0.122406 -3.1475,-2.000949 -3.34704,-3.615664 M 43.584091,45.998275 c 0.62152,-0.492618 1.236356,-0.993693 1.867672,-1.473928 0.274405,-0.208736 0.614211,-0.341254 0.866035,-0.570081 0.217122,-0.197289 0.351576,-0.48209 0.522583,-0.728198 -0.259993,-0.144451 -0.522988,-0.283972 -0.779411,-0.434279 -0.775202,-0.454409 -1.6851,-0.781459 -2.295894,-1.394497 -1.8736,-1.880491 -3.599619,-3.901431 -5.442841,-5.812247 -2.892906,-2.998995 -6.541337,-5.018762 -10.137681,-7.009594 -3.258566,-1.803842 -6.781317,-3.154626 -10.212684,-4.64976 -1.83253,-0.79848 -3.707157,-1.508939 -5.58871,-2.190253 -0.389933,-0.141193 -0.894502,0.02214 -1.346238,0.04512 0.263809,0.340909 0.458631,0.7886 0.804018,1.00323 1.158293,0.71979 2.42513,1.278757 3.549519,2.042227 1.905279,1.293706 3.849919,2.568853 5.571288,4.078537 4.240077,3.71866 7.282863,8.400395 10.349801,13.02678 1.256545,1.895464 2.254125,3.977251 3.181122,6.055122 0.773756,1.734371 1.899899,3.440968 1.375825,5.515594 -0.0085,0.03355 0.370748,0.239004 0.421189,0.19629 0.280921,-0.237893 0.608367,-0.487757 0.751754,-0.80633 0.807894,-1.794984 2.097367,-3.142409 3.709809,-4.286128 0.988365,-0.701057 1.79998,-1.641824 2.832844,-2.607601 M 63.733069,32.735851 c -1.413147,0.701585 -2.760282,1.63351 -4.256296,2.045888 -1.830068,0.504456 -2.886154,1.940394 -4.363864,2.842155 -0.248549,0.151675 -0.417632,0.428619 -0.623432,0.647682 0.400674,0.04107 0.806329,0.135107 1.199793,0.0995 0.180067,-0.01629 0.314956,-0.321423 0.506822,-0.437577 0.734585,-0.444699 1.482294,-0.868733 2.228243,-1.295198 1.453145,-0.830781 2.912069,-1.651886 4.361536,-2.488782 1.006249,-0.580991 1.97829,-1.222971 3.007684,-1.760151 0.787099,-0.410749 1.649202,-0.681163 2.457588,-1.056197 0.212303,-0.09849 0.348969,-0.353817 0.520363,-0.537121 -0.123104,-0.08752 -0.293413,-0.2779 -0.362378,-0.247453 -1.518158,0.670118 -3.025108,1.364693 -4.676059,2.187258 m 84.799301,7.831504 c -0.21989,-0.133337 -0.42963,-0.288075 -0.66233,-0.394455 -0.27475,-0.125608 -0.73356,-0.373307 -0.82715,-0.283135 -0.41722,0.402034 -0.73253,0.9058 -1.08466,1.372811 0.37195,0.210152 0.72129,0.505191 1.12186,0.607779 0.44549,0.114088 1.12252,-0.303243 1.13676,0.593331 1.4385,-0.116339 1.73267,1.307747 2.65377,1.882403 0.31634,0.197369 0.71554,0.282952 1.08907,0.368323 0.14804,0.03384 0.3292,-0.0717 0.49527,-0.113781 -0.0939,-0.188807 -0.14432,-0.421585 -0.28889,-0.55915 -0.80513,-0.766015 -1.65577,-1.487656 -2.42996,-2.281609 -0.12292,-0.126058 0.0165,-0.559873 0.11944,-0.819041 0.10684,-0.269148 0.31654,-0.499015 0.48127,-0.746058 -0.31423,0.04026 -0.63351,0.05899 -0.94091,0.128375 -0.20427,0.0461 -0.39153,0.164603 -0.86354,0.244207 m 22.49236,32.889455 c 0.46905,1.615532 0.95305,3.227091 1.40172,4.848055 0.28162,1.01738 0.54928,2.04164 0.74928,3.076538 0.14237,0.736688 0.15394,1.497171 0.24647,2.244343 0.0105,0.08478 0.16722,0.15215 0.25615,0.2276 0.0969,-0.113106 0.27935,-0.22868 0.27604,-0.338901 -0.0161,-0.535961 -0.0158,-1.085891 -0.14118,-1.602939 -0.63968,-2.638665 -1.28729,-5.276222 -1.99372,-7.898223 -0.3045,-1.130179 -0.74958,-2.224704 -1.15561,-3.32663 -0.0409,-0.110931 -0.25421,-0.160736 -0.38752,-0.238903 0.0292,0.126364 0.0605,0.252313 0.0873,0.379152 0.17581,0.830149 0.35065,1.660489 0.66106,2.629908 m -29.8824,-36.869811 c -0.008,0.864171 0.42246,1.537903 1.21801,1.755871 0.49162,0.134699 1.10036,-0.141802 1.65652,-0.233701 -0.10016,-0.274808 -0.1166,-0.688459 -0.31356,-0.802678 -1.72662,-1.001258 -3.48283,-1.953686 -5.24106,-2.90134 -0.10536,-0.05678 -0.30299,0.0511 -0.45768,0.08235 0.0326,0.121704 0.0254,0.310274 0.10369,0.354945 0.95902,0.547374 1.93054,1.073663 3.03408,1.744549 m 4.91567,3.106579 c 0.12571,-0.02901 0.25144,-0.05803 0.37715,-0.08704 -0.52067,-0.524147 -1.0006,-1.403617 -1.57412,-1.466874 -0.51548,-0.05685 -1.13372,0.78255 -1.70662,1.226608 0.63468,0.19196 1.26154,0.419791 1.9085,0.555479 0.21255,0.04457 0.47716,-0.149638 0.99509,-0.22817 M 6.7727686,20.388591 c 0.7762705,0.427086 1.5257526,0.919693 2.3449215,1.241857 0.2500161,0.09832 0.69168,-0.272098 1.0455759,-0.427849 C 10.044302,20.954927 9.9838549,20.554239 9.7965267,20.48533 8.8434889,20.134744 7.8731302,19.793129 6.8782376,19.599958 6.1005038,19.448947 6.2443813,19.858194 6.7727686,20.388591 m 166.8676114,65.2316 c 0.16571,0.787361 0.32351,1.576455 0.50309,2.360763 0.041,0.179224 0.15727,0.341886 0.2389,0.512168 0.10282,-0.152896 0.30563,-0.31482 0.29228,-0.457244 -0.0884,-0.94189 -0.18817,-1.885949 -0.36369,-2.814847 -0.0536,-0.283304 -0.35697,-0.521181 -0.54594,-0.77986 -0.0393,0.302403 -0.0787,0.604812 -0.12464,1.17902 M 87.326091,26.081046 c 0.143781,-0.211081 0.287562,-0.422164 0.431343,-0.633247 -0.242973,-0.0632 -0.510372,-0.2235 -0.724425,-0.171722 -0.692334,0.167472 -1.365062,0.412867 -2.045346,0.628241 0.641108,0.05567 1.282214,0.111516 1.923372,0.166637 0.04573,0.0039 0.09194,0.0024 0.415059,0.01 m -34.70181,13.057839 c -0.346315,0.263855 -0.721163,0.500047 -1.026818,0.80333 -0.151163,0.149984 -0.1748,0.423592 -0.256132,0.641274 0.215346,-0.0174 0.49266,0.04257 0.634437,-0.06668 0.427037,-0.329039 0.810543,-0.715047 1.192724,-1.09647 0.229709,-0.229263 0.425294,-0.491412 0.636213,-0.738776 -0.346183,0.108219 -0.692363,0.21644 -1.180424,0.457318 M 161.22235,145.84035 c 0.0845,0.45221 0.16904,0.90442 0.25356,1.35663 0.32829,-0.39551 0.68761,-0.77145 0.96721,-1.1977 0.0916,-0.13964 -0.0237,-0.40989 -0.0444,-0.62042 -0.34483,0.10961 -0.68968,0.21922 -1.17638,0.46149 m 8.74189,-108.578997 c 0.70088,-0.314485 1.40303,-0.626368 2.09807,-0.952788 0.0284,-0.01334 0.007,-0.231775 -0.02,-0.238438 -0.15052,-0.03663 -0.34962,-0.102695 -0.46017,-0.03887 -0.59606,0.344167 -1.17096,0.723646 -1.61788,1.2301 m 5.256,57.506322 c 0.91923,-0.645572 0.11527,-1.297392 -0.009,-1.941613 -0.009,-0.04868 -0.23312,-0.05744 -0.35724,-0.08477 0.0298,0.673302 0.0597,1.346593 0.36666,2.02638 M 173.0462,35.973665 c 0.33301,-0.390271 0.666,-0.780543 0.999,-1.170813 -0.36362,0.20825 -0.7288,0.41394 -1.09022,0.625821 -0.18483,0.108344 -0.36293,0.227755 -0.54407,0.342169 0.11939,0.06545 0.23877,0.130895 0.63529,0.202823 m -42.99347,91.731895 c 0.19127,-0.17472 0.38254,-0.34943 0.5738,-0.52415 -0.27704,-0.18778 -0.55406,-0.37557 -0.8311,-0.56335 -0.007,0.36034 -0.0132,0.72068 0.2573,1.0875 m 33.89209,14.52704 c -0.002,0.0888 -0.004,0.17761 -0.006,0.2664 0.35056,-0.23749 0.7454,-0.43418 1.03067,-0.73186 0.12032,-0.12554 0.01,-0.46407 0.004,-0.7058 -0.24643,0.23285 -0.50195,0.4574 -0.73431,0.70304 -0.0803,0.0849 -0.10291,0.2222 -0.29376,0.46822 m 11.25903,-41.07428 c -0.1552,-0.032 -0.3104,-0.0639 -0.46562,-0.0959 -0.0317,0.4898 -0.0714,0.97948 -0.0791,1.46963 -6.3e-4,0.0374 0.22491,0.0782 0.34532,0.11736 0.11156,-0.45065 0.22312,-0.90131 0.19943,-1.4911 M 73.802473,29.163954 c 0.09306,-0.182882 0.186107,-0.365764 0.279157,-0.548647 -0.346661,0.06586 -0.702246,0.104831 -1.035462,0.211193 -0.128004,0.04086 -0.205063,0.235303 -0.305329,0.359766 0.306588,0.03678 0.613171,0.07356 1.061634,-0.02231 m 95.013577,9.702279 c 0.0332,-0.151606 0.0663,-0.303213 0.0995,-0.454823 -0.3523,0.184395 -0.71132,0.35832 -1.0486,0.566156 -0.0431,0.02658 0.0268,0.229704 0.0444,0.351039 0.25427,-0.109902 0.50855,-0.219806 0.9047,-0.462372 M 81.493079,26.488354 c -0.0289,0.06313 -0.06773,0.124381 -0.08082,0.190525 -0.004,0.02041 0.06893,0.0833 0.09506,0.07741 0.375567,-0.08473 0.750141,-0.174446 1.121103,-0.276417 0.02618,-0.0072 0.02227,-0.119766 0.03233,-0.183338 -0.341931,0.01972 -0.683873,0.03944 -1.167677,0.191823 m 88.515705,43.137149 c -0.18501,-0.181165 -0.37004,-0.362323 -0.55505,-0.543488 0.0433,0.3075 0.0866,0.614997 0.1299,0.922494 0.18681,-0.07995 0.3736,-0.159907 0.42515,-0.379006 M 95.963541,24.379346 c -0.141299,0.10904 -0.282597,0.218077 -0.423895,0.327114 0.181095,0.0732 0.362194,0.146397 0.543289,0.219598 0.05257,-0.180076 0.105157,-0.36015 -0.119394,-0.546712 m 79.028879,74.054443 c -0.0579,-0.12296 -0.11576,-0.245919 -0.17364,-0.368877 -0.12908,0.20923 -0.25816,0.418471 -0.38724,0.627711 0.18476,0.0043 0.3695,0.0086 0.56088,-0.258834 M 18.491147,28.821471 c 0.0957,0.274199 0.186169,0.550592 0.301984,0.816359 0.006,0.01382 0.228058,-0.06289 0.349528,-0.09745 -0.172083,-0.193254 -0.344167,-0.386504 -0.651512,-0.718905 z"
     id="path2"
     inkscape:connector-curvature="0"
     style="opacity:1;fill:#000000;stroke:none;stroke-width:0.27453408" /><path
     class="selected"
     d="m 108.49727,184.51659 c -2.34742,0.0131 -4.6268,-0.13681 -6.89973,-0.0714 -3.631438,0.10449 -7.260155,0.32906 -10.885629,0.56715 -0.469526,0.0309 -0.88986,0.52082 -1.374236,0.66081 -0.622213,0.17981 -1.284929,0.23138 -1.934251,0.30281 -0.05597,0.006 -0.230807,-0.34682 -0.201321,-0.37331 0.661083,-0.59388 1.254541,-1.36092 2.038644,-1.70244 1.941738,-0.84572 4.097399,-0.33236 6.066912,-0.5984 2.497627,-0.33735 4.953321,-0.53522 7.448451,-0.46854 1.14687,0.0306 2.29691,0.36166 3.43198,0.30333 1.58294,-0.0813 3.16582,-0.33594 4.72596,-0.63185 2.3714,-0.44976 4.75304,-0.89488 7.0747,-1.53576 2.12993,-0.58796 4.21855,-1.35574 6.26602,-2.18522 2.09143,-0.84728 4.06016,-2.00213 6.18053,-2.7582 1.25415,-0.44718 2.66975,-0.91596 4.05128,0.1398 0.41035,0.31359 1.31343,-0.0196 1.98969,-0.006 0.58528,0.0118 1.16909,0.0948 1.75354,0.14638 -0.0355,0.14351 -0.0343,0.31079 -0.11232,0.42683 -0.74727,1.1117 -1.84672,1.21349 -2.99017,0.84638 -2.3159,-0.74357 -4.38171,-0.14717 -6.40361,0.94803 -3.42677,1.8562 -7.05964,3.22065 -10.86668,4.08298 -3.07664,0.69683 -6.19113,1.23292 -9.35976,1.90666 z"
     id="path4"
     inkscape:connector-curvature="0"
     style="opacity:1;fill:#000000;stroke:none;stroke-width:0.27453408" /><path
     class="selected"
     d="m 84.912765,153.77725 c -2.060213,-0.33164 -4.169117,-0.57625 -6.155776,-1.19711 -0.972571,-0.30393 -1.684098,-1.35326 -2.574274,-1.98296 -1.227966,-0.86865 -2.547643,-1.61465 -3.755032,-2.5081 -0.421526,-0.31193 -0.63513,-0.90014 -0.928023,-1.37153 -0.27848,-0.44822 -0.448841,-1.00027 -0.822303,-1.34415 -0.714608,-0.65801 -2.235899,-0.53921 -1.962629,-2.15521 0.04541,-0.26851 -0.631304,-0.61592 -0.892951,-0.98271 -0.328172,-0.46004 -1.296088,-0.70204 -0.643371,-1.57959 0.02354,-0.0316 -0.348235,-0.43877 -0.592981,-0.55323 -0.956756,-0.44743 -1.549027,-1.02183 -1.578367,-2.19576 -0.01807,-0.72349 -0.530467,-1.4185 0.06664,-2.15805 0.06004,-0.0744 -0.302337,-0.63317 -0.57383,-0.77964 -0.857968,-0.46286 -1.730885,-0.97907 -2.665519,-1.20014 -0.759862,-0.17972 -0.773343,-0.39885 -0.56219,-0.99341 0.05805,-0.16344 -0.160883,-0.49131 -0.338132,-0.6545 -1.765802,-1.62585 -3.456726,-3.29259 -3.744522,-5.82626 -0.02413,-0.21241 0.04842,-0.43538 0.07606,-0.65344 0.19412,0.0747 0.43175,0.10423 0.572345,0.2345 0.221459,0.2052 0.482407,0.45468 0.545554,0.72597 0.769319,3.30495 3.1398,5.39311 5.822993,7.14302 1.725979,1.12563 1.680045,0.9768 1.531245,3.17653 -0.05122,0.75735 0.7391,1.60719 1.242742,2.35111 0.408518,0.6034 1.006332,1.0808 1.443297,1.66903 0.668491,0.89989 1.239784,1.86917 1.90706,2.77002 1.95598,2.64062 4.383816,4.76515 7.270554,6.40461 0.638693,0.36273 1.11029,0.99809 1.716059,1.43083 0.370153,0.26445 0.843224,0.39789 1.280898,0.56249 1.436034,0.54007 2.87702,1.06746 4.314449,1.66768 z"
     id="path6"
     inkscape:connector-curvature="0"
     style="opacity:1;fill:#000000;stroke:none;stroke-width:0.27453408" /><path
     class="selected"
     d="m 95.348111,155.10928 c 3.453332,-0.14543 6.692399,-1.0107 9.908879,-1.90654 1.48499,-0.41361 3.07619,-0.78023 4.10729,-2.13422 0.11032,-0.14485 0.62237,-0.20805 0.74594,-0.0956 0.7227,0.65794 1.60991,0.39175 2.07868,-0.53149 0.51572,-1.01573 1.06616,-2.06019 1.82131,-2.90255 1.11273,-1.2412 2.40104,-2.33546 3.66197,-3.44025 0.22614,-0.19815 0.68138,-0.14478 1.03085,-0.20753 -0.13622,0.30605 -0.20271,0.8155 -0.41934,0.88692 -2.37293,0.78232 -2.99265,3.21475 -4.62036,4.69367 -0.41118,0.3736 -1.29324,0.86774 -0.70923,1.78062 0.0318,0.0498 -0.30032,0.45327 -0.50753,0.49927 -1.35168,0.30002 -2.39602,1.17578 -3.5796,1.7356 -1.50935,0.7139 -3.35568,0.73756 -5.05244,1.07929 -0.35423,0.0714 -1.41584,-0.40377 -0.65178,0.70696 0.0292,0.0425 -0.1366,0.28682 -0.25725,0.34348 -0.61561,0.28907 -1.2348,0.57874 -1.87621,0.80387 -0.3508,0.12317 -0.74806,0.11896 -1.124374,0.17216 0.209744,-0.25013 0.406884,-0.51195 0.632884,-0.74707 0.21794,-0.22674 0.46569,-0.42592 0.70034,-0.6372 -0.30254,0.0284 -0.6051,0.0567 -0.90763,0.0852 -1.542769,0.14519 -3.084547,0.30427 -4.630127,0.41002 -0.127918,0.009 -0.281531,-0.34366 -0.352272,-0.59462 z"
     id="path8"
     inkscape:connector-curvature="0"
     style="opacity:1;fill:#000000;stroke:none;stroke-width:0.27453408" /><path
     class="selected"
     d="m 84.909459,153.91315 c 1.378611,-0.0545 2.754746,-0.0766 3.871284,0.95054 0.152611,0.14038 0.545967,0.0213 0.827081,0.0363 1.50551,0.0804 3.027173,0.0692 4.505271,0.31216 0.398284,0.0654 0.664075,0.90658 0.990689,1.39165 -0.472008,-0.0352 -1.104692,0.10856 -1.388385,-0.13642 -1.270508,-1.09707 -2.649456,-0.10974 -3.95451,-0.31269 -0.861778,-0.13404 -1.762846,0.021 -2.187931,-1.04859 -0.09245,-0.23264 -0.684775,-0.26337 -1.036915,-0.41008 -0.547235,-0.22796 -1.085926,-0.47564 -1.626584,-0.78291 z"
     id="path10"
     inkscape:connector-curvature="0"
     style="opacity:1;fill:#000000;stroke:none;stroke-width:0.27453408" /><path
     class="selected"
     d="m 134.95119,168.54614 c 0.3484,-0.28646 0.5994,-0.6292 0.91044,-0.69383 0.34193,-0.071 0.73913,0.11395 1.11224,0.1874 -0.24262,0.20158 -0.51699,0.37621 -0.72264,0.60918 -1.14242,1.29417 -2.69958,1.7437 -4.29525,2.2276 -0.70517,0.21386 -1.23689,0.95483 -1.87476,1.42038 -0.16993,0.12404 -0.44109,0.11465 -0.66579,0.16651 0.1487,-0.23496 0.24021,-0.56488 0.45532,-0.68942 1.40364,-0.8126 2.84404,-1.56404 4.24782,-2.37633 0.30511,-0.17656 0.51039,-0.51908 0.83262,-0.85149 z"
     id="path26"
     inkscape:connector-curvature="0"
     style="opacity:1;fill:#000000;stroke:none;stroke-width:0.27453408" /><path
     class="selected"
     d="m 142.19592,78.765268 c -0.508,1.884843 -0.93985,3.658007 -1.53426,5.377107 -0.92298,2.669315 -2.41602,5.005676 -4.74692,6.717386 -1.50113,1.10237 -3.10748,0.269396 -4.46157,-0.256139 -1.89527,-0.735567 -3.58285,-1.974092 -5.40337,-2.915423 -0.43804,-0.226513 -1.05556,-0.207781 -1.58017,-0.168535 -1.78148,0.133298 -3.55719,0.339072 -5.33738,0.491631 -1.06984,0.09167 -2.14357,0.142072 -3.21627,0.197723 -0.32192,0.0167 -0.71253,0.09749 -0.95422,-0.04403 -0.37864,-0.221709 -0.6574,-0.607488 -0.97847,-0.92377 0.34861,0.04498 0.71182,0.175702 1.04354,0.121401 2.74921,-0.449997 5.65207,0.5185 8.29848,-0.877277 1.45583,-0.767832 1.45861,-0.9828 0.66769,-2.373477 -1.46796,-2.581135 -2.53181,-5.329413 -2.49648,-8.329131 0.0285,-2.422777 0.16506,-4.856611 0.46549,-7.26007 0.23198,-1.855844 0.71022,-3.695532 1.24221,-5.49601 0.25559,-0.865046 0.91103,-1.611751 1.33326,-2.437681 0.0965,-0.188685 -0.0224,-0.483229 -0.0421,-0.729044 -0.19451,0.0854 -0.40644,0.145652 -0.58002,0.261282 -0.40236,0.268045 -0.7883,0.560124 -1.17676,0.847817 -0.2373,0.175746 -0.46693,0.361437 -0.70002,0.54266 -0.006,-0.40022 -0.18602,-0.975956 0.0148,-1.167071 0.5569,-0.530132 1.23748,-0.967132 1.93449,-1.315148 0.74339,-0.371184 1.28881,-0.690282 1.58278,-1.620268 1.01207,-3.201733 4.39393,-5.803758 7.74557,-5.138167 2.33325,0.463352 5.22178,0.355244 6.6286,2.902977 1.20199,2.176797 2.41064,4.382022 2.66359,6.930621 0.11473,1.156065 0.31789,2.303465 0.45613,3.457649 0.0392,0.327089 0.0912,0.70684 -0.0338,0.989645 -0.65665,1.485317 -0.16485,3.066374 1.21505,3.83947 0.32686,0.183117 0.58983,0.475923 0.8822,0.718273 -0.36502,0.118564 -0.72689,0.248218 -1.0968,0.34961 -0.12765,0.03498 -0.27667,0.01058 -0.41362,-0.0056 -0.49898,-0.05891 -0.99694,-0.125803 -1.4953,-0.189684 0.35968,0.291273 0.90086,0.524181 1.02366,0.891607 0.105,0.314051 -0.24119,1.112507 -0.43746,1.12901 -1.27143,0.106944 -0.59028,0.592231 -0.1967,0.905067 0.60595,0.481625 0.28021,0.718624 0.0414,1.294573 -0.38976,0.939965 -0.2628,2.086022 -0.35718,3.28102 m -2.36528,-5.358554 c 0.23835,-0.399945 0.62717,-0.783903 0.67361,-1.204225 0.0485,-0.439183 -0.13717,-0.978732 -0.40191,-1.349948 -0.18551,-0.260124 -0.67548,-0.311383 -1.0295,-0.455924 0.40757,-0.12617 0.85659,-0.186472 1.20917,-0.399966 0.26766,-0.162071 0.61007,-0.735019 0.58364,-0.758273 -1.00499,-0.884276 -1.58872,-2.370144 -3.2973,-2.290046 -0.20309,0.0095 -0.41582,-0.178816 -0.62408,-0.275432 0.22499,-0.174949 0.49166,-0.531711 0.66765,-0.492901 0.70557,0.155574 1.37112,0.483031 2.07568,0.64667 0.37361,0.08678 0.82742,0.04039 1.17923,-0.102116 0.10671,-0.04322 0.0888,-0.65092 -0.038,-0.926638 -0.30068,-0.653708 -0.67515,-1.234292 -0.24118,-2.002622 0.12322,-0.218175 -0.13124,-0.639583 -0.20802,-0.968785 -0.17303,-0.741942 -0.23467,-1.530844 -0.53883,-2.216507 -0.52171,-1.176157 -1.1542,-2.311388 -1.82493,-3.414218 -0.23783,-0.39107 -0.7989,-0.583146 -1.07981,-0.960916 -0.64015,-0.860892 -3.70432,-1.786621 -4.73559,-1.364094 -0.62991,0.258089 -1.24751,0.552641 -1.89323,0.76463 -1.89716,0.622823 -2.73675,2.006514 -2.37261,3.888702 0.0358,0.185147 -0.18141,0.506942 -0.37201,0.629987 -1.15442,0.745278 -1.94954,1.640124 -1.64999,3.126321 0.0178,0.08833 -0.34091,0.372482 -0.43896,0.33718 -0.28351,-0.102048 -0.52335,-0.320784 -0.78033,-0.493715 -0.06,0.53852 -0.3044,1.137465 -0.14534,1.604164 0.46647,1.368752 0.23286,3.036975 -0.71953,3.994007 -0.1155,0.116059 -0.22343,0.282069 -0.24601,0.437359 -0.13211,0.90845 -0.32694,1.819938 -0.33397,2.731643 -0.0151,1.955912 0.0424,3.913726 0.12348,5.868636 0.1,2.412148 1.14541,4.418148 2.98341,5.983591 0.57399,0.488878 1.30352,0.650828 2.0034,-0.08853 0.30908,-0.326531 1.01736,-0.624436 1.38551,-0.496257 0.9155,0.318713 1.74574,0.879543 2.59595,1.36711 0.19119,0.109638 0.32402,0.317173 0.48371,0.479636 -0.23188,0.107806 -0.50785,0.353519 -0.68762,0.298263 -0.60679,-0.18654 -1.15789,-0.58348 -1.77061,-0.706118 -0.75896,-0.151915 -1.55845,-0.135416 -2.33982,-0.128256 -0.13479,0.0013 -0.36896,0.31665 -0.37108,0.489124 -0.002,0.174226 0.20397,0.374656 0.35955,0.522361 0.39997,0.379675 0.92553,0.671809 1.21517,1.115524 0.66062,1.011993 1.23895,1.977831 2.75133,1.743137 0.85567,-0.132787 1.82759,-0.865831 2.63534,0.269457 0.0729,0.102454 1.13934,-0.222175 1.45455,-0.58841 0.77771,-0.903644 1.3974,-1.940163 2.05613,-2.938793 0.15894,-0.240951 0.39448,-0.692203 0.3036,-0.792213 -0.79869,-0.878986 0.22738,-1.312752 0.5268,-1.766387 0.82203,-1.245511 0.76261,-1.670907 -0.6817,-2.217245 -0.51807,-0.195965 -1.04128,-0.379387 -1.5548,-0.586086 -0.13561,-0.05459 -0.24389,-0.17446 -0.36473,-0.26435 0.1641,-0.0904 0.34876,-0.281277 0.48869,-0.253727 0.59033,0.116304 1.16503,0.407755 1.74997,0.419566 0.44636,0.0091 1.18318,-0.20302 1.29434,-0.497169 0.28594,-0.756733 0.30726,-1.612453 0.40485,-2.431989 0.0157,-0.132168 -0.0832,-0.325863 -0.19328,-0.413848 -0.2223,-0.177659 -0.25811,-0.580284 -0.0216,-0.713002 0.37449,-0.210117 0.79786,-0.368446 1.10641,-0.648466 0.21051,-0.191064 0.44022,-0.662166 0.34381,-0.813605 -0.18237,-0.28643 -0.57152,-0.489492 -0.917,-0.617261 -0.22267,-0.08235 -0.52066,0.03115 -0.7816,-0.07903 M 126.07567,86.00289 c 0.31448,0.23064 0.61303,0.489477 0.95328,0.674525 0.1003,0.05455 0.31859,-0.09953 0.48279,-0.157997 -0.26425,-0.415914 -0.52847,-0.831827 -0.79272,-1.24775 -0.25954,0.197355 -0.51908,0.394712 -0.64335,0.731222 z"
     id="path216"
     inkscape:connector-curvature="0"
     style="opacity:1;fill:#000000;stroke:none;stroke-width:0.27453408" /><path
     class="selected"
     d="m 48.689466,81.200426 c -1.395778,-1.893772 -2.320094,-3.909837 -2.302584,-6.108273 0.03156,-3.961525 -0.02121,-7.978076 0.629694,-11.863931 0.559454,-3.339868 1.532296,-6.849656 4.467034,-9.11578 1.302343,-1.005641 3.037943,-1.534837 4.65027,-2.066002 0.887025,-0.292227 1.944205,-0.27826 2.893632,-0.160867 2.560013,0.31651 3.563007,2.327601 4.748025,4.242297 1.547191,2.499857 1.87729,5.205999 1.969394,8.009551 0.04348,1.323518 0.272357,2.660056 0.149595,3.966505 -0.411115,4.375293 -0.533969,8.851714 -2.546513,12.884791 -1.31622,2.637665 -3.228668,5.08281 -6.417289,5.481018 -2.000766,0.249855 -4.107169,-0.400249 -5.576641,-2.106035 -0.877646,-1.01879 -1.777856,-2.018876 -2.664617,-3.163274 m 6.619611,-27.040985 c -0.818926,0.588664 -1.579095,1.287215 -2.468247,1.744548 -2.296885,1.181403 -2.678756,3.505801 -3.318569,5.536101 -0.582906,1.849716 -0.652575,3.884174 -0.746525,5.846503 -0.164896,3.44393 -0.381744,6.875601 1.006355,10.229281 0.952144,2.300391 1.77388,4.561889 4.366036,5.525528 1.636484,0.608381 3.284164,0.995552 4.979336,0.04503 2.46182,-1.380401 3.10623,-3.826721 3.784712,-6.199587 1.009127,-3.529313 1.519531,-7.142068 1.400793,-10.825633 -0.09162,-2.842121 -0.502702,-5.589796 -1.833344,-8.181903 -0.876661,-1.707743 -2.102005,-3.103973 -3.747957,-3.983667 -0.625747,-0.33444 -1.713769,0.169016 -2.592571,0.279312 -0.180942,0.02272 -0.36842,-0.0047 -0.830019,-0.01551 z"
     id="path238"
     inkscape:connector-curvature="0"
     style="opacity:1;fill:#000000;stroke:none;stroke-width:0.27453408" /><path
     class="selected"
     d="m 106.59634,131.5761 c -0.87769,1.25946 -1.38597,2.6657 -3.03629,3.16193 -0.88756,0.26686 -1.67051,0.38226 -2.56723,0.14693 -1.316214,-0.34541 -2.658896,-0.59409 -3.991061,-0.88057 -0.256884,-0.0552 -0.580348,-0.0144 -0.765807,-0.15457 -1.189203,-0.89851 -2.357682,-1.82438 -3.5068,-2.77179 -0.156652,-0.12916 -0.16741,-0.42853 -0.245719,-0.6491 0.188999,0.0558 0.39926,0.0769 0.563474,0.17329 0.886593,0.52063 1.758543,1.0652 2.642207,1.59075 0.470388,0.27976 0.954229,0.53778 1.432,0.80562 -0.101115,-0.53044 -0.118857,-1.09316 -0.317171,-1.58598 -1.111974,-2.7633 -2.619874,-5.43023 -3.29054,-8.28851 -0.487848,-2.0791 -0.05639,-4.42814 0.278924,-6.61046 0.259047,-1.68597 1.035295,-3.29143 1.519913,-4.95002 0.209088,-0.71566 0.231743,-1.48163 0.394137,-2.21298 0.215464,-0.97036 0.733863,-1.44873 1.834284,-1.79049 4.080099,-1.26721 7.430979,0.12355 8.955139,4.00249 0.3592,0.91415 1.10823,0.6259 1.7689,0.65672 0.29517,0.0138 0.59568,-10e-4 0.88319,0.0521 0.12614,0.0233 0.22582,0.18428 0.33751,0.28274 -0.12668,0.0825 -0.24247,0.20457 -0.38171,0.24147 -1.72495,0.45697 -1.79427,0.74402 -1.49109,2.44222 0.66886,3.74641 1.49549,7.52431 0.91268,11.33209 -0.26011,1.69948 -1.21722,3.29636 -1.92894,5.00614 m 0.31199,-4.27606 c 0.0422,-1.73525 0.25445,-3.4865 0.0866,-5.202 -0.24961,-2.55182 -0.59466,-5.12088 -1.22816,-7.60179 -0.48005,-1.87992 -0.9218,-3.96755 -2.94948,-5.02089 -0.38598,-0.20051 -0.93165,-0.10531 -1.40364,-0.14655 0.10611,0.40781 0.084,0.93062 0.33941,1.20453 1.51815,1.62822 2.03578,3.70534 2.76935,5.6869 0.0605,0.16336 0.005,0.3681 0.003,0.55362 -0.1352,-0.0764 -0.33648,-0.12002 -0.39549,-0.23429 -0.65756,-1.27339 -1.47868,-2.50353 -1.88824,-3.85264 -0.52766,-1.73815 -2.217,-1.90046 -3.356616,-2.7932 -0.0859,-0.0673 -0.530925,0.12564 -0.641839,0.29994 -0.612747,0.96288 -1.163506,1.9634 -1.754231,2.94013 -1.485897,2.45678 -1.795188,5.28046 -1.774613,7.95273 0.016,2.07843 1.096079,4.20281 1.953091,6.20382 0.663489,1.54914 1.918807,2.8622 2.526563,4.42411 0.481843,1.2383 1.262765,1.66398 2.390495,1.83682 0.32358,0.0496 0.67626,-0.0833 1.01559,-0.13257 -0.25794,-0.25319 -0.50133,-0.52311 -0.77801,-0.75476 -0.26397,-0.22104 -0.56265,-0.40221 -0.84607,-0.60091 0.3458,-0.0394 0.69557,-0.0584 1.03665,-0.12218 0.93467,-0.17478 2.24439,-0.0603 2.71766,-0.62001 0.92593,-1.09496 1.38423,-2.57028 2.17799,-4.02081 z"
     id="path290"
     inkscape:connector-curvature="0"
     style="opacity:1;fill:#000000;stroke:none;stroke-width:0.27453408" /><path
     class="selected"
     d="m 72.85065,125.27925 c -0.152457,-1.33189 -0.418216,-2.52598 -0.439609,-3.72427 -0.03713,-2.07953 0.06728,-4.16196 0.137305,-6.24236 0.0112,-0.33285 0.127653,-0.6696 0.237804,-0.99058 0.346466,-1.00962 0.552168,-1.82613 -0.378404,-2.84414 -1.259227,-1.37752 -1.086168,-1.50922 -2.545104,-0.54707 -0.627456,0.41379 -1.230605,0.62847 -1.826778,-0.17205 -0.285925,-0.38393 -0.858769,-0.55327 -1.26835,-0.86227 -0.15667,-0.1182 -0.220344,-0.35498 -0.326407,-0.53771 0.224109,-0.0502 0.482404,-0.19741 0.666756,-0.13488 1.177365,0.39932 2.324137,0.93184 3.12872,-0.65226 0.06355,-0.12514 1.2955,0.10485 1.782167,0.44676 1.031347,0.72457 2.478752,0.98675 3.469294,0.26667 3.006333,-2.18539 6.092438,-0.88139 7.659533,2.10543 0.580385,1.10619 0.842305,2.36939 1.352186,3.51708 0.162272,0.36525 0.613807,0.68045 1.008212,0.856 0.620345,0.27609 1.313066,0.39152 1.956373,0.6248 0.199196,0.0722 0.337394,0.30627 0.503518,0.46624 -0.230671,0.11048 -0.469777,0.32806 -0.690412,0.31132 -0.655869,-0.0497 -1.30351,-0.25217 -1.956448,-0.26198 -0.205285,-0.003 -0.62421,0.58193 -0.59615,0.61529 1.189442,1.41428 -0.128053,2.88135 0.09916,4.31631 0.09625,0.60781 -0.10454,1.29739 -0.307133,1.906 -0.343668,1.03237 -0.761972,2.04483 -1.214007,3.03715 -0.313078,0.68731 -0.815851,1.29592 -1.093678,1.9934 -0.753903,1.89266 -2.888061,3.62044 -4.566732,3.37329 -0.801452,-0.118 -1.688424,-0.55696 -2.26116,-1.12007 -1.55109,-1.525 -2.632308,-3.3319 -2.530654,-5.7461 m 0.92728,-3.92171 c 0.08448,0.32702 0.18217,0.65139 0.251254,0.98151 0.41791,1.99667 0.732608,4.02027 1.273621,5.98406 0.428187,1.55429 2.605741,2.36088 3.692433,1.37254 0.95031,-0.86429 1.752788,-1.95075 2.390892,-3.06552 1.286434,-2.24745 1.000968,-5.08341 2.685866,-7.21193 0.05047,-0.0637 -0.04061,-0.2405 -0.0743,-0.36229 -0.306758,-1.10922 -2.376978,-1.77026 -3.057087,-0.88024 -0.583825,0.76401 -1.057083,0.51103 -1.639441,0.21679 -0.250024,-0.12634 -0.462238,-0.32465 -0.691633,-0.49028 0.273594,-0.11859 0.539782,-0.25878 0.822107,-0.35191 1.053341,-0.34752 2.131763,-0.63317 3.15389,-1.05205 0.23845,-0.0977 0.485022,-0.68973 0.39893,-0.94941 -0.434928,-1.31198 -0.937167,-2.60693 -1.497991,-3.87282 -0.398563,-0.89961 -2.730574,-2.18528 -3.375539,-1.72733 -1.20895,0.85839 -2.582333,1.81563 -3.218558,3.06053 -1.274408,2.49365 -1.429093,5.29044 -1.114448,8.34835 z"
     id="path292"
     inkscape:connector-curvature="0"
     style="opacity:1;fill:#000000;stroke:none;stroke-width:0.27453408" /><path
     class="selected"
     d="m 113.17448,109.08945 c 1.9408,0.55426 3.8818,0.90276 5.21181,2.3284 0.62572,0.6707 0.90667,1.65604 1.31127,2.51358 0.0534,0.11321 -0.0868,0.31429 -0.1373,0.47468 -0.1874,-0.10032 -0.43736,-0.15591 -0.55109,-0.3089 -0.43577,-0.58621 -0.80589,-1.21935 -1.24122,-1.80592 -0.68161,-0.91842 -1.58396,-1.27987 -2.77975,-1.29609 -1.07289,-0.0146 -2.13531,-0.49005 -3.21298,-0.53961 -0.79322,-0.0365 -1.5989,0.36874 -2.40835,0.41297 -0.39377,0.0215 -0.80889,-0.33271 -1.21435,-0.51683 0.40069,-0.1786 0.78727,-0.40387 1.20522,-0.5253 0.69904,-0.20309 1.41504,-0.35441 2.12979,-0.49961 0.51113,-0.10383 1.0319,-0.16204 1.68695,-0.23737 z"
     id="path294"
     inkscape:connector-curvature="0"
     style="opacity:1;fill:#000000;stroke:none;stroke-width:0.27453408" /><path
     class="selected"
     d="m 90.507856,128.95595 c -0.271981,0.12149 -0.405384,0.24623 -0.538779,0.37098 1.184871,1.03681 -0.116981,0.98216 -0.587474,1.22433 -0.906552,0.46666 -1.840726,0.88297 -2.774084,1.29711 -0.18998,0.0843 -0.426879,0.0669 -0.64215,0.0963 0.01701,-0.24543 -0.06402,-0.58557 0.06946,-0.71849 0.396736,-0.3951 0.858445,-0.73705 1.330298,-1.04788 0.828205,-0.54559 1.657693,-1.10004 2.540098,-1.54993 0.307088,-0.15656 0.772378,-0.0147 1.165408,-0.009 -0.141402,0.11329 -0.282804,0.22658 -0.562772,0.33662 z"
     id="path298"
     inkscape:connector-curvature="0"
     style="opacity:1;fill:#000000;stroke:none;stroke-width:0.27453408" /><path
     class="selected"
     d="m 99.474733,136.50867 c -0.832654,0.21144 -1.526729,0.42611 -2.220813,0.64079 0.564158,-0.35882 1.125665,-0.72175 1.693853,-1.07434 0.215126,-0.13349 0.462151,-0.3608 0.665022,-0.33352 0.250012,0.0336 0.469125,0.28833 0.701585,0.4475 -0.23369,0.10761 -0.467385,0.21521 -0.839647,0.31957 z"
     id="path306"
     inkscape:connector-curvature="0"
     style="opacity:1;fill:#000000;stroke:none;stroke-width:0.27453408" /><path
     class="selected"
     d="m 104.93655,137.11241 c -0.34734,0.0599 -0.64484,0.11228 -0.89291,0.0268 -0.17288,-0.0596 -0.27799,-0.30835 -0.41338,-0.47262 0.14711,-0.10742 0.2824,-0.27919 0.444,-0.30773 0.26657,-0.0471 0.55134,-0.0151 0.82621,0.008 0.30824,0.0265 0.61401,0.0807 0.92085,0.12294 -0.27127,0.18528 -0.54255,0.37056 -0.88477,0.62216 z"
     id="path312"
     inkscape:connector-curvature="0"
     style="opacity:1;fill:#000000;stroke:none;stroke-width:0.27453408" /><path
     class="selected"
     d="m 109.98053,114.99781 c -0.35691,0.0507 -0.57525,0.10475 -0.79361,0.15873 0.18017,-0.2362 0.36034,-0.47239 0.54051,-0.70857 0.13056,0.18436 0.26111,0.36872 0.2531,0.54984 z"
     id="path326"
     inkscape:connector-curvature="0"
     style="opacity:1;fill:#000000;stroke:none;stroke-width:0.27453408" /><path
     class="selected"
     d="m 98.33548,92.152712 c 0.230913,0.0054 0.335439,-0.01959 0.41363,0.01414 0.506726,0.218557 1.007723,0.44991 1.51059,0.677058 -0.494517,0.045 -0.996414,0.166736 -1.48228,0.121785 -2.184483,-0.202078 -4.359642,-0.565854 -6.547237,-0.653549 -2.467645,-0.0989 -4.945186,0.02638 -7.417899,0.07847 -0.33499,0.0071 -0.664043,0.169815 -1.001175,0.233217 -0.241968,0.04552 -0.492833,0.0456 -0.739724,0.06596 0.208515,-0.176234 0.397072,-0.47263 0.62872,-0.509643 1.81492,-0.290083 3.635946,-0.720634 5.459252,-0.740512 2.589394,-0.02823 5.183037,0.246794 7.773052,0.418474 0.426253,0.02825 0.843234,0.190844 1.403071,0.294602 z"
     id="path416"
     inkscape:connector-curvature="0"
     style="opacity:1;fill:#000000;stroke:none;stroke-width:0.27453408" /><path
     class="selected"
     d="m 100.06323,112.3181 c 0.25361,0.24984 0.36863,0.49644 0.48367,0.74304 -0.33657,-0.10303 -0.673151,-0.20606 -1.009728,-0.30908 0.129167,-0.14573 0.258334,-0.29146 0.526058,-0.43396 z"
     id="path478"
     inkscape:connector-curvature="0"
     style="opacity:1;fill:#000000;stroke:none;stroke-width:0.27453408" /><path
     style="opacity:1;fill:#5856d6;fill-opacity:1;fill-rule:nonzero;stroke:none;stroke-width:5.31914902;stroke-linecap:round;stroke-linejoin:round;stroke-miterlimit:4;stroke-dasharray:none;stroke-dashoffset:0;stroke-opacity:1"
     d="m 76.087242,141.89507 c -0.676176,-0.85536 -2.265127,-8.0028 -2.261259,-10.17163 0.0051,-2.87216 1.107383,-5.80139 2.766105,-7.35087 0.879314,-0.8214 1.786284,-1.49346 2.015487,-1.49346 0.923482,0 2.688143,1.97821 3.470722,3.89073 l 0.830252,2.02903 -2.149149,0.84421 c -1.182032,0.46432 -2.14915,1.02166 -2.14915,1.23853 0,0.76549 1.650473,1.01489 2.63741,0.39854 0.764605,-0.47751 1.176319,-0.47761 1.751252,-4.6e-4 0.642265,0.53303 0.587169,1.11254 -0.378623,3.98239 -1.588619,4.72058 -3.278891,7.29788 -4.786164,7.29788 -0.671701,0 -1.457798,-0.2992 -1.746883,-0.66489 z"
     id="path1026"
     inkscape:connector-curvature="0"
     transform="translate(1e-6,-12.874895)" /><path
     style="opacity:1;fill:#5856d6;fill-opacity:1;fill-rule:nonzero;stroke:none;stroke-width:5.31914902;stroke-linecap:round;stroke-linejoin:round;stroke-miterlimit:4;stroke-dasharray:none;stroke-dashoffset:0;stroke-opacity:1"
     d="m 100.73293,145.87629 c -0.971858,-0.7074 -3.44932,-4.86471 -4.524375,-7.59214 -1.626507,-4.12648 -1.42132,-8.16381 0.615633,-12.11338 l 1.671384,-3.24075 1.508648,0.78015 c 0.96564,0.49935 1.91925,1.73463 2.64944,3.43199 1.09983,2.55664 2.07361,3.45264 2.07361,1.90799 0,-0.40913 -0.7053,-2.08466 -1.56733,-3.72341 -1.59269,-3.02774 -1.39927,-3.81849 0.47544,-1.94377 1.58517,1.58516 3.21008,8.6837 3.21647,14.05138 0.004,3.62556 -1.72377,6.59796 -4.09447,7.04271 -1.44096,0.27032 -1.66451,0.47476 -1.17031,1.07023 0.64226,0.77388 0.0634,0.99684 -0.85414,0.329 z m -0.26098,-20.3376 c 0,-0.29256 -0.23936,-0.53192 -0.531912,-0.53192 -0.292554,0 -0.531915,0.23936 -0.531915,0.53192 0,0.29255 0.239361,0.53191 0.531915,0.53191 0.292552,0 0.531912,-0.23936 0.531912,-0.53191 z"
     id="path1833"
     inkscape:connector-curvature="0"
     transform="translate(1e-6,-12.874895)" /><path
     style="opacity:1;fill:#af52de;fill-opacity:1;fill-rule:nonzero;stroke:none;stroke-width:5.31914902;stroke-linecap:round;stroke-linejoin:round;stroke-miterlimit:4;stroke-dasharray:none;stroke-dashoffset:0;stroke-opacity:1"
     d="m 96.482591,151.02339 c -2.340426,-0.25499 -6.768617,-0.66751 -9.840426,-0.91671 -16.692288,-1.35415 -27.659574,-8.43564 -27.659574,-17.85958 0,-2.14186 0.403881,-3.33368 2.082588,-6.14556 4.073409,-6.82306 6.502015,-8.22564 18.043483,-10.4206 6.581309,-1.25163 8.548844,-1.41513 14.361702,-1.19344 5.70032,0.21741 7.471456,0.5078 11.522866,1.88926 7.76872,2.64901 11.452,4.59168 15.87686,8.37391 4.49003,3.83795 5.21652,5.05148 6.54454,10.93215 0.81791,3.62182 0.811,3.72281 -0.42261,6.17566 -1.06012,2.10789 -1.97545,2.92445 -5.91741,5.27882 -2.56482,1.53186 -5.91588,3.06864 -7.44681,3.41506 -3.65546,0.82717 -11.81816,1.05142 -17.145209,0.47103 z m 9.308509,-1.60544 c 0,-0.26126 -0.47872,-0.47501 -1.06383,-0.47501 -1.0368,0 -1.38617,0.56419 -0.74587,1.20449 0.42613,0.42612 1.8097,-0.13159 1.8097,-0.72948 z m -6.160524,0.26595 c 0.462754,-0.17757 0.841374,-0.53661 0.841374,-0.79787 0,-0.72642 -1.272236,-0.5659 -2.424928,0.30595 -0.890676,0.67368 -0.910618,0.78328 -0.145169,0.79787 0.48804,0.009 1.265966,-0.12837 1.728723,-0.30595 z m 5.859934,-3.14747 c 0.6844,-0.73848 1.7838,-2.78514 2.44312,-4.54813 1.23454,-3.30115 1.25661,-4.79806 0.19348,-13.12515 -0.30362,-2.37811 -0.22712,-2.79255 0.51543,-2.79255 0.47958,0 0.87197,-0.23936 0.87197,-0.53191 0,-0.29256 -0.58228,-0.53192 -1.29395,-0.53192 -0.78515,0 -1.41502,-0.38148 -1.60186,-0.97018 -1.3606,-4.28687 -9.438683,-5.84539 -10.879543,-2.09901 -1.15134,2.9936 -2.324315,7.78037 -2.569717,10.48671 -0.256987,2.83409 0.403507,5.18177 3.444062,12.24168 0.234337,0.5441 -0.261275,0.42481 -1.657433,-0.39894 -2.241529,-1.32254 -2.46284,-1.38277 -2.46284,-0.67031 0,0.83391 3.614904,3.32668 5.45938,3.76469 3.692431,0.87686 6.216731,0.60059 7.537901,-0.82498 z m -24.822839,-2.62445 c 2.092678,-1.76087 4.255771,-6.79044 4.470449,-10.39457 0.155585,-2.61203 0.313527,-2.95403 1.473887,-3.19149 1.612533,-0.32999 1.572243,-1.23617 -0.07143,-1.60655 -0.824429,-0.18577 -1.665368,-1.17212 -2.557987,-3.00028 -0.731383,-1.49793 -1.653041,-3.10242 -2.04813,-3.56554 -1.145663,-1.34293 -3.958994,-1.62378 -5.950351,-0.59401 -1.498991,0.77516 -2.030105,0.80806 -3.770773,0.23359 -1.488824,-0.49136 -2.214248,-0.51245 -2.735857,-0.0796 -0.390402,0.324 -1.23593,0.45151 -1.878951,0.28336 -1.458717,-0.38146 -1.507324,0.41123 -0.103139,1.682 0.868293,0.78579 1.30472,0.85594 2.353225,0.3782 2.203413,-1.00394 2.559834,0.14708 2.64225,8.53284 0.0596,6.06462 0.257705,7.91486 0.992821,9.2728 1.875102,3.46377 4.584425,4.23659 7.183985,2.0492 z m 7.60581,0.28704 c 1.466046,-0.65637 2.339695,-1.41558 2.448367,-2.12766 0.09293,-0.60893 -0.03298,-1.10714 -0.279808,-1.10714 -0.742638,0 -4.863705,3.1577 -4.863705,3.72674 0,0.70034 0.05417,0.69046 2.695146,-0.49194 z m 21.772939,-16.53267 c 0,-0.29256 -0.10555,-0.53192 -0.23456,-0.53192 -0.12902,0 -0.3825,0.23936 -0.56331,0.53192 -0.18081,0.29255 -0.0753,0.53191 0.23456,0.53191 0.30982,0 0.56331,-0.23936 0.56331,-0.53191 z m 9.29549,-2.15284 c -1.52664,-2.95221 -5.27972,-4.24765 -9.22684,-3.1848 -2.64984,0.71353 -2.40112,1.72791 0.3804,1.55141 4.40737,-0.27965 5.50218,0.008 7.18134,1.88847 1.90366,2.13162 2.82623,1.99029 1.6651,-0.25508 z"
     id="path1835"
     inkscape:connector-curvature="0"
     transform="translate(1e-6,-12.874895)" /><path
     style="opacity:1;fill:#ff3b30;fill-opacity:1;fill-rule:nonzero;stroke:none;stroke-width:5.31914902;stroke-linecap:round;stroke-linejoin:round;stroke-miterlimit:4;stroke-dasharray:none;stroke-dashoffset:0;stroke-opacity:1"
     d="m 93.557059,192.53687 c -8.29008,-0.41944 -12.120625,-1.38429 -19.982719,-5.03334 -6.478042,-3.00666 -13.272416,-7.50657 -22.304515,-14.77225 -7.668876,-6.16906 -19.097114,-17.61812 -20.744681,-20.78246 l -1.06383,-2.04321 4.072017,-3.85333 c 4.908855,-4.64522 10.508425,-7.71361 17.537591,-9.61005 l 4.986137,-1.34524 1.196808,1.36753 c 1.378088,1.57467 1.555023,2.47611 0.398936,2.03248 -1.690606,-0.64875 -0.135433,3.59468 2.059107,5.61845 0.769088,0.70924 1.39834,1.56251 1.39834,1.89616 0,0.33365 0.837766,1.00614 1.861702,1.49442 1.597814,0.76195 1.861703,1.14862 1.861703,2.72793 0,1.16815 0.352724,2.09397 0.965879,2.5352 0.531234,0.38228 1.139026,1.0541 1.35065,1.49293 1.025291,2.12608 2.313824,3.76957 5.293714,6.752 2.455245,2.45734 6.651958,4.94626 8.8402,5.24281 1.337897,0.18131 3.629344,0.88063 5.09211,1.55403 2.589505,1.19212 8.776595,2.18802 8.776595,1.41273 0,-0.95382 -1.447797,-1.6637 -3.393085,-1.6637 -1.164069,0 -2.851569,-0.2173 -3.75,-0.4829 -8.311134,-2.45693 -8.969987,-2.79734 -13.990358,-7.22827 -3.43149,-3.0286 -8.121876,-9.42942 -8.121876,-11.08366 0,-1.0247 -0.609202,-1.78597 -2.433779,-3.04131 -2.245628,-1.54503 -4.474381,-4.30449 -4.479126,-5.54569 -0.0011,-0.28607 0.732214,0.37059 1.629574,1.45924 2.914997,3.5364 7.432662,6.56351 12.425226,8.32567 4.722141,1.6667 6.853675,1.99573 22.113424,3.41347 6.566977,0.61012 7.376927,0.77873 5.452127,1.13501 -1.24335,0.23015 -2.260637,0.62722 -2.260637,0.88238 0,0.7496 4.359977,0.53118 5.277267,-0.26438 0.46187,-0.40057 3.39154,-1.0861 6.51039,-1.5234 3.95132,-0.55402 6.69299,-1.27901 9.04255,-2.39115 4.39978,-2.08259 9.22085,-5.71914 10.53514,-7.94671 0.57507,-0.97467 1.39535,-1.77213 1.82284,-1.77213 2.83149,0 16.00715,6.11711 16.62096,7.71667 0.15021,0.39145 -0.22413,1.20895 -0.83185,1.81667 -1.34931,1.34932 -1.70663,1.39807 -1.27594,0.17411 0.26739,-0.75987 0.19594,-0.80872 -0.38903,-0.26596 -0.39412,0.36569 -1.38065,0.6649 -2.19228,0.6649 -1.10169,0 -1.68485,0.40444 -2.3009,1.59574 -0.94363,1.82478 -0.80831,1.90353 1.35161,0.78659 0.86061,-0.44504 2.11472,-0.67113 2.7869,-0.50242 1.81308,0.45505 4.10617,-0.58743 4.10617,-1.86675 0,-0.60547 0.35134,-1.07699 0.8025,-1.07699 0.82093,0 6.61618,5.04352 8.47461,7.37533 1.02196,1.28227 1.02196,1.31305 0,3.03522 -4.33754,7.30948 -19.65764,21.14213 -27.69135,25.00277 -8.45083,4.06108 -18.45452,6.71817 -24.77695,6.58101 -2.1358,-0.0463 -4.24232,0.0173 -4.68115,0.14146 -0.43883,0.12413 -4.029253,0.0622 -7.978721,-0.13761 z m 36.967001,-7.42197 c 0.18022,-0.29159 1.5033,-1.03591 2.94018,-1.65404 2.96556,-1.27575 4.09464,-2.30242 3.16438,-2.87736 -0.32842,-0.20297 -1.11797,0.10775 -1.75456,0.69049 -0.63658,0.58275 -2.17471,1.57014 -3.41807,2.1942 -1.24335,0.62407 -2.26063,1.36917 -2.26063,1.65577 0,0.67876 0.90743,0.67257 1.3287,-0.009 z m -28.00537,-16.41018 c 0.5406,-0.5406 1.99655,-1.145 3.23545,-1.34311 2.82292,-0.4514 7.48377,-2.77352 7.48377,-3.72855 0,-0.39463 1.31649,-2.08764 2.92553,-3.76227 1.60904,-1.67462 2.92553,-3.14292 2.92553,-3.2629 0,-1.45586 -5.52094,3.39003 -6.87212,6.03186 -0.33666,0.65824 -1.09084,1.19681 -1.67595,1.19681 -0.5851,0 -1.59639,0.34895 -2.2473,0.77544 -1.35488,0.88776 -9.48961,2.93866 -11.678031,2.94424 -0.804521,0.002 -1.462766,0.24308 -1.462766,0.53564 0,0.29255 1.077128,0.53191 2.393617,0.53191 1.31649,0 2.393618,0.23936 2.393618,0.53192 0,0.87104 1.522982,0.60468 2.578652,-0.45099 z"
     id="path1837"
     inkscape:connector-curvature="0"
     transform="translate(1e-6,-12.874895)" /><path
     style="opacity:1;fill:#ff3b30;fill-opacity:1;fill-rule:nonzero;stroke:none;stroke-width:5.31914902;stroke-linecap:round;stroke-linejoin:round;stroke-miterlimit:4;stroke-dasharray:none;stroke-dashoffset:0;stroke-opacity:1"
     d="M 80.619685,101.50126 C 80.453217,100.82557 79.454619,95.485494 78.400579,89.634431 77.346539,83.783367 76.10509,77.679643 75.641805,76.070601 74.16612,70.94538 70.594556,61.470639 69.837595,60.67304 c -0.626619,-0.660261 -0.503543,-0.865403 0.864254,-1.440518 1.590574,-0.668786 2.554001,-2.044691 1.893918,-2.704773 -0.191419,-0.191419 -1.035847,0.05827 -1.876506,0.554856 -0.840659,0.496589 -1.774232,0.902889 -2.074608,0.902889 -0.300375,0 -2.158109,-1.848279 -4.128297,-4.107288 l -3.582161,-4.107289 5.806113,-2.814453 c 7.345174,-3.560497 12.368089,-5.06154 21.927924,-6.552921 6.373861,-0.994354 8.881515,-1.136597 15.425528,-0.87499 8.48675,0.339269 13.40945,1.31805 20.48122,4.072272 2.28592,0.890292 4.64603,1.618712 5.24469,1.618712 0.78616,0 0.22277,0.643403 -2.02856,2.316653 -6.66688,4.954991 -14.61187,14.611594 -18.91897,22.994725 -3.69305,7.187985 -6.93985,17.940799 -8.09714,26.816282 -0.50577,3.878813 -0.833878,5.008423 -1.411823,4.860563 -4.404345,-1.12679 -14.522273,-0.98165 -17.743686,0.25452 -0.41242,0.15826 -0.820749,-0.23423 -0.999806,-0.96102 z"
     id="path1839"
     inkscape:connector-curvature="0"
     transform="translate(1e-6,-12.874895)" /><path
     style="opacity:1;fill:#ff2d55;fill-opacity:1;fill-rule:nonzero;stroke:none;stroke-width:5.31914902;stroke-linecap:round;stroke-linejoin:round;stroke-miterlimit:4;stroke-dasharray:none;stroke-dashoffset:0;stroke-opacity:1"
     d="m 157.12089,153.11566 c -6.89322,-5.94921 -14.8695,-10.57766 -21.54255,-12.50064 -3.84333,-1.10754 -4.25352,-1.50226 -4.26506,-4.10423 -0.006,-1.30225 -0.78402,-4.03502 -1.91283,-6.71678 -1.04671,-2.48671 -2.46369,-5.90521 -3.14885,-7.59668 -2.77613,-6.8535 -8.23689,-12.0763 -17.17041,-16.42221 -3.01758,-1.46797 -5.61237,-2.99703 -5.7662,-3.39791 -0.36424,-0.94919 0.74419,-9.718536 1.74513,-13.806609 2.38409,-9.737183 5.36159,-16.836125 9.92795,-23.670213 2.88375,-4.315866 15.53485,-17.553191 16.77583,-17.553191 1.76926,0 11.01078,6.075772 17.52467,11.52147 3.97236,3.32094 5.89523,5.527371 5.58754,6.411519 -0.32314,0.928525 2.60332,4.407402 3.70754,4.407421 0.51197,8e-6 0.93086,0.352759 0.93086,0.78389 0,0.431131 1.01897,1.807461 2.26438,3.05851 3.78349,3.800603 7.84642,12.95742 9.38776,21.157615 0.90331,4.805712 1.66584,13.203728 1.73891,19.151038 0.12712,10.34699 -3.05167,24.22488 -8.07307,35.24534 -1.83085,4.01816 -3.47718,7.29212 -3.65851,7.27546 -0.18133,-0.0167 -2.00522,-1.47637 -4.05309,-3.2438 z M 137.8458,102.20402 c 2.20866,-2.444722 3.94404,-6.806939 4.6273,-11.631635 0.27266,-1.925275 0.4704,-3.642012 0.43944,-3.814972 -0.13857,-0.774126 0.82739,-2.176174 1.4993,-2.176174 1.03289,0 0.92383,-0.733461 -0.26967,-1.813564 -0.77297,-0.699524 -1.01064,-1.6446 -1.01064,-4.018665 0,-6.495035 -2.63538,-12.044077 -6.23537,-13.129165 -5.15468,-1.553693 -9.01405,-0.293556 -11.13609,3.636088 -0.57292,1.060944 -1.70989,2.323714 -2.5266,2.806156 -0.81671,0.482442 -1.48492,1.222677 -1.48492,1.644967 0,0.944117 0.61736,0.984643 1.56765,0.102906 0.58956,-0.547032 0.6423,-0.476315 0.29755,0.398937 -1.36497,3.465415 -1.96343,7.050487 -2.04222,12.234042 -0.0814,5.358554 0.033,6.111299 1.35955,8.942679 l 1.4485,3.091616 -1.83035,0.764767 c -1.00669,0.420623 -3.45372,0.772377 -5.43785,0.781687 -3.01478,0.0141 -3.46276,0.12702 -2.72653,0.68707 0.65909,0.50136 2.16838,0.56652 5.9923,0.25869 l 5.11133,-0.41145 3.3162,1.84596 c 4.57077,2.5443 6.60246,2.49937 9.04112,-0.19994 z"
     id="path1841"
     inkscape:connector-curvature="0"
     transform="translate(1e-6,-12.874895)" /><path
     style="opacity:1;fill:#ff9500;fill-opacity:1;fill-rule:nonzero;stroke:none;stroke-width:5.31914902;stroke-linecap:round;stroke-linejoin:round;stroke-miterlimit:4;stroke-dasharray:none;stroke-dashoffset:0;stroke-opacity:1"
     d="m 121.65472,122.16108 c -1.07554,-0.92157 -3.34948,-2.38991 -5.05319,-3.26298 -1.70371,-0.87307 -3.45671,-1.8547 -3.89554,-2.18141 -1.47457,-1.09783 -10.12862,-3.46113 -14.525569,-3.96674 -6.611481,-0.76026 -11.051049,-0.61699 -18.1281,0.58503 -8.09505,1.37493 -13.630865,2.97933 -14.772014,4.28125 -0.485723,0.55416 -1.051816,1.00756 -1.257984,1.00756 -0.788954,0 1.672871,-3.07795 5.391842,-6.74128 4.221701,-4.15853 8.292775,-6.4538 14.096367,-7.94752 4.642624,-1.19491 13.665062,-0.76381 17.139408,0.81894 1.33277,0.60715 2.70715,1.1039 3.05417,1.1039 1.54245,0 10.50895,5.7647 13.21768,8.49785 2.87484,2.90076 7.31657,8.87955 6.89595,9.28231 -0.11412,0.10928 -1.08748,-0.55533 -2.16302,-1.47691 z M 99.67408,105.15776 c -1.326973,-0.78548 -15.397477,-0.87061 -16.164321,-0.0978 -0.351681,0.35442 2.434726,0.56455 8.350172,0.62972 7.048293,0.0776 8.658729,-0.032 7.814149,-0.53192 z"
     id="path1843"
     inkscape:connector-curvature="0"
     transform="translate(1e-6,-12.874895)" /><path
     style="opacity:1;fill:#ff2d55;fill-opacity:1;fill-rule:nonzero;stroke:none;stroke-width:5.31914902;stroke-linecap:round;stroke-linejoin:round;stroke-miterlimit:4;stroke-dasharray:none;stroke-dashoffset:0;stroke-opacity:1"
     d="m 27.958051,147.47173 c -0.382593,-0.66158 -2.949783,-9.76837 -3.790895,-13.44774 -1.454795,-6.36387 -1.900469,-11.17894 -1.963396,-21.2125 l -0.06233,-9.93922 2.479967,-8.214665 c 3.010083,-9.970621 7.881896,-20.259122 10.985881,-23.200449 1.152634,-1.092233 2.231284,-2.41307 2.397,-2.935195 0.326993,-1.030264 11.806287,-11.600296 12.598184,-11.600296 0.265784,0 1.151652,-0.658245 1.968596,-1.462766 0.816944,-0.804522 2.561155,-2.038369 3.876025,-2.741883 l 2.390671,-1.279116 1.863614,1.421447 c 4.001085,3.051777 8.326556,10.694946 11.609667,20.514445 2.121688,6.345792 6.269305,27.887678 5.670071,29.449238 -0.161835,0.42174 -1.82809,1.62457 -3.702798,2.67296 -5.612907,3.13892 -10.594904,8.16676 -13.153213,13.27424 -1.205233,2.40616 -3.01626,5.93069 -4.024505,7.83229 -1.008245,1.90159 -1.835024,3.9667 -1.837286,4.58912 -0.0058,1.58759 -0.629866,1.94722 -6.745231,3.88688 -4.254067,1.34929 -6.636486,2.53188 -11.140118,5.52975 -3.150834,2.09736 -6.508477,4.58752 -7.461432,5.53368 -0.952954,0.94615 -1.834264,1.54456 -1.958467,1.32978 z M 59.871484,98.442372 c 3.788772,-2.310207 6.083238,-9.372791 6.072176,-18.690738 -0.0072,-6.10232 -0.651883,-9.023277 -2.630969,-11.921327 -1.813269,-2.655238 -3.50566,-3.569593 -6.04978,-3.268541 -7.666203,0.907161 -11.022154,6.997086 -11.03205,20.019473 -0.0039,5.191831 0.104191,5.774154 1.535705,8.269867 0.846973,1.476619 2.520948,3.571034 3.719945,4.654255 1.794621,1.621332 2.579355,1.969144 4.439102,1.967507 1.293903,-0.0011 2.979776,-0.441418 3.945871,-1.030496 z"
     id="path1845"
     inkscape:connector-curvature="0"
     transform="translate(1e-6,-12.874895)" /><path
     style="opacity:1;fill:#af52de;fill-opacity:1;fill-rule:nonzero;stroke:none;stroke-width:5.31914902;stroke-linecap:round;stroke-linejoin:round;stroke-miterlimit:4;stroke-dasharray:none;stroke-dashoffset:0;stroke-opacity:1"
     d="M 22.912134,77.390557 C 18.218159,74.469411 13.449269,69.508103 10.0496,64.009036 7.6802928,60.17661 7.5427645,59.773519 8.3120556,58.916345 9.0861822,58.053784 9.0438657,57.985494 7.7352437,57.985494 c -1.0576175,0 -1.4122275,-0.267127 -1.4122275,-1.063829 0,-0.591017 -0.3546099,-1.06383 -0.7978723,-1.06383 -0.4388298,0 -0.7978724,-0.459147 -0.7978724,-1.020326 0,-0.561179 -0.1463315,-1.40166 -0.3251811,-1.867734 C 4.1629717,52.346641 4.3063734,52.21042 4.9439237,52.455071 5.6877761,52.740514 5.7335591,52.584253 5.2662188,51.355055 4.966623,50.567058 4.4855377,46.650109 4.1971402,42.650723 3.5593539,33.806145 3.5496897,32.985494 4.0833202,32.985494 c 1.4462878,0 15.0056538,14.342443 15.0056538,15.872256 0,0.306231 0.467499,0.884232 1.038887,1.284448 0.571389,0.400216 2.865049,3.176319 5.097022,6.169117 3.495425,4.686927 4.218008,5.39159 5.211112,5.081867 0.634138,-0.19777 1.298759,-0.586055 1.476935,-0.862855 0.178175,-0.2768 0.716739,0.47839 1.196808,1.6782 1.168729,2.920941 1.111615,3.075691 -0.529469,1.434608 -1.374709,-1.37471 -2.321083,-1.787257 -2.321083,-1.011816 0,0.214778 0.635881,1.605021 1.413067,3.089428 1.646233,3.144264 1.43703,5.256263 -0.613189,6.190405 -0.714139,0.325383 -1.180784,0.781967 -1.03699,1.014631 0.143793,0.232664 -0.538678,1.866641 -1.516604,3.631061 l -1.778046,3.208037 z"
     id="path1847"
     inkscape:connector-curvature="0"
     transform="translate(1e-6,-12.874895)" /><path
     style="opacity:1;fill:#af52de;fill-opacity:1;fill-rule:nonzero;stroke:none;stroke-width:5.31914902;stroke-linecap:round;stroke-linejoin:round;stroke-miterlimit:4;stroke-dasharray:none;stroke-dashoffset:0;stroke-opacity:1"
     d="m 168.02514,73.742114 c 0,-0.403008 -0.35904,-1.030721 -0.79787,-1.394917 -0.43883,-0.364197 -0.79787,-1.098337 -0.79787,-1.631423 0,-0.533087 -1.21788,-2.168071 -2.7064,-3.633298 -1.48853,-1.465227 -2.55458,-2.909704 -2.36902,-3.209948 0.18556,-0.300244 0.0633,-1.058058 -0.27173,-1.684031 -0.5488,-1.025452 -0.2221,-1.517456 3.29987,-4.969507 2.14994,-2.107256 6.42228,-5.473147 9.49409,-7.479756 9.6334,-6.292861 21.5013,-11.919101 22.67217,-10.748235 0.39805,0.398047 -6.168,10.410729 -10.36319,15.803006 -1.93465,2.486702 -5.79482,6.916841 -8.57816,9.844753 -2.78333,2.927912 -5.95759,6.338817 -7.05391,7.579787 -2.14625,2.429449 -2.52798,2.65951 -2.52798,1.523569 z"
     id="path1849"
     inkscape:connector-curvature="0"
     transform="translate(1e-6,-12.874895)" /><path
     style="opacity:1;fill:#5856d6;fill-opacity:1;fill-rule:nonzero;stroke:none;stroke-width:5.31914902;stroke-linecap:round;stroke-linejoin:round;stroke-miterlimit:4;stroke-dasharray:none;stroke-dashoffset:0;stroke-opacity:1"
     d="m 36.11025,64.849915 c 0,-1.701528 -2.987366,-7.7689 -6.209328,-12.611209 C 25.81678,46.100618 20.830595,40.943081 16.057241,37.919278 13.875833,36.53741 12.341823,35.323197 12.64833,35.221028 c 0.781702,-0.260567 13.03831,5.144993 18.002853,7.93984 2.832442,1.594556 5.632755,3.8404 8.916514,7.151022 2.632979,2.654518 5.265958,5.096865 5.851064,5.427439 1.039008,0.587019 1.032803,0.622079 -0.265958,1.502631 -0.731383,0.495874 -3.065159,2.643782 -5.18617,4.773129 -2.853107,2.864321 -3.856383,3.601829 -3.856383,2.834826 z"
     id="path1851"
     inkscape:connector-curvature="0"
     transform="translate(1e-6,-12.874895)" /><path
     style="opacity:1;fill:#5856d6;fill-opacity:1;fill-rule:nonzero;stroke:none;stroke-width:5.31914902;stroke-linecap:round;stroke-linejoin:round;stroke-miterlimit:4;stroke-dasharray:none;stroke-dashoffset:0;stroke-opacity:1"
     d="m 165.12454,73.778195 c -1.44905,-2.371232 -4.08203,-5.815992 -5.85106,-7.655023 -1.76903,-1.839031 -3.85769,-4.061613 -4.64147,-4.939071 l -1.42504,-1.595378 1.14446,-0.801614 c 0.62946,-0.440888 1.45025,-0.801615 1.82398,-0.801615 1.32661,0 0.64419,-0.843641 -1.99555,-2.466978 l -2.67506,-1.645066 3.15802,-2.923775 c 10.2597,-9.49867 25.58287,-15.529201 40.53915,-15.954442 1.58719,-0.04513 2.82153,0.941735 2.27796,1.821248 -0.48472,0.784289 -1.77308,0.453677 -1.45565,-0.37354 0.16839,-0.43883 0.20281,-0.797872 0.0765,-0.797872 -0.50761,0 -7.76025,2.614706 -10.17153,3.667016 -1.41606,0.617984 -2.79629,0.986624 -3.06719,0.8192 -0.89304,-0.551931 0.091,-1.294727 1.71526,-1.294727 0.92838,0 1.45826,-0.222454 1.267,-0.531915 -0.18081,-0.292553 -1.30338,-0.531915 -2.4946,-0.531915 -2.15494,0 -2.16442,0.0089 -1.87989,1.762281 0.28411,1.750759 0.25414,1.779209 -4.58466,4.351761 -5.45264,2.898905 -7.5619,4.498082 -14.03552,10.641278 -3.22387,3.059326 -4.86964,4.255319 -5.85559,4.255319 -2.19015,0 -1.96777,1.092198 0.51913,2.549617 1.50017,0.879157 2.33031,1.750938 2.38727,2.506996 0.048,0.637524 1.29732,2.817538 2.77623,4.844476 1.4789,2.026937 2.68891,3.898339 2.68891,4.158671 0,0.260333 0.71656,1.076279 1.59236,1.813215 1.20202,1.011429 1.4954,1.596455 1.19681,2.386533 -0.32956,0.872027 -0.83512,0.327348 -3.0302,-3.26468 z"
     id="path1853"
     inkscape:connector-curvature="0"
     transform="translate(1e-6,-12.874895)" /><path
     style="opacity:1;fill:#f2f2f7;fill-opacity:1;fill-rule:nonzero;stroke:none;stroke-width:5.31914902;stroke-linecap:round;stroke-linejoin:round;stroke-miterlimit:4;stroke-dasharray:none;stroke-dashoffset:0;stroke-opacity:1"
     d="m 54.41793,95.768019 c -4.615462,-1.86715 -6.748338,-10.990682 -4.761381,-20.367158 0.882499,-4.164526 1.498686,-5.194769 4.205718,-7.03181 3.40014,-2.307398 5.841507,-1.692979 8.015914,2.017366 1.747838,2.982461 2.5207,8.45775 1.886501,13.364788 -1.294837,10.018622 -4.404234,14.016273 -9.346752,12.016814 z"
     id="path1855"
     inkscape:connector-curvature="0"
     transform="translate(1e-6,-12.874895)" /><path
     style="opacity:1;fill:#f2f2f7;fill-opacity:1;fill-rule:nonzero;stroke:none;stroke-width:5.31914902;stroke-linecap:round;stroke-linejoin:round;stroke-miterlimit:4;stroke-dasharray:none;stroke-dashoffset:0;stroke-opacity:1"
     d="m 129.40054,99.411418 c -1.75668,-1.833576 -1.53201,-2.217937 0.89036,-1.52321 2.27464,0.652358 2.62786,0.652971 2.62786,0.0046 0,-0.28504 -0.75068,-0.906447 -1.66818,-1.380904 -1.37939,-0.71331 -1.88271,-0.747836 -2.9074,-0.199439 -1.4746,0.789181 -2.43686,0.188717 -3.82034,-2.383937 -1.1054,-2.055541 -1.29221,-11.572131 -0.2477,-12.617797 0.3657,-0.366094 0.6649,-1.5752 0.6649,-2.686902 0,-1.111702 0.23936,-2.021276 0.53191,-2.021276 0.29256,0 0.53192,-0.326763 0.53192,-0.726139 0,-0.399377 0.47872,-1.334737 1.06383,-2.07858 0.5851,-0.743842 1.06383,-1.856768 1.06383,-2.473168 0,-0.693592 0.65886,-1.522442 1.72872,-2.174752 4.65328,-2.837161 9.12693,0.337503 10.39859,7.37923 l 0.51507,2.852124 -1.79017,-0.290505 c -2.12334,-0.34457 -2.99173,0.519832 -1.01951,1.014828 1.72072,0.431874 2.81847,2.221345 1.64008,2.673538 -0.7201,0.276326 -0.71927,0.397601 0.008,1.124523 0.44814,0.448136 0.67324,1.183676 0.50023,1.634533 -0.17301,0.450858 -0.009,1.008432 0.3639,1.239054 0.54033,0.333945 0.544,0.553774 0.018,1.07976 -0.36324,0.363246 -0.66045,1.435892 -0.66045,2.383657 0,1.602043 -0.14025,1.7369 -1.99468,1.917904 l -1.99468,0.194694 1.72873,0.687322 c 1.93229,0.768262 2.01097,0.963926 0.95046,2.363678 -0.40943,0.540405 -0.64091,1.25849 -0.51441,1.595745 0.12651,0.337256 -0.33201,1.313776 -1.01893,2.170045 -1.02008,1.271566 -1.69636,1.575706 -3.69057,1.659736 -2.06406,0.087 -2.66699,-0.13234 -3.89903,-1.418325 z"
     id="path1857"
     inkscape:connector-curvature="0"
     transform="translate(1e-6,-12.874895)" /><path
     style="opacity:1;fill:#f2f2f7;fill-opacity:1;fill-rule:nonzero;stroke:none;stroke-width:3.49650359;stroke-linecap:round;stroke-linejoin:round;stroke-miterlimit:4;stroke-dasharray:none;stroke-dashoffset:0;stroke-opacity:1"
     d="m 30.440707,60.055127 c -0.230769,-0.230769 -0.41958,-0.858285 -0.41958,-1.394479 0,-0.750437 -0.151274,-0.955722 -0.657021,-0.891609 -0.471718,0.0598 -1.359244,-0.882859 -3.146853,-3.342334 -2.639597,-3.631679 -3.201001,-4.98791 -1.641826,-3.9663 0.632666,0.414539 0.886877,0.446948 1.001082,0.127626 0.196821,-0.550322 0.115436,-0.64525 2.780614,3.24332 2.032853,2.96599 3.761906,5.932663 3.761906,6.454602 0,0.360033 -1.260876,0.18662 -1.678322,-0.230826 z"
     id="path1859"
     inkscape:connector-curvature="0"
     transform="translate(1e-6,-12.874895)" /><path
     style="opacity:1;fill:#f2f2f7;fill-opacity:1;fill-rule:nonzero;stroke:none;stroke-width:3.49650359;stroke-linecap:round;stroke-linejoin:round;stroke-miterlimit:4;stroke-dasharray:none;stroke-dashoffset:0;stroke-opacity:1"
     d="m 20.309435,47.583549 c -1.682839,-2.266536 -4.746984,-6.132045 -5.950768,-7.507068 -0.646316,-0.738256 -1.096444,-1.420958 -1.000286,-1.517117 0.09616,-0.09616 1.032496,0.458758 2.08075,1.233148 1.576606,1.164707 1.877947,1.554282 1.744052,2.254714 -0.129576,0.677829 0.164057,1.113799 1.472014,2.185572 1.255835,1.029062 1.768726,1.261132 2.216687,1.002996 0.464564,-0.267704 0.949298,0.05588 2.389162,1.594892 l 1.806353,1.930735 -1.907631,0.0459 c -1.808673,0.04352 -1.956534,-0.01996 -2.850333,-1.223776 z"
     id="path1861"
     inkscape:connector-curvature="0"
     transform="translate(1e-6,-12.874895)" /><path
     style="opacity:1;fill:#f2f2f7;fill-opacity:1;fill-rule:nonzero;stroke:none;stroke-width:3.49650359;stroke-linecap:round;stroke-linejoin:round;stroke-miterlimit:4;stroke-dasharray:none;stroke-dashoffset:0;stroke-opacity:1"
     d="m 150.12602,56.278903 c -0.55273,-0.576923 -1.21153,-1.048951 -1.46402,-1.048951 -0.25248,0 -0.45906,-0.137675 -0.45906,-0.305944 0,-0.168269 -0.5034,-0.406625 -1.11867,-0.529679 -0.98108,-0.196217 -1.05584,-0.286561 -0.60785,-0.734554 0.68614,-0.686145 3.12513,-0.32338 3.12513,0.46482 0,0.303269 0.58263,1.148066 1.29473,1.877328 0.82849,0.848451 1.10387,1.325931 0.76472,1.325931 -0.29151,0 -0.98225,-0.472028 -1.53498,-1.048951 z"
     id="path1865"
     inkscape:connector-curvature="0"
     transform="translate(1e-6,-12.874895)" /></svg>